<?xml version="1.0" encoding="utf-8"?>
<!-- Generator: Adobe Illustrator 27.3.1, SVG Export Plug-In . SVG Version: 6.00 Build 0)  -->
<svg version="1.1" id="Layer_2_00000152263057339515039030000010984504157566441117_"
	 xmlns="http://www.w3.org/2000/svg" xmlns:xlink="http://www.w3.org/1999/xlink" x="0px" y="0px" viewBox="0 0 500.5 500.5"
	 style="enable-background:new 0 0 500.5 500.5;" xml:space="preserve">
<style type="text/css">
	.st0{fill:#FFFFFF;}
</style>
<g id="Layer_2-2">
	<g id="Layer_1-2">
		<path class="st0" d="M499.7,256.9v-10c0.2-0.3,0.3-0.3,0.4,0v9.9C500.1,257.2,499.9,257.2,499.7,256.9z"/>
		<path class="st0" d="M247.9,499.8h6c0.3,0.2,0.3,0.3,0,0.5H248C247.6,500.1,247.6,500,247.9,499.8L247.9,499.8z"/>
		<path class="st0" d="M500.2,247h-0.4c0.2-1.6-0.6-3.4,0.4-4.9V247z"/>
		<path class="st0" d="M500.2,241.1c-0.8-1-0.8-2.4,0-3.5V241.1z"/>
		<path class="st0" d="M499.8,262.9v-3.5c0.1-0.4,0.2-0.4,0.4,0v3.5C500.1,263.2,499.9,263.2,499.8,262.9z"/>
		<path class="st0" d="M241,499.8h3.5c0.4,0.1,0.4,0.3,0,0.4H241C240.6,500.2,240.6,500,241,499.8z"/>
		<path class="st0" d="M244.4,500.3c0-0.1,0-0.3,0-0.4h3.5c0,0.1,0,0.3,0,0.5L244.4,500.3L244.4,500.3z"/>
		<path class="st0" d="M499.8,262.9c0.1,0,0.3,0,0.4,0v3C499.2,264.9,499.9,263.8,499.8,262.9z"/>
		<path class="st0" d="M253.9,500.3v-0.5h3c0.3,0.1,0.3,0.3,0,0.4L253.9,500.3L253.9,500.3z"/>
		<path class="st0" d="M259.3,499.8c1,0.1,2.1-0.6,2.9,0.4h-3C258.9,500.1,259,500,259.3,499.8z"/>
		<path class="st0" d="M500.2,259.4c-0.1,0-0.3,0-0.4,0l-0.1-2.5c0.2,0,0.3,0,0.5,0V259.4L500.2,259.4z"/>
		<path class="st0" d="M241,499.8c0,0.1,0,0.3,0,0.4h-2.4v-0.4H241L241,499.8z"/>
		<path class="st0" d="M259.3,499.8v0.4h-2.5v-0.4H259.3L259.3,499.8z"/>
		<path class="st0" d="M244.6,484.3h11.8c0.3,0.2,0.3,0.3,0,0.5h-11.8C244.4,484.6,244.4,484.5,244.6,484.3L244.6,484.3z"/>
		<path class="st0" d="M487.4,252.9v-9c0.2-0.2,0.3-0.2,0.4,0.1v9C487.7,253.2,487.5,253.2,487.4,252.9L487.4,252.9z"/>
		<path class="st0" d="M487.8,243.9l-0.4-0.1v-3.7c0.2-0.3,0.3-0.3,0.4,0V243.9L487.8,243.9z"/>
		<path class="st0" d="M487.4,233.1c0.1,0,0.3,0,0.4,0v3.3C487,235.4,487.4,234.2,487.4,233.1z"/>
		<path class="st0" d="M487.4,252.9c0.1,0,0.3,0,0.5,0v3.3c-0.1,0.3-0.2,0.3-0.4,0C487.4,255.1,487.4,254,487.4,252.9L487.4,252.9z"
			/>
		<path class="st0" d="M265.9,484.3v0.4h-3.3C263.6,483.9,264.8,484.3,265.9,484.3z"/>
		<path class="st0" d="M487.8,240.2h-0.4c0.1-0.9-0.5-2,0.4-2.8V240.2z"/>
		<path class="st0" d="M487.4,256.2h0.4v2.8C486.9,258.2,487.5,257.2,487.4,256.2L487.4,256.2z"/>
		<path class="st0" d="M487.8,263.3h-0.4c0-1-0.5-2,0.4-2.9V263.3z"/>
		<path class="st0" d="M234.8,484.7v-0.4c1,0,2-0.4,2.9,0.4H234.8z"/>
		<path class="st0" d="M239,484.7c0.8-0.9,1.8-0.3,2.8-0.4c0.4,0.1,0.4,0.2,0.1,0.4H239L239,484.7z"/>
		<path class="st0" d="M241.9,484.7c0-0.1,0-0.3-0.1-0.4h2.8v0.4H241.9L241.9,484.7z"/>
		<path class="st0" d="M256.5,484.7c0-0.2,0-0.3,0-0.5c0.9,0.1,2-0.3,2.8,0.5H256.5z"/>
		<path class="st0" d="M499.7,242.5v-3l0.2-0.3l0.2,0.4v3C500,242.9,499.8,242.8,499.7,242.5L499.7,242.5z"/>
		<path class="st0" d="M499.7,261.4v-3c0.1-0.4,0.2-0.4,0.4,0v3l-0.2,0.4L499.7,261.4L499.7,261.4z"/>
		<path class="st0" d="M239.4,499.8h3c0.4,0.1,0.4,0.2,0,0.4h-3L239,500L239.4,499.8L239.4,499.8z"/>
		<path class="st0" d="M258.3,499.8h3l0.3,0.2l-0.4,0.2h-3C257.9,500,258,499.9,258.3,499.8L258.3,499.8z"/>
		<path class="st0" d="M499.7,234.5c0.1,0,0.3,0,0.4,0v2.5c-0.2,0.3-0.3,0.3-0.4,0C499.7,236.2,499.7,235.4,499.7,234.5z"/>
		<path class="st0" d="M499.7,237c0.1,0,0.3,0,0.4,0v2.5c-0.1,0-0.3,0-0.4,0V237z"/>
		<path class="st0" d="M499.7,242.5c0.1,0,0.3,0,0.4,0v2.5C499.7,244.2,499.6,243.3,499.7,242.5z"/>
		<path class="st0" d="M500.2,258.4h-0.4c-0.2-0.9,0-1.8,0.4-2.5V258.4z"/>
		<path class="st0" d="M499.7,261.4c0.1,0,0.3,0,0.4,0v2.5l-0.2,0.4l-0.2-0.3L499.7,261.4L499.7,261.4z"/>
		<path class="st0" d="M499.7,263.8c0.1,0,0.3,0,0.4,0v2.5h-0.4C499.7,265.5,499.7,264.7,499.7,263.8z"/>
		<path class="st0" d="M234.5,500.2v-0.4h2.5c0.4,0.1,0.4,0.2,0,0.4H234.5L234.5,500.2z"/>
		<path class="st0" d="M237,500.2v-0.4h2.5v0.4H237L237,500.2z"/>
		<path class="st0" d="M242.4,500.2v-0.4c0.9-0.2,1.8,0,2.5,0.4H242.4z"/>
		<path class="st0" d="M258.3,499.8v0.4h-2.5C256.6,499.8,257.5,499.6,258.3,499.8z"/>
		<path class="st0" d="M261.3,500.2v-0.4h2.5l0.3,0.2l-0.4,0.2L261.3,500.2L261.3,500.2z"/>
		<path class="st0" d="M263.7,500.2v-0.4h2.5v0.4H263.7L263.7,500.2z"/>
		<path class="st0" d="M500.2,245c-0.5-0.9-0.1-1.8-0.2-2.7v-7.6c0-2.3-0.1-4.6-0.3-6.9c-0.1-5.9-0.5-11.9-1.4-17.8
			c-5-30.4-15.5-59.6-31.1-86.2c-8.9-15.3-19.4-29.6-31.4-42.6c-7.1-7.7-14.6-15-22.6-21.9c-14.1-12-29.5-22.4-45.8-31.1
			c-16.6-8.8-34.3-15.7-52.5-20.5c-11-3-22.2-5.2-33.5-6.4c-5.9-0.5-11.9-0.6-17.8-0.8c-14.5-0.6-29-0.3-43.5,0.8
			c-15.9,1.3-31.3,5.1-46.4,9.9c-24.4,7.9-47.4,19.4-68.3,34.2C86.5,58.8,69.5,74.8,54.9,92.9c-14.6,18-26.7,38.1-35.7,59.5
			C6.9,181.2,0,211.2,0.3,242.7c0.1,8-0.1,16,0.2,24c0.1,8.1,0.8,16.1,1.9,24.1c5,30.3,15.5,59.5,31,86
			c8.9,15.4,19.5,29.7,31.5,42.8c7.1,7.7,14.6,15,22.6,21.9c26.9,23,58.4,40,92.3,50c17.9,5.2,36.1,8.6,54.8,8.5h7.6
			c0.9,0.1,1.8-0.3,2.7,0.2h10.9c0.9-0.5,1.8-0.1,2.7-0.2h7.6c2.5,0,5.1,0,7.6-0.3c5.7-0.1,11.4-0.6,17.1-1.4
			c30.5-5,59.8-15.6,86.4-31.2c15.2-8.9,29.4-19.3,42.3-31.3c7.7-7.1,15-14.6,21.9-22.6c11.6-13.6,21.8-28.5,30.3-44.3
			c8.1-15.1,14.7-31.1,19.6-47.6c5.3-18.1,8.7-36.4,8.6-55.3v-7.6c0.1-0.9-0.3-1.8,0.2-2.7L500.2,245L500.2,245z M418.4,392.2
			c-55.7-0.1-111.4-0.1-167-0.1c-55.5,0-111,0-166.5,0.1c-2.5,0-3.1-0.6-3.1-3.1c0.1-52.6,0.1-105.2,0-157.8c0-1.5,0.3-2.9,0.9-4.3
			c20.8-44.4,41.5-88.9,62.2-133.4c0.6-1.8,2.4-2.9,4.2-2.7c68.3,0.1,136.6,0.1,205,0c1.9-0.2,3.6,0.9,4.2,2.7
			c20.6,44.3,41.2,88.5,61.9,132.7c0.8,1.7,1.2,3.6,1.2,5.4c0,52.4,0,104.9,0,157.3C421.4,391.5,420.9,392.2,418.4,392.2
			L418.4,392.2L418.4,392.2z"/>
		<path class="st0" d="M395,222.6H111.3c-0.4,0-0.8,0-1.2,0c-1.4,0.1-2-0.2-1.2-1.8c5.5-11.9,11-23.8,16.4-35.8c0.5-1,1-1.6,2.2-1.5
			c0.6,0,1.2,0,1.7,0H373c2.4,0,3.6,0.7,4.6,2.9c5.2,11.2,10.6,22.3,16,33.5C394.1,220.6,394.4,221.4,395,222.6L395,222.6z"/>
		<path class="st0" d="M249.6,147.2h-112c-2,0-2.6-0.9-1.8-2.6c4-8.9,8.1-17.7,12.1-26.6c0.4-1.4,1.7-2.2,3.2-2.1
			c65.5,0,131,0,196.5,0c1.5-0.2,2.9,0.8,3.3,2.2c4.2,8.9,8.5,17.7,12.7,26.5c1.2,2.5,1.2,2.5-1.7,2.5L249.6,147.2L249.6,147.2z"/>
		<path class="st0" d="M250.8,317.7h-50.3c-2,0-2.7-0.3-1.6-2.4c1.7-3.3,3.2-6.7,4.6-10.1c0.6-1.6,1.6-2,3.2-2c29.4,0,58.8,0,88.2,0
			c1.6-0.2,3,0.8,3.5,2.3c1.5,3.3,3,6.6,4.7,9.8c1,2,0.7,2.4-1.5,2.4C284.7,317.7,267.8,317.7,250.8,317.7L250.8,317.7z"/>
	</g>
</g>
</svg>
