<?xml version="1.0" encoding="utf-8"?>
<!-- Generator: Adobe Illustrator 27.3.1, SVG Export Plug-In . SVG Version: 6.00 Build 0)  -->
<svg version="1.1" id="Layer_2_00000016773287035736525980000009185582051198307722_"
	 xmlns="http://www.w3.org/2000/svg" xmlns:xlink="http://www.w3.org/1999/xlink" x="0px" y="0px" viewBox="0 0 509.3 512.5"
	 style="enable-background:new 0 0 509.3 512.5;" xml:space="preserve">
<style type="text/css">
	.st0{fill:#FFFFFF;}
</style>
<g>
	<path class="st0" d="M248.7,503.9h12.4c0.3,0.2,0.3,0.3,0,0.5h-12.3C248.5,504.3,248.4,504.1,248.7,503.9z"/>
	<path class="st0" d="M502.3,262.3c0-3.1,0-6.3,0-9.4c0.2-0.2,0.3-0.2,0.4,0.1v9.4C502.6,262.5,502.5,262.6,502.3,262.3L502.3,262.3
		z"/>
	<path class="st0" d="M502.8,252.9l-0.4-0.1v-3.9c0.2-0.3,0.3-0.3,0.5,0L502.8,252.9L502.8,252.9z"/>
	<path class="st0" d="M502.4,241.5c0.1,0,0.3,0,0.4,0v3.4C501.9,243.9,502.4,242.7,502.4,241.5z"/>
	<path class="st0" d="M502.3,262.3c0.2,0,0.3,0,0.5,0v3.4c-0.1,0.4-0.3,0.4-0.4,0C502.3,264.5,502.3,263.3,502.3,262.3L502.3,262.3z
		"/>
	<path class="st0" d="M271,504v0.4h-3.5C268.6,503.5,269.8,504,271,504z"/>
	<path class="st0" d="M502.8,248.9h-0.5c0.1-1-0.5-2.1,0.5-2.9V248.9z"/>
	<path class="st0" d="M502.3,265.7h0.4v3C501.9,267.7,502.4,266.7,502.3,265.7z"/>
	<path class="st0" d="M502.8,273.1h-0.4c0-1-0.5-2.1,0.4-3V273.1z"/>
	<path class="st0" d="M238.5,504.4v-0.4c1,0,2.1-0.4,3,0.4H238.5z"/>
	<path class="st0" d="M242.9,504.4c0.9-0.9,1.9-0.4,2.9-0.4c0.4,0.1,0.4,0.2,0.1,0.4H242.9z"/>
	<path class="st0" d="M245.8,504.4c0-0.1,0-0.3-0.1-0.4h3c0,0.1,0,0.3,0.1,0.5L245.8,504.4z"/>
	<path class="st0" d="M261.1,504.4c0-0.2,0-0.3,0-0.5c1,0.1,2.1-0.3,2.9,0.5H261.1L261.1,504.4z"/>
	<path class="st0" d="M502.8,245c-0.5-1.1-0.1-2.3-0.2-3.4c-0.3-7.8-0.4-15.5-1.6-23.2c-4.9-31.7-15.8-62.1-32.3-89.6
		c-9.6-16.1-21-31.1-34-44.7c-7.3-7.7-15.1-14.8-23.3-21.4c-12.8-10.4-26.6-19.5-41.2-27.1c-18.8-9.8-38.7-17.1-59.4-21.9
		c-14.7-3.5-29.8-5.3-45-5.3c-6.6,0-13.3-0.2-19.9,0c-10.4,0.1-20.8,0.9-31.1,2.4c-24.1,3.9-47.6,11.4-69.5,22.2
		c-8,3.9-15.8,8.3-23.4,13.1c-12.8,8-24.8,17.2-35.8,27.5c-8.4,7.8-16.3,16.1-23.7,25c-10.6,12.8-19.9,26.7-27.7,41.4
		c-8.6,16.1-15.4,33.2-20.2,50.8C9.7,208,6.6,225.8,6.6,244c0,7.1-0.3,14.2-0.1,21.4c0.3,9.3,0.5,18.6,1.9,27.9
		c2.7,18.5,7.6,36.6,14.4,54c12,30.4,29.7,58.1,52.3,81.7c6.3,6.6,13.1,12.9,20.1,18.8c29.6,24.8,64.6,42.3,102.1,51.2
		c13.4,3.3,27.2,5.1,41.1,5.3c1,0.1,2-0.3,3,0.2h1.5c1.1-0.5,2.2-0.1,3.2-0.2h14.6c1.1,0.1,2.3-0.2,3.4,0.2h3.5
		c1.1-0.5,2.3-0.1,3.4-0.2c7.6-0.4,15.2-0.4,22.7-1.6c29.8-4.7,58.5-14.8,84.6-29.8c16.5-9.4,31.9-20.7,45.9-33.7
		c21.7-20.1,39.7-43.9,53.1-70.2c7.3-14.2,13.1-29.2,17.4-44.6c4.8-16.8,7.9-33.8,7.9-51.3c0.1-1-0.3-2,0.2-3v-1.5
		c-0.5-1.1-0.1-2.2-0.2-3.2v-16.2c0.1-1.1-0.2-2.2,0.2-3.2L502.8,245L502.8,245z M417.4,293.6c-9.5,33.3-31.7,54.7-64.4,65.5
		c-14.4,4.8-29.2,6.7-44.3,6.7c-18,0.1-36.1,0-55.9,0c-16.7,0.1-35.2,0.3-53.6,0c-29.1-0.4-55.2-9-77-28.8
		c-20-18.1-31.4-40.8-33.9-67.6c-3.3-34.1,6.8-63.9,30.5-88.7c18.6-19.5,41.8-30.3,68.6-32.9c14.9-1.4,29.8-1.4,44.7-1.7
		c25.7-0.4,51.3,0.2,77,0.8c19.1,0.4,37.7,3.5,55.1,12c25,12.2,42.2,31.6,51.1,57.9C424,241.7,424.7,268.5,417.4,293.6L417.4,293.6z
		"/>
	<path class="st0" d="M256.4,321.4c-20.9-0.4-41.8,0.3-62.7-0.3c-8.6-0.2-17-1.1-25.1-4.1c-14.7-5.4-24.6-15.7-29.9-30.3
		c-6.3-16.8-7.1-35.2-2.4-52.5c6.3-23.1,22-36.3,45.5-39.9c13.9-2.2,28.1-2.2,42.2-2.6c21.8-0.7,43.6-0.3,65.4,0.3
		c12.4,0.3,24.8,0.1,37.1,1.3c21.8,2.1,38.1,12.4,46.8,33.1c4.5,10.7,5.8,21.9,5.7,33.5c0.1,9-1.4,17.9-4.3,26.3
		c-6.9,19.1-20.8,29.8-40.5,33.5c-10.5,2-21.2,1.5-31.9,1.6C286.9,321.5,271.6,321.4,256.4,321.4L256.4,321.4z"/>
</g>
</svg>
