<?xml version="1.0" encoding="utf-8"?>
<!-- Generator: Adobe Illustrator 27.3.1, SVG Export Plug-In . SVG Version: 6.00 Build 0)  -->
<svg version="1.1" id="Layer_2_00000067921797960195485550000006603049384247071634_"
	 xmlns="http://www.w3.org/2000/svg" xmlns:xlink="http://www.w3.org/1999/xlink" x="0px" y="0px" viewBox="0 0 497.7 497.9"
	 style="enable-background:new 0 0 497.7 497.9;" xml:space="preserve">
<style type="text/css">
	.st0{fill:#FFFFFF;}
</style>
<g id="Layer_2-2">
	<g id="Layer_1-2">
		<path class="st0" d="M493.7,239.3v9.7c-0.3,0.1-0.6,0.1-0.8-0.2c0,0,0,0,0,0c-0.7-3-0.7-6.2,0-9.2
			C493.1,239.3,493.4,239.2,493.7,239.3C493.7,239.3,493.7,239.3,493.7,239.3L493.7,239.3z"/>
		<path class="st0" d="M245.7,0h7.8c0.1,0.2,0.1,0.6-0.2,0.7c0,0,0,0,0,0c-2.4,0.7-4.9,0.7-7.4,0C245.7,0.6,245.6,0.3,245.7,0
			L245.7,0L245.7,0z"/>
		<path class="st0" d="M245.7,0v0.4c-1.6,1.2-3.3,0.9-5.1,0.3c-0.3-0.1-0.4-0.5-0.2-0.7c0,0,0,0,0,0L245.7,0L245.7,0z"/>
		<path class="st0" d="M266,0v0.6c-1.4,0.8-3.1,0.9-4.6,0.2c-0.3-0.1-0.4-0.5-0.2-0.7l0,0H266L266,0z"/>
		<path class="st0" d="M253.5,0.5c0-0.2,0-0.3,0-0.5h4.8c0.2,0.2,0.1,0.6-0.2,0.7c0,0,0,0,0,0C256.5,1.3,255,1.6,253.5,0.5
			L253.5,0.5z"/>
		<path class="st0" d="M493.3,249h0.5v4.4c-0.2,0.2-0.6,0.1-0.7-0.2c0,0,0,0,0,0C492.5,251.7,492.2,250.3,493.3,249L493.3,249z"/>
		<path class="st0" d="M233.1,0.5V0h4.4c0.1,0.2,0.1,0.6-0.2,0.7c0,0,0,0,0,0C236,1.4,234.4,1.3,233.1,0.5L233.1,0.5z"/>
		<path class="st0" d="M493.7,239.3h-0.5c-1-1.3-0.8-2.7-0.3-4.1c0.1-0.3,0.5-0.4,0.7-0.2c0,0,0,0,0,0V239.3z"/>
		<path class="st0" d="M493.3,253.4c0.1,0,0.3,0,0.4,0v2.9h-0.5c-0.8-0.7-0.9-2-0.1-2.8C493.2,253.5,493.3,253.4,493.3,253.4z"/>
		<path class="st0" d="M258.3,0.4V0h2.9c0,0.1,0,0.3,0,0.4c-0.7,0.8-1.9,0.9-2.7,0.2C258.4,0.6,258.4,0.5,258.3,0.4L258.3,0.4z"/>
		<path class="st0" d="M237.5,0.4V0h2.9c0,0.2,0,0.3,0,0.4c-0.7,0.8-2,0.8-2.8,0.1C237.6,0.5,237.5,0.5,237.5,0.4z"/>
		<path class="st0" d="M493.7,234.9h-0.4c-0.8-0.7-0.8-2-0.1-2.8c0,0,0.1-0.1,0.1-0.1h0.5L493.7,234.9L493.7,234.9z"/>
		<path class="st0" d="M492.8,263c-0.2-1.5,0-3,0.4-4.5C493.2,260.1,493.6,261.6,492.8,263z"/>
		<path class="st0" d="M493.2,229.7c-0.4-1.4-0.6-2.9-0.4-4.4C493.6,226.7,493.2,228.2,493.2,229.7z"/>
		<path class="st0" d="M160.9,274.1c0.2,0.5,0.6,0.5,1,0.5c-0.6,0.9-1.7,1-2.9,1.7C159.4,275.4,160,274.6,160.9,274.1z"/>
		<path class="st0" d="M174,274.1c0.2,0.5,0.6,0.5,1,0.5c-0.7,0.8-1.8,1.1-2.9,0.9C172.6,274.9,173.2,274.4,174,274.1L174,274.1z"/>
		<path class="st0" d="M187.5,239.3c0.2,0.4,0.5,0.4,0.9,0.4c-0.4,0.5-0.9,1.3-1.5,0.8S187.1,239.6,187.5,239.3L187.5,239.3z"/>
		<path class="st0" d="M180.7,85.4c0.4-0.2,1-0.1,1.2-0.7c0.4,0.2,0.7,0.6,0.4,0.9C181.8,86,181.2,85.8,180.7,85.4L180.7,85.4z"/>
		<path class="st0" d="M189.6,123.9l0.5-1c0.5,0.6,0.8,1.2,0.1,1.7C189.9,124.9,189.7,124.3,189.6,123.9z"/>
		<path class="st0" d="M192.4,438l1,0.9c-0.7,0.1-1.4,0-1.7-0.7C191.6,438,192.2,437.9,192.4,438L192.4,438z"/>
		<path class="st0" d="M248.9,0.2C111.4,0.2,0,111.6,0,249s111.4,248.9,248.9,248.9S497.7,386.5,497.7,249S386.2,0.2,248.9,0.2z
			 M325.4,129.7c21.3,5.5,42.2,12.7,62.4,21.6c0.4,0.2,0.7,0.4,1.6,1c-27.6,6.4-54.1,14.2-79.6,24.7c-0.6-1.1,0.1-1.7,0.4-2.4
			c6.3-13.6,10.9-27.8,12.4-42.8C322.8,130,323.4,129.2,325.4,129.7L325.4,129.7z M317.2,131.2c-1,6.5-3.2,12.6-5.6,18.7
			c-3.7,8.9-8,17.6-12.9,26c-1.7,3-2.2,3.1-5.1,1.4c-8.7-4.9-17.7-9.3-26.9-13c-0.5-0.2-0.9-0.4-1.3-0.6c-2.5-1.2-2.6-2-0.3-3.7
			c5-3.9,10.3-7.5,15.8-10.8c11.3-6.7,22.7-13.1,34.3-19.4C317,128.7,317.5,129.2,317.2,131.2L317.2,131.2z M256.7,263.4
			c0.1-2.1,0.8-2.6,2.8-1.7c1.2,0.5,2.3,1.1,3.4,1.8c12.4,7.7,25.1,14.9,38.2,21.4c0.7,0.4,1.5,0.6,1.8,1.3c-0.4,1-1.1,1.3-1.8,1.8
			c-8.4,5.8-17.1,11-26.2,15.6c-7.6,3.9-15.4,7.5-23.1,11c-0.6,0.3-1.3,0.9-2,0.3s-0.4-1.2-0.2-2c4.6-15.3,7-31.2,7.1-47.2
			C256.8,265,256.7,264.2,256.7,263.4L256.7,263.4L256.7,263.4z M266.1,258.2c3.7-1.3,6.8-2.5,10-3.5c7.5-2.4,14.9-4.6,22.4-7.1
			c2-0.7,3-0.3,3.2,1.9c1.3,10.1,2.1,20.2,2.3,30.4c0,1.5-0.1,2.1-1.8,1.2C290,274.2,278.3,266.5,266.1,258.2L266.1,258.2
			L266.1,258.2z M294.8,349.1c0.9,0.3,1.7,0.6,3,1c-2.9,1.8-5.9,3.3-9,4.7c-21.3,9.6-43.2,17.9-65.1,26.1c-0.5,0.2-1,0.7-1.5,0.1
			s0.1-1,0.4-1.5c8.4-15.5,15.6-31.7,21.4-48.3c0.6-1.9,1.5-2.8,3.5-1.6C262.4,338.3,278.5,344,294.8,349.1L294.8,349.1L294.8,349.1
			z M188.7,277.7c-4,1.8-7.9,3.6-11.9,5.4c-0.6,0.3-1,0.3-1-0.5c11.8-8.8,22.8-18.5,33.2-28.9c4.7-4.8,9.2-9.8,13.4-15
			c1.8-2.2,1.9-2.2,3.4,0c3.6,5.3,6.2,11.2,7.5,17.4c0.6,2.6,0,3.5-2.9,4.6C216.3,266.1,202.4,271.6,188.7,277.7L188.7,277.7z
			 M207.2,285c5.9,13.2,14.7,24.8,25.8,34.1c2.3,2,2.3,2.3-0.5,3.4c-18.5,7.1-37.3,13.6-56.1,19.8c-0.6,0.3-1.3,0.3-1.9,0
			c0.2-1,0.6-1.9,1.2-2.6c10.6-17.3,19.1-35.7,26.6-54.5c0.6-1.4,0.2-3.7,2.4-3.6C206.7,281.6,206.6,283.7,207.2,285L207.2,285
			L207.2,285z M163.6,283c-0.6,0.4-1,0.3-1-0.6c4.2-5.1,8.6-10,12.7-15.2c2.9-3.5,6.3-6.5,10.1-8.9c7.1-4.8,14-9.9,21.3-14.3
			c0.9-0.5,1.8-1,2.8-1.3c-2.8,3.7-5.9,7.2-9.2,10.5C189.4,264.6,177.1,274.6,163.6,283L163.6,283L163.6,283z M224.4,219.3
			c-4.2-4.5-9.1-8.2-14.6-11c-1.4-0.7-1.8-1.2-0.4-2.6c10.8-10,22.1-19.6,33.1-29.4c0.7-0.6,1.4-1.1,2.2-1.5c0.5-0.3,1-0.7,1.6-0.2
			c0.4,0.3,0.6,0.7,0.5,1.2c-3.1,10-5.6,19.7-10.5,28.7c-2.7,5-5.6,9.8-8.6,14.6C226.5,220.9,225.7,220.7,224.4,219.3z M240.4,168.7
			c-0.6,0.8-1.3,1.4-2.1,2c-8.4,5.5-15.3,12.6-22.5,19.4c-3,2.8-6,5.6-9.5,8.8c1.1-10.4,1.1-20.9,0-31.3c-0.3-2.9-0.6-5.8-1.1-8.6
			c-0.4-2.1,0.4-2.6,2.4-2.2c8.5,2,16.8,4.4,25.1,7.3c2.2,0.7,4.5,1.3,6.8,1.7C241.4,166.2,241.7,167.2,240.4,168.7L240.4,168.7
			L240.4,168.7z M214.3,226.6c1.8,1.2,1.6,2,0,3.2c-8.1,6-16.1,12.1-24.1,18.2c-0.6,0.5-0.9,0.3-0.9-0.4c5-8,9-16.6,11.9-25.5
			c0.9-2.7,1.2-2.8,3.7-1.4C208.2,222.5,211.2,224.6,214.3,226.6L214.3,226.6L214.3,226.6z M191.4,132.3
			c-8.7-13.6-19.5-25.8-31.9-36c0.9-0.5,1.5-0.1,2.2,0.1l19.1,5.2c1.3,0.3,2.4,0.8,2.8,2.3c2.8,9.2,6.1,18.2,8.3,27.5
			C191.9,131.7,192.3,132.3,191.4,132.3L191.4,132.3z M187.5,288.7c0.5-0.2,1-0.5,1.6-0.6s1.1-0.5,1.6,0s0,1-0.2,1.6l-6.1,12.1
			c-6.9,13.5-14.8,26.4-22.8,39.3c-0.4,0.6-0.6,1.7-1.6,1.6s-1.1-1.1-1.4-1.8c-3.4-7.2-5.2-15.1-5.2-23.1c0-3.1,0.3-6.3,0.8-9.4
			c0.3-2.7,2-5,4.5-6.1C168.1,297.4,177.8,293,187.5,288.7L187.5,288.7z M233.1,332.2c0.4,0.9,0.4,1.9-0.2,2.8
			c-7.3,17.2-16.2,33.5-25.1,49.8c-0.9,1.6-1.9,2.2-3.7,1.1c-13.5-8-25.6-17.6-35.7-29.8c-0.4-0.4-0.6-0.9-0.6-1.5
			C190.1,348.7,211.9,341.2,233.1,332.2L233.1,332.2z M247.9,274c-0.4,13.3-3.2,26-6.9,38.7c-0.5,1.7-1.1,2-2.6,0.7
			c-9.6-9.1-18.2-18.9-23.9-31c-1.7-3.6-1.3-5,2.2-6.3l28.1-10.4c2.7-1,3.1-0.8,3.1,2.1C247.9,269.9,247.8,272,247.9,274L247.9,274
			L247.9,274z M239,256.7c-0.2-2.1-0.4-3.6-0.5-5.1c-0.5-7.3-2.4-14.4-5.7-20.9c-1-2.1-0.7-3.3,1.2-4.6
			c10.8-7.2,22.1-13.7,33.7-19.5c4.2-2.2,8.4-4.4,12.7-6.6c0.8-0.4,1.6-0.9,2.4-0.1s0.4,1.6-0.2,2.4c-9.6,13.2-19,26.4-29.8,38.8
			C248.4,246.3,243.9,251.3,239,256.7L239,256.7L239,256.7z M283,189.8c-3,1.2-6.1,2.2-8.9,3.6c-10.6,5.2-20.5,11.4-30.8,17.2
			c-0.7,0.4-1.4,1.2-2.7,0.9c6.4-11.5,11.1-23.8,14-36.6c0.4-1.6,1.2-1.8,2.7-1.4c5.5,1.6,10.7,4,15.5,7.1c3.4,2.1,7,4.1,10.6,5.8
			c0.7,0.3,1.8,0.5,1.8,1.4C285.1,189,284,189.5,283,189.8L283,189.8L283,189.8z M249.9,115.6c0.6-0.7,1.7-0.2,2.6-0.1
			c5.4,0.8,10.9,1.5,16.3,2.4c12.8,2.2,25.5,4.7,38.2,7.5c0.9,0.1,1.8,0.5,2.5,1.1c-3.5,1.7-6.7,3.3-10,4.8
			c-13.8,6.5-26.6,14.8-39.4,23.1c-1,0.6-1.8,1.9-3.2,1s-1-2.1-1-3.3c0-10.2-0.6-20.3-4-30.1c-0.4-1.3-1-2.5-1.4-3.8
			C250.2,117.3,249.1,116.5,249.9,115.6L249.9,115.6z M241.9,115.4c1.4-1.2,2.2-0.9,2.7,0.9c1.6,5.2,2.8,10.4,3.5,15.8
			c0.8,6.1,1.5,12.3,2.2,18.2c-0.2,1.8-0.3,3.4-0.6,4.9c-0.3,1.8-1.5,2.6-3.2,1.8c-11.6-5.4-24.2-7.7-36.3-11.6
			c-2-0.6-1.9-1.1-0.6-2.5c8.4-9.1,18.2-16.6,28.1-24.1C239.1,117.6,240.5,116.5,241.9,115.4L241.9,115.4L241.9,115.4z M219.8,123.9
			c-6,4.2-11.6,8.9-16.8,14.1c-1.4,1.4-1.8,1.2-2.3-0.6c-3.1-11-7-21.8-11.7-32.2c-0.2-0.5-0.9-1.1-0.4-1.7c0.4-0.4,0.9,0,1.4,0.1
			c15.2,3.3,30.5,6.1,45.7,9c0.4,0.1,0.8,0.3,1.1,0.4C230.8,116.7,225.1,120.1,219.8,123.9L219.8,123.9L219.8,123.9z M203.5,47.8
			c6.6-2.9,13.2-5.6,20-8c1.9-0.7,3.5-2,5.4-2.6s2.4-0.2,2.3,1.8c-0.9,9.8-0.3,19.7,1.6,29.4c0.6,2.6,0.2,3-2.3,2.5l-51.5-8.7
			c-0.5-0.1-1-0.2-2.1-0.5C185.4,56.4,194.3,51.8,203.5,47.8L203.5,47.8L203.5,47.8z M181.9,70.4c16.6,3.9,33.4,6.4,50.2,8.7
			c0.7,0.1,1.4,0.2,2.2,0.3c0.8,0.1,1.4,0.6,1.5,1.4c0.2,0.9-0.4,1.3-1.1,1.7c-8.5,4.7-17.1,9.5-25.6,14.1c-3.4,1.9-6.2,1.6-8.9-1
			c-8.5-8.6-16.9-17.3-25.4-26c-0.1-0.2-0.2-0.4-0.4-1L181.9,70.4L181.9,70.4z M150.9,83.9c3.7-5.6,8.6-10,13.8-14.1
			c1.3-1,1.8-0.1,2.4,0.8L183.6,93c0,0.9-0.5,0.9-1.2,0.7c-10.4-1.5-20.6-3.8-30.6-7C150.1,86.1,150,85.4,150.9,83.9L150.9,83.9z
			 M86.8,365.1c3.8-11.7,11.4-21,19.2-30.2c8.4-10,19.8-15.3,30.8-21.4c1.4-0.8,2.9-1.5,4.3-2.2c1-0.5,1.7-0.4,1.8,0.8
			c-0.5,2.5-0.9,5-1,7.5c-0.6,10.1,2.1,19.5,6.9,28.3c1.2,2.3,1,2.9-1.5,3.5c-19.7,4.6-38.9,10.7-58.4,15.9
			c-0.8,0.2-1.7,0.9-2.3,0.3C85.7,366.8,86.5,365.9,86.8,365.1L86.8,365.1z M107.4,411c-9.8-8.9-17.5-19.3-21.2-32.3
			c-1.1-3.9-1-4,3-5c18-4.1,36-8.2,53.9-12.3c1.6-0.5,3.1-1,4.6-1.6c0.5,0,0.8,0,0.9,0.4s-0.1,0.8-0.4,1
			c-13.2,15.5-23.6,33-35.7,49.2C110.2,413.4,110.1,413.5,107.4,411C107.4,410.9,107.4,411,107.4,411z M117.9,418.1
			c-0.7,0.3-1.5,0.1-2-0.5c-0.6-0.8,0-1.3,0.5-1.9l15.6-19.4c7.1-8.8,14.2-17.7,21.3-26.6c1.1-1.4,2-2.9,3.1-4.4
			c1.6-2.4,2-2.4,4-0.5c4.9,4.9,9.6,10,15,14.4c5.1,4.1,10.5,7.8,16.2,11c0.6,0.4,1.4,0.6,1.6,1.4c-0.2,0.9-1.1,0.9-1.7,1.1
			c-5.7,2.2-11.7,3.5-17.5,5.5c-18.3,6.4-36.5,12.8-54.7,19.3C118.8,417.6,118.4,417.8,117.9,418.1L117.9,418.1L117.9,418.1z
			 M168.9,442.1c-15.8-4.5-30.9-10.9-45-19.3c-0.1-0.1-0.2-0.2-0.6-0.7l19.4-5.5l52.7-15.1c0.5-0.1,1.1-0.6,1.5,0s-0.2,1-0.5,1.5
			c-7.9,12.8-16.3,25.4-24.7,37.9C171.3,442,170,442.5,168.9,442.1L168.9,442.1L168.9,442.1z M180.7,444.6c-0.5,0.1-1,0.5-1.4,0
			c-0.5-0.6,0.1-1,0.5-1.4c3.3-4.2,6.8-8.2,9.9-12.5c5.4-7.1,10.6-14.5,15.9-21.7c1.4-1.9,2.1-4.2,3.2-6.2c1.5-2.7,2.3-3,5-1.9
			c19.3,7.5,39.6,12.3,60.2,14.5c1.1,0.1,2.3,0.4,3.4,0.6v0.7l-18.1,5.2l-77.4,22.3C181.6,444.2,181.1,444.3,180.7,444.6
			L180.7,444.6L180.7,444.6z M278.8,421.4c-3.4,9.9-7,19.8-10.8,29.6c-0.8,2-1.6,4.1-2.3,6.1s-2,2.8-4.2,2.5
			c-10.5-1.6-21.1-3.2-31.6-4.6c-11.8-1.7-23.2-4.8-34.7-7.6c-0.2-0.4-1.2,0.1-1-0.9c12-2.6,24-5.1,35.9-8
			c13.5-3.2,26.1-8.9,38.5-14.8c2.8-1.3,5.6-2.5,8.4-3.8c0.6-0.2,1.1-0.9,1.8-0.4S279,420.6,278.8,421.4L278.8,421.4L278.8,421.4z
			 M298.2,357.4c-3.6,15.2-7.9,30.2-12.7,45.1c-0.7,2.3-1.4,4.6-2.2,6.9c-1,3.1-1.7,3.6-5,2.9c-16.2-3.2-32.1-7.7-47.6-13.6
			c-4.3-1.7-8.5-3.5-13.4-5.6c5.3-2.4,9.8-4.4,14.4-6.4c22-9.7,43.7-19.9,64.9-31.2c0.5-0.2,0.9-0.9,1.5-0.4
			C298.9,355.8,298.3,356.6,298.2,357.4L298.2,357.4L298.2,357.4z M302,328.2c-0.7,4.8-1.1,9.6-1.8,14.4c-0.4,3.2-0.7,3.3-3.7,2.4
			c-15.6-4.7-29.9-12.1-43.6-20.7c-2.1-1.3-0.8-1.9,0.4-2.5c8.7-4.6,17.3-9.4,25.8-14.4c7.8-4.6,15.3-9.6,22.5-15
			c0.6-0.5,1.1-1.4,2-1s0.6,1.6,0.7,2C302.8,305.1,303.7,316.7,302,328.2L302,328.2L302,328.2z M335.7,225.6c-0.2,1-1.5,0.9-2.2,1.1
			c-15.1,4.1-30.1,8.5-45,13.4c-12.3,4.1-24.5,8.4-36.8,12.6c-1,0.3-1.9,0.6-2.9,1c3.6-3.9,6.5-8.2,10.3-11.7
			c11.4-10.8,21.7-22.6,31-35.2c2.5-3.3,5.5-6.1,7.5-9.8c0.9-1.6,2-0.7,3.1,0c7.1,5,14.2,9.8,20.8,15.4c4.3,3.6,8.5,7.4,12.7,11.2
			C334.8,224.1,335.9,224.6,335.7,225.6L335.7,225.6L335.7,225.6z M342.1,221.1c-8.2-12.1-18.2-22.9-29.8-31.9
			c-2.4-1.9-2.4-1.9,0.4-3.2c18.1-8.1,36.8-14.8,55.5-21.3c7.9-2.7,15.9-5.4,24-7.3c0.5-0.1,0.9-0.2,2-0.4
			c-3.5,5.9-7.4,11.6-11.6,17c-12.3,15.8-24.7,31.5-37.2,47.2C344,223.2,343.5,223.2,342.1,221.1L342.1,221.1L342.1,221.1z
			 M456.1,204.5c-33.7,2.5-66.7,8.6-99.5,16.2c-0.6,0.1-1.2,0.6-1.9,0.1c0-1.2,1-1.8,1.7-2.5c8.4-8.4,17-16.6,24.1-26.1
			c7.2-9.6,13.3-19.9,18.3-30.8c1.6-3.6,1.8-3.6,5.3-1.6c19.6,11.3,37.4,25.6,52.7,42.2c0.5,0.6,1.5,1.1,1.2,1.9
			S456.7,204.4,456.1,204.5L456.1,204.5L456.1,204.5z"/>
	</g>
</g>
</svg>
