<?xml version="1.0" encoding="UTF-8"?>
<svg id="Layer_2" data-name="Layer 2" xmlns="http://www.w3.org/2000/svg" viewBox="0 0 545.16 288.8">
  <defs>
    <style>
      .cls-1 {
        fill: #0094a9;
      }

      .cls-2, .cls-3, .cls-4 {
        fill: #262626;
      }

      .cls-3 {
        font-family: OpenSans-Semibold, 'Open Sans';
        font-size: 30px;
        font-weight: 600;
      }

      .cls-4 {
        fill-rule: evenodd;
      }
    </style>
  </defs>
  <g id="teal">
    <g>
      <path class="cls-4" d="m530.79,50.8c-7.4-7.4-16.61-10.77-27-10.77s-19.53,3.48-26.91,10.86c-7.59,7.6-10.86,17.17-10.86,27.8v57.07h15.02v-56.18c0-6.83,1.85-13.01,6.64-18.02,4.42-4.62,9.72-6.86,16.12-6.86s11.7,2.24,16.12,6.86c4.79,5.01,6.64,11.19,6.64,18.02v56.18h15.02v-57.07c0-10.62-3.17-20.28-10.77-27.89Z"/>
      <path class="cls-2" d="m407.85,37.72c-27.22,0-49.36,22.14-49.36,49.36s22.14,49.36,49.36,49.36,49.36-22.14,49.36-49.36-22.14-49.36-49.36-49.36Zm0,82.79c-18.44,0-33.43-15-33.43-33.43s15-33.43,33.43-33.43,33.43,15,33.43,33.43-15,33.43-33.43,33.43Z"/>
      <path class="cls-4" d="m304.65,40.02c-12.63,0-23.46,4.58-32.13,13.78-8.95,9.49-12.9,21.14-12.9,34.09s3.94,24.72,13.01,34.2c8.69,9.08,19.46,13.67,32.02,13.67,4.56,0,9.21-.56,13.52-2.11v-15.75c-.38.21-.77.41-1.17.6-3.86,1.87-8.09,2.59-12.35,2.59-8.26,0-14.93-3.61-20.53-9.51-6.32-6.64-9.12-14.59-9.12-23.69s2.81-17.05,9.12-23.69c5.6-5.89,12.27-9.51,20.53-9.51s15.7,3.13,21.39,9.67c5.9,6.78,8.63,14.64,8.63,23.59v86.21h15.02v-86.21c0-13.01-3.94-24.73-13.01-34.22-8.69-9.09-19.45-13.7-32.02-13.7Z"/>
      <rect class="cls-2" x="233.15" y="40.02" width="15.02" height="95.73"/>
      <path class="cls-4" d="m176.66,40.02c-12.63,0-23.46,4.58-32.13,13.78-8.95,9.49-12.9,21.14-12.9,34.09s3.94,24.72,13.01,34.2c8.69,9.08,19.46,13.67,32.02,13.67,4.53,0,9.15-.55,13.43-2.08v-15.73c-.36.19-.72.38-1.09.56-3.86,1.87-8.08,2.59-12.35,2.59-8.26,0-14.93-3.61-20.53-9.51-6.32-6.64-9.12-14.59-9.12-23.69s2.81-17.05,9.12-23.69c5.6-5.89,12.27-9.51,20.53-9.51s15.7,3.12,21.39,9.64c5.9,6.76,8.63,14.62,8.63,23.56v15.04l-.08.09v20.46l.08-.06v12.34h15.02v-47.86c0-13-3.94-24.72-13.01-34.2-8.69-9.08-19.46-13.67-32.02-13.67Z"/>
      <path class="cls-2" d="m16.86,48.62c-7.03,24.22,36.72,42.2,53.8,70.79,16.85,28.2-2.42,43.06-16.54,54.75,5.63-18.53-16.95-30.31-36.62-51.96C-1.76,101.01-.1,72.02,16.86,48.62h0Z"/>
      <path class="cls-1" d="m66,0c-8.63,29.74,51.15,41.92,50.81,85.79-.1,13.66-6.7,25.93-16.2,40.38,8.09-16.53-19.68-36.77-39.36-58.42C41.99,46.56,31.01,22.48,66,0h0Z"/>
    </g>
    <text class="cls-3" transform="translate(68.92 257.17)"><tspan x="0" y="0">The Definitive Cybersecurity</tspan></text>
  </g>
</svg>