<?xml version="1.0" encoding="UTF-8"?>
<svg id="Layer_2" data-name="Layer 2" xmlns="http://www.w3.org/2000/svg" xmlns:xlink="http://www.w3.org/1999/xlink" viewBox="0 0 1524.56 791.51">
  <defs>
    <style>
      .cls-1 {
        stroke: #231f20;
      }

      .cls-1, .cls-2 {
        stroke-width: 3px;
      }

      .cls-1, .cls-2, .cls-3, .cls-4, .cls-5, .cls-6, .cls-7, .cls-8, .cls-9, .cls-10, .cls-11 {
        stroke-miterlimit: 10;
      }

      .cls-1, .cls-2, .cls-3, .cls-4, .cls-7, .cls-9 {
        fill: none;
      }

      .cls-2, .cls-8 {
        stroke: #36c2d6;
      }

      .cls-3 {
        stroke-width: 6px;
      }

      .cls-3, .cls-11 {
        stroke: #589fd6;
      }

      .cls-12 {
        fill: #f8971d;
      }

      .cls-13, .cls-14 {
        fill: #0094a9;
      }

      .cls-15, .cls-5, .cls-6, .cls-8, .cls-10, .cls-16, .cls-11 {
        fill: #fff;
      }

      .cls-17, .cls-18 {
        fill: #474a54;
      }

      .cls-19 {
        fill: #262626;
      }

      .cls-4 {
        stroke-width: 5px;
      }

      .cls-4, .cls-5 {
        stroke: #eb417b;
      }

      .cls-20 {
        filter: url(#drop-shadow-1);
      }

      .cls-21 {
        fill: #27aae1;
      }

      .cls-21, .cls-14, .cls-22, .cls-23, .cls-24, .cls-25, .cls-26 {
        font-family: OpenSans-Bold, 'Open Sans';
        font-size: 43.39px;
        font-weight: 700;
      }

      .cls-21, .cls-14, .cls-22, .cls-23, .cls-24, .cls-25, .cls-26, .cls-27 {
        isolation: isolate;
      }

      .cls-6, .cls-9 {
        stroke: #654a9e;
      }

      .cls-7 {
        stroke-width: 2px;
      }

      .cls-7, .cls-10 {
        stroke: #f8971d;
      }

      .cls-8 {
        stroke-width: 1.62px;
      }

      .cls-10 {
        stroke-width: 1.5px;
      }

      .cls-18, .cls-16 {
        fill-rule: evenodd;
      }

      .cls-22 {
        fill: #006838;
      }

      .cls-23 {
        fill: #662d91;
      }

      .cls-24 {
        fill: #ed1c24;
      }

      .cls-25 {
        fill: #f7941d;
      }

      .cls-26 {
        fill: #ec008c;
      }

      .cls-11 {
        stroke-width: 1.26px;
      }
    </style>
    <filter id="drop-shadow-1" filterUnits="userSpaceOnUse">
      <feOffset dx="7" dy="7"/>
      <feGaussianBlur result="blur" stdDeviation="6"/>
      <feFlood flood-color="#000" flood-opacity=".7"/>
      <feComposite in2="blur" operator="in"/>
      <feComposite in="SourceGraphic"/>
    </filter>
  </defs>
  <g id="Layer_2-2" data-name="Layer 2">
    <g id="Layer_1-2" data-name="Layer 1-2">
      <path class="cls-4" d="m639.66,109.42c-19.57,31.91-29.74,69.06-28.88,106.83"/>
      <path class="cls-4" d="m972.33,109.42c19.57,31.91,29.74,69.06,28.88,106.83"/>
      <path class="cls-7" d="m640.67,323.43c-18.9-30.06-29.84-65.64-29.84-103.78"/>
      <path class="cls-2" d="m727.29,398.33c-35.81-15.81-65.97-42.06-86.62-74.9"/>
      <path class="cls-3" d="m885.88,397.86c-24.37,10.93-51.39,17.02-79.83,17.02s-54.67-5.91-78.76-16.54"/>
      <path class="cls-4" d="m969.9,325.84c-20.39,31.39-49.55,56.56-84.01,72.02"/>
      <path class="cls-9" d="m1001.27,219.65c0,39.16-11.53,75.62-31.38,106.18"/>
      <path class="cls-6" d="m1004.7,219.7c0,1.91-1.54,3.45-3.45,3.45s-3.45-1.54-3.45-3.45,1.54-3.45,3.45-3.45,3.45,1.54,3.45,3.45Z"/>
      <path class="cls-12" d="m615.84,219.7c0,2.82-2.29,5.11-5.11,5.11s-5.11-2.29-5.11-5.11,2.29-5.11,5.11-5.11,5.11,2.29,5.11,5.11Z"/>
      <path class="cls-5" d="m976.91,325.86c0,3.84-3.12,6.96-6.96,6.96s-6.96-3.12-6.96-6.96,3.12-6.96,6.96-6.96,6.96,3.12,6.96,6.96Z"/>
      <path class="cls-10" d="m648.25,326.85c0,3.23-2.62,5.84-5.84,5.84s-5.84-2.62-5.84-5.84,2.62-5.84,5.84-5.84,5.84,2.62,5.84,5.84Z"/>
      <path class="cls-11" d="m894.96,397.86c0,4.84-3.93,8.77-8.77,8.77s-8.77-3.93-8.77-8.77,3.93-8.77,8.77-8.77,8.77,3.93,8.77,8.77Z"/>
      <path class="cls-8" d="m734.52,397.86c0,3.93-3.19,7.12-7.12,7.12s-7.12-3.19-7.12-7.12,3.19-7.12,7.12-7.12,7.12,3.19,7.12,7.12Z"/>
      <circle class="cls-15" cx="806.05" cy="213.34" r="133.8"/>
      <g>
        <path class="cls-19" d="m765.22,180.02c-6.62,22.82,34.6,39.76,50.69,66.69,15.87,26.57-2.28,40.57-15.58,51.58,5.3-17.46-15.97-28.55-34.5-48.95-18.14-19.96-16.58-47.27-.6-69.32h-.01Z"/>
        <path class="cls-13" d="m811.51,134.21c-8.14,28.02,48.19,39.5,47.87,80.82-.1,12.87-6.31,24.43-15.27,38.05,7.62-15.57-18.54-34.64-37.08-55.04-18.14-19.97-28.48-42.65,4.47-63.83h.01Z"/>
      </g>
      <path class="cls-18" d="m490.54,178.32c-.03.68-.35,1.1-1.02,1.15-.73.05-1.16-.37-1.19-1.07-.02-.71.4-1.15,1.13-1.14.65,0,1.02.4,1.08,1.07v-.02h0Z"/>
      <g class="cls-20">
        <path class="cls-16" d="m809.32,438.31c-17.66,0-34.87-1.95-51.43-5.65-9.84-2.2-19.78,3.37-23.22,12.87l-51.3,141.7c-4,11.06,2.21,23.26,13.55,26.36,35.81,9.8,73.5,15.04,112.41,15.04s76.6-5.24,112.41-15.04c11.32-3.1,17.55-15.3,13.55-26.36l-51.3-141.7c-3.44-9.5-13.36-15.07-23.22-12.87-16.56,3.7-33.77,5.65-51.43,5.65h-.02Z"/>
        <path class="cls-16" d="m603.36,350.57l-126.96,81.17c-9.95,6.36-12.32,19.83-5.14,29.19,42.28,55.02,97.77,99.46,161.77,128.64,10.76,4.91,23.45-.37,27.48-11.44l51.45-141.21c3.48-9.56-.78-20.13-9.84-24.81-27.74-14.3-52.27-33.9-72.25-57.45-6.59-7.77-17.9-9.57-26.51-4.07h0v-.02h0Z"/>
        <path class="cls-16" d="m906.68,436.93l51.02,141.2c4,11.07,16.57,16.35,27.25,11.44,63.44-29.17,118.46-73.61,160.41-128.63,7.12-9.36,4.77-22.83-5.1-29.19l-125.9-81.16c-8.54-5.5-19.75-3.7-26.29,4.07-19.81,23.56-44.13,43.16-71.64,57.45-9,4.68-13.21,15.25-9.76,24.81h0Z"/>
        <path class="cls-16" d="m1041.8,234.68c-3.2,24.63-10.28,48.08-20.61,69.69-4.37,9.14-1.35,20.05,7.23,25.53l126.42,80.51c9.88,6.29,23.11,2.93,28.65-7.34,26.8-49.68,43.86-105.3,48.63-164.35.93-11.62-8.34-21.58-20.1-21.58h-150.23c-10.19,0-18.69,7.54-20,17.54h0Z"/>
        <path class="cls-16" d="m556.84,217.13h-150.23c-11.76,0-21.04,9.96-20.09,21.58,4.77,59.05,21.82,114.67,48.63,164.35,5.54,10.26,18.77,13.62,28.65,7.34l126.42-80.51c8.58-5.47,11.6-16.39,7.23-25.53-10.33-21.61-17.4-45.06-20.61-69.69-1.31-10-9.81-17.54-20-17.54h0Z"/>
        <path class="cls-18" d="m1024.32,470.38l-3.47,3.24,4.51,19.63-6.17,6.01-6.17-6.01,4.51-19.63-3.47-3.24c-14.69,2.41-25.89,14.94-25.89,30.04h62.03c0-15.11-11.2-27.65-25.89-30.04h-.01.02Zm-5.12-1.81c6.71,0,12.4-4.23,14.49-10.12.55-1.55.87-3.22.87-4.97,0-8.33-6.87-15.09-15.36-15.09s-15.36,6.75-15.36,15.09c0,1.79.33,3.51.92,5.11,2.12,5.81,7.78,9.98,14.44,9.98Z"/>
        <path class="cls-18" d="m827.88,531.03c-.67,0-1.21-.54-1.21-1.2v-5.94l-14.7,14.57c-.48.47-1.24.47-1.72,0l-5.18-5.14-12.92,12.81c-.24.24-.54.35-.86.35s-.62-.11-.86-.35c-.48-.47-.48-1.23,0-1.7l13.78-13.66c.48-.47,1.24-.47,1.72,0l5.18,5.14,14.05-13.93h-6.34c-.67,0-1.21-.54-1.21-1.2s.54-1.2,1.21-1.2h9.07c.67,0,1.21.54,1.21,1.2v9.04c0,.66-.54,1.2-1.21,1.2h-.02.01Zm-50.61-20.26v41.36h64.1v-41.36h-64.1Z"/>
        <path class="cls-18" d="m777.27,555.16v-.97,1.96h30.84v1.39c0,2.68-2.49,4.86-5.56,4.86h-12.74v2.13h39.03v-2.13h-12.74c-3.07,0-5.56-2.18-5.56-4.86v-1.39h30.84v-1.96.97h-64.11Z"/>
        <polygon class="cls-18" points="843.44 510.76 843.44 502.49 775.2 502.49 775.2 510.76 778.31 508.84 840.42 508.84 843.44 510.76"/>
        <rect class="cls-17" x="777.27" y="554.19" width="64.1" height="2.07"/>
        <path class="cls-16" d="m1019.2,113.2c10.92,22.48,17.94,46.05,21.24,69.88,1.39,10.08,9.93,17.61,20.1,17.5l149.68-1.4c11.7-.11,20.87-10.17,19.82-21.83-5.05-56.44-21.51-112.54-50.07-164.82-5.62-10.3-18.84-13.6-28.63-7.16l-125.16,82.13c-8.48,5.57-11.42,16.56-6.99,25.69h.02,0Z"/>
        <path class="cls-16" d="m599.45,111.13c-10.92,22.48-17.94,46.05-21.24,69.88-1.4,10.08-9.93,17.61-20.1,17.5l-149.7-1.4c-11.7-.11-20.87-10.17-19.82-21.83,5.04-56.44,21.49-112.55,50.06-164.83,5.62-10.28,18.83-13.58,28.64-7.16l125.17,82.13c8.47,5.57,11.42,16.56,6.99,25.69h0v.02h0Z"/>
        <path class="cls-18" d="m459.7,84.38c0,3.6-.02,7.15.02,10.69,0,.61-.33.95-.66,1.34-8.57,10.24-7.93,25.24,1.7,34.41,7.29,6.95,16.02,9.07,25.6,5.87,9.43-3.13,15.19-9.88,16.97-19.66,2.6-14.47-7.76-28.06-22.31-29.51-3.13-.31-6.25-.11-9.3.78-.31.09-.64.14-1.01.23,0-2.85.03-5.66-.01-8.44-.02-.86.59-.75,1.03-.84,9.16-1.71,17.67-.11,25.53,4.94,1.39.89,2.1,1.82,2.24,3.65.59,7.06,4.39,11.92,10.94,14.58.59.23.78.61.9,1.12,2.76,10.89,1.04,20.99-5.84,29.9-7.6,9.83-17.87,14.22-30.25,13.26-15.44-1.2-28.47-13.52-30.53-29-1.81-13.59,3.12-24.49,13.95-32.81.23-.19.48-.34.73-.5.05-.03.14,0,.31-.03v.02h0Z"/>
        <path class="cls-18" d="m517.09,72.42c.86-.05,1.92.14,2.97.31.59.09.74.31.49.91-1.46,3.81-2.88,7.63-4.33,11.44-.08.2-.17.42-.23.62-.19.51-.26,1.02.17,1.44.43.43.91.34,1.43.14,3.54-1.29,7.11-2.57,10.65-3.87,2.52-.92,2.51-.94,2.85,1.71.94,7.68-4.71,15.14-12.17,16.1-8.17,1.05-15.42-4.36-16.53-12.33-1.23-8.82,5.56-16.53,14.7-16.48v.03-.02h0Z"/>
        <path class="cls-18" d="m527.66,167.47c-2,0-3.76-.68-5.17-2.07-5.3-5.25-10.54-10.54-15.82-15.79-.37-.37-.38-.57,0-.95,3.28-3.26,6.55-6.53,9.81-9.82.37-.37.58-.38.95,0,5.28,5.32,10.62,10.55,15.84,15.95,2.24,2.32,2.61,5.19,1.37,8.19-1.15,2.78-3.93,4.53-6.97,4.53v-.03h-.01Z"/>
        <path class="cls-18" d="m469.12,132.35c-2.28-1.11-4.13-2.54-5.84-4.21-.41-.39-.31-.85-.31-1.3v-43.49c0-1.96.04-3.92-.01-5.88-.03-.79.23-.97.95-.94,1.43.06,2.86.08,4.29,0,.83-.05.96.27.96,1.05-.03,8.72-.01,17.44-.01,26.17v28.61h-.03Z"/>
        <path class="cls-18" d="m477.4,114.88c0,6.16-.01,12.34.03,18.51,0,.93-.25,1.13-1.04,1-1.5-.25-2.99-.51-4.45-.99-.52-.17-.71-.38-.71-.99.01-12.16.01-24.32,0-36.47,0-.63.17-.82.75-.8,1.52.05,3.05.06,4.57,0,.78-.03.88.28.88,1-.03,6.24-.01,12.48-.01,18.74h-.02Z"/>
        <path class="cls-18" d="m479.54,117.89c0-5.18.02-10.38-.02-15.57,0-.78.25-1.02,1.22-.98,1.9.06,3.81.06,5.71,0,1.01-.03,1.32.14,1.32,1.02-.06,5.86-.04,11.73-.04,17.58v12.32c0,.66-.19.98-1.03,1.17-2.02.45-4.06.75-6.14.97-.89.09-1.07-.14-1.07-.83.04-5.23,0-10.45,0-15.68h.05Z"/>
        <path class="cls-18" d="m511.11,128.22c1.78,1.78,3.55,3.55,5.33,5.3.38.38.37.57,0,.93-4.77,4.7-9.54,9.42-14.3,14.13-.33.33-.53.47-.93.05-1.6-1.63-3.23-3.22-4.86-4.82-.37-.35-.47-.53.08-.83,6.22-3.4,11.01-8.19,14.38-14.37.06-.12.17-.21.3-.38h0Z"/>
        <path class="cls-18" d="m489.85,132.35v-2.18c0-6.51,0-13-.01-19.51,0-.76.12-1.1.99-1.05,1.45.09,2.92.04,4.37,0,.61,0,.84.1.84.79-.03,5.63-.01,11.26,0,16.89,0,.37-.04.67-.32.95-1.7,1.67-3.59,3.03-5.84,4.11h-.03,0Z"/>
        <path class="cls-18" d="m518.81,82.72c1.33-3.1,2.65-6.13,3.95-9.17.4-.93.85-1.86,1.21-2.81.19-.49.4-.52.9-.29,3.63,1.62,6.37,4.01,8.23,7.16.24.39.3.61-.29.81-4.53,1.42-9.05,2.86-13.58,4.29-.1.03-.21,0-.43,0h.02-.01Z"/>
        <path class="cls-18" d="m456.74,161.3c-2.32,0-4.12-1.83-4.12-4.14s1.85-4.14,4.14-4.14,4.14,1.88,4.14,4.15-1.86,4.12-4.15,4.12h-.01Z"/>
        <path class="cls-18" d="m516.72,120.99c0-2.85,1.85-5.16,4.12-5.18,2.26,0,4.15,2.33,4.15,5.16s-1.88,5.16-4.14,5.18c-2.27,0-4.14-2.32-4.14-5.16h.01Z"/>
        <path class="cls-18" d="m533.26,136.51c0,1.11-.96,2.06-2.08,2.05-1.11,0-2.05-.96-2.05-2.07s.98-2.06,2.08-2.06,2.07.98,2.05,2.09h0Z"/>
        <path class="cls-18" d="m450.55,70.32c1.13,0,2.07.94,2.07,2.07s-.94,2.07-2.08,2.07-2.05-.94-2.05-2.08.91-2.07,2.07-2.05h-.01Z"/>
        <path class="cls-18" d="m526.16,278.17c.51.29.54.53.25,1.01-.51.83-1,1.68-1.44,2.58-.26.56-.51.53-.96.24-1.11-.7-2.25-1.36-3.51-2.11,0,1.47-.03,2.77,0,4.05.01.62-.09.94-.79.9-.93-.06-1.85-.05-2.78,0-.59.03-.72-.19-.71-.77.03-1.33,0-2.66,0-4.17-1.23.72-2.36,1.33-3.42,2.05-.62.42-.86.27-1.16-.35-.37-.8-.79-1.58-1.28-2.3-.43-.64-.23-.88.34-1.2,1.12-.61,2.2-1.31,3.39-2.03-1.16-.69-2.17-1.39-3.27-1.94-.83-.42-.82-.81-.35-1.5.43-.64.8-1.33,1.14-2.03.29-.64.59-.81,1.22-.37,1.03.71,2.14,1.31,3.38,2.05,0-1.54.01-2.86,0-4.19,0-.56.09-.8.69-.77.99.05,1.97.03,2.96,0,.48-.02.62.16.62.64-.03,1.36,0,2.74,0,4.29,1.22-.72,2.36-1.36,3.45-2.06.54-.35.8-.27,1.08.3.43.88.92,1.73,1.43,2.58.26.43.17.61-.23.85-1.19.67-2.34,1.39-3.61,2.16,1.23.74,2.37,1.47,3.54,2.11v.02l.02-.04h0Zm-21.18-.05c.52.29.65.53.31,1.07-.52.83-.99,1.7-1.43,2.56-.23.48-.45.54-.89.26-1.14-.74-2.31-1.39-3.58-2.16,0,1.49-.05,2.82.02,4.13.03.7-.2.86-.83.81-.85-.05-1.71-.06-2.57,0-.73.06-.88-.24-.85-.93.06-1.12,0-2.26.01-3.39,0-.53-.14-.59-.57-.33-.99.61-2,1.17-2.97,1.81-.46.3-.69.3-.97-.24-.45-.91-.94-1.81-1.46-2.66-.26-.43-.17-.64.23-.86,1.17-.67,2.33-1.39,3.62-2.16-1.29-.77-2.45-1.49-3.62-2.16-.4-.22-.49-.42-.23-.83.54-.9,1.03-1.82,1.53-2.75.23-.43.43-.46.83-.21,1.14.72,2.31,1.39,3.62,2.16,0-1.5.05-2.85-.01-4.19-.03-.66.18-.8.77-.77.93.05,1.85.05,2.76,0,.59-.03.71.19.69.75-.03,1.36,0,2.72,0,4.21,1.26-.75,2.44-1.41,3.58-2.13.42-.26.63-.29.89.21.45.91.96,1.79,1.48,2.66.28.45.22.67-.25.93-1.19.67-2.33,1.39-3.58,2.14,1.2.72,2.31,1.44,3.47,2.08h.01-.01Zm-21.11,0c.6.32.62.62.28,1.15-.48.77-.94,1.57-1.33,2.38-.26.54-.48.69-1.02.3-.94-.64-1.94-1.15-2.9-1.76-.56-.35-.65-.16-.65.42.02,1.17-.01,2.32.02,3.49.01.53-.12.72-.66.69-.99-.05-1.97-.03-2.96,0-.48.02-.62-.14-.6-.62.03-1.39,0-2.79,0-4.32-1.27.75-2.4,1.41-3.52,2.11-.45.29-.69.35-.97-.21-.53-1.06-1.65-2.18-1.51-3.1.14-.96,1.79-1.25,2.73-1.9.36-.24.73-.45,1.13-.7-1.2-.72-2.33-1.46-3.5-2.08-.57-.3-.59-.59-.25-1.09.65-.98,1.05-2.11,1.8-3.03.97.58,1.94,1.14,2.9,1.71.34.19.68.4,1.17.69,0-1.47.03-2.85,0-4.22-.01-.57.16-.77.71-.74.96.05,1.91.05,2.87,0,.53-.02.68.14.66.69-.03,1.36,0,2.74,0,4.29,1.23-.74,2.37-1.38,3.47-2.08.54-.35.82-.29,1.11.32.37.8.8,1.58,1.29,2.31.46.67.22.94-.37,1.26-1.09.61-2.17,1.28-3.35,1.98,1.2.72,2.3,1.44,3.45,2.07h-.01.01Zm-20.73.99c-.52.86-1.03,1.75-1.48,2.66-.23.48-.43.54-.88.26-1.11-.71-2.25-1.36-3.58-2.16,0,1.54-.03,2.86,0,4.19.01.59-.16.79-.72.75-.93-.05-1.85-.05-2.78,0-.6.03-.8-.14-.79-.8.05-1.31,0-2.64,0-4.14-1.28.77-2.42,1.41-3.53,2.11-.46.3-.69.27-.96-.25-.45-.91-.96-1.79-1.48-2.66-.25-.42-.18-.62.23-.86,1.19-.67,2.34-1.39,3.62-2.16-1.28-.77-2.44-1.51-3.62-2.18-.43-.24-.46-.45-.22-.85.54-.9,1.06-1.81,1.53-2.75.23-.46.43-.45.82-.21,1.16.72,2.33,1.39,3.62,2.16,0-1.5.03-2.86,0-4.22-.01-.59.17-.77.72-.74.93.05,1.85.05,2.78,0,.59-.03.82.13.79.78-.05,1.33-.01,2.67-.01,4.16,1.26-.75,2.42-1.41,3.56-2.13.42-.26.63-.29.88.21.45.91.96,1.79,1.48,2.66.26.43.25.66-.23.93-1.19.66-2.33,1.39-3.59,2.14,1.23.75,2.39,1.46,3.58,2.13.45.26.55.45.26.93v.05h0Zm74.26-19.26c0-1.01-.17-1.34-1.25-1.34-32.97.03-65.92.03-98.89.03-.4,0-.79-.03-1.19-.05v35.12c33.38,0,66.78,0,100.17.03.99,0,1.14-.29,1.14-1.23-.03-10.85-.03-21.7,0-32.55l.02-.02h0Z"/>
        <path class="cls-18" d="m455,324.68c-2.33,0-4.22-1.87-4.21-4.15,0-2.26,1.94-4.14,4.25-4.12,2.33.01,4.22,1.87,4.21,4.15,0,2.28-1.93,4.12-4.25,4.11v.02h0Zm69.63-2.58c-1.71-1.61-3.41-3.26-5.06-4.94-.54-.56-1.09-.79-1.89-.79-12.21.03-24.43,0-36.65.05-.78,0-1.07-.2-1.27-.92-2.44-8.65-11.22-14.47-20.33-13.47-8.57.94-15.31,7.1-16.86,15.43-2.08,11.23,7.33,22.05,19.03,21.67,8.27-.26,14.11-4.27,17.49-11.61.25-.54.48-.78,1.13-.77,4.81.03,9.62.03,14.44,0,.59,0,.98.2,1.38.59,1.37,1.37,2.78,2.67,4.13,4.06.47.48.71.39,1.13-.03,2.25-2.24,4.53-4.44,6.86-6.71,1.27,1.24,2.51,2.45,3.74,3.67.32.32.64.48,1.12.48,1.72-.03,3.45-.03,5.18,0,.48,0,.79-.17,1.12-.48,1.77-1.75,3.54-3.5,5.36-5.19.47-.44.37-.65-.03-1.03h-.02,0Z"/>
        <path class="cls-18" d="m566.87,466.53c4.06,0,8.13-.05,12.19.03,1.05.01,1.23-.29,1.21-1.24-.06-3.39,1.67-5.66,4.66-6.28.5-.11,1.04-.11,1.56-.11h29.96c3.94,0,6.38,2.34,6.28,6.2-.03,1.27.38,1.43,1.51,1.43,7.69-.05,15.37-.01,23.07-.03,6.11,0,10.22-4.03,10.24-10.05v-12.37c-.01-5.86-4.14-9.9-10.1-9.94-1.5,0-2.98.05-4.47-.02-.79-.03-.96.23-.9.93.1,1.15.02,2.31-.52,3.36-1.07,2.08-2.79,3.3-5.17,3.32-10.35.03-20.7.03-31.04,0-3.28,0-5.72-2.51-5.78-5.78-.02-1.21-.66-1.81-1.91-1.81-2.85,0-5.72.03-8.57-.02-.8,0-1.12.12-1.1,1.01.05,2.43,0,2.43-2.46,3.08-.66.17-1.32.34-1.97.54-.9.28-1.29,1.21-.84,2.01.61,1.1,1.24,2.22,1.92,3.29.32.5.29.79-.14,1.19-2.19,2.11-4.35,4.23-6.49,6.39-.43.42-.73.43-1.21.14-1.02-.62-2.09-1.18-3.13-1.77-1.1-.62-1.99-.26-2.33.93-.31,1.1-.68,2.2-.9,3.32-.14.71-.49.85-1.15.84-2.98-.03-5.96-.05-8.93,0-.74,0-.96-.29-1.12-.9-.28-1.11-.6-2.22-.91-3.32-.33-1.15-1.17-1.49-2.24-.91-1.05.57-2.11,1.15-3.13,1.75-.47.28-.79.36-1.23-.09-2.17-2.19-4.36-4.34-6.58-6.46-.41-.39-.39-.67-.13-1.1.58-.95,1.12-1.92,1.69-2.88.84-1.44.55-2.15-1.04-2.57-1.09-.3-2.16-.64-3.24-.89-.58-.12-.79-.34-.79-.94.03-3.01.03-6.03,0-9.04,0-.62.25-.82.77-.95,1.2-.31,2.41-.62,3.61-.96,1.12-.33,1.45-1.16.9-2.17-.58-1.04-1.15-2.09-1.81-3.09-.41-.6-.27-.93.22-1.39,2.13-2.05,4.25-4.11,6.32-6.22.5-.51.85-.5,1.42-.14.98.62,2,1.16,3.03,1.72,1.07.59,1.94.25,2.27-.9s.65-2.28.94-3.42c.14-.56.36-.84,1.04-.82,3.03.05,6.03.03,9.06,0,.65,0,.91.2,1.04.82.25,1.16.61,2.29.93,3.42.33,1.15,1.21,1.51,2.28.9,1.05-.57,2.09-1.16,3.13-1.77.46-.26.77-.36,1.21.11,2.13,2.15,4.3,4.29,6.49,6.39.49.47.44.81.13,1.3-.63,1.01-1.21,2.05-1.8,3.09-.54.94-.17,1.84.88,2.14,1.16.32,2.32.67,3.48.94.66.16.88.43.87,1.13,0,2.42.02,2.42,2.5,2.42,2.62,0,5.23-.06,7.85.03,1.07.03,1.28-.33,1.2-1.26-.14-1.64.28-3.15,1.42-4.4,1.12-1.26,2.54-1.97,4.24-1.97,10.38-.01,20.78-.03,31.16,0,3.15,0,5.61,2.5,5.7,5.61.06,1.99.06,1.95,2.09,1.99,2.36.03,4.74-.17,7.09.43,5.78,1.49,10,6.56,10.11,12.42.1,4.68.08,9.35,0,14.03-.11,7.21-6.02,12.97-13.39,13.04-8.02.06-16.02.03-24.04,0-1.01,0-1.24.23-1.23,1.22.05,4.13-2.28,6.42-6.44,6.42h-29.47c-4.28,0-6.6-2.23-6.55-6.43,0-1.02-.27-1.21-1.26-1.19-7.77.05-15.55.01-23.31.03-6.19,0-10.25,4.03-10.25,10.14v14.15c0,5.86,4.14,9.94,10.08,9.95,1.53,0,3.06-.03,4.58,0,.63.02.84-.16.8-.79-.06-1.07-.05-2.12.38-3.16.87-2.17,2.9-3.66,5.29-3.66,10.38-.02,20.78-.03,31.16,0,3.25,0,5.64,2.57,5.67,5.87.01,1.15.6,1.72,1.76,1.72,4.22,0,8.46-.02,12.68.01.82,0,1.16-.12,1.28-1.04,1.05-9.01,8.91-16.71,18.1-17.78,11.53-1.35,21.52,5.73,23.82,16.93,2.35,11.46-6.24,23.11-18.03,24.49-11.96,1.4-22.18-6.29-23.91-18.01-.1-.68-.38-.8-1.01-.8-4.63.01-9.26.01-13.89,0-.61,0-.85.14-.8.77.06.99.05,1.99-.28,2.95-.76,2.25-2.93,3.89-5.39,3.89-10.38.03-20.78.03-31.16,0-3.24,0-5.64-2.57-5.69-5.87-.02-1.72-.02-1.69-1.75-1.73-2.49-.05-4.98.2-7.45-.43-5.77-1.49-10-6.59-10.1-12.45-.08-5.35-.1-10.7,0-16.04.13-7.02,6-12.76,13.17-12.9,4.02-.08,8.05,0,12.08,0l.02.03h-.01Z"/>
        <path class="cls-16" d="m639.71,523.17c-9.68-.02-17.56-7.94-17.53-17.66.03-9.68,7.96-17.55,17.69-17.5,9.63.03,17.48,7.94,17.46,17.59,0,9.7-7.93,17.58-17.62,17.56h0Z"/>
        <path class="cls-16" d="m553.34,415.74c.78.45,1.61.86,2.39,1.39.85.57,1.59.81,2.5.11.4-.32.94-.54,1.45-.62,1.71-.27,2.46-1.33,2.62-2.94.03-.32.19-.62.24-.94.13-.94.59-1.26,1.55-1.17,1.16.11,2.62-.33,3.45.22.86.56.78,2.12,1.08,3.26.16.61.43.97,1.07,1.13.62.16,1.29.34,1.82.69,1.47,1.02,2.75.78,4.18-.19,1.68-1.14,1.74-1.04,3.13.33,2.04,2.04,2.11,2.08.54,4.58-.59.96-.72,1.72-.06,2.63.14.19.27.43.32.66.37,2.36,1.9,3.35,4.12,3.58.85.08,1.23.49,1.15,1.44-.11,1.21.35,2.72-.22,3.58-.57.88-2.2.8-3.37,1.12-.53.14-.83.38-.94.96-.08.48-.21,1-.49,1.37-1.5,1.92-.93,3.66.38,5.32.64.8.53,1.37-.26,2.01-.91.75-1.64,2.14-2.58,2.28-.92.13-2.06-.93-3.05-1.55-.56-.35-.99-.38-1.55-.03-.51.32-1.07.69-1.64.78-1.92.27-2.62,1.49-2.97,3.24-.37,1.84-.46,1.81-2.34,1.81-2.97,0-3.02,0-3.73-2.89-.24-.96-.56-1.64-1.63-1.79-.35-.05-.75-.14-1.02-.37-1.84-1.47-3.51-.89-5.09.38-.91.73-1.55.54-2.2-.32-.42-.54-.91-1.07-1.47-1.47-.96-.69-.91-1.36-.26-2.2,1.24-1.57,1.4-3.04.48-5.05-.81-1.77-1.68-2.79-3.53-2.99-1.42-.14-1.79-.83-1.72-2.24.13-3.08.03-3.13,3.08-3.86.93-.23,1.53-.61,1.67-1.58.05-.32.16-.66.35-.91,1.42-1.9,1-3.64-.4-5.32-.64-.78-.53-1.37.26-2.01.75-.61,1.39-1.38,2.09-2.06.16-.16.29-.41.64-.37l-.03-.02v.02h-.01Z"/>
        <path class="cls-16" d="m620.22,425.98h14.01c1.8,0,2.41.58,2.43,2.25v5.91c0,1.56-.63,2.18-2.26,2.18h-28.58c-1.57,0-2.23-.62-2.25-2.08v-6.14c0-1.53.65-2.12,2.32-2.12h14.35-.03.01Z"/>
        <path class="cls-16" d="m601.46,473.54h-13.89c-2.08,0-2.61-.61-2.61-3v-6.97c0-1.67.69-2.44,2.19-2.44h28.7c1.54,0,2.2.76,2.2,2.54v7.36c0,1.75-.67,2.49-2.25,2.51h-14.35.01,0Z"/>
        <path class="cls-16" d="m581.83,500.43h15c1.99,0,2.61.55,2.61,2.32v5.91c0,1.47-.7,2.11-2.36,2.11h-30.49c-1.58,0-2.29-.65-2.31-2.05v-6.14c0-1.54.68-2.15,2.42-2.15h15.13Z"/>
        <path class="cls-18" d="m633.46,516.97c-.38-.38-.52-.52-.66-.65-1.37-1.51-2.74-3.03-4.13-4.52-.43-.45-.37-.72.03-1.12.69-.69,1.25-1.86,2.03-2.04.85-.2,1.39,1.12,2.01,1.83.59.67.84.18,1.19-.2,4.07-4.47,8.15-8.92,12.19-13.43.6-.65.9-.75,1.52-.04,1.87,2.14,1.9,2.11,0,4.2-4.54,4.99-9.08,9.96-13.6,14.97-.24.27-.38.64-.59,1h.01,0Z"/>
        <path class="cls-18" d="m576.69,431.14c.01,6.3-5.02,11.37-11.33,11.39-6.26.02-11.39-5.07-11.42-11.33-.03-6.21,5.12-11.39,11.36-11.42s11.36,5.08,11.39,11.36Z"/>
        <path class="cls-18" d="m609.85,430.12c1.33,0,1.99.33,1.99,1.01s-.71,1.03-2.14,1.06-2.09-.3-1.99-1.01c.1-.71.81-1.06,2.14-1.06Z"/>
        <path class="cls-18" d="m616.07,430.12c1.32,0,1.98.34,1.98,1.01s-.72,1.03-2.14,1.05c-1.43.03-2.09-.31-1.98-1.01.11-.7.83-1.05,2.15-1.05h-.01Z"/>
        <path class="cls-18" d="m626.32,431.19c0,.67-.67,1-2.01,1s-2.05-.36-2.12-1.07c-.08-.71.59-1.04,2.01-1s2.12.4,2.12,1.06h0Z"/>
        <path class="cls-18" d="m632.62,430.12c1.31,0,1.97.34,1.97,1.02s-.72,1.03-2.15,1.05c-1.43.02-2.09-.32-1.97-1.02.12-.7.84-1.05,2.15-1.05Z"/>
        <path class="cls-18" d="m591.16,467.43c0,1.32-.34,1.97-1.02,1.97s-1.03-.68-1.05-2.04c-.02-1.36.32-2.06,1.02-2.09s1.05.69,1.05,2.18v-.02Z"/>
        <path class="cls-18" d="m597.46,469.41c-1.44,0-2.16-.74-2.16-2.23,0-1.27.61-1.91,1.84-1.91,1.53,0,2.3.74,2.3,2.23,0,1.27-.66,1.91-1.97,1.91h-.01Z"/>
        <path class="cls-18" d="m605.73,465.27c1.32,0,1.98.67,1.98,2.02s-.72,2.05-2.14,2.11c-1.43.06-2.09-.62-1.98-2.02.11-1.41.83-2.11,2.15-2.11h-.01Z"/>
        <path class="cls-18" d="m612.83,469.41c-.66,0-.98-.68-.98-2.03s.36-2.06,1.08-2.1,1.04.63.98,2.03-.42,2.1-1.08,2.1Z"/>
        <path class="cls-18" d="m570.55,504.56c1.34,0,2.01.33,2.01,1s-.71,1.02-2.12,1.06c-1.42.05-2.08-.29-2.01-1,.08-.71.79-1.06,2.12-1.06Z"/>
        <path class="cls-18" d="m578.77,504.56c1.37,0,2.05.35,2.05,1.04s-.69,1.04-2.08,1.03c-1.39-.01-2.07-.36-2.05-1.04s.72-1.03,2.08-1.03Z"/>
        <path class="cls-18" d="m589.1,505.63c0,.67-.67,1-2,1s-2.04-.35-2.13-1.06.57-1.04,2-1c1.42.04,2.13.39,2.13,1.06Z"/>
        <path class="cls-18" d="m595.3,505.64c0,.66-.67.99-2.02.99s-2.05-.36-2.12-1.07.6-1.04,2.02-.99c1.41.05,2.12.41,2.12,1.07Z"/>
        <path class="cls-16" d="m572.55,431.22c-.01,4.03-3.25,7.2-7.29,7.17-3.95-.03-7.17-3.26-7.19-7.2,0-3.96,3.3-7.27,7.26-7.27s7.23,3.28,7.2,7.29h.02,0Z"/>
        <path class="cls-18" d="m1150.03,102.79c-4.68,4.19-9.37,8.38-14.06,12.57-4.42,3.96-8.88,7.9-13.27,11.89-.52.47-.79.4-1.3.03-3.05-2.26-6.13-4.49-9.23-6.7-.44-.31-.54-.51-.16-.96.66-.79,1.28-1.63,1.85-2.46.28-.4.46-.42.85-.12,2.15,1.59,4.34,3.14,6.49,4.75.46.34.7.31,1.12-.06,8.22-7.38,16.45-14.73,24.66-22.09.47-.43.73-.5,1.15.03.63.77,1.36,1.48,2.04,2.23.11.11.21.23.3.34-.08.28-.3.39-.48.54h.04Zm18.04-17.48c0-1.08-.55-1.7-1.64-1.86-10.6-1.48-21.2-3.01-31.82-4.52-1.42-.2-2.84-.42-4.31-.34-2.42.14-4.79.59-7.17.91-9.42,1.32-18.82,2.68-28.23,4.02-1.2.17-1.25.23-1.25,1.38v52.17c0,.87.31,1.39,1.09,1.83,10.59,6.03,21.17,12.05,31.75,18.08,1.39.79,2.7,1.72,4.22,2.24h.32c.51-.19.99-.37,1.45-.63,1.31-.77,2.64-1.52,3.95-2.26,10.06-5.74,20.13-11.49,30.22-17.2,1.04-.59,1.44-1.27,1.44-2.44-.03-17.14-.02-34.26-.03-51.4l.02.02h0Z"/>
        <path class="cls-18" d="m1132.91,246.1c0,3.94,0,7.87.02,11.81,0,.55-.16.59-.49.58-1.03-.02-2.05-.03-3.06,0-.45.02-.57-.16-.56-.79.02-3.72,0-7.44,0-11.15,0-.16-.01-.3-.02-.47h4.1v.02h.01Z"/>
        <path class="cls-18" d="m1130.88,310.19h-23.92c-.68,0-.9-.14-.9-.89.03-6.25-.09-12.51.05-18.76.23-11.07,5.27-19.1,15.04-23.73,9.25-4.38,20.91-1.75,27.78,6,4.49,5.04,6.7,10.98,6.72,17.8,0,6.25,0,12.51.01,18.76,0,.76-.26.83-.88.83-7.97-.02-15.95,0-23.92,0h.02Z"/>
        <path class="cls-18" d="m1161.88,327.86h-8.5c-3.75,0-7.5.02-11.25-.02-.75,0-1,.16-1.03.99-.17,4.44-2.81,8.16-6.79,9.66-6.49,2.45-13.54-2.53-13.73-9.72-.01-.8-.23-.94-.95-.93-6.24.03-12.48.02-18.72.02h-1.06c1.18-3.19,2.34-6.28,3.49-9.39.43-1.17.89-2.31,1.29-3.49.17-.48.37-.67.89-.66,16.89.02,33.78,0,50.69,0,.32,0,.6-.06.77.4,1.6,4.33,3.23,8.65,4.89,13.12v.02h.01Z"/>
        <path class="cls-18" d="m1118.46,258.12c-.01.22-.21.26-.36.35-1.27.66-2.55,1.3-3.81,1.98-.33.17-.48.16-.68-.17-1.79-3.13-3.58-6.27-5.38-9.4-.2-.33-.11-.46.23-.62,1.27-.65,2.53-1.31,3.81-1.98.23-.12.42-.26.62.1,1.81,3.19,3.64,6.36,5.46,9.56.05.07.09.14.12.22v-.03h0Z"/>
        <path class="cls-18" d="m1153.61,250.58c-.08.14-.17.29-.24.45-1.75,3.03-3.49,6.07-5.21,9.11-.21.39-.37.55-.85.29-1.2-.66-2.43-1.29-3.66-1.89-.39-.2-.47-.36-.24-.77,1.79-3.08,3.55-6.17,5.32-9.26.18-.32.32-.48.73-.26,1.26.69,2.54,1.33,3.8,1.99.15.07.33.12.36.32h0v.02h-.01Z"/>
      </g>
      <g class="cls-27">
        <text class="cls-24" transform="translate(86.78 87.63)"><tspan x="0" y="0">DADOS</tspan></text>
      </g>
      <g class="cls-27">
        <text class="cls-22" transform="translate(0 325.86)"><tspan x="0" y="0">IDENTIDADE</tspan></text>
      </g>
      <g class="cls-27">
        <text class="cls-21" transform="translate(261.46 642.81)"><tspan x="0" y="0">SEC OPS</tspan></text>
      </g>
      <g>
        <g class="cls-27">
          <text class="cls-14" transform="translate(579.66 726.73)"><tspan x="0" y="0">GERENCIAMENTO DE</tspan></text>
        </g>
        <g class="cls-27">
          <text class="cls-14" transform="translate(651.94 778.8)"><tspan x="0" y="0">DISPOSITIVOS</tspan></text>
        </g>
      </g>
      <g class="cls-27">
        <text class="cls-25" transform="translate(1371.57 99.29)"><tspan x="0" y="0">RISCOS</tspan></text>
      </g>
      <g class="cls-27">
        <text class="cls-23" transform="translate(1331.53 332.69)"><tspan x="0" y="0">AMEAÇA</tspan></text>
      </g>
      <g class="cls-27">
        <text class="cls-26" transform="translate(1206 642.81)"><tspan x="0" y="0">DEV OPS</tspan></text>
      </g>
      <g>
        <line class="cls-1" x1="285.09" y1="20.75" x2="285.09" y2="154.51"/>
        <line class="cls-1" x1="348.07" y1="155.51" x2="284.09" y2="155.51"/>
      </g>
      <g>
        <line class="cls-1" x1="303.93" y1="242.96" x2="303.93" y2="376.72"/>
        <line class="cls-1" x1="366.9" y1="377.72" x2="302.93" y2="377.72"/>
      </g>
      <g>
        <line class="cls-1" x1="466.28" y1="695.99" x2="466.28" y2="562.24"/>
        <line class="cls-1" x1="529.25" y1="561.24" x2="465.28" y2="561.24"/>
      </g>
      <g>
        <line class="cls-1" x1="1174.26" y1="695.28" x2="1174.26" y2="561.52"/>
        <line class="cls-1" x1="1111.29" y1="560.52" x2="1175.26" y2="560.52"/>
      </g>
      <g>
        <line class="cls-1" x1="1300.54" y1="242.96" x2="1300.54" y2="376.72"/>
        <line class="cls-1" x1="1237.56" y1="377.72" x2="1301.54" y2="377.72"/>
      </g>
      <g>
        <line class="cls-1" x1="1331.53" y1="20.75" x2="1331.53" y2="154.51"/>
        <line class="cls-1" x1="1268.55" y1="155.51" x2="1332.53" y2="155.51"/>
      </g>
      <line class="cls-1" x1="809.32" y1="642.81" x2="809.32" y2="680.47"/>
    </g>
  </g>
</svg>