<?xml version="1.0" encoding="UTF-8"?>
<svg id="Layer_2" data-name="Layer 2" xmlns="http://www.w3.org/2000/svg" viewBox="0 0 500 500">
  <defs>
    <style>
      .cls-1 {
        fill: none;
        stroke: #0094a4;
        stroke-miterlimit: 10;
        stroke-width: 3px;
      }

      .cls-2 {
        fill: #fff;
      }

      .cls-3 {
        fill: #fdfdfd;
      }
    </style>
  </defs>
  <g id="Layer_1-2" data-name="Layer 1">
    <path class="cls-3" d="m133.5,54.71c-.4,1.37-1.41,1.06-2.38.87.32-1.6.81-2.71,2.38-.87Z"/>
    <path class="cls-3" d="m447.26,341.05c-.3-.84.25-1.09.9-1.27-.3.42-.6.84-.9,1.27Z"/>
    <path class="cls-3" d="m381.98,424.77c.24-.62.49-1.23,1.36-.96-.45.32-.91.64-1.36.96Z"/>
    <path class="cls-3" d="m322.16,59.33c-1.01.01-1.92-.18-2.45-1.16,2.28-2.69,2.07-.13,2.45,1.16Z"/>
    <path class="cls-3" d="m311.45,178.37c.01.3.02.59.02.89-.28-.03-.56-.06-.85-.09.28-.27.55-.53.83-.8Z"/>
    <path class="cls-3" d="m37.98,216.47c-.3.27-.59.54-.89.81-.17-.78.04-1.14.89-.81Z"/>
    <path class="cls-3" d="m290.24,265.63h-.41s-.41,0-.41,0c.02-.27.05-.54.07-.82.25.27.49.54.74.81Z"/>
    <path class="cls-3" d="m284.36,270.63c0,.3,0,.6,0,.9-.29-.26-.58-.52-.86-.78.29-.04.58-.08.87-.12Z"/>
    <g>
      <path class="cls-2" d="m250,0C111.93,0,0,111.93,0,250s111.93,250,250,250,250-111.93,250-250S388.07,0,250,0Zm-43.86,405.82c-2.25,0-4.08-1.83-4.08-4.08s1.83-4.08,4.08-4.08,4.08,1.83,4.08,4.08-1.83,4.08-4.08,4.08Zm0-30.04c-2.25,0-4.08-1.83-4.08-4.08s1.83-4.08,4.08-4.08,4.08,1.83,4.08,4.08-1.83,4.08-4.08,4.08Zm0-29.67c-2.25,0-4.08-1.83-4.08-4.08s1.83-4.08,4.08-4.08,4.08,1.83,4.08,4.08-1.83,4.08-4.08,4.08Zm-64.16,10.38c-6.53,6.02-16.59,6.02-23.12,0-6.93-6.39-7.37-17.18-.98-24.11l73.8-73.8,23.73,24.48-73.43,73.43Zm142.41-59.79c-60,0-108.65-48.64-108.65-108.65s48.64-108.65,108.65-108.65,108.65,48.64,108.65,108.65-48.64,108.65-108.65,108.65Z"/>
      <polygon class="cls-2" points="284.58 136.32 220.05 170.81 236.71 179.72 220.05 188.62 235.65 196.96 220.05 205.3 284.58 239.79 348.74 205.3 333.23 196.96 348.74 188.62 332.17 179.72 348.74 170.81 284.58 136.32"/>
    </g>
    <line class="cls-1" x1="340.86" y1="341.05" x2="227.92" y2="341.05"/>
    <line class="cls-1" x1="340.86" y1="371.7" x2="227.92" y2="371.7"/>
    <line class="cls-1" x1="340.86" y1="401.74" x2="227.92" y2="401.74"/>
  </g>
</svg>