<?xml version="1.0" encoding="UTF-8"?>
<svg id="Layer_2" data-name="Layer 2" xmlns="http://www.w3.org/2000/svg" viewBox="0 0 500 500">
  <defs>
    <style>
      .cls-1 {
        fill: #fff;
      }
    </style>
  </defs>
  <g id="Layer_1-2" data-name="Layer 1">
    <g>
      <path class="cls-1" d="m79.98,350.96c-6.65.07-11.92,5.22-11.92,11.68,0,7.7,5.72,14.06,12.52,13.93,6.34-.13,12.17-6.54,12.36-13.18.2-7.01-5.61-12.51-12.97-12.43Z"/>
      <path class="cls-1" d="m273.89,376.52c9.38-.86,14.52-4.93,14.68-13.23.13-6.82-4.6-12.13-12.97-12.31-6.69-.15-12.37,5.26-12.47,12.45.01,5.68,6.28,13.5,10.76,13.09Z"/>
      <path class="cls-1" d="m336.32,281.22c2.9,1.17,6.1.88,9.02-1.39,3.5-2.72,4.23-6.33,4.32-10.21.15-6.77.04-13.55.04-22-.49-6.66.75-15.03-.63-23.35-.7-4.2-5.5-7.75-10.29-7.36-4.4.36-8.15,4.12-8.2,8.33-.06,5.73.06,11.46-.05,17.19-.19,9.85.36,19.69-.28,29.55-.28,4.28,2.24,7.7,6.08,9.25Z"/>
      <path class="cls-1" d="m276.28,148.32c7.2-.89,12.77-6.63,12.32-13.57-.44-6.81-4.85-11.99-11.82-12.09-8.45.44-13.95,5.69-13.65,13.02.26,6.59,7.13,13.39,13.15,12.64Z"/>
      <path class="cls-1" d="m165.21,332.94c.01,6.63,5.79,12.92,12.01,12.71,7.25-.25,13.73-5.29,12.85-12.47.9-6.55-5.06-13.1-13.29-12.44-6.34.51-11.58,5.57-11.57,12.2Z"/>
      <path class="cls-1" d="m80.47,122.71c-5.6-.18-9.19,3.14-12.1,6.97-1.94,2.56,0,6.22-.66,9.51-.45,2.23,2.97,4.46,4.6,6.64,1.86,2.49,5.94,2.3,8.98,3.03,4.59,1.1,11.62-7.83,11.62-13.93,0-6.91-5.36-11.98-12.44-12.21Z"/>
      <path class="cls-1" d="m250,0C111.93,0,0,111.93,0,250s111.93,250,250,250,250-111.93,250-250S388.07,0,250,0Zm69.26,262.4c-.06-4.76-.01-9.53-.01-14.29.07,0,.13,0,.2,0,0-8.02-.21-16.05.05-24.06.33-9.97,8.52-17.72,18.53-18.3,10.44-.61,19.65,5.3,22.26,16.14.62,2.56.73,5.14.73,7.75-.03,13.17,0,26.33-.03,39.5,0,2.93-.35,5.87-1.44,8.62-2.56,6.49-6.27,12.14-13.22,14.42-11.98,3.93-24.58-3.99-26.62-15.49-.84-4.72-.38-9.51-.44-14.27Zm107.48,34.52c-12.68,16.89-29.04,27.84-49.95,32.33-25.03,5.38-47.1-.75-67.09-15.79-9.09-6.84-15.85-15.85-21.3-25.8-.89-1.63-1.79-2.39-3.69-2.3-3.13.15-6.27.05-9.41.03-3.74-.02-6.07-2.03-6.16-5.27-.1-3.55,2.17-5.83,5.95-5.99.25-.01.5,0,.75,0,6.75-.07,6.69-.05,5.13-6.44-.81-3.31-1.75-6.65-1.92-10.02-.13-2.53-1.04-2.75-3.11-2.74-12.55.08-25.1.04-37.66.04-2.54,0-4.96-.31-6.93-2.17-1.67-1.58-2.17-3.93-1.07-5.44,1.62-2.21,4.18-3.69,7.21-3.69,7.28,0,14.56,0,21.84,0,4.9,0,9.79,0,14.69,0,3.97,0,6.88-2.22,6.25-5.97-.8-4.75,1.49-8.69,1.96-13.26h-37.43c-9.92,0-19.83.08-29.75-.06-2.35-.03-4.29.59-6.14,1.83-5.26,3.52-10.48,7.09-15.78,10.55-3.29,2.15-6.34,2.69-10.14.15-4.53-3.02-9.49-5.56-13.62-9.02-5.08-4.25-10.73-2.79-16.03-2.43-2.67.18-5.15,3.41-7.68,5.33-2.36,1.79-4.78,3.53-6.98,5.52-2.43,2.2-4.06,2.37-7.59.88-5.78-2.43-10.73-5.85-15.13-9.82-3.43-3.11-6.88-2.88-10.66-2.92-5.02-.05-10.04.05-15.06-.04-1.65-.03-2.91.4-3.9,1.72-5.14,6.89-10.26,13.79-15.44,20.64-1.3,1.72-1.32,3.24-.02,4.96,5.18,6.86,10.33,13.74,15.43,20.66,1.34,1.82,3.14,1.71,5.03,1.71,44.69-.01,89.37-.01,134.06-.01,7.28,0,14.56.02,21.84,0,2.77-.01,5.05,1.27,5.9,3.66.97,2.73.06,5.4-2.66,7.08-1.97,1.22-4.14.59-6.17.52-2.33-.08-2.95.62-2.92,2.95.13,10.04.08,20.08.03,30.12,0,1.46.3,2.59,1.37,3.68,6.13,6.24,12.24,12.51,18.24,18.88,1.64,1.74,3.08,1.97,5.19.94,6.14-2.99,12.62-3.21,18.68-.32,8.28,3.94,14.02,10.41,15.02,19.86,1.27,12.03-9.84,25.45-22.63,25.82-13.44.39-21.47-8.48-24.15-16.59-1.94-5.85-1.87-11.75,1.2-17.3,1.12-2.02.17-3.18-1.16-4.5-6.33-6.27-12.45-12.77-18.99-18.81-3.18-2.94-4.18-6.11-4.11-10.24.18-10.41-.04-20.84.13-31.25.04-2.68-.69-3.45-3.31-3.25-3.6.28-8.5-1.21-10.52.62-2.33,2.11-.49,7.07-.73,10.78-.17,2.57.3,5.15-.68,7.72-1.23,3.22-3.7,3.89-6.54,3.45-2.68-.41-4.25-1.98-4.11-5.12.21-4.89-.04-9.79.08-14.68.05-2.03-.37-2.85-2.62-2.77-5.27.17-10.54.14-15.81.01-1.88-.05-2.31.58-2.29,2.35.1,6.65.06,13.3.02,19.96,0,1.5.33,2.21,2.02,2.85,7.63,2.89,13.09,8.09,15.08,16.24,2.74,11.21-2.48,23.86-14.57,28.22-8.82,3.18-16.11,2.02-23.32-3.24-6.12-4.47-10.59-15.46-8.45-23.93,2.29-9.09,7.49-14.71,16.17-17.55,1.22-.4,1.84-1.32,1.82-2.84-.1-6.65-.09-13.3-.01-19.96.02-1.72-.67-2.12-2.22-2.08-3.51.08-7.03.12-10.54-.01-1.74-.06-2.13.62-2.04,2.18.11,2,.06,4.02.02,6.02-.08,4-2.56,6.38-6.78,6.53-2.54.09-4.51-2.63-4.52-6.25q-.02-8.45-8.5-8.45c-2.64,0-5.29.18-7.9-.05-2.56-.22-3.4.45-3.35,3.2.18,10.54-.02,21.09.13,31.63.05,3.37-.89,5.92-3.35,8.29-6.78,6.53-13.32,13.3-20.03,19.91-1.72,1.69-2.45,2.87-1.19,5.62,5.15,11.3-.24,23.99-10.74,30.47-12.3,7.59-26.42-.17-32.31-9.81-1.2-1.97-.83-4.53-2.37-6.38v-10.54c1.41-.92.79-2.6,1.46-3.87,6.36-12.05,18.61-17.8,32.17-11.92,1.88.81,2.97.76,4.47-.79,6.19-6.39,12.53-12.64,18.88-18.88,1.26-1.23,1.72-2.51,1.71-4.27-.08-9.91-.12-19.82.02-29.72.03-2.33-.58-2.96-2.91-2.93-8.9.14-17.81-.01-26.72.09-2.64.03-4.54-1.03-6.02-3-7.71-10.28-15.37-20.59-23.05-30.89v-4.52c7.69-10.31,15.36-20.62,23.07-30.91,1.48-1.98,3.39-3.02,6.03-2.99,8.78.11,17.57-.09,26.35.11,2.75.06,3.29-.81,3.25-3.37-.15-9.79-.11-19.58-.02-29.36.02-1.78-.52-3.03-1.76-4.25-6.26-6.17-12.51-12.33-18.61-18.65-1.55-1.61-2.85-1.94-4.78-.93-7.78,4.06-15.31,2.74-22.53-1.43-5.37-3.1-8.59-8.09-11-13.66v-12.05c1.99-3.68,3.21-7.7,6.49-10.72,11.93-11.02,28.38-9.34,36.51,2.96,4.73,7.15,6.48,15.15,2.16,23.33-1.15,2.18-.36,3.33,1.08,4.75,6.97,6.88,13.82,13.88,20.82,20.71,2.03,1.98,2.93,4.11,2.91,6.94-.08,13.81.15,27.62-.15,41.42-.1,4.48,3.81,4.66,5.87,6.66,1.39,1.34,3.18-.85,4.59-2.01,2.27-1.87,4.63-3.62,6.93-5.45,1.59-1.26,2.81-2.61,2.56-4.98-.26-2.48-.08-5.01-.05-7.52.03-3.34,2.82-6.75,5.52-6.79,3.43-.05,5.65,2.58,5.68,6.7q.06,8.31,8.21,8.36c1.35,0,2.71-.18,3.91.77,1.92,1.52,2.7,1.09,2.66-1.45-.1-7.28-.09-14.56,0-21.84.02-1.84-.72-2.58-2.36-3.12-12.45-4.11-20.24-19.65-14.05-32.49,3.93-8.15,11.36-13.46,20.51-13.42,10.63.05,18.85,3.95,23.34,14.25,3.9,8.93.54,22.35-7.34,28.01-.38.27-.81.54-1.26.64-5.67,1.28-7.58,3.68-7.58,9.56,0,8.79,0,17.57,0,26.36,0,1.75.08,3.13,2.12,4.21,2.01,1.06,3.37.42,4.75-.49,3.58-2.33,6.9-5.07,10.79-6.89,2.48-1.16,3.14-2.96,3.04-5.63-.22-5.64.01-11.3-.1-16.94-.04-1.84.44-3.44,2.06-3.99,1.81-.61,3.49-1.34,5.82.19,3.09,2.03,3.52,4.43,3.46,7.53-.07,3.76.09,7.53-.06,11.29-.08,2.03.37,2.91,2.62,2.76,3-.2,6.04-.27,9.03.01,2.76.26,2.95-1.03,2.93-3.24-.09-10.54.04-21.09-.08-31.63-.04-3.79.87-6.9,3.8-9.5,5.31-4.72,9.78-10.32,15.43-14.73,2.01-1.57,3.86-3.63,5.05-5.86,1.31-2.44-.12-5.3-1.04-7.51-1.35-3.25-1.47-6.02-.83-9.48.62-3.39,2.08-5.99,3.56-8.92,2.77-5.46,7.44-7.97,12.76-9.45,8.73-2.43,17.39-1.72,23.56,5.41,9.14,10.57,11.33,20.56.66,33.08-2.95,3.46-7.34,6.31-12.23,7.53-5.21,1.3-10.14.46-14.8-1.98-2.01-1.05-2.96-1-4.72.94-5.64,6.22-11.72,12.05-17.76,17.9-1.58,1.53-2.18,3.07-2.16,5.23.1,10.67.04,21.34.04,32.01.27-.07.48,0,.65.23,13.68-.02,27.36-.17,41.04.02,3.09.04,4.52-1.12,5.86-3.63,3.85-7.24,8.7-13.86,14.78-19.32,7.75-6.96,16.13-13.09,26.16-16.58,5.91-2.06,9.04,1.93,8.48,5.55-.45,2.95-2.95,4.19-5.26,5.21-10.43,4.62-20.01,10.6-27.16,19.52-7.74,9.66-13.23,20.69-14.91,33.11-1.18,8.68-1.28,17.37.35,26.17,3.09,16.69,12.08,29.61,24.41,40.51,8.81,7.79,19.41,12.3,30.84,14.72,4.81,1.02,9.7,1.93,14.68,1.55,17.68-1.35,33.49-6.83,46.76-19.3,12.14-11.4,19.69-25.2,21.99-41.33,2.49-17.51-1.04-34.29-11.15-49.15-8.13-11.94-18.92-20.68-32.36-26.39-5.9-2.51-11.92-3.06-18.03-4-3.34-.51-6.66-.48-9.99-.71-3.21-.22-5.39-3.16-5.04-6.57.33-3.13,1.81-4.68,5.32-4.75,19.29-.39,36.54,5.46,51.78,17.05,10.64,8.09,18.46,18.63,24.03,30.75,4.73,10.29,7.69,21.2,7.55,32.5-.22,17.7-4.66,34.31-15.5,48.74Zm-49.92-47.63c.06-11.03,8.69-20.99,20.69-20.33,11.38-.83,21.18,9.18,20.98,21.39-.16,9.28-10.4,20.48-21.28,20.17-9.98-.29-20.45-9.37-20.39-21.22Z"/>
      <path class="cls-1" d="m406.98,249.36c0-4.59-3.24-9.58-6.26-9.16-2.94.41-6.31-1.27-8.77,1.08-2,1.91-4.13,3.78-3.9,7.33.4,6.24,3.54,9.73,9.74,9.72,5.73,0,9.19-3.38,9.2-8.96Z"/>
      <path class="cls-1" d="m190.62,162.05c-.12-1.85-2.6-3.5-3.86-5.33-2.83-4.12-7.15-3.96-11.23-3.57-5.25.5-9.98,5.8-10.4,11.91-.46,6.64,6.29,13.98,10.95,13.44,9.44.04,15.22-6.23,14.53-16.44Z"/>
    </g>
  </g>
</svg>