<?xml version="1.0" encoding="UTF-8"?>
<svg id="Layer_2" data-name="Layer 2" xmlns="http://www.w3.org/2000/svg" viewBox="0 0 500 500">
  <defs>
    <style>
      .cls-1 {
        fill: #fff;
      }
    </style>
  </defs>
  <g id="Layer_1-2" data-name="Layer 1">
    <path class="cls-1" d="m250,0C111.93,0,0,111.93,0,250s111.93,250,250,250,250-111.93,250-250S388.07,0,250,0Zm-48.35,162.45c26.59-26.59,69.62-26.59,96.21,0,3.66,3.66,1.02,9.88-4.09,9.88-1.48,0-2.96-.57-4.09-1.7-22.06-22.06-57.77-22.06-79.83,0h0c-2.26,2.26-5.93,2.26-8.19,0-2.26-2.26-2.26-5.93,0-8.19Zm29.68,29.68c-2.26,2.26-5.93,2.26-8.19,0s-2.26-5.93,0-8.19c14.71-14.71,38.51-14.71,53.22,0,2.26,2.26,2.26,5.93,0,8.19-2.26,2.26-5.93,2.26-8.19,0-10.18-10.18-26.66-10.18-36.85,0Zm18.42,29.28c-9.6,0-14.52-11.69-7.68-18.53,2.05-2.05,4.78-3.18,7.68-3.18,4.88,0,7.68,3.18,7.68,3.18,6.77,6.77,2.03,18.53-7.68,18.53Zm-88.54,183.33h-40.53c-3.2,0-5.79-2.59-5.79-5.79s2.59-5.79,5.79-5.79h40.53c3.2,0,5.79,2.59,5.79,5.79s-2.59,5.79-5.79,5.79Zm217.11,0h-40.53c-3.2,0-5.79-2.59-5.79-5.79s2.59-5.79,5.79-5.79h40.53c3.2,0,5.79,2.59,5.79,5.79s-2.59,5.79-5.79,5.79Zm44.87-58.62c0,15.96-12.99,28.95-28.95,28.95H104.76c-15.96,0-28.95-12.99-28.95-28.95v-52.11c0-15.96,12.99-28.95,28.95-28.95h11.58V115.61c0-11.77,9.58-21.35,21.35-21.35s21.35,9.58,21.35,21.35v133.52c0,3.2-2.59,5.79-5.79,5.79s-5.79-2.59-5.79-5.79V115.61c0-5.39-4.38-9.77-9.77-9.77s-9.77,4.38-9.77,9.77v149.44h176.34c3.2,0,5.79,2.59,5.79,5.79s-2.59,5.79-5.79,5.79H104.76c-9.58,0-17.37,7.79-17.37,17.37v52.11c0,9.58,7.79,17.37,17.37,17.37h289.48c9.58,0,17.37-7.79,17.37-17.37v-52.11c0-9.58-7.79-17.37-17.37-17.37h-48.49c-3.2,0-5.79-2.59-5.79-5.79V115.61c0-11.77,9.58-21.35,21.35-21.35s21.35,9.58,21.35,21.35v133.52c0,3.2-2.59,5.79-5.79,5.79s-5.79-2.59-5.79-5.79V115.61c0-5.39-4.38-9.77-9.77-9.77s-9.77,4.38-9.77,9.77v149.44h42.7c15.96,0,28.95,12.99,28.95,28.95v52.11Zm-206.26-26.05c0,3.2-2.59,5.79-5.79,5.79h-41.01c-3.2,0-5.79-2.59-5.79-5.79s2.59-5.79,5.79-5.79h41.01c3.2,0,5.79,2.59,5.79,5.79Zm-66.34,0c0,3.2-2.59,5.79-5.79,5.79h-15.44c-3.2,0-5.79-2.59-5.79-5.79s2.59-5.79,5.79-5.79h15.44c3.2,0,5.79,2.59,5.79,5.79Z"/>
  </g>
</svg>