<?xml version="1.0" encoding="UTF-8"?>
<svg id="Layer_2" data-name="Layer 2" xmlns="http://www.w3.org/2000/svg" viewBox="0 0 500 500">
  <defs>
    <style>
      .cls-1 {
        fill: #fff;
      }
    </style>
  </defs>
  <g id="Layer_1-2" data-name="Layer 1">
    <g>
      <path class="cls-1" d="m248.34,265.61c32.17-1.12,58.34-22.38,58.66-57.49.14-16.66-5.88-30.69-17.67-42.47-15.3-15.28-35.12-14.71-54.45-16.01-8.5,6.82-19.64,9.44-27.24,17.84-12.45,13.77-17.4,30.3-15.59,48.03,1.25,12.2,6.95,23.91,16.25,32.49,11.17,10.31,24.18,18.17,40.04,17.62Z"/>
      <path class="cls-1" d="m456.85,226.63c-2.31-5.98-2.73-12.3-3.89-18.45-2.4-12.78-5.6-25.64-10.75-37.21-8.65-19.4-18.56-38.45-33.16-54.55-8.52-9.39-17.19-18.56-27.05-26.54-8.33-6.74-16.54-13.45-26.19-18.61-8.65-4.63-17.29-9.2-26.25-13.18-.39-1.31-.17-3.88-2.47-1.17-9.78-2.85-19.06-7.12-29.07-9.45-11.85-2.76-23.73-4.57-35.85-4.74-8.88-.13-17.75-.61-26.65-.11-7.65.43-15.22.44-22.82,2.32-14.61,3.6-29.43,6.8-43.18,12.74-13.42,5.8-26.38,12.71-38.55,21.22-21.66,15.16-39.88,33.61-54.56,55.33-11.45,16.94-20.16,35.47-25.7,55.3-2.48,8.88-4.77,17.81-7.15,26.72-.85-.33-1.06.03-.89.81,1.25,2.14,1.37,4.64.82,6.78-2.08,8.16-.75,16.41-1.06,24.61-.5,13.46.72,26.72,3.33,40.01,2.48,12.62,6.54,24.59,10.66,36.7,6.86,20.14,18.74,37.09,31.04,54,5.76,7.91,14.36,13.19,19.2,21.94,1.06,1.92,3.71,4.32,6.72,3.3,2.83-.96,1.16-3.7,1.32-5.59,1.46-17.09,3.82-33.86,10.55-49.95,11.18-26.75,28.78-47.86,53.26-63.18,9.34-5.84,19.46-10.29,30.42-14.28-3.84-1.72-5.53-4.82-8.22-6.72-10.48-7.42-16.88-17.93-21.82-29.37-4.54-10.52-4.96-21.7-4.93-33.07.03-11.58,4.48-21.72,9.39-31.43,5.25-10.37,13.3-18.69,23.36-25.33,7.48-4.94,15.17-9.63,23.67-10.81,8.28-1.15,16.02-4.41,25.46-2.45,12.38,2.57,24.25,5.09,34.81,12.15,12.62,8.43,22.96,18.82,28.14,33.52l-.83.8.85.09c5.86,10.43,6.68,21.6,6.08,33.38-1.14,22.15-10.8,39.54-27.44,53.55-.25-.27-.5-.54-.75-.82-.02.27-.05.55-.07.82-1.7,1.68-3.4,3.35-5.11,5.03-.29.04-.58.08-.88.12.29.26.58.53.87.79,2.19,2.99,5.89,2.22,8.78,3.5,18.78,8.34,35.32,19.68,49.34,34.88,11.04,11.96,18.84,25.76,24.84,40.62,6.39,15.82,9.68,32.36,9.55,49.5-.01,1.66.04,3.36,1.61,4.08,1.91.88,2.61-1.22,3.76-2.13,4.87-3.85,9.04-8.36,13.25-12.96,17.46-19.11,31.61-40.22,40.43-64.62,2.21-6.1,6.47-11.75,7.01-17.92.61-6.81,2.88-13.15,3.61-19.83.57-5.26,3.57-10.96,3.21-15.36-1.03-12.6,1.12-25.14-.43-37.65-.29-2.34,1.15-5.11.37-7.13Z"/>
      <path class="cls-1" d="m331.17,317.02c-14.07-14.19-31.17-24.09-50.92-28.85-6.82-1.64-13.38-3.81-20.67-3.66-6.89.14-13.68-.84-20.77-.06-14.82,1.63-28.7,5.38-42.06,12.04-21.11,10.52-37.11,26.38-48.62,46.51-10.34,18.1-16.06,37.76-14.33,59.01,0,3.95.29,7.93-.07,11.85-.45,4.76,1.2,7.45,5.44,10.11,14.09,8.85,28.76,16.38,44.39,22.03,15.9,5.74,32.45,9.2,49.19,10.46,11.25.85,22.69.08,34.08-.55,14.59-.8,28.48-4.44,42.18-8.23,19.54-5.4,37.47-15.03,54.3-26.49,2.16-1.47,2.94-3.05,2.92-5.65-.1-13.42-1.01-26.69-3.4-39.97-4.16-23.12-15.58-42.31-31.67-58.55Z"/>
      <path class="cls-1" d="m250,0C111.93,0,0,111.93,0,250s111.93,250,250,250,250-111.93,250-250S388.07,0,250,0Zm222.18,286.39c-2.71,18.83-9.07,36.41-15.81,53.97-.65.18-1.2.42-.9,1.27-8.32,18.92-19.12,36.27-32.57,52.02-9.7,11.36-20.36,21.67-31.76,31.27-.88-.27-1.13.34-1.37.97-15.7,12.72-32.99,22.75-51.43,30.98-19.75,8.81-40.53,13.42-61.81,16.53-20.57,3.01-40.89,2.33-61.4-1-11.78-1.91-23.53-4.08-34.65-7.98-11.58-4.06-22.94-8.81-33.93-14.82-11.39-6.24-22.61-12.66-32.96-20.31-16.97-12.55-31.61-27.5-44.49-44.43-9.09-11.95-16.43-24.71-23.19-37.91-2.75-5.37-4.75-11.1-6.54-16.98-1.23-4.03-3.95-8.28-5.18-12.63-4.73-16.71-8.38-33.54-9.84-51.02-2.53-30.4,1.84-59.74,11.01-88.45,8.06-25.23,20.73-48.23,37.47-68.77,9.01-11.06,18.5-21.62,29.78-30.75,11.03-8.93,21.76-17.96,34.68-24.03.98.2,2,.51,2.4-.87,4.77-3.91,10.24-6.34,15.93-8.7,7.76-3.23,15.38-6.64,23.35-9.48,9.77-3.48,19.72-6.3,29.78-7.69,14.19-1.95,28.46-4.38,42.9-3.83,25.47.98,50.34,4.9,74.5,13.6,21.6,7.78,41.71,18.33,59.88,32.04,21.9,16.53,40.87,36.33,54.76,60.14,10.64,18.24,21.38,36.75,25.57,57.86,1.74,8.77,3.83,17.53,5.29,26.39,2.19,13.25,4.1,26.33,3.62,39.66-.4,11.01-1.51,21.97-3.09,32.94Z"/>
    </g>
  </g>
</svg>