<?xml version="1.0" encoding="utf-8"?>
<!-- Generator: Adobe Illustrator 27.4.1, SVG Export Plug-In . SVG Version: 6.00 Build 0)  -->
<svg version="1.1" id="apple" xmlns="http://www.w3.org/2000/svg" xmlns:xlink="http://www.w3.org/1999/xlink" x="0px" y="0px"
	 viewBox="0 0 128 128" style="enable-background:new 0 0 128 128;" xml:space="preserve">
<path d="M97.9,67.9C98.1,86.7,114.4,93,114.6,93c-0.1,0.4-2.6,8.9-8.6,17.7c-5.2,7.6-10.6,15.1-19,15.3c-8.3,0.2-11-4.9-20.5-4.9
	s-12.5,4.8-20.4,5.1c-8.2,0.3-14.4-8.2-19.6-15.7C15.8,95,7.7,66.8,18.6,47.8c5.4-9.4,15.2-15.4,25.7-15.6c8-0.2,15.6,5.4,20.5,5.4
	s14.1-6.7,23.8-5.7c4.1,0.2,15.4,1.6,22.7,12.3C110.7,44.6,97.8,52.2,97.9,67.9 M82.3,21.7c4.3-5.3,7.3-12.6,6.5-19.8
	C82.5,2.2,75,6.1,70.5,11.3c-4,4.6-7.5,12.1-6.6,19.2C70.8,31.1,77.9,27,82.3,21.7"/>
</svg>
