<?xml version="1.0" encoding="utf-8"?>
<!-- Generator: Adobe Illustrator 27.3.1, SVG Export Plug-In . SVG Version: 6.00 Build 0)  -->
<svg version="1.1" id="Layer_1" xmlns="http://www.w3.org/2000/svg" xmlns:xlink="http://www.w3.org/1999/xlink" x="0px" y="0px"
	 viewBox="0 0 500 500" style="enable-background:new 0 0 500 500;" xml:space="preserve">
<style type="text/css">
	.st0{fill:#B3B3B3;}
</style>
<path class="st0" d="M451.8,389.7c-7.6,17.5-16.5,33.5-26.9,48.3c-14.1,20.2-25.7,34.1-34.6,41.9c-13.8,12.7-28.6,19.2-44.5,19.6
	c-11.4,0-25.1-3.2-41.1-9.8c-16-6.5-30.8-9.8-44.3-9.8c-14.1,0-29.3,3.2-45.5,9.8c-16.2,6.6-29.3,10-39.3,10.3
	c-15.2,0.6-30.4-6-45.5-20.1c-9.7-8.4-21.7-22.9-36.2-43.3c-15.5-21.9-28.3-47.2-38.3-76.1c-10.7-31.2-16.1-61.4-16.1-90.7
	c0-33.5,7.2-62.4,21.7-86.6c11.4-19.5,26.6-34.8,45.5-46.1c19-11.3,39.5-17,61.6-17.4c12.1,0,27.9,3.7,47.6,11.1
	c19.6,7.4,32.2,11.1,37.8,11.1c4.1,0,18.1-4.4,41.9-13.1c22.5-8.1,41.4-11.4,56.9-10.1c42.1,3.4,73.7,20,94.7,49.9
	c-37.6,22.8-56.2,54.7-55.9,95.7c0.3,31.9,11.9,58.5,34.7,79.5c10.3,9.8,21.8,17.3,34.6,22.7C457.8,374.5,454.9,382.2,451.8,389.7
	L451.8,389.7z M355.3,10c0,25-9.1,48.4-27.3,70c-22,25.7-48.6,40.5-77.4,38.2c-0.4-3-0.6-6.2-0.6-9.5c0-24,10.5-49.7,29-70.7
	c9.3-10.6,21-19.5,35.3-26.5C328.6,4.5,342.1,0.7,354.7,0C355.1,3.3,355.3,6.7,355.3,10L355.3,10z"/>
</svg>
