<?xml version="1.0" encoding="UTF-8"?>
<svg id="Layer_1" data-name="Layer 1" xmlns="http://www.w3.org/2000/svg" viewBox="0 0 500 500">
  <defs>
    <style>
      .cls-1 {
        fill: #b3b3b3;
      }
    </style>
  </defs>
  <path class="cls-1" d="m451.75,389.4c-7.6,17.5-16.5,33.5-26.9,48.3-14.1,20.2-25.7,34.1-34.6,41.9-13.8,12.7-28.6,19.2-44.5,19.6-11.4,0-25.1-3.2-41.1-9.8-16-6.5-30.8-9.8-44.3-9.8s-29.3,3.2-45.5,9.8c-16.2,6.6-29.3,10-39.3,10.3-15.2.6-30.4-6-45.5-20.1-9.7-8.4-21.7-22.9-36.2-43.3-15.5-21.9-28.3-47.2-38.3-76.1-10.7-31.2-16.1-61.4-16.1-90.7,0-33.5,7.2-62.4,21.7-86.6,11.4-19.5,26.6-34.8,45.5-46.1,19-11.3,39.5-17,61.6-17.4,12.1,0,27.9,3.7,47.6,11.1,19.6,7.4,32.2,11.1,37.8,11.1,4.1,0,18.1-4.4,41.9-13.1,22.5-8.1,41.4-11.4,56.9-10.1,42.1,3.4,73.7,20,94.7,49.9-37.6,22.8-56.2,54.7-55.9,95.7.3,31.9,11.9,58.5,34.7,79.5,10.3,9.8,21.8,17.3,34.6,22.7-2.8,8-5.7,15.7-8.8,23.2h0ZM355.25,9.7c0,25-9.1,48.4-27.3,70-22,25.7-48.6,40.5-77.4,38.2-.4-3-.6-6.2-.6-9.5,0-24,10.5-49.7,29-70.7,9.3-10.6,21-19.5,35.3-26.5,14.3-7,27.8-10.8,40.4-11.5.4,3.3.6,6.7.6,10h0Z"/>
</svg>