<?xml version="1.0" encoding="UTF-8"?>
<svg id="Layer_2" data-name="Layer 2" xmlns="http://www.w3.org/2000/svg" viewBox="0 0 379.87 311.16">
  <defs>
    <style>
      .cls-1 {
        fill: #174489;
      }

      .cls-1, .cls-2 {
        fill-rule: evenodd;
      }

      .cls-2 {
        fill: #a8cb3a;
      }
    </style>
  </defs>
  <g id="Layer_1-2" data-name="Layer 1">
    <path id="Fill-1" class="cls-2" d="m323.22,310.76c-.19.17-.45.26-.7.26h-13.75c-.43,0-.86-.23-1.04-.63-.21-.46-.09-.99.29-1.3l25.09-21.13c.56-.47.56-1.33,0-1.81l-25.06-21.27c-.3-.26-.48-.66-.41-1.05.09-.54.56-.91,1.08-.91h13.23c.25,0,.5.09.7.26l27.31,22.97.25.21c.42.36.43,1,.02,1.38l-.27.25-26.75,22.78"/>
    <path id="Fill-2" class="cls-1" d="m55.1,263.25h-8.39c-1.01,0-1.83.82-1.83,1.83v27.12c0,.64-.75.98-1.23.56l-31.05-27.03c-2.12-1.84-4.42-2.78-6.85-2.78-2.14,0-5.75.87-5.75,6.73v39.23c0,1.01.82,1.83,1.83,1.83h8.39c1.01,0,1.83-.82,1.83-1.83v-27.23c0-.64.75-.98,1.23-.56l31.38,27.44c1.94,1.73,4.06,2.6,6.29,2.6s5.98-.91,5.98-7.03v-39.05c0-1.01-.82-1.83-1.83-1.83"/>
    <path id="Fill-3" class="cls-1" d="m116.47,263.25h-9.75c-.6,0-1.09.49-1.09,1.09v31.76c0,2.62-3.25,3.94-9.66,3.94h-13.26c-6.53,0-9.85-1.33-9.85-3.94v-31.76c0-.6-.49-1.09-1.09-1.09h-9.87c-.6,0-1.09.49-1.09,1.09v32.25c0,2.24.38,4.17,1.12,5.74.73,1.55,1.73,2.89,2.97,3.97,1.21,1.06,2.64,1.9,4.23,2.49,1.54.58,3.17,1.02,4.82,1.31,1.64.3,3.36.47,5.09.54,1.69.06,3.27.09,4.76.09h10.79c7.92,0,13.56-1.1,17.24-3.35,3.8-2.33,5.73-5.96,5.73-10.8v-32.25c0-.6-.49-1.09-1.09-1.09"/>
    <path id="Fill-4" class="cls-1" d="m173.49,271.63v-6.25c0-1.21-.98-2.19-2.19-2.19h-47.7c-1.21,0-2.19.98-2.19,2.19v6.25c0,1.21.98,2.19,2.19,2.19h16.68c.61,0,1.11.49,1.11,1.1v33.62c0,1.21.98,2.19,2.19,2.19h7.66c1.21,0,2.19-.98,2.19-2.19v-33.61c0-.61.49-1.1,1.1-1.1h16.75c1.21,0,2.19-.98,2.19-2.19"/>
    <path id="Fill-5" class="cls-1" d="m185.99,286.88l6.11-8.78c.28-.4.87-.4,1.16,0l6.18,8.72c.29.41,0,.97-.5.97h-12.48c-.46,0-.73-.52-.47-.9Zm13.45-20.41c-1.64-2.29-3.82-3.46-6.46-3.46s-4.76,1.19-6.41,3.54l-29.42,42.49c-.28.4-.26.95.08,1.34.22.25.56.37.89.37h11.57c.37,0,.71-.19.91-.5l7.39-11.37c.16-.25.44-.4.74-.4,0,0,24.63,0,28.36,0,.3,0,.57.15.73.4l7.56,11.38c.2.31.54.49.91.49h11.1c.4,0,.77-.22.96-.58.19-.35.17-.78-.06-1.12l-28.83-42.57h0Z"/>
    <path id="Fill-6" class="cls-1" d="m286.22,263.25h-8.62c-.95,0-1.71.77-1.71,1.71v27.49c0,.54-.63.83-1.04.47l-31.24-27.2c-2.12-1.84-4.42-2.78-6.85-2.78-2.14,0-5.74.87-5.74,6.73v39.35c0,.94.77,1.71,1.71,1.71h8.62c.95,0,1.71-.77,1.71-1.72v-27.6c0-.54.63-.83,1.04-.47l31.57,27.61c1.94,1.73,4.06,2.6,6.29,2.6s5.98-.91,5.98-7.03v-39.16c0-.95-.77-1.71-1.71-1.71"/>
    <path id="Fill-7" class="cls-1" d="m302.73,263.25h-9.87c-.6,0-1.09.49-1.09,1.09v45.31c0,.6.49,1.09,1.09,1.09h9.87c.6,0,1.09-.49,1.09-1.09v-45.31c0-.6-.49-1.09-1.09-1.09"/>
    <path id="Fill-8" class="cls-1" d="m354.18,283.08c.44.37,1.08.37,1.52,0l21.9-18.2c.3-.26.48-.66.41-1.05-.09-.54-.56-.91-1.08-.91h-13.23c-.25,0-.5.09-.7.26l-15.37,12.53c-.56.47-.56,1.32,0,1.79l6.56,5.58"/>
    <path id="Fill-9" class="cls-1" d="m354.1,291.03c.44-.37,1.08-.37,1.52,0l22.23,18.15c.3.26.48.65.41,1.05-.09.54-.56.91-1.08.91h-13.23c-.25,0-.5-.09-.7-.26l-15.27-12.72c-.56-.47-.56-1.32,0-1.79l6.13-5.34"/>
    <path id="Fill-1-2" data-name="Fill-1" class="cls-2" d="m88.14,253.46c-1.03.88-2.36,1.36-3.73,1.36H11.56c-2.3,0-4.55-1.22-5.5-3.32-1.1-2.42-.46-5.25,1.52-6.88l132.94-111.96c2.96-2.5,2.97-7.06.02-9.57L7.78,10.37c-1.61-1.37-2.55-3.47-2.18-5.55.5-2.87,2.96-4.82,5.73-4.82h70.1c1.35,0,2.65.48,3.73,1.36l144.67,121.7,1.31,1.12c2.23,1.9,2.28,5.31.13,7.29l-1.43,1.31-141.7,120.69"/>
    <path id="Fill-8-2" data-name="Fill-8" class="cls-1" d="m252.17,106.81c2.32,1.98,5.74,1.98,8.06,0L376.27,10.37c1.61-1.37,2.54-3.47,2.18-5.55-.5-2.87-2.96-4.82-5.73-4.82h-70.1c-1.35,0-2.65.48-3.73,1.36l-81.43,66.38c-2.95,2.48-2.96,7.01-.03,9.5l34.74,29.56"/>
    <path id="Fill-9-2" data-name="Fill-9" class="cls-1" d="m251.78,148.97c2.33-1.98,5.74-1.98,8.06,0l117.77,96.18c1.61,1.37,2.54,3.47,2.18,5.55-.5,2.86-2.96,4.82-5.73,4.82h-70.11c-1.34,0-2.65-.48-3.72-1.36l-80.92-67.38c-2.95-2.48-2.96-7.01-.03-9.5l32.5-28.31"/>
  </g>
</svg>