<?xml version="1.0" encoding="utf-8"?>
<!-- Generator: Adobe Illustrator 27.3.1, SVG Export Plug-In . SVG Version: 6.00 Build 0)  -->
<svg version="1.1"
	 id="Layer_1" xmlns:rdf="http://www.w3.org/1999/02/22-rdf-syntax-ns#" xmlns:dc="http://purl.org/dc/elements/1.1/" xmlns:cc="http://creativecommons.org/ns#"
	 xmlns="http://www.w3.org/2000/svg" xmlns:xlink="http://www.w3.org/1999/xlink" x="0px" y="0px" viewBox="0 0 122 36"
	 style="enable-background:new 0 0 122 36;" xml:space="preserve">
<style type="text/css">
	.st0{fill:#0C1724;}
	.st1{fill:#7BB73A;}
</style>
<path class="st0" d="M12.9,21.8c0,0.8-0.2,1.5-0.5,2.2c-0.3,0.7-0.8,1.3-1.4,1.7c-0.6,0.5-1.3,0.8-2.2,1.1c-0.8,0.3-1.8,0.4-2.8,0.4
	c-1.2,0-2.3-0.2-3.2-0.5C1.9,26.5,1,25.9,0,25.2l1.6-2.6c0.8,0.6,1.4,1.1,2,1.4c0.6,0.3,1.2,0.4,1.9,0.4c0.8,0,1.4-0.2,1.9-0.6
	c0.5-0.4,0.7-0.9,0.7-1.6c0-0.3,0-0.6-0.1-0.8c-0.1-0.3-0.2-0.5-0.5-0.8c-0.2-0.3-0.5-0.6-1-0.9C6.1,19.4,5.6,19,5,18.5
	c-0.5-0.3-1-0.7-1.4-1.1c-0.5-0.4-0.9-0.8-1.3-1.2c-0.4-0.4-0.7-0.9-0.9-1.4C1.1,14.4,1,13.8,1,13.2c0-0.8,0.2-1.5,0.5-2.1
	s0.7-1.2,1.3-1.6c0.5-0.4,1.2-0.8,2-1c0.8-0.2,1.6-0.4,2.5-0.4c1,0,1.9,0.1,2.8,0.4c0.9,0.3,1.7,0.6,2.5,1.1L11,11.9
	c-1-0.7-2-1-3.1-1c-0.7,0-1.2,0.2-1.6,0.5s-0.6,0.8-0.6,1.3c0,0.5,0.2,0.9,0.6,1.3c0.4,0.4,1,0.9,2,1.7c0.9,0.7,1.7,1.3,2.3,1.8
	c0.6,0.5,1.1,1,1.5,1.5c0.4,0.5,0.6,0.9,0.7,1.4C12.9,20.7,12.9,21.2,12.9,21.8L12.9,21.8z M29.1,17.5c0,0.7-0.1,1.5-0.2,2.3
	c-0.1,0.8-0.4,1.6-0.8,2.3c-0.4,0.7-0.8,1.3-1.4,1.7c-0.6,0.5-1.3,0.7-2.2,0.7c-1.5,0-2.6-0.6-3.5-1.8c-0.8-1.2-1.3-2.8-1.3-4.8
	c0-2.1,0.4-3.8,1.3-5c0.9-1.2,2-1.8,3.5-1.8c1.4,0,2.5,0.6,3.3,1.7C28.7,13.9,29.1,15.5,29.1,17.5L29.1,17.5z M34.2,17.3
	c0-1.4-0.2-2.6-0.6-3.7c-0.4-1.1-0.9-2.1-1.7-2.9c-0.7-0.8-1.6-1.4-2.6-1.9s-2.1-0.7-3.3-0.7c-1.3,0-2.5,0.3-3.5,0.7
	c-1,0.5-1.9,1.3-2.8,2.4l0-2.7h-4.7V36h4.7V24.4c0.5,0.5,0.9,1,1.3,1.4c0.4,0.4,0.9,0.7,1.3,0.9c0.4,0.2,0.9,0.4,1.4,0.5
	c0.5,0.1,1,0.1,1.6,0.1c1.2,0,2.4-0.3,3.5-0.7c1.1-0.5,2-1.2,2.8-2.1c0.8-0.9,1.4-2,1.8-3.2C34,20.1,34.2,18.7,34.2,17.3L34.2,17.3z
	 M36.3,26.8h4.8V0h-4.8V26.8z M61.7,26.9V8.5h-4.8v9.9c0,0.9,0,1.6-0.1,2c-0.1,0.5-0.2,0.9-0.4,1.3c-0.7,1.5-1.9,2.3-3.8,2.3
	c-1.4,0-2.4-0.5-3-1.5c-0.2-0.4-0.4-0.8-0.5-1.3c-0.1-0.5-0.1-1.2-0.1-2.1V8.5h-4.8v10.4c0,0.7,0,1.3,0,1.8c0,0.5,0,0.9,0.1,1.3
	c0,0.4,0.1,0.7,0.2,1c0.1,0.3,0.2,0.6,0.3,0.8c0.4,1.1,1.2,2,2.1,2.5c1,0.6,2.2,0.9,3.6,0.9c1.3,0,2.4-0.2,3.4-0.7s1.9-1.2,2.9-2.2
	l0,2.5L61.7,26.9L61.7,26.9z M82.5,26.8V16.5c0-0.7,0-1.3,0-1.8c0-0.5,0-0.9-0.1-1.3c0-0.4-0.1-0.7-0.2-1c-0.1-0.3-0.2-0.6-0.3-0.8
	c-0.4-1.1-1.2-1.9-2.1-2.5s-2.2-0.9-3.6-0.9c-1.3,0-2.4,0.2-3.4,0.7S70.8,10,69.9,11l0-2.5H65v18.3h4.9V17c0-0.8,0-1.5,0.1-2
	c0.1-0.5,0.2-0.9,0.3-1.3c0.3-0.7,0.8-1.3,1.5-1.7s1.4-0.6,2.3-0.6c1.4,0,2.4,0.5,3,1.5c0.2,0.4,0.4,0.8,0.5,1.3
	c0.1,0.5,0.1,1.2,0.1,2.1v10.4L82.5,26.8L82.5,26.8z M102.4,25.6l-7.3-9.1l6.2-6.7l-3.7-1.6l-6.5,7.5h-0.5V0h-4.9v26.9h4.9v-9.7
	l7.3,10.1L102.4,25.6L102.4,25.6z M108,4c-0.9,0-1.6,0.7-1.6,1.6c0,0.9,0.7,1.7,1.6,1.7c0.9,0,1.6-0.7,1.6-1.7
	C109.7,4.7,108.9,4,108,4z M108,4.2c0.7,0,1.3,0.6,1.3,1.4c0,0.8-0.6,1.4-1.3,1.4c-0.7,0-1.3-0.6-1.3-1.4
	C106.7,4.9,107.3,4.2,108,4.2z M107.7,5.8h0.2c0.2,0,0.3,0.1,0.4,0.3c0,0.2,0.1,0.4,0.1,0.5h0.3c0-0.1-0.1-0.2-0.1-0.5
	c0-0.3-0.1-0.4-0.3-0.4v0c0.2-0.1,0.4-0.2,0.4-0.4c0-0.2-0.1-0.3-0.2-0.4c-0.1-0.1-0.3-0.1-0.6-0.1c-0.2,0-0.4,0-0.5,0v1.8h0.3
	L107.7,5.8L107.7,5.8z M107.7,5c0,0,0.1,0,0.2,0c0.3,0,0.4,0.2,0.4,0.3c0,0.2-0.2,0.3-0.4,0.3h-0.2V5L107.7,5z"/>
<polygon class="st1" points="120.1,19.4 120.1,16.4 105.4,9.1 105.4,12.4 116.8,17.9 105.4,23.5 105.4,26.7 120.1,19.4 "/>
</svg>
