<?xml version="1.0" encoding="utf-8"?>
<!-- Generator: Adobe Illustrator 27.3.1, SVG Export Plug-In . SVG Version: 6.00 Build 0)  -->
<svg version="1.1" id="Layer_1" xmlns="http://www.w3.org/2000/svg" xmlns:xlink="http://www.w3.org/1999/xlink" x="0px" y="0px"
	 viewBox="0 0 800 800" style="enable-background:new 0 0 800 800;" xml:space="preserve">
<style type="text/css">
	.st0{fill:url(#SVGID_1_);}
	.st1{fill:url(#SVGID_00000080198055815615001430000011890935303248679348_);}
	.st2{fill:url(#SVGID_00000101782886745877940880000011747728392223425188_);}
	.st3{fill:#FFFFFF;}
</style>
<g transform="matrix(.569 0 0 .569 199.451 -82.735)">
	
		<linearGradient id="SVGID_1_" gradientUnits="userSpaceOnUse" x1="-12123.7021" y1="-725.5237" x2="-11282.999" y2="-1222.2817" gradientTransform="matrix(3.800003e-02 0 0 3.800003e-02 732.986 1006.2745)">
		<stop  offset="0" style="stop-color:#909CA9"/>
		<stop  offset="1" style="stop-color:#EDEDEE"/>
	</linearGradient>
	<path class="st0" d="M602.7,642l-155.3,50.7l-135.1,59.6l-37.8,10c-9.6,9.2-19.7,18.4-30.6,27.8c-12,10.3-23.1,19.7-31.7,26.5
		c-9.5,7.5-23.6,21.6-30.7,30.5c-10.7,13.4-19.1,27.6-22.8,38.5c-6.5,19.7-3.3,39.7,9.2,58.1c16,23.5,47.8,47.4,84.9,63.7
		c18.9,8.3,50.7,19,74.6,25c39.8,10.1,116.8,21,159.1,22.7c8.6,0.4,20.1,0.4,20.5,0c0.9-0.6,7.5-13.1,15.1-28.8
		c26.1-53.2,44.8-103,55-145.6c6.1-25.8,10.9-60.2,14.1-100.9c0.8-11.4,1.2-49.5,0.5-62.4c-1.1-21.1-2.9-38.3-5.9-55
		c-0.5-2.5-0.6-4.7-0.4-4.8c0.5-0.4,1.9-0.8,21-6.3L602.7,642L602.7,642L602.7,642L602.7,642z M567.2,662.8c1.4,0,5.2,36,6.1,58.8
		c0.2,4.8,0.1,8-0.1,8c-0.9,0-19.8-11.1-33.3-19.6c-11.7-7.4-34-22.2-37.6-25c-1.2-0.8-1.1-0.9,8.6-4.2
		C527.2,675.2,566,662.8,567.2,662.8z M488.1,688.8c1.1,0,3.8,1.5,10.2,5.5c24.2,15.1,57,33.4,71.1,39.6c4.3,1.9,4.8,1.2-5.2,8
		c-21.4,14.6-48,28.9-80.6,43.3c-5.7,2.6-10.6,4.6-10.7,4.6c-0.2,0,0.5-2.9,1.4-6.5c7.9-29.2,12.3-58.8,12.6-82.5
		c0.1-11.7,0.1-11.7,1.2-12.1C487.9,688.8,488,688.8,488.1,688.8L488.1,688.8z M471.8,695c0.7,0.7,0.2,27-0.7,34.2
		c-2.1,17.1-5.4,33.1-10.8,51.1c-1.3,4.3-2.5,8-2.7,8.2c-0.5,0.6-16.6-15.1-21.8-21.2c-9.2-10.6-16.3-21.1-21.6-31.5
		c-2.7-5.3-6.9-15.6-6.6-16C409.5,718.5,471.4,694.6,471.8,695L471.8,695z M395.1,725.2c0.1,0,0.2,0,0.4,0.1
		c0.2,0.2,1.1,2.1,1.8,4.2c3.8,10.2,12.2,25.2,19.5,34.9c8,10.6,18.4,21.8,27.1,29.2c2.8,2.3,5.4,4.6,5.7,4.9
		c0.7,0.7,0.9,0.6-18.2,7.9c-22.2,8.4-46.4,16.9-74.1,25.8c-6.6,2.1-13.2,4.3-19.8,6.5c-1.1,0.4-0.7-0.2,2.3-5
		c13.7-21.5,34.6-63.6,46.4-93.4c2-5.2,4-10.3,4.3-11.5c0.5-1.6,1.1-2.2,2.6-3.1C393.9,725.4,394.7,725.2,395.1,725.2L395.1,725.2z
		 M371.6,734.9c0.4,0.2-5.6,12.8-11.5,24.3c-11.4,22.2-23.8,44-40.5,70.5c-2.8,4.6-5.5,8.8-5.9,9.3c-0.6,0.8-0.8,0.6-2.7-3.1
		c-4-7.9-7.3-18-9-27.2c-1.8-9.2-1.4-25.1,0.6-35c1.5-7.3,1.4-7.2,4.9-8.9C322.5,757.2,371.1,734.5,371.6,734.9L371.6,734.9z
		 M574,743.1v4.9c0,26.2-2.8,62.1-6.9,88.3c-0.7,4.6-1.3,8.3-1.4,8.4c0,0-3.4-0.9-7.4-2.1c-17.6-5.5-36.7-13.6-54-23.1
		c-11.4-6.2-27.9-16.4-27.5-16.9c0.1-0.1,5-2.7,10.8-5.8c23-12,45.1-24.9,64.2-37.7c7.2-4.8,18-12.6,20.3-14.7L574,743.1L574,743.1z
		 M283,777.9c0.5,0,0.4,0.9-0.4,5.2c-0.5,3.1-1.1,8.7-1.3,12.6c-0.9,17.1,1.9,29.8,10.3,47.2c2.3,4.8,4.2,8.8,4.1,8.9
		c-0.8,0.7-78.5,23.5-102.9,30.2c-7.3,2-13.6,3.8-14.1,3.9c-0.8,0.2-0.9,0.1-0.6-1.9c2.7-17.3,15.8-39.8,34.2-58.8
		c12.2-12.7,21.9-20.1,38.6-29.6c12-6.8,30.4-17,31.8-17.5C282.8,777.9,282.9,777.9,283,777.9L283,777.9z M466.1,810.6
		c0.1-0.1,2.9,1.4,6.3,3.4c25.1,14.6,60.1,28.1,89.9,35l2.7,0.6l-3.8,2.1c-15.6,8.7-66.9,30-119.4,49.6c-7.6,2.8-15.1,5.6-16.6,6.2
		c-1.4,0.6-2.7,0.9-2.7,0.8c0-0.1,2.1-4.2,4.8-9.3c14.7-27.5,29.5-60.9,37-84.1C465.4,812.7,466,810.7,466.1,810.6L466.1,810.6z
		 M447.4,816.7c0.1,0.1-0.8,2.6-2,5.4c-10.2,24.8-23.6,51.8-40.7,82c-4.3,7.7-8,14-8.1,14c-0.1,0-3.6-2.1-7.9-4.7
		c-24.9-15.3-46.9-34-61.4-52.2l-2.1-2.6l10.7-2.9c38.3-10.4,70.8-21.7,103-35.6C443.5,818.3,447.3,816.7,447.4,816.7z M563.4,857.2
		C563.4,857.2,563.5,857.3,563.4,857.2c0.1,2.7-5.9,26.9-10.8,44.4c-4.1,14.7-7.6,26.2-14.1,46.5c-2.8,8.9-5.3,16.3-5.4,16.3
		c-0.1,0-0.8-0.1-1.5-0.4c-34.9-6.3-66.1-15.1-95.4-26.9c-8.2-3.3-20-8.6-20.7-9.2c-0.2-0.2,6.8-3.5,15.7-7.4
		c53.4-23.4,108.8-49.9,127.8-61.3C561.3,857.9,563,857.2,563.4,857.2L563.4,857.2z M295.7,866.4c0.2,0.2-14.7,21.7-35.6,50.9
		c-7.3,10.2-15.7,22.2-18.9,26.6c-3.2,4.5-8,11.5-10.7,15.7l-4.9,7.6l-5.3-4.5c-6.2-5.2-17-16.2-21.8-22.3
		c-10.1-12.6-16.9-25.8-19.6-37.9c-1.3-5.6-1.3-8.5-0.1-8.8c1.8-0.5,33.1-7.9,62.4-14.7c16.3-3.8,35.2-8.2,42-9.9
		C290,867.7,295.5,866.4,295.7,866.4L295.7,866.4z M310.7,872.1l3.8,4.2c16.9,18.9,34.2,32.9,55,45.1c3.8,2.1,6.6,4,6.3,4.1
		c-0.8,0.6-72.5,26.1-105.7,37.6c-18.7,6.6-34,11.9-34.2,11.9c-0.1,0-1.2-0.7-2.3-1.5l-2.1-1.5l3.4-4.9c11-16,24.9-33.4,55-69.8
		L310.7,872.1L310.7,872.1z M404.3,939.1c0.1-0.1,5.3,1.8,11.6,4.1c15.3,5.7,27.3,9.4,43.5,13.5c20,5,48.8,10,65.8,11.4
		c2.6,0.2,4,0.5,3.5,0.8c-0.8,0.5-18.1,6.2-30.7,10.2c-20.2,6.3-81.8,24.5-132,39c-9.3,2.7-17.3,4.9-17.7,5c-1.2,0.2-5-0.8-5-1.3
		c0-0.2,2.8-3.9,6.2-7.9c16.9-20.2,33.7-42.7,47.6-64.1C401.1,944.1,404.3,939.3,404.3,939.1L404.3,939.1z M383.7,939.7
		c0.1,0.1-8.2,13.5-22.8,36.5c-6.2,9.7-13.1,20.8-15.6,24.6c-2.3,3.8-5.9,9.6-7.9,12.9l-3.4,6l-1.8-0.5
		c-4.2-1.2-33.9-11.6-41.8-14.8c-9.7-3.9-19.8-8.6-27.3-12.6c-9.4-5-21.1-12.6-20.2-12.8c0.2-0.1,16.3-4.5,35.7-9.7
		c51.4-14,79.9-22.1,98.6-27.9C380.6,940.4,383.6,939.6,383.7,939.7L383.7,939.7z M529.8,974h0.1c0.5,1.2-18.5,54-25.5,70.7
		c-1.5,3.8-2.1,4.7-2.9,4.6c-2-0.1-29.6-4-46.4-6.5c-29.2-4.5-78.3-13-90.6-15.8l-2.8-0.6l17.5-4c37.6-8.4,55.6-13,73.9-18.7
		c23.1-7,46-15.8,69.1-26.6C525.9,975.4,529,974.1,529.8,974L529.8,974z"/>
	
		<linearGradient id="SVGID_00000065782685278857024720000015563910637647601558_" gradientUnits="userSpaceOnUse" x1="-12090.5381" y1="-17179.8125" x2="-11414.0879" y2="-17179.8125" gradientTransform="matrix(3.800003e-02 0 0 3.800003e-02 732.986 1006.2745)">
		<stop  offset="0" style="stop-color:#939FAB"/>
		<stop  offset="1" style="stop-color:#DCDEE1"/>
	</linearGradient>
	<path style="fill:url(#SVGID_00000065782685278857024720000015563910637647601558_);" d="M442.6,280c-2.6-0.4-44.2,14.7-71.1,25.6
		c-36.3,14.8-64.4,28.9-81.8,41.1c-6.5,4.6-14.6,12.7-15.8,15.8c-0.5,1.2-0.7,2.6-0.7,4l15.7,14.9l37.4,12l89.1,16l101.9,17.5
		l1.1-8.8c-0.4,0-0.6-0.1-0.9-0.1l-13.4-2.1l-2.7-4.8c-13.8-24.4-29.1-54.7-38-75.1c-6.9-15.8-13.5-34.2-17.1-47.3
		C444.1,280.6,443.9,280.2,442.6,280L442.6,280L442.6,280L442.6,280z M440.7,286h0.1c0.1,0.1,0.6,3.4,1.1,7.3
		c2,16.4,5.6,32.3,11.4,49.4c4.3,12.9,4.3,12.2-0.7,10.7c-12-3.3-65.6-12.6-104.5-18c-6.2-0.8-11.5-1.6-11.5-1.8
		c-0.5-0.5,28-15.4,40.6-21.2C393.3,305,437.4,286.6,440.7,286z M327.6,338.6l4.6,1.5c24.9,8.5,87.4,20.4,121.9,23.2
		c3.9,0.4,7.2,0.7,7.3,0.7c0.1,0.1-3.2,1.9-7.4,3.9c-16.7,8.3-35,18.5-47.6,26.4c-3.8,2.3-7.2,4.2-7.6,4.2c-0.5,0-2.9-0.5-5.5-0.8
		l-4.7-0.7l-11.7-11.5c-20.7-20.1-36.9-35.6-43.1-41.4L327.6,338.6z M322.9,342.2l16.5,20.7c9,11.4,18.2,22.5,20.2,25
		c2,2.5,3.6,4.5,3.5,4.6c-0.5,0.4-23.9-4.2-36.4-7c-12.8-2.9-18.1-4.3-25.9-6.8l-6.5-2.1v-1.6c0.1-7.9,10.1-19.6,27-31.6
		C321.4,343.3,322.9,342.2,322.9,342.2z M463.5,370.4c0.5,0,1.1,1.1,2.5,4.2c4,8.8,16.4,32.5,19.5,37.1c0.9,1.5,2.6,1.6-14-1.1
		c-39.8-6.5-52.6-8.6-52.6-8.8c0-0.1,1.2-0.9,2.7-1.8c12.3-6.8,24.8-15.5,35.8-24.8c2.7-2.2,5.2-4.3,5.6-4.7
		C463.1,370.4,463.4,370.3,463.5,370.4z"/>
	
		<radialGradient id="SVGID_00000125570538545353059170000015872131564219974042_" cx="-17950.0488" cy="-11833.8809" r="898.12" gradientTransform="matrix(-3.649111e-02 -5.481365e-03 1.108591e-02 -7.298223e-02 -22.3244 -401.6479)" gradientUnits="userSpaceOnUse">
		<stop  offset="0" style="stop-color:#EE352C"/>
		<stop  offset="1" style="stop-color:#A91D22"/>
	</radialGradient>
	<path style="fill:url(#SVGID_00000125570538545353059170000015872131564219974042_);" d="M274.7,360.9c0,0-2.6,4.1-0.1,10.2
		c1.5,3.8,6,8.3,11,13c0,0,52.2,50.9,58.6,58.2c28.9,33.3,41.4,66.2,42.6,111.5c0.7,29.1-4.8,54.7-18.5,84.4
		c-24.4,53.3-75.9,112.1-155.4,177.3l11.6-3.9c7.5-5.6,17.7-11.6,41.7-24.8c55.3-30.3,117.5-58.1,193.8-86.7
		c109.8-41.3,290.5-89.7,393.3-105.4l10.7-1.6l-1.6-2.6c-9.4-14.6-15.8-23.6-23.6-33.2c-22.5-27.9-49.9-50.6-83.3-69.4
		c-46-25.7-105.5-45.8-180.9-60.7c-14.2-2.8-45.4-8.2-70.8-12.1c-53.8-8.3-88.5-14.1-126.8-20.7c-13.7-2.3-34.3-5.9-47.9-8.8
		c-7-1.5-20.5-4.7-31.1-8.3C289.4,374.2,277.2,370.9,274.7,360.9L274.7,360.9z M304.9,390.2c0.1-0.1,2,0.6,4.5,1.4
		c4.5,1.5,10.2,3.3,17,5.2c5.2,1.4,10.3,2.8,15.5,4.1c7,1.8,12.9,3.4,13,3.4c0.8,0.8,12.7,38.7,16.7,53.3c1.5,5.5,2.7,10.2,2.6,10.2
		c-0.1,0.1-1.4-1.9-2.9-4.6c-13.7-24.2-35.4-48.7-60.6-68.4C307.4,392.5,304.9,390.4,304.9,390.2z M362.7,406.2
		c0.6,0,3.2,0.4,6.3,1.1c20,4.5,55.7,11.3,78.6,15.1c3.9,0.6,6.9,1.3,6.9,1.5c0,0.2-1.4,1.1-3.2,2c-3.9,2-19.5,11.3-24.6,14.8
		c-13,8.7-24.8,18.1-33.2,26.5c-3.4,3.4-6.3,6.2-6.3,6.2s-0.7-2-1.3-4.5c-4.2-16.3-13-40.5-21-57.5c-1.3-2.7-2.3-5.2-2.3-5.4
		C362.6,406.3,362.6,406.2,362.7,406.2L362.7,406.2z M464.3,425.6c0.7,0.2,1.9,4.2,4.2,13c4.3,17,6.3,36,5.6,53.8
		c-0.2,4.9-0.5,9.5-0.7,10.1l-0.4,1.2l-6.1-2c-12.6-4-33-10-50.5-14.9c-10-2.7-18.1-5.2-18.1-5.4c0-0.7,14.6-15.3,20.8-20.8
		C431.1,450.1,463.3,425.2,464.3,425.6L464.3,425.6z M472.4,426.7c0.4-0.4,48.6,8,70.5,12.2c16.3,3.2,40,8.1,41.4,8.7
		c0.7,0.2-1.8,1.6-9.6,5.2c-31,14-54,26.5-76.9,41.8c-6,4-11,7.3-11.1,7.3c-0.1,0-0.2-3.4-0.2-7.5c0-22.3-4.5-44.8-12.7-63.8
		C473,428.6,472.3,426.9,472.4,426.7z M597.2,451.4c0.4,0.4-1.2,9.9-2.6,15.5c-4.2,17.5-15.6,43.4-29.6,67.8c-2.5,4.3-4.7,7.9-4.9,8
		c-0.2,0.1-3.4-1.6-7-3.8c-13.6-8-29.1-15.5-46-22.5c-4.7-2-8.8-3.6-8.9-3.9c-0.8-0.7,37-25.7,56.9-37.7
		C570.9,465.2,596.7,450.9,597.2,451.4z M606.1,452.8c1.1,0,22.4,5.9,33.6,9.2c27.6,8.2,59.3,19.8,79.9,29.2l8.6,3.9l-6,1.4
		c-50.5,11.6-93.7,25-135.3,41.9c-3.4,1.4-6.5,2.6-6.7,2.6c-0.2,0,0.9-2.7,2.5-6c12.6-26.6,20.7-54.5,22.6-78.2
		C605.4,454.6,605.7,452.8,606.1,452.8L606.1,452.8z M393.4,501.6c0.4-0.4,16.7,3.5,25.5,6c13.4,3.8,41.8,13.3,41.8,14
		c0,0.1-3.2,2.8-6.9,6.1c-15.4,12.8-30.2,26.3-47.9,43.4c-5.3,5-9.7,9.2-10,9.2c-0.2,0-0.4-0.7-0.2-1.6c2.7-19.7,2.1-45.1-1.6-70.8
		C393.7,504.5,393.3,501.7,393.4,501.6z M736.2,502c0.2,0.2-7.5,12.4-12.4,19.4c-7,10.1-17.4,23.5-40.7,52.8
		c-12.3,15.5-26.2,33-30.7,38.8c-4.7,5.9-8.6,10.8-8.7,10.8c-0.1,0-1.6-2.1-3.3-4.7c-13.1-19.7-28.9-37-47.5-52.5
		c-3.5-2.9-7.4-6.1-8.7-7c-1.3-0.9-2.3-1.9-2.3-2c0-0.4,19.9-8.9,35.1-15c26.5-10.8,62.7-23.7,89.8-32
		C720.9,506.1,736,501.7,736.2,502L736.2,502z M745.3,504.3c0.5-0.1,3.3,1.3,6.7,3.3c28.5,16.3,56.4,37.3,78.5,58.9
		c6.2,6.1,21.6,22.1,21.4,22.2c0,0-5.4,0.5-11.7,0.9c-49.4,3.8-112.7,14.2-173.5,28.9c-4.1,0.9-7.7,1.8-8,1.8
		c-0.2,0,4.3-4.6,10.1-10.1c35.7-34.4,52-56.1,71.2-94.8C742.7,509.6,745,504.7,745.3,504.3C745.2,504.3,745.2,504.3,745.3,504.3
		L745.3,504.3z M483.9,531.1c1.6,0.4,16.9,7.5,28.4,13.3c10.6,5.3,26.4,13.7,27.2,14.4c0.1,0.1-5.5,3.1-12.4,6.5
		c-22.1,11-41,21.5-60.7,33.4c-5.6,3.4-10.3,6.2-10.4,6.2c-0.5,0-0.4-0.5,2.8-6.2c10.6-19.2,19-42.2,23.8-64.7
		C483.1,532.2,483.6,531.1,483.9,531.1L483.9,531.1z M468.7,533.9c0.4,0.4-3.6,14.8-6.1,22.7c-4.8,14.9-12.9,33.6-20.8,47.6
		c-1.9,3.3-4.7,8.1-6.2,10.8l-2.9,4.7l-6.6-6.3c-7.6-7.4-13.8-12-21.8-16.1c-3.2-1.6-5.6-3.1-5.6-3.3c0-0.9,20.1-19.1,35.4-32.3
		C445.1,552.2,468.3,533.5,468.7,533.9L468.7,533.9z M562,572.3l5.8,3.8c13.1,8.6,28.6,20,40.5,29.9c6.7,5.5,19.6,17.1,22.2,20
		l1.4,1.5l-9.5,2.7c-53.8,14.9-95.3,28.2-143.8,46c-5.4,2-10,3.6-10.3,3.6c-0.7,0-1.3,0.6,10.8-10.6c31-28.5,58.4-60,78.9-90.6
		L562,572.3L562,572.3z M537.4,578.4c0.2,0.2-15.8,22.9-25.5,35.7c-11.5,15.3-31.9,40.8-46,57.5c-5.9,6.9-10.9,12.7-11.1,12.8
		c-0.4,0.1-0.5-1.6-0.5-4.3c0-14.2-3.6-29.3-10-42.3c-2.7-5.4-3.2-6.7-2.6-7.3c2.2-2,36.4-21.5,58-33.1
		C514.3,589.6,537.1,578.1,537.4,578.4L537.4,578.4z M389.1,614.8c0.4,0,3.1,1.4,6.1,3.1c7.5,4.1,14.2,8.7,20.2,13.6
		c0.2,0.2-2.8,2.7-6.8,5.6c-11.1,8-28,20.8-37.9,28.6c-10.3,8.2-10.7,8.4-9.5,6.7c7.7-11.9,11.6-18.5,15.7-27.1
		c3.6-7.6,7.3-16.7,9.9-24.5C387.7,617.3,388.9,614.8,389.1,614.8L389.1,614.8z M428.6,645.7c0.6-0.1,1.3,0.9,4.5,5.6
		c6.7,10,11.9,23.4,13.1,34.2l0.2,2.3l-16.1,6.2c-28.8,11.1-55.3,22.2-73.2,30.4c-5,2.3-13.8,6.6-19.6,9.4c-5.8,2.9-10.4,5.2-10.4,5
		s3.6-2.8,8.1-6.1c35.1-25.5,65.5-53.4,88.3-81.3c2.5-2.9,4.7-5.6,4.9-5.8L428.6,645.7L428.6,645.7z M410.4,650.2
		c0.5,0.5-12.9,15.6-22.1,24.9c-22.7,23.1-45.1,41.2-72.9,58.8c-3.5,2.2-6.7,4.2-7,4.5c-0.8,0.5,0.2-0.7,12.4-14
		c7.7-8.3,13.6-15.4,20.3-24.1c4.5-5.7,5.3-6.6,11.7-11.2C370.2,676.7,410,649.7,410.4,650.2z"/>
</g>
<path class="st3" d="M143.8,563.7c-1.2,0-2.5,0.1-3.7,0.1c-24.9,1.3-41.7,12.3-51.5,33.7c-8.4,19.3-7.5,44.6,0.1,64.1
	c8.8,19,23,29,46.8,32.8c5,0.8,8.4,3.6,18.1,14.9l12,14h21.7l-14.4-14.6c-8-8-14.4-14.9-14.4-15.5c0-0.6,3.1-1.9,6.7-3.1
	c12.2-3.7,22.3-13.1,29.4-27.5c5.7-11.6,6.5-15.2,7.4-29.6C204.1,590.2,181.5,563.4,143.8,563.7L143.8,563.7L143.8,563.7z
	 M162.9,675.9c-10.6,5.1-25.9,6.1-35.9,2.5c-10.4-3.8-20.4-14.6-24.9-26.7c-5-13.3-4.3-37.9,1.4-48.9c9.2-17.6,21.4-25.7,39.2-25.7
	c26.4,0,41.4,16.2,43.4,46.6C187.6,649,179.1,668,162.9,675.9L162.9,675.9z M537.9,600.4c-9.1,0-16.1,3.7-20.8,10.9l-3.7,5.8v-15
	h-15.8v89.7h15.8v-28.7c0-26.2,0.3-29.3,4-36.4c5-9.8,13.7-14.7,22.1-12.4l5.6,1.6v-15.5L537.9,600.4L537.9,600.4L537.9,600.4z
	 M445.3,599.6c-3.1,0-6.4,0.4-9.6,1.1c-21.1,5.5-33,25.7-32.3,46.5c0,17.4,3.4,26.1,11.8,35.2c17.2,14.1,32.7,15.2,53.7,7.7
	c3.6-1.5,7.5-3.3,7.5-3.3v-14.1l-7.5,3.9c-17,7.4-29.8,7.4-40-1.3c-6.5-6.7-9.4-14.6-10.7-23.7h63.6v-12.1
	C481.7,614.7,466.9,599.2,445.3,599.6L445.3,599.6L445.3,599.6z M419.6,638.9c0,0,2.3-15.4,11.1-21.4c4.2-3,9-4.4,13.7-4.4
	c4.7,0,9.4,1.5,13.3,4.5c8,6.1,9.3,21.2,9.3,21.2h-47.4L419.6,638.9L419.6,638.9L419.6,638.9z M39.6,622.7
	c-17.1-10.4-24.7-17.8-23.7-26.6c2.7-24.4,32.7-21,49.4-11.8l0.1-16.4c0,0-9.2-4-22.4-4.2c-20.3-0.3-33.4,6.3-39.5,19.9
	c-9,20-1,35,27.8,51.8c16.2,9.4,23.4,17.6,23.4,26.5c0,18.4-22.2,24.9-45.1,13.3c-4.7-2.3-8.7-4.3-8.9-4.3
	c-0.8,5.2-0.4,17.7-0.4,17.7s7,3,17.6,5c26.2,5.2,50-7.1,52.3-27C72.1,647.8,65.3,638,39.6,622.7C39.6,622.7,39.6,622.7,39.6,622.7z
	 M677.4,599.3c-3.1,0-6.3,0.4-9.7,1.1c-21.1,5.5-32.9,25.7-32.1,46.5c0,17.4,3.4,26,11.8,35.1c17.2,14.1,32.7,15.3,53.8,7.7
	c3.6-1.5,7.5-3.3,7.5-3.3v-14.1l-7.5,3.9c-17,7.4-29.8,7.4-40-1.3c-6.6-6.6-9.4-14.5-10.8-23.7h63.4v-12.1
	C713.8,614.5,699,599,677.4,599.3L677.4,599.3L677.4,599.3z M651.7,638.7c0,0,2.4-15.4,11.1-21.5c4.2-3,9-4.4,13.7-4.4
	c4.7,0,9.4,1.5,13.3,4.5c8,6.1,9.3,21.3,9.3,21.3h-47.4L651.7,638.7L651.7,638.7z M362.8,622.9c-17.1-10.3-24.6-17.8-23.7-26.6
	c2.7-24.4,32.7-21,49.4-11.8l0.1-16.4c0,0-9.2-4-22.4-4.2c-20.3-0.3-33.4,6.3-39.5,19.9c-9,20-0.9,35,27.8,51.8
	c16.2,9.4,23.3,17.5,23.3,26.4c0,18.4-22.2,25-45.1,13.3c-4.7-2.3-8.7-4.3-8.9-4.3c-0.8,5.2-0.4,17.7-0.4,17.7s7,2.9,17.5,5
	c26.2,5.2,50.1-7,52.3-27C395.2,648.1,388.4,638.3,362.8,622.9L362.8,622.9L362.8,622.9z M770,600.2c-9.1,0-16.2,3.7-20.8,11
	l-3.7,5.7v-14.9h-15.8v89.6h15.8v-28.7c0-26.2,0.3-29.3,4-36.4c5-9.8,13.7-14.7,22.1-12.4l5.6,1.6v-15.6L770,600.2L770,600.2z
	 M237.5,622.4v-57.1h-15.9v126.5h66.8v-14.9h-50.9L237.5,622.4L237.5,622.4z M605,640.2l-13.1,34.1L579.3,640l-12.8-38h-16.3
	c10.5,29.9,22,60.3,33.6,89.7c5,0.1,10,0,15,0l17.7-44.4l18-45.3H619C619,602,612.1,620,605,640.2L605,640.2L605,640.2z
	 M274.1,530.8c2.6,0,4.7-0.8,6.5-2.6c1.7-1.7,2.7-3.8,2.7-6.3c0-2.6-0.9-4.7-2.7-6.3c-1.8-1.6-3.8-2.5-6.3-2.5
	c-2.6,0-4.7,0.8-6.5,2.6c-1.8,1.7-2.6,3.9-2.6,6.3c0,2.6,0.8,4.7,2.6,6.3C269.4,530,271.5,530.8,274.1,530.8L274.1,530.8
	L274.1,530.8z M268.5,516.3c1.5-1.5,3.4-2.2,5.8-2.2c2.2,0,4.1,0.7,5.6,2.2c1.5,1.5,2.3,3.4,2.3,5.6c0,2.3-0.8,4.2-2.3,5.7
	c-1.5,1.5-3.4,2.3-5.6,2.3c-2.3,0-4.1-0.7-5.6-2.3c-1.5-1.5-2.3-3.5-2.3-5.7C266.2,519.6,266.9,517.8,268.5,516.3z M272.2,522.7h1
	c0.7,0,1.4,0.7,2.1,2l1.2,2.8h1.9l-1.5-3.1c-0.6-1.2-1.2-1.9-1.9-2.1c0.9-0.2,1.6-0.5,2.1-1.1c0.5-0.5,0.7-1.2,0.7-2.1
	c0-0.9-0.3-1.6-0.9-2.2c-0.7-0.6-1.8-0.9-3.3-0.9h-3.3v11.5h1.6v-4.8L272.2,522.7L272.2,522.7z M272.2,517.4h1.4
	c1,0,1.8,0.2,2.2,0.5c0.4,0.3,0.5,0.7,0.5,1.4c0,1.3-0.8,1.9-2.3,1.9h-1.8L272.2,517.4L272.2,517.4L272.2,517.4z M9.8,521.7
	c0-4-0.1-7-0.2-8.7h0.1c0.4,2.1,0.9,3.6,1.3,4.6l15.3,34.1h2.6L44,517.3c0.4-0.9,0.8-2.3,1.3-4.3h0.1c-0.3,3.4-0.4,6.4-0.4,8.7v30.1
	h5.2v-44.7h-6.5l-14,31.1c-0.5,1.2-1.2,3.1-2.1,5.5h-0.2c-0.3-1.2-1-3.1-2-5.3L11.6,507h-7v44.7h5L9.8,521.7
	C9.7,521.7,9.8,521.7,9.8,521.7z M61.7,521.8h4.5v27.8h-4.5V521.8z M64,511.6c0.9,0,1.7-0.3,2.3-0.9c0.6-0.6,1-1.4,1-2.3
	c0-0.9-0.3-1.7-1-2.3c-0.6-0.6-1.4-0.9-2.4-0.9c-0.9,0-1.7,0.3-2.3,0.9c-0.6,0.6-1,1.4-1,2.3c0,1,0.3,1.7,1,2.3
	C62.3,511.2,63.1,511.6,64,511.6C64,511.6,64,511.6,64,511.6z M98.4,550.2v-4.9c-2.5,1.8-5.1,2.8-7.9,2.8c-3.3,0-6-1.1-7.9-3.3
	c-1.9-2.1-3-5.1-3-8.8c0-3.9,1-6.9,3.2-9.3c2.1-2.3,4.7-3.4,8-3.4c2.7,0,5.2,0.8,7.6,2.5v-5.2c-2.1-1.1-4.6-1.6-7.4-1.6
	c-5.1,0-9.1,1.6-12.1,4.8c-3,3.2-4.5,7.5-4.5,12.7c0,4.6,1.3,8.5,4.1,11.5c2.9,3.1,6.5,4.6,11.1,4.6
	C93.1,552.4,95.9,551.7,98.4,550.2z M111.3,535.4c0-3.7,0.8-6.6,2.3-8.7c1.4-1.8,3.2-2.8,5.2-2.8c1.7,0,3,0.3,3.9,1v-5.3
	c-0.7-0.3-1.7-0.4-3.1-0.4c-1.8,0-3.5,0.6-4.9,1.8c-1.5,1.2-2.7,3.1-3.5,5.4h-0.1v-6.5h-5.1v31.9h5.1v-16.4H111.3z M140.7,552.4
	c4.8,0,8.7-1.5,11.6-4.6c2.9-3.1,4.3-7.2,4.3-12.3c0-5.2-1.3-9.2-4-12.2c-2.7-3-6.3-4.4-11.2-4.4s-8.7,1.4-11.6,4.2
	c-3.1,3.1-4.7,7.4-4.7,12.9c0,4.8,1.3,8.8,4.1,11.8C132.1,550.8,135.9,552.4,140.7,552.4L140.7,552.4L140.7,552.4z M133.4,526.4
	c1.9-2.1,4.5-3.1,7.7-3.1c3.3,0,5.8,1,7.6,3.1c1.8,2.1,2.8,5.2,2.8,9.3c0,3.9-0.8,7-2.6,9c-1.7,2.1-4.3,3.3-7.7,3.3
	c-3.3,0-5.8-1.1-7.8-3.3c-1.9-2.2-2.9-5.1-2.9-9C130.3,531.8,131.3,528.7,133.4,526.4z M178.9,549.6c1.9-1.7,3-3.9,3-6.5
	c0-2.3-0.8-4.3-2.3-5.8c-1.2-1.2-3.2-2.3-5.9-3.5c-2.5-1-4-1.9-4.8-2.7c-0.8-0.8-1.3-1.8-1.3-3.3c0-1.3,0.5-2.3,1.5-3.2
	c1-0.8,2.3-1.2,4.1-1.2c2.8,0,5.1,0.7,7.3,2.3v-5.1c-2.1-1-4.3-1.5-6.9-1.5c-3.3,0-6.1,0.9-8.1,2.7c-2.1,1.7-3.2,4-3.2,6.6
	c0,2.3,0.7,4.3,2,5.7c1.1,1.2,3.1,2.5,5.7,3.6c2.6,1.1,4.3,2.1,5.2,3c0.9,0.8,1.3,1.8,1.3,3.1c0,3-2,4.5-6,4.5c-3.1,0-5.8-1-8.3-3.1
	v5.5c2.2,1.3,4.9,1.9,7.9,1.9C173.9,552.4,176.8,551.5,178.9,549.6L178.9,549.6L178.9,549.6z M203.3,518.9c-4.8,0-8.7,1.4-11.6,4.2
	c-3.1,3.1-4.7,7.4-4.7,12.9c0,4.8,1.3,8.8,4.1,11.8c2.9,3.1,6.7,4.6,11.5,4.6c4.9,0,8.7-1.5,11.6-4.6c2.9-3.1,4.3-7.2,4.3-12.3
	c0-5.2-1.3-9.2-4-12.2C211.7,520.3,208,518.9,203.3,518.9L203.3,518.9L203.3,518.9z M213.2,535.7c0,3.9-0.8,7-2.6,9
	c-1.7,2.1-4.3,3.3-7.7,3.3c-3.3,0-5.8-1.1-7.8-3.3c-1.9-2.2-2.9-5.1-2.9-9c0-4.1,1-7.3,3.1-9.4c1.9-2,4.5-3.1,7.7-3.1
	c3.2,0,5.7,1,7.6,3.1C212.3,528.5,213.2,531.6,213.2,535.7L213.2,535.7L213.2,535.7z M227,551.7h5.1V524h7.5v-4.3h-7.5v-4.9
	c0-4.5,1.7-6.7,5.3-6.7c1.2,0,2.4,0.3,3.4,0.8v-4.6c-0.9-0.4-2.1-0.5-3.7-0.5c-2.8,0-5,0.8-6.9,2.6c-2.1,2-3.3,4.7-3.3,8.3v5.2h-5.4
	v4.3h5.4L227,551.7L227,551.7z M248,543c0,6.2,2.8,9.4,8.4,9.4c2,0,3.6-0.3,4.8-1.1v-4.4c-0.9,0.7-2.1,1-3.3,1c-1.7,0-3-0.4-3.7-1.3
	c-0.7-0.9-1.1-2.5-1.1-4.6v-18h8.1v-4.3h-8.1v-9.4c-1.8,0.6-3.5,1.1-5.1,1.6v7.8h-5.5v4.3h5.5L248,543L248,543z M797.3,601.8
	c-1.7-1.6-3.8-2.5-6.3-2.5c-2.6,0-4.7,0.8-6.5,2.6c-1.7,1.7-2.6,3.9-2.6,6.3c0,2.6,0.8,4.7,2.5,6.3c1.7,1.6,3.9,2.5,6.5,2.5
	c2.5,0,4.7-0.8,6.5-2.6c1.7-1.8,2.6-3.8,2.6-6.3C799.9,605.6,799,603.4,797.3,601.8L797.3,601.8z M796.4,613.9
	c-1.5,1.5-3.4,2.2-5.6,2.2c-2.2,0-4.1-0.7-5.6-2.2c-1.5-1.5-2.3-3.5-2.3-5.8c0-2.2,0.7-4.1,2.3-5.6c1.5-1.5,3.4-2.2,5.7-2.2
	c2.2,0,4.1,0.7,5.6,2.2c1.5,1.5,2.3,3.4,2.3,5.6C798.8,610.5,798.1,612.3,796.4,613.9z M791.8,608.7c0.9-0.2,1.6-0.6,2.1-1.1
	c0.5-0.5,0.7-1.2,0.7-2.1c0-0.9-0.3-1.6-0.9-2.1c-0.7-0.6-1.8-0.9-3.3-0.9h-3.3v11.5h1.6v-4.8h1c0.7,0,1.4,0.7,2,2l1.2,2.8h1.9
	l-1.5-3.1C793,609.5,792.4,608.8,791.8,608.7L791.8,608.7L791.8,608.7z M790.7,607.6h-1.8v-3.9h1.4c1,0,1.7,0.2,2.1,0.5
	c0.4,0.3,0.5,0.7,0.5,1.4C793,607,792.2,607.6,790.7,607.6L790.7,607.6L790.7,607.6z M505.2,518.4h1.4v-11.5h3.8v-1.4h-9v1.4h3.8
	L505.2,518.4L505.2,518.4z M513.9,509.8c0-1.1,0-2-0.1-2.5c0.1,0.6,0.3,1,0.4,1.3l4.4,9.8h0.7l4.4-9.9c0.1-0.3,0.2-0.7,0.4-1.2
	c-0.1,1-0.1,1.8-0.1,2.5v8.7h1.5v-12.9h-1.8l-4,8.9c-0.1,0.3-0.4,0.9-0.6,1.6H519c-0.1-0.4-0.3-0.8-0.6-1.5l-4-9h-2.1v12.9h1.4
	L513.9,509.8L513.9,509.8L513.9,509.8z"/>
</svg>
