<?xml version="1.0" encoding="UTF-8"?>
<svg xmlns="http://www.w3.org/2000/svg" xmlns:xlink="http://www.w3.org/1999/xlink" viewBox="0 0 792.12 772.01">
  <defs>
    <style>
      .cls-1 {
        fill: url(#_ÂÁ_Ï_ÌÌ_È_ËÂÌÚ_209-3);
      }

      .cls-2 {
        fill: url(#_ÂÁ_Ï_ÌÌ_È_ËÂÌÚ_209-4);
      }

      .cls-3 {
        fill: url(#_ÂÁ_Ï_ÌÌ_È_ËÂÌÚ_209-8);
      }

      .cls-4 {
        fill: url(#_ÂÁ_Ï_ÌÌ_È_ËÂÌÚ_209-5);
      }

      .cls-5 {
        fill: url(#_ÂÁ_Ï_ÌÌ_È_ËÂÌÚ_209-9);
      }

      .cls-6 {
        fill: url(#_ÂÁ_Ï_ÌÌ_È_ËÂÌÚ_209-6);
      }

      .cls-7 {
        fill: url(#_ÂÁ_Ï_ÌÌ_È_ËÂÌÚ_18);
      }

      .cls-8, .cls-9 {
        opacity: .11;
      }

      .cls-10 {
        fill: #f0f6ff;
      }

      .cls-11 {
        fill: #fff;
      }

      .cls-12 {
        fill: #fcd1c5;
      }

      .cls-13 {
        fill: #936d6d;
      }

      .cls-14 {
        fill: #bcbeff;
      }

      .cls-15 {
        fill: #aa8383;
      }

      .cls-16 {
        fill: #c4ccd6;
      }

      .cls-17 {
        fill: #e2b1a6;
      }

      .cls-18 {
        fill: #24126a;
      }

      .cls-19 {
        fill: #160a5b;
      }

      .cls-20 {
        fill: #0f054c;
      }

      .cls-21 {
        fill: #453c9e;
      }

      .cls-22, .cls-23, .cls-24, .cls-25, .cls-26, .cls-27, .cls-28 {
        fill: #42e8e0;
      }

      .cls-29 {
        fill: #4846a5;
      }

      .cls-9 {
        fill: url(#_ÂÁ_Ï_ÌÌ_È_ËÂÌÚ_209-21);
      }

      .cls-30 {
        fill: #8686f2;
        mix-blend-mode: lighten;
      }

      .cls-31 {
        fill: url(#_ÂÁ_Ï_ÌÌ_È_ËÂÌÚ_209-2);
      }

      .cls-31, .cls-32, .cls-33, .cls-34, .cls-35, .cls-36, .cls-37, .cls-38, .cls-39, .cls-40, .cls-41, .cls-42, .cls-43, .cls-24 {
        opacity: .5;
      }

      .cls-32 {
        fill: url(#_ÂÁ_Ï_ÌÌ_È_ËÂÌÚ_209-7);
      }

      .cls-33 {
        fill: url(#_ÂÁ_Ï_ÌÌ_È_ËÂÌÚ_254-3);
      }

      .cls-34 {
        fill: url(#_ÂÁ_Ï_ÌÌ_È_ËÂÌÚ_254-2);
      }

      .cls-35 {
        fill: url(#_ÂÁ_Ï_ÌÌ_È_ËÂÌÚ_254-5);
      }

      .cls-36 {
        fill: url(#_ÂÁ_Ï_ÌÌ_È_ËÂÌÚ_254-4);
      }

      .cls-37 {
        fill: url(#_ÂÁ_Ï_ÌÌ_È_ËÂÌÚ_254-7);
      }

      .cls-38 {
        fill: url(#_ÂÁ_Ï_ÌÌ_È_ËÂÌÚ_254-6);
      }

      .cls-44 {
        fill: #180d5b;
        opacity: .2;
      }

      .cls-45 {
        fill: url(#_ÂÁ_Ï_ÌÌ_È_ËÂÌÚ_209-24);
      }

      .cls-46 {
        fill: url(#_ÂÁ_Ï_ÌÌ_È_ËÂÌÚ_209-25);
      }

      .cls-47 {
        fill: url(#_ÂÁ_Ï_ÌÌ_È_ËÂÌÚ_209-31);
      }

      .cls-48 {
        fill: url(#_ÂÁ_Ï_ÌÌ_È_ËÂÌÚ_209-30);
      }

      .cls-49 {
        fill: url(#_ÂÁ_Ï_ÌÌ_È_ËÂÌÚ_209-29);
      }

      .cls-50 {
        fill: url(#_ÂÁ_Ï_ÌÌ_È_ËÂÌÚ_209-20);
      }

      .cls-51 {
        fill: url(#_ÂÁ_Ï_ÌÌ_È_ËÂÌÚ_209-28);
      }

      .cls-52 {
        fill: url(#_ÂÁ_Ï_ÌÌ_È_ËÂÌÚ_209-27);
      }

      .cls-53 {
        fill: url(#_ÂÁ_Ï_ÌÌ_È_ËÂÌÚ_209-23);
      }

      .cls-54 {
        fill: url(#_ÂÁ_Ï_ÌÌ_È_ËÂÌÚ_209-22);
      }

      .cls-55 {
        fill: url(#_ÂÁ_Ï_ÌÌ_È_ËÂÌÚ_209-18);
      }

      .cls-56 {
        fill: url(#_ÂÁ_Ï_ÌÌ_È_ËÂÌÚ_209-11);
      }

      .cls-57 {
        fill: url(#_ÂÁ_Ï_ÌÌ_È_ËÂÌÚ_209-16);
      }

      .cls-58 {
        fill: url(#_ÂÁ_Ï_ÌÌ_È_ËÂÌÚ_209-17);
      }

      .cls-59 {
        fill: url(#_ÂÁ_Ï_ÌÌ_È_ËÂÌÚ_209-19);
      }

      .cls-60 {
        fill: url(#_ÂÁ_Ï_ÌÌ_È_ËÂÌÚ_209-15);
      }

      .cls-61 {
        fill: url(#_ÂÁ_Ï_ÌÌ_È_ËÂÌÚ_209-12);
      }

      .cls-62 {
        fill: url(#_ÂÁ_Ï_ÌÌ_È_ËÂÌÚ_209-13);
      }

      .cls-63 {
        fill: url(#_ÂÁ_Ï_ÌÌ_È_ËÂÌÚ_209-10);
      }

      .cls-39 {
        fill: url(#_ÂÁ_Ï_ÌÌ_È_ËÂÌÚ_254);
      }

      .cls-40 {
        fill: url(#_ÂÁ_Ï_ÌÌ_È_ËÂÌÚ_209);
      }

      .cls-42 {
        fill: url(#_ÂÁ_Ï_ÌÌ_È_ËÂÌÚ_209-14);
      }

      .cls-43 {
        fill: url(#_ÂÁ_Ï_ÌÌ_È_ËÂÌÚ_209-26);
      }

      .cls-64 {
        isolation: isolate;
      }

      .cls-23 {
        opacity: .5;
      }

      .cls-25 {
        opacity: .88;
      }

      .cls-26 {
        opacity: .75;
      }

      .cls-27 {
        opacity: .8;
      }

      .cls-28 {
        opacity: .97;
      }
    </style>
    <linearGradient id="_ÂÁ_Ï_ÌÌ_È_ËÂÌÚ_209" data-name="¡ÂÁ˚ÏˇÌÌ˚È „‡‰ËÂÌÚ 209" x1="212" y1="473.4" x2="312.82" y2="473.4" gradientUnits="userSpaceOnUse">
      <stop offset="0" stop-color="#5761d7"/>
      <stop offset=".07" stop-color="#5471d8"/>
      <stop offset=".28" stop-color="#4d9bda"/>
      <stop offset=".48" stop-color="#48bddd"/>
      <stop offset=".67" stop-color="#44d4de"/>
      <stop offset=".85" stop-color="#42e3df"/>
      <stop offset="1" stop-color="#42e8e0"/>
    </linearGradient>
    <linearGradient id="_ÂÁ_Ï_ÌÌ_È_ËÂÌÚ_254" data-name="¡ÂÁ˚ÏˇÌÌ˚È „‡‰ËÂÌÚ 254" x1="480.44" y1="473.24" x2="580.7" y2="473.24" gradientUnits="userSpaceOnUse">
      <stop offset="0" stop-color="#42e8e0"/>
      <stop offset=".15" stop-color="#42e3df"/>
      <stop offset=".33" stop-color="#44d4de"/>
      <stop offset=".52" stop-color="#48bddd"/>
      <stop offset=".72" stop-color="#4d9bda"/>
      <stop offset=".93" stop-color="#5471d8"/>
      <stop offset="1" stop-color="#5761d7"/>
    </linearGradient>
    <linearGradient id="_ÂÁ_Ï_ÌÌ_È_ËÂÌÚ_209-2" data-name="¡ÂÁ˚ÏˇÌÌ˚È „‡‰ËÂÌÚ 209" x1="206.89" y1="638.65" x2="584.59" y2="638.65" xlink:href="#_ÂÁ_Ï_ÌÌ_È_ËÂÌÚ_209"/>
    <linearGradient id="_ÂÁ_Ï_ÌÌ_È_ËÂÌÚ_18" data-name="¡ÂÁ˚ÏˇÌÌ˚È „‡‰ËÂÌÚ 18" x1="148.84" y1="387.69" x2="572.8" y2="387.69" gradientUnits="userSpaceOnUse">
      <stop offset="0" stop-color="#5761d7"/>
      <stop offset=".16" stop-color="#5e67d9"/>
      <stop offset=".41" stop-color="#7179e1"/>
      <stop offset=".69" stop-color="#9197ee"/>
      <stop offset="1" stop-color="#bcbeff"/>
    </linearGradient>
    <linearGradient id="_ÂÁ_Ï_ÌÌ_È_ËÂÌÚ_254-2" data-name="¡ÂÁ˚ÏˇÌÌ˚È „‡‰ËÂÌÚ 254" x1="268.82" y1="330.4" x2="523.29" y2="330.4" xlink:href="#_ÂÁ_Ï_ÌÌ_È_ËÂÌÚ_254"/>
    <linearGradient id="_ÂÁ_Ï_ÌÌ_È_ËÂÌÚ_254-3" data-name="¡ÂÁ˚ÏˇÌÌ˚È „‡‰ËÂÌÚ 254" x1="396.06" y1="284.41" x2="523.29" y2="284.41" xlink:href="#_ÂÁ_Ï_ÌÌ_È_ËÂÌÚ_254"/>
    <linearGradient id="_ÂÁ_Ï_ÌÌ_È_ËÂÌÚ_254-4" data-name="¡ÂÁ˚ÏˇÌÌ˚È „‡‰ËÂÌÚ 254" x1="268.82" y1="284.41" x2="396.06" y2="284.41" xlink:href="#_ÂÁ_Ï_ÌÌ_È_ËÂÌÚ_254"/>
    <linearGradient id="_ÂÁ_Ï_ÌÌ_È_ËÂÌÚ_254-5" data-name="¡ÂÁ˚ÏˇÌÌ˚È „‡‰ËÂÌÚ 254" x1="268.82" y1="311.87" x2="523.29" y2="311.87" xlink:href="#_ÂÁ_Ï_ÌÌ_È_ËÂÌÚ_254"/>
    <linearGradient id="_ÂÁ_Ï_ÌÌ_È_ËÂÌÚ_254-6" data-name="¡ÂÁ˚ÏˇÌÌ˚È „‡‰ËÂÌÚ 254" x1="396.06" y1="357.87" x2="523.29" y2="357.87" xlink:href="#_ÂÁ_Ï_ÌÌ_È_ËÂÌÚ_254"/>
    <linearGradient id="_ÂÁ_Ï_ÌÌ_È_ËÂÌÚ_254-7" data-name="¡ÂÁ˚ÏˇÌÌ˚È „‡‰ËÂÌÚ 254" x1="268.82" y1="357.86" x2="396.06" y2="357.86" xlink:href="#_ÂÁ_Ï_ÌÌ_È_ËÂÌÚ_254"/>
    <linearGradient id="_ÂÁ_Ï_ÌÌ_È_ËÂÌÚ_209-3" data-name="¡ÂÁ˚ÏˇÌÌ˚È „‡‰ËÂÌÚ 209" x1="0" y1="542.84" x2="280.97" y2="542.84" xlink:href="#_ÂÁ_Ï_ÌÌ_È_ËÂÌÚ_209"/>
    <linearGradient id="_ÂÁ_Ï_ÌÌ_È_ËÂÌÚ_209-4" data-name="¡ÂÁ˚ÏˇÌÌ˚È „‡‰ËÂÌÚ 209" x1="0" y1="521.22" x2="280.97" y2="521.22" xlink:href="#_ÂÁ_Ï_ÌÌ_È_ËÂÌÚ_209"/>
    <linearGradient id="_ÂÁ_Ï_ÌÌ_È_ËÂÌÚ_209-5" data-name="¡ÂÁ˚ÏˇÌÌ˚È „‡‰ËÂÌÚ 209" x1="0" y1="499.61" x2="280.97" y2="499.61" xlink:href="#_ÂÁ_Ï_ÌÌ_È_ËÂÌÚ_209"/>
    <linearGradient id="_ÂÁ_Ï_ÌÌ_È_ËÂÌÚ_209-6" data-name="¡ÂÁ˚ÏˇÌÌ˚È „‡‰ËÂÌÚ 209" x1="0" y1="478" x2="280.97" y2="478" xlink:href="#_ÂÁ_Ï_ÌÌ_È_ËÂÌÚ_209"/>
    <linearGradient id="_ÂÁ_Ï_ÌÌ_È_ËÂÌÚ_209-7" data-name="¡ÂÁ˚ÏˇÌÌ˚È „‡‰ËÂÌÚ 209" x1="0" y1="499.72" x2="280.97" y2="499.72" xlink:href="#_ÂÁ_Ï_ÌÌ_È_ËÂÌÚ_209"/>
    <linearGradient id="_ÂÁ_Ï_ÌÌ_È_ËÂÌÚ_209-8" data-name="¡ÂÁ˚ÏˇÌÌ˚È „‡‰ËÂÌÚ 209" x1="0" y1="478" x2="280.97" y2="478" xlink:href="#_ÂÁ_Ï_ÌÌ_È_ËÂÌÚ_209"/>
    <linearGradient id="_ÂÁ_Ï_ÌÌ_È_ËÂÌÚ_209-9" data-name="¡ÂÁ˚ÏˇÌÌ˚È „‡‰ËÂÌÚ 209" x1="0" y1="516.95" x2="280.97" y2="516.95" xlink:href="#_ÂÁ_Ï_ÌÌ_È_ËÂÌÚ_209"/>
    <linearGradient id="_ÂÁ_Ï_ÌÌ_È_ËÂÌÚ_209-10" data-name="¡ÂÁ˚ÏˇÌÌ˚È „‡‰ËÂÌÚ 209" x1="511.14" y1="542.84" x2="792.12" y2="542.84" xlink:href="#_ÂÁ_Ï_ÌÌ_È_ËÂÌÚ_209"/>
    <linearGradient id="_ÂÁ_Ï_ÌÌ_È_ËÂÌÚ_209-11" data-name="¡ÂÁ˚ÏˇÌÌ˚È „‡‰ËÂÌÚ 209" x1="511.14" y1="521.22" x2="792.12" y2="521.22" xlink:href="#_ÂÁ_Ï_ÌÌ_È_ËÂÌÚ_209"/>
    <linearGradient id="_ÂÁ_Ï_ÌÌ_È_ËÂÌÚ_209-12" data-name="¡ÂÁ˚ÏˇÌÌ˚È „‡‰ËÂÌÚ 209" x1="511.14" y1="499.61" x2="792.12" y2="499.61" xlink:href="#_ÂÁ_Ï_ÌÌ_È_ËÂÌÚ_209"/>
    <linearGradient id="_ÂÁ_Ï_ÌÌ_È_ËÂÌÚ_209-13" data-name="¡ÂÁ˚ÏˇÌÌ˚È „‡‰ËÂÌÚ 209" x1="511.14" y1="478" x2="792.12" y2="478" xlink:href="#_ÂÁ_Ï_ÌÌ_È_ËÂÌÚ_209"/>
    <linearGradient id="_ÂÁ_Ï_ÌÌ_È_ËÂÌÚ_209-14" data-name="¡ÂÁ˚ÏˇÌÌ˚È „‡‰ËÂÌÚ 209" x1="511.14" y1="499.72" x2="792.12" y2="499.72" xlink:href="#_ÂÁ_Ï_ÌÌ_È_ËÂÌÚ_209"/>
    <linearGradient id="_ÂÁ_Ï_ÌÌ_È_ËÂÌÚ_209-15" data-name="¡ÂÁ˚ÏˇÌÌ˚È „‡‰ËÂÌÚ 209" x1="511.14" y1="478" x2="792.12" y2="478" xlink:href="#_ÂÁ_Ï_ÌÌ_È_ËÂÌÚ_209"/>
    <linearGradient id="_ÂÁ_Ï_ÌÌ_È_ËÂÌÚ_209-16" data-name="¡ÂÁ˚ÏˇÌÌ˚È „‡‰ËÂÌÚ 209" x1="511.15" y1="516.95" x2="792.11" y2="516.95" xlink:href="#_ÂÁ_Ï_ÌÌ_È_ËÂÌÚ_209"/>
    <linearGradient id="_ÂÁ_Ï_ÌÌ_È_ËÂÌÚ_209-17" data-name="¡ÂÁ˚ÏˇÌÌ˚È „‡‰ËÂÌÚ 209" x1="5900.92" y1="697.14" x2="6165.08" y2="697.14" gradientTransform="translate(6428.51) rotate(-180) scale(1 -1)" xlink:href="#_ÂÁ_Ï_ÌÌ_È_ËÂÌÚ_209"/>
    <linearGradient id="_ÂÁ_Ï_ÌÌ_È_ËÂÌÚ_209-18" data-name="¡ÂÁ˚ÏˇÌÌ˚È „‡‰ËÂÌÚ 209" x1="5900.92" y1="676.82" x2="6165.08" y2="676.82" gradientTransform="translate(6428.51) rotate(-180) scale(1 -1)" xlink:href="#_ÂÁ_Ï_ÌÌ_È_ËÂÌÚ_209"/>
    <linearGradient id="_ÂÁ_Ï_ÌÌ_È_ËÂÌÚ_209-19" data-name="¡ÂÁ˚ÏˇÌÌ˚È „‡‰ËÂÌÚ 209" x1="5900.92" y1="656.5" x2="6165.08" y2="656.5" gradientTransform="translate(6428.51) rotate(-180) scale(1 -1)" xlink:href="#_ÂÁ_Ï_ÌÌ_È_ËÂÌÚ_209"/>
    <linearGradient id="_ÂÁ_Ï_ÌÌ_È_ËÂÌÚ_209-20" data-name="¡ÂÁ˚ÏˇÌÌ˚È „‡‰ËÂÌÚ 209" x1="5900.92" y1="636.18" x2="6165.08" y2="636.18" gradientTransform="translate(6428.51) rotate(-180) scale(1 -1)" xlink:href="#_ÂÁ_Ï_ÌÌ_È_ËÂÌÚ_209"/>
    <linearGradient id="_ÂÁ_Ï_ÌÌ_È_ËÂÌÚ_209-21" data-name="¡ÂÁ˚ÏˇÌÌ˚È „‡‰ËÂÌÚ 209" x1="5900.92" y1="666.66" x2="6165.08" y2="666.66" gradientTransform="translate(6428.51) rotate(-180) scale(1 -1)" xlink:href="#_ÂÁ_Ï_ÌÌ_È_ËÂÌÚ_209"/>
    <linearGradient id="_ÂÁ_Ï_ÌÌ_È_ËÂÌÚ_209-22" data-name="¡ÂÁ˚ÏˇÌÌ˚È „‡‰ËÂÌÚ 209" x1="5872.84" y1="601.69" x2="6193.15" y2="601.69" gradientTransform="translate(6428.51) rotate(-180) scale(1 -1)" xlink:href="#_ÂÁ_Ï_ÌÌ_È_ËÂÌÚ_209"/>
    <linearGradient id="_ÂÁ_Ï_ÌÌ_È_ËÂÌÚ_209-23" data-name="¡ÂÁ˚ÏˇÌÌ˚È „‡‰ËÂÌÚ 209" x1="5872.84" y1="577.05" x2="6193.15" y2="577.05" gradientTransform="translate(6428.51) rotate(-180) scale(1 -1)" xlink:href="#_ÂÁ_Ï_ÌÌ_È_ËÂÌÚ_209"/>
    <linearGradient id="_ÂÁ_Ï_ÌÌ_È_ËÂÌÚ_209-24" data-name="¡ÂÁ˚ÏˇÌÌ˚È „‡‰ËÂÌÚ 209" x1="5872.84" y1="552.41" x2="6193.15" y2="552.41" gradientTransform="translate(6428.51) rotate(-180) scale(1 -1)" xlink:href="#_ÂÁ_Ï_ÌÌ_È_ËÂÌÚ_209"/>
    <linearGradient id="_ÂÁ_Ï_ÌÌ_È_ËÂÌÚ_209-25" data-name="¡ÂÁ˚ÏˇÌÌ˚È „‡‰ËÂÌÚ 209" x1="5872.84" y1="527.77" x2="6193.15" y2="527.77" gradientTransform="translate(6428.51) rotate(-180) scale(1 -1)" xlink:href="#_ÂÁ_Ï_ÌÌ_È_ËÂÌÚ_209"/>
    <linearGradient id="_ÂÁ_Ï_ÌÌ_È_ËÂÌÚ_209-26" data-name="¡ÂÁ˚ÏˇÌÌ˚È „‡‰ËÂÌÚ 209" x1="5872.84" y1="564.73" x2="6193.15" y2="564.73" gradientTransform="translate(6428.51) rotate(-180) scale(1 -1)" xlink:href="#_ÂÁ_Ï_ÌÌ_È_ËÂÌÚ_209"/>
    <linearGradient id="_ÂÁ_Ï_ÌÌ_È_ËÂÌÚ_209-27" data-name="¡ÂÁ˚ÏˇÌÌ˚È „‡‰ËÂÌÚ 209" x1="5872.84" y1="527.77" x2="6193.15" y2="527.77" gradientTransform="translate(6428.51) rotate(-180) scale(1 -1)" xlink:href="#_ÂÁ_Ï_ÌÌ_È_ËÂÌÚ_209"/>
    <linearGradient id="_ÂÁ_Ï_ÌÌ_È_ËÂÌÚ_209-28" data-name="¡ÂÁ˚ÏˇÌÌ˚È „‡‰ËÂÌÚ 209" x1="5872.84" y1="572.18" x2="6193.15" y2="572.18" gradientTransform="translate(6428.51) rotate(-180) scale(1 -1)" xlink:href="#_ÂÁ_Ï_ÌÌ_È_ËÂÌÚ_209"/>
    <linearGradient id="_ÂÁ_Ï_ÌÌ_È_ËÂÌÚ_209-29" data-name="¡ÂÁ˚ÏˇÌÌ˚È „‡‰ËÂÌÚ 209" x1="5830.65" y1="232.44" x2="5864.45" y2="232.44" gradientTransform="translate(6274.04 -221.71) rotate(176.68) scale(1 -1)" xlink:href="#_ÂÁ_Ï_ÌÌ_È_ËÂÌÚ_209"/>
    <linearGradient id="_ÂÁ_Ï_ÌÌ_È_ËÂÌÚ_209-30" data-name="¡ÂÁ˚ÏˇÌÌ˚È „‡‰ËÂÌÚ 209" x1="5878.43" y1="243.4" x2="5949.14" y2="243.4" gradientTransform="translate(6274.04 -221.71) rotate(176.68) scale(1 -1)" xlink:href="#_ÂÁ_Ï_ÌÌ_È_ËÂÌÚ_209"/>
    <linearGradient id="_ÂÁ_Ï_ÌÌ_È_ËÂÌÚ_209-31" data-name="¡ÂÁ˚ÏˇÌÌ˚È „‡‰ËÂÌÚ 209" x1="5845.93" y1="153.74" x2="5960.94" y2="153.74" gradientTransform="translate(6274.04 -221.71) rotate(176.68) scale(1 -1)" xlink:href="#_ÂÁ_Ï_ÌÌ_È_ËÂÌÚ_209"/>
  </defs>
  <g class="cls-64">
    <g id="Layer_2" data-name="Layer 2">
      <g id="Layer_1-2" data-name="Layer 1">
        <g>
          <path class="cls-30" d="m396.05,492.68c-2.58,0-5.05-.53-6.93-1.62l-155.77-89.93c-2.01-1.16-3.12-2.83-3.12-4.69,0-2.15,1.52-4.26,4.16-5.78l153.68-88.73c4.7-2.71,11.61-2.98,15.73-.6l155.77,89.93c2.01,1.16,3.12,2.83,3.12,4.69,0,2.15-1.52,4.26-4.16,5.78l-153.68,88.73c-2.55,1.47-5.75,2.22-8.8,2.22Zm-5.72-3.71c3.33,1.92,9.43,1.65,13.32-.6l153.68-88.73c1.85-1.07,2.95-2.45,2.95-3.7,0-1.24-1.04-2.1-1.91-2.6l-155.77-89.93c-3.33-1.92-9.43-1.64-13.32.6l-153.68,88.73c-1.85,1.07-2.95,2.45-2.95,3.7,0,1.24,1.04,2.1,1.91,2.6l155.77,89.93Z"/>
          <path class="cls-40" d="m213.21,503.02c-.42,0-.82-.22-1.04-.61-.33-.58-.13-1.31.44-1.65l98.4-56.81c.57-.33,1.31-.14,1.65.44.33.58.13,1.31-.44,1.65l-98.4,56.81c-.19.11-.4.16-.6.16Z"/>
          <path class="cls-39" d="m579.49,502.7c-.21,0-.41-.05-.6-.16l-97.84-56.49c-.58-.33-.77-1.07-.44-1.65.33-.58,1.08-.77,1.65-.44l97.84,56.49c.58.33.78,1.07.44,1.65-.22.39-.63.61-1.04.61Z"/>
          <path class="cls-31" d="m396.06,692.45c-3.97,0-7.93-1.03-11.47-3.07-40.11-23.25-173.67-100.46-176.87-101.89-.64-.19-.96-.84-.77-1.48.18-.64.9-.99,1.55-.8,2.08.6,175.56,101.07,177.31,102.08,6.32,3.66,14.2,3.66,20.54,0l176.43-102.26c.57-.33,1.31-.14,1.65.44.33.58.14,1.31-.44,1.65l-176.43,102.26c-3.55,2.05-7.52,3.08-11.49,3.08Z"/>
          <g>
            <g>
              <polygon class="cls-7" points="561.48 330.38 561.48 349.49 396.06 445 230.64 349.49 230.64 330.37 561.48 330.38"/>
              <polygon class="cls-14" points="396.06 425.88 230.64 330.37 396.06 234.87 561.48 330.38 396.06 425.88"/>
              <polygon class="cls-11" points="396.06 423.65 232.57 329.26 230.64 330.37 396.06 425.88 561.48 330.38 559.55 329.26 396.06 423.65"/>
            </g>
            <g>
              <polygon class="cls-20" points="396.06 403.85 268.83 330.4 396.06 256.94 523.29 330.4 396.06 403.85"/>
              <g>
                <polygon class="cls-34" points="396.06 403.86 268.82 330.4 396.06 256.94 523.29 330.4 396.06 403.86"/>
                <g>
                  <polygon class="cls-33" points="396.06 238.42 523.29 311.88 523.29 330.4 396.06 256.94 396.06 238.42"/>
                  <polygon class="cls-36" points="396.06 256.94 268.82 330.4 268.82 311.87 396.06 238.42 396.06 256.94"/>
                  <polygon class="cls-35" points="396.06 385.33 268.82 311.87 396.06 238.42 523.29 311.88 396.06 385.33"/>
                  <polygon class="cls-24" points="396.06 341.23 345.22 311.87 396.06 282.52 446.9 311.87 396.06 341.23"/>
                  <polygon class="cls-24" points="396.06 285.22 444.56 313.23 446.9 311.87 396.06 282.52 345.22 311.87 347.56 313.22 396.06 285.22"/>
                  <polygon class="cls-38" points="396.06 385.33 396.06 403.86 523.29 330.4 523.29 311.88 396.06 385.33"/>
                </g>
                <polygon class="cls-37" points="268.82 311.87 268.82 330.4 396.06 403.86 396.06 385.33 268.82 311.87"/>
              </g>
              <polygon class="cls-27" points="396.06 383.31 270.58 310.86 268.82 311.87 396.06 385.33 523.29 311.88 521.54 310.86 396.06 383.31"/>
            </g>
          </g>
          <g>
            <g class="cls-8">
              <path class="cls-1" d="m151.35,466.09c-6.66-3.85-14.86-3.85-21.53-.01L1.51,539.99c-2.02,1.17-2.02,4.08,0,5.25l129.37,74.69c5.88,3.39,13.12,3.39,19,0l129.57-74.62c2.02-1.17,2.02-4.08,0-5.25l-128.11-73.96Z"/>
            </g>
            <g class="cls-8">
              <path class="cls-2" d="m151.35,444.48c-6.66-3.85-14.86-3.85-21.53-.01L1.51,518.37c-2.02,1.17-2.02,4.08,0,5.25l129.37,74.69c5.88,3.39,13.12,3.39,19,0l129.57-74.62c2.02-1.17,2.02-4.08,0-5.25l-128.11-73.96Z"/>
            </g>
            <g class="cls-8">
              <path class="cls-4" d="m151.35,422.86c-6.66-3.85-14.86-3.85-21.53-.01L1.51,496.76c-2.02,1.17-2.02,4.08,0,5.25l129.37,74.69c5.88,3.39,13.12,3.39,19,0l129.57-74.62c2.02-1.17,2.02-4.08,0-5.25l-128.11-73.96Z"/>
            </g>
            <g class="cls-8">
              <path class="cls-6" d="m151.35,401.25c-6.66-3.85-14.86-3.85-21.53-.01L1.51,475.14c-2.02,1.17-2.02,4.08,0,5.25l129.37,74.69c5.88,3.39,13.12,3.39,19,0l129.57-74.62c2.02-1.17,2.02-4.08,0-5.25l-128.11-73.96Z"/>
            </g>
            <path class="cls-32" d="m279.46,475.21l-128.11-73.96c-6.66-3.85-14.86-3.85-21.53-.01L1.51,475.14c-1.01.58-1.51,1.6-1.51,2.62v43.46c0,1.02.5,2.04,1.51,2.62l129.37,74.69c5.88,3.39,13.12,3.39,19,0l129.57-74.62c1.01-.58,1.51-1.6,1.51-2.62v-43.46h0c0-1.02-.5-2.04-1.51-2.62Z"/>
            <g class="cls-8">
              <path class="cls-3" d="m151.35,401.25c-6.66-3.85-14.86-3.85-21.53-.01L1.51,475.14c-2.02,1.17-2.02,4.08,0,5.25l129.37,74.69c5.88,3.39,13.12,3.39,19,0l129.57-74.62c2.02-1.17,2.02-4.08,0-5.25l-128.11-73.96Z"/>
            </g>
            <g class="cls-41">
              <path class="cls-22" d="m145.09,443.61c-2.82-1.63-6.3-1.63-9.13,0l-57.49,33.11c-.9.52-.9,1.82,0,2.34l57.72,33.33c2.62,1.51,5.85,1.51,8.48,0l57.81-33.3c.9-.52.9-1.82,0-2.34l-57.4-33.14Z"/>
            </g>
            <path class="cls-22" d="m78.48,478.8l57.49-33.11c2.82-1.63,6.3-1.63,9.13,0l57.4,33.14c.06.03.08.09.13.13.73-.57.71-1.72-.13-2.21l-57.4-33.14c-2.82-1.63-6.3-1.63-9.13,0l-57.49,33.11c-.84.49-.86,1.63-.13,2.21.05-.04.07-.1.13-.13Z"/>
            <path class="cls-5" d="m279.46,477.48l-129.57,74.62c-5.88,3.39-13.12,3.39-19,0L1.51,477.41c-.5-.29-.87-.68-1.12-1.13-.77,1.37-.4,3.24,1.12,4.12l129.37,74.69c5.88,3.39,13.12,3.39,19,0l129.57-74.62c1.52-.88,1.89-2.75,1.12-4.12-.25.45-.63.84-1.12,1.13Z"/>
          </g>
          <g>
            <g class="cls-8">
              <path class="cls-63" d="m662.49,466.09c-6.66-3.85-14.86-3.85-21.53-.01l-128.3,73.91c-2.02,1.17-2.02,4.08,0,5.25l129.37,74.69c5.88,3.39,13.12,3.39,19,0l129.57-74.62c2.02-1.17,2.02-4.08,0-5.25l-128.11-73.96Z"/>
            </g>
            <g class="cls-8">
              <path class="cls-56" d="m662.49,444.48c-6.66-3.85-14.86-3.85-21.53-.01l-128.3,73.91c-2.02,1.17-2.02,4.08,0,5.25l129.37,74.69c5.88,3.39,13.12,3.39,19,0l129.57-74.62c2.02-1.17,2.02-4.08,0-5.25l-128.11-73.96Z"/>
            </g>
            <g class="cls-8">
              <path class="cls-61" d="m662.49,422.86c-6.66-3.85-14.86-3.85-21.53-.01l-128.3,73.91c-2.02,1.17-2.02,4.08,0,5.25l129.37,74.69c5.88,3.39,13.12,3.39,19,0l129.57-74.62c2.02-1.17,2.02-4.08,0-5.25l-128.11-73.96Z"/>
            </g>
            <g class="cls-8">
              <path class="cls-62" d="m662.49,401.25c-6.66-3.85-14.86-3.85-21.53-.01l-128.3,73.91c-2.02,1.17-2.02,4.08,0,5.25l129.37,74.69c5.88,3.39,13.12,3.39,19,0l129.57-74.62c2.02-1.17,2.02-4.08,0-5.25l-128.11-73.96Z"/>
            </g>
            <path class="cls-42" d="m790.6,475.21l-128.11-73.96c-6.66-3.85-14.86-3.85-21.53-.01l-128.3,73.91c-1.01.58-1.51,1.6-1.51,2.62v43.46c0,1.02.51,2.04,1.51,2.62l129.37,74.69c5.88,3.39,13.12,3.39,19,0l129.57-74.62c1.01-.58,1.51-1.6,1.51-2.62v-43.46h0c0-1.02-.5-2.04-1.51-2.62Z"/>
            <g class="cls-8">
              <path class="cls-60" d="m662.49,401.25c-6.66-3.85-14.86-3.85-21.53-.01l-128.3,73.91c-2.02,1.17-2.02,4.08,0,5.25l129.37,74.69c5.88,3.39,13.12,3.39,19,0l129.57-74.62c2.02-1.17,2.02-4.08,0-5.25l-128.11-73.96Z"/>
            </g>
            <g class="cls-41">
              <path class="cls-22" d="m656.24,443.61c-2.82-1.63-6.3-1.63-9.13,0l-57.49,33.11c-.9.52-.9,1.82,0,2.34l57.72,33.33c2.62,1.51,5.85,1.51,8.48,0l57.81-33.3c.9-.52.9-1.82,0-2.34l-57.4-33.14Z"/>
            </g>
            <path class="cls-22" d="m589.62,478.8l57.49-33.11c2.83-1.63,6.3-1.63,9.13,0l57.4,33.14c.06.03.08.09.13.13.73-.57.71-1.72-.13-2.21l-57.4-33.14c-2.82-1.63-6.3-1.63-9.13,0l-57.49,33.11c-.84.49-.87,1.63-.13,2.21.05-.04.07-.1.13-.13Z"/>
            <path class="cls-57" d="m790.6,477.48l-129.57,74.62c-5.88,3.39-13.12,3.39-19,0l-129.37-74.69c-.5-.29-.87-.68-1.12-1.13-.77,1.37-.4,3.24,1.12,4.12l129.37,74.69c5.88,3.39,13.12,3.39,19,0l129.57-74.62c1.52-.88,1.89-2.75,1.12-4.12-.25.45-.63.84-1.12,1.13Z"/>
          </g>
          <g>
            <path class="cls-23" d="m757.32,296.69v-76.85c-1.78-26.19-12.14-51.15-29.54-73.98v76.85c17.4,22.82,27.76,47.79,29.54,73.98h0Zm-38.44-84.77v-76.85c-6.13-6.92-12.93-13.61-20.35-20.05v76.85c7.41,6.44,14.21,13.13,20.35,20.05h0Zm-32.94-30.29v-76.85c-8.07-6.16-16.73-12.05-25.93-17.64v76.85c9.2,5.6,17.86,11.49,25.93,17.64h0Zm-43.34-4.83V54.54c70.8,37.56,114.99,91.27,114.99,150.7v122.27c0-59.43-44.19-113.14-114.99-150.7h0Z"/>
            <path class="cls-23" d="m513.14,118.11v-22.08c-5.4-1.03-10.86-2-16.38-2.89v22.08c5.51.89,10.97,1.85,16.38,2.89h0Zm-29.46-26.92v-19.54c-5.6-.77-11.25-1.47-16.95-2.09v19.54c5.7.62,11.35,1.32,16.95,2.09h0Zm57.81,11.06v-26.64c-5.18-1.28-10.43-2.5-15.74-3.65v26.64c5.31,1.15,10.56,2.36,15.74,3.65h0Zm-88.28-14.46v-39.33c-5.77-.5-11.58-.91-17.44-1.25v39.33c5.86.34,11.67.75,17.44,1.25h0Zm-63.27-2.22v-39.33c-5.93.09-11.82.26-17.68.52v39.33c5.86-.25,11.75-.43,17.68-.52h0Zm-31.43,1.27v-49.46c-5.79.38-11.55.84-17.26,1.38v49.46c5.71-.54,11.46-1,17.26-1.38h0Zm63.37-.94V29.3c-5.29-.19-10.62-.31-15.98-.36-.63,0-1.27-.01-1.9-.02v56.58c.63,0,1.27,0,1.9.02,5.36.05,10.68.17,15.98.36h0Zm-94.01,3.73V18.84c-5.64.66-11.24,1.39-16.78,2.2v70.78c5.54-.81,11.14-1.55,16.78-2.2h0Zm-52.82-76.83C315.72,4.11,359.87-.43,405.89.03c61.45.62,119.01,10.08,169.05,26.23v122.27c-50.05-16.15-107.61-25.61-169.05-26.23-46.02-.46-90.17,4.08-130.86,12.75V12.78h0Z"/>
            <path class="cls-23" d="m67.01,178.63v-24.62c-7.31,10.53-13.15,21.49-17.38,32.8v72.91c4.22-11.31,10.06-22.27,17.38-32.8v-24.62c2.12-3.05,4.36-6.06,6.72-9.04v13.28c4.48-5.64,9.39-11.14,14.71-16.49v-13.28c23.06-23.21,53.78-43.57,90.15-59.97v-23.68c-6.47,2.92-12.76,5.96-18.86,9.12-3.05,1.58-6.06,3.19-9.02,4.84-23.35,12.96-43.65,27.74-60.18,43.94-.7.69-1.39,1.37-2.08,2.07v-13.28c-5.32,5.35-10.23,10.85-14.71,16.49v13.28c-2.36,2.98-4.61,5.99-6.72,9.04h0Zm-22.13-.77c13.9-59.67,72.35-111.05,155.27-143.03v122.27c-82.91,31.98-141.36,83.37-155.27,143.03v-122.27h0Z"/>
            <path class="cls-26" d="m88.44,153.09c.69-.69,1.38-1.38,2.08-2.07v23.68c12.35-12.1,26.8-23.41,43.06-33.76,5.51-3.51,11.22-6.9,17.13-10.18v-23.68c2.96-1.64,5.96-3.25,9.02-4.84v23.68c6.1-3.16,12.39-6.21,18.86-9.12v-23.68,23.68c-36.36,16.4-67.08,36.76-90.15,59.97v-23.68h0Zm-21.43,25.53c2.12-3.05,4.36-6.06,6.72-9.04v23.68c-2.36,2.98-4.61,5.99-6.72,9.04v-23.68h0Z"/>
            <path class="cls-25" d="m159.73,102.25c6.1-3.16,12.39-6.21,18.86-9.12v23.68c-6.47,2.92-12.76,5.96-18.86,9.12v-23.68h0Z"/>
            <path class="cls-25" d="m90.52,151.03c12.35-12.1,26.8-23.41,43.06-33.76v23.68c-16.25,10.35-30.7,21.66-43.06,33.76v-23.68h0Z"/>
            <path class="cls-28" d="m133.58,117.27c5.51-3.51,11.22-6.9,17.13-10.18v23.68c-5.91,3.28-11.62,6.68-17.13,10.18v-23.68h0Z"/>
            <path class="cls-26" d="m49.64,186.81c4.22-11.31,10.06-22.27,17.38-32.8v24.62c-7.31,10.53-13.15,21.49-17.38,32.8v23.68c4.22-11.31,10.06-22.27,17.38-32.8v24.62c-7.31,10.53-13.15,21.49-17.38,32.8v-72.91h0Z"/>
            <path class="cls-25" d="m49.64,211.42c4.22-11.31,10.06-22.27,17.38-32.8v23.68c-7.31,10.53-13.15,21.49-17.38,32.8v-23.68h0Z"/>
            <path class="cls-26" d="m73.74,193.26c4.48-5.64,9.39-11.14,14.71-16.49v13.28c-5.32,5.35-10.23,10.85-14.71,16.49v-13.28h0Zm0-36.95c4.48-5.64,9.39-11.14,14.71-16.49v13.28c-5.32,5.35-10.23,10.85-14.71,16.49v-13.28h0Z"/>
            <path class="cls-25" d="m73.74,169.59c4.48-5.64,9.39-11.14,14.71-16.49v23.68c-5.32,5.35-10.23,10.85-14.71,16.49v-23.68h0Z"/>
            <path class="cls-26" d="m727.78,145.87c17.4,22.82,27.76,47.79,29.54,73.98v76.85c-1.78-26.19-12.14-51.15-29.54-73.98v-76.85h0Z"/>
            <path class="cls-22" d="m698.54,115.03c7.41,6.44,14.21,13.13,20.35,20.05v76.85c-6.13-6.92-12.93-13.61-20.35-20.05v-76.85h0Z"/>
            <path class="cls-26" d="m660.02,87.14c9.2,5.59,17.86,11.49,25.93,17.64v76.85c-8.07-6.16-16.73-12.05-25.93-17.64v-76.85h0Z"/>
            <path class="cls-26" d="m525.75,71.96c5.31,1.15,10.56,2.36,15.74,3.65v26.64c-5.18-1.28-10.43-2.5-15.74-3.65v-26.64h0Z"/>
            <path class="cls-26" d="m496.76,93.14c5.51.89,10.97,1.85,16.38,2.89v22.08c-5.4-1.03-10.86-2-16.38-2.89v-22.08h0Z"/>
            <path class="cls-26" d="m466.73,69.56c5.7.62,11.35,1.32,16.95,2.09v19.54c-5.6-.77-11.25-1.47-16.95-2.09v-19.54h0Z"/>
            <path class="cls-26" d="m435.77,47.2c5.86.34,11.67.75,17.44,1.25v39.33c-5.77-.5-11.58-.91-17.44-1.25v-39.33h0Z"/>
            <path class="cls-26" d="m403.99,28.93c.63,0,1.27,0,1.9.02,5.36.05,10.68.17,15.98.36v56.58c-5.29-.19-10.62-.31-15.98-.36-.63,0-1.27-.01-1.9-.02V28.93h0Z"/>
            <path class="cls-22" d="m372.25,46.75c5.86-.25,11.75-.43,17.68-.52v39.33c-5.93.09-11.82.26-17.68.52v-39.33h0Z"/>
            <path class="cls-26" d="m341.25,38.74c5.71-.54,11.46-1,17.26-1.38v49.46c-5.79.38-11.55.84-17.26,1.38v-49.46h0Z"/>
            <path class="cls-22" d="m311.08,21.04c5.54-.81,11.14-1.55,16.78-2.2v70.78c-5.64.66-11.24,1.39-16.78,2.2V21.04h0Z"/>
          </g>
          <g>
            <g>
              <g>
                <g class="cls-8">
                  <path class="cls-58" d="m385.31,624.99c6.26-3.61,13.97-3.62,20.24,0l120.63,69.48c1.9,1.1,1.9,3.84,0,4.93l-121.63,70.22c-5.53,3.19-12.33,3.19-17.86,0l-121.82-70.16c-1.9-1.1-1.9-3.84,0-4.93l120.45-69.54Z"/>
                </g>
                <g class="cls-8">
                  <path class="cls-55" d="m385.31,604.67c6.26-3.61,13.97-3.62,20.24-.01l120.63,69.48c1.9,1.1,1.9,3.84,0,4.93l-121.63,70.22c-5.53,3.19-12.33,3.19-17.86,0l-121.82-70.16c-1.9-1.1-1.9-3.84,0-4.93l120.45-69.54Z"/>
                </g>
                <g class="cls-8">
                  <path class="cls-59" d="m385.31,584.35c6.26-3.61,13.97-3.62,20.24,0l120.63,69.48c1.9,1.1,1.9,3.84,0,4.93l-121.63,70.22c-5.53,3.19-12.33,3.19-17.86,0l-121.82-70.16c-1.9-1.1-1.9-3.84,0-4.93l120.45-69.54Z"/>
                </g>
                <g class="cls-8">
                  <path class="cls-50" d="m385.31,564.03c6.26-3.61,13.97-3.62,20.24,0l120.63,69.48c1.9,1.1,1.9,3.84,0,4.93l-121.63,70.22c-5.53,3.19-12.33,3.19-17.86,0l-121.82-70.16c-1.9-1.1-1.9-3.84,0-4.93l120.45-69.54Z"/>
                </g>
                <path class="cls-9" d="m264.86,633.57l120.45-69.54c6.26-3.61,13.97-3.62,20.24,0l120.63,69.48c.95.55,1.42,1.51,1.42,2.47v60.96c0,.96-.47,1.92-1.42,2.47l-121.63,70.22c-5.53,3.19-12.33,3.19-17.86,0l-121.82-70.16c-.95-.55-1.42-1.51-1.42-2.47v-60.96h0c0-.96.47-1.92,1.42-2.47Z"/>
              </g>
              <g>
                <g class="cls-8">
                  <path class="cls-54" d="m383.14,514.2c7.59-4.38,16.95-4.39,24.54-.01l146.27,84.25c2.3,1.33,2.3,4.65,0,5.98l-147.49,85.15c-6.7,3.87-14.96,3.87-21.66,0l-147.71-85.07c-2.3-1.33-2.3-4.65,0-5.98l146.05-84.32Z"/>
                </g>
                <g class="cls-8">
                  <path class="cls-53" d="m383.14,489.56c7.59-4.38,16.95-4.39,24.54-.01l146.27,84.25c2.3,1.33,2.3,4.65,0,5.98l-147.49,85.15c-6.7,3.87-14.96,3.87-21.66,0l-147.71-85.07c-2.3-1.33-2.3-4.65,0-5.98l146.05-84.32Z"/>
                </g>
                <g class="cls-8">
                  <path class="cls-45" d="m383.14,464.92c7.59-4.38,16.95-4.39,24.54-.01l146.27,84.25c2.3,1.33,2.3,4.65,0,5.98l-147.49,85.15c-6.7,3.87-14.96,3.87-21.66,0l-147.71-85.07c-2.3-1.33-2.3-4.65,0-5.98l146.05-84.32Z"/>
                </g>
                <g class="cls-8">
                  <path class="cls-46" d="m383.14,440.28c7.59-4.38,16.95-4.39,24.54-.01l146.27,84.25c2.3,1.33,2.3,4.65,0,5.98l-147.49,85.15c-6.7,3.87-14.96,3.87-21.66,0l-147.71-85.07c-2.3-1.33-2.3-4.65,0-5.98l146.05-84.32Z"/>
                </g>
                <path class="cls-43" d="m237.09,524.6l146.05-84.32c7.59-4.38,16.94-4.39,24.54-.01l146.27,84.25c1.15.66,1.73,1.83,1.73,2.99v73.92c0,1.16-.58,2.33-1.73,2.99l-147.49,85.15c-6.7,3.87-14.96,3.87-21.66,0l-147.71-85.07c-1.15-.66-1.73-1.83-1.73-2.99v-73.92h0c0-1.16.58-2.33,1.73-2.99Z"/>
                <g class="cls-8">
                  <path class="cls-52" d="m383.14,440.28c7.59-4.38,16.95-4.39,24.54-.01l146.27,84.25c2.3,1.33,2.3,4.65,0,5.98l-147.49,85.15c-6.7,3.87-14.96,3.87-21.66,0l-147.71-85.07c-2.3-1.33-2.3-4.65,0-5.98l146.05-84.32Z"/>
                </g>
                <path class="cls-51" d="m237.09,527.18l147.71,85.07c6.7,3.87,14.96,3.87,21.66,0l147.49-85.15c.57-.33.99-.78,1.28-1.29.88,1.56.45,3.69-1.28,4.69l-147.49,85.15c-6.7,3.87-14.96,3.87-21.66,0l-147.71-85.07c-1.73-1-2.16-3.13-1.28-4.69.29.51.71.96,1.28,1.29Z"/>
              </g>
            </g>
            <ellipse class="cls-44" cx="395.52" cy="527.77" rx="80.53" ry="46.49"/>
            <g>
              <path class="cls-19" d="m426.17,488.35s1.96,2.04,3.99,4.45c2.03,2.4,7.74,5.75,10.14,7.24,2.4,1.49,13.39,9.82,15.69,18.02,2.3,8.2-5.56,9.29-13.59,7.86s-15.54-8.84-17.73-11.51c-2.19-2.68-9.79-8.75-19.65-13.85-9.86-5.1-3.9-11.96-3.9-11.96l25.05-.24Z"/>
              <path class="cls-19" d="m352.97,512.72s-1.63,3.69-2.09,8.43c-.46,4.74-1.13,15.03-1.37,18.04-.25,3.01-.34,10.37,4.95,17.42,5.3,7.05,8.03,9.83,15.07,7.06,7.04-2.77,6.88-14.59,5.63-20.66-1.25-6.08-2.4-19.67-2.27-21.1.13-1.43-.4-2.34-.4-2.34l-19.52-6.86Z"/>
              <path class="cls-18" d="m450.45,348.97s-1.48,54.17-14.11,82.93c0,0-9.04,25.33-10.24,55.45,0,0,2.09,5.19-.87,9.4-2.96,4.22-21.5,8.08-24.56-5.77-3.06-13.85-1.89-39.77,1.48-50.58,3.37-10.81-1.2-40.6-1.2-40.6,0,0-5.07,3.24-11.71,24.64-6.64,21.4-11.53,29.57-13.81,35.48-2.28,5.91-4.38,42.19-2.94,59.9,0,0-15.01,2.13-19.35-5.04-4.34-7.17-5.79-44.29-4.69-56.13,1.1-11.83,6.05-49.74,5.37-61.47-.68-11.73-3.12-21.26-.44-32.97,2.68-11.72,81.88-37.75,81.88-37.75l15.18,22.52Z"/>
              <path class="cls-19" d="m353.83,397.17c-.68-11.73-3.12-21.26-.44-32.97,1.01-4.4,12.83-10.83,27.19-17.14,24.24-2.21,54.98-4.78,57.1-4.46,1.91.29,6.93,2.19,11.08,3.86l1.69,2.51s-.09,3.29-.41,8.67c-5.65,1.69-16.53-.06-16.53-.06-1.53,3.8-10.98,17.31-22.72,23.14-11.75,5.83-46.12,3.83-48.1,6.05-1.97,2.22-2.36,31.87-2.14,35.64.22,3.77-3.24,27.51-6.44,48.5-3.14,20.65,1.64,45.75,1.8,46.56-1.11-.71-2.08-1.59-2.76-2.72-4.34-7.17-5.79-44.29-4.69-56.13,1.1-11.83,6.05-49.74,5.37-61.47Z"/>
              <path class="cls-21" d="m423.94,171.79s17.57,4.01,23.48,5.4c.98.23,1.77.92,2.14,1.86,1.71,4.32,5.99,17.74,2.76,37.34-3.96,24.09-2.71,40.3-2.71,40.3l8.13,42.3s10.22,40.29,9.34,41.39c-.88,1.1-23.53,18.34-30.6,15.91-7.08-2.43-4.75-6.43-4.75-6.43,0,0-5.73,29.2-31.11,28.92-25.38-.28-46.11-.2-50.42-10.46-4.31-10.26,1.18-53.38,5.65-70.46,4.47-17.07,15.11-51.11,15.11-51.11l-37.17-41.14,31.77-24.26s7.59-14.1,10.71-15.89c3.12-1.79,4.75-.28,4.75-.28l42.93,6.62Z"/>
              <g>
                <path class="cls-49" d="m436.05,346.98c-.02,1.46.83,3.65,5.39,5.21,4.93,1.69,17-5.65,24.92-11.17-3.95,3.29-23.4,17.48-29.88,15.26-1.41-.48-2.43-1.03-3.18-1.59,1.45-3.25,2.31-6.06,2.75-7.71Z"/>
                <path class="cls-48" d="m350.39,364.89c4.55,10.83,26.43,10.74,53.21,11.04,6.81.08,12.28-1.87,16.65-4.8-4.63,4.42-10.99,7.74-19.63,7.64-25.38-.28-46.11-.2-50.42-10.46-1.41-3.37-1.77-10.29-1.45-18.65-.06,6.8.41,12.3,1.64,15.23Z"/>
              </g>
              <path class="cls-10" d="m376.96,165.09s-6.49,7.85,2.85,18.45c5.75,6.52,15.63,20.59,24.06,35.2,5.26,9.12,10.13,13.99,12.88,21.83,0,0,.39-9.31.76-23.7.35-13.57.53-27.68-.08-31.23-1.25-7.32-33.3-24.11-40.47-20.56Z"/>
              <path class="cls-12" d="m401.23,188.71s3.32,2.07,4.47,1.89c1.15-.17,4.83-3.75,4.83-3.75,0,0,9.21-.17,10.22-4.11,1.01-3.95,1.67-7.93,2.6-9.98.93-2.05,4.91-11.9,4.94-15.89.03-4-.12-11.13,1.61-14.91,1.73-3.78,4.05-41.59-32.46-40.52s-25.17,38.98-25.17,38.98c0,0-2.67,1.14-1.05,6.02,1.61,4.88,1.98,5.39,2.8,7.81.82,2.42,1.23,3.97,3.55,5.94l.6,4.5s-1.73,6.87,2.81,13.54c4.54,6.67,20.26,10.49,20.26,10.49Z"/>
              <path class="cls-18" d="m448.43,177.62s3.89.58,16.52,32.35c7.05,17.73,17.93,36.09,20.23,49.27,2.31,13.18,1.02,27.26-1.58,28.26-2.51.95-47.89,17.94-62.09,23.3-.78.3-1.64-.2-1.79-1.02l-3.92-21.92,28.16-10.88s5.36-6.56,10.41-9.02c0,0-5.65-10.41-5.29-13.25.36-2.84-.5-32.23,2.8-44.19,3.3-11.96-3.45-32.9-3.45-32.9Z"/>
              <path class="cls-12" d="m431.94,261.6s3.88-2.61,4.84-2.98c.96-.37,6.15-2.14,7.14-2.59.73-.33,3.76-.08,5.27.08.55.06,1.03.37,1.29.86,1.2,2.22,4.54,8.69,4.16,11.16,0,0-9.38,5.92-10.42,8.57l-1.5.32s-6.28-13.47-10.77-15.42Z"/>
              <path class="cls-18" d="m355.85,297.85c1.08-4.11,2.51-9.2,4.07-14.56l57.04,24.45s-17.07,20.99-47,19.65c-8.18-.37-14.15-3.32-18.53-5.86,1.32-9.34,2.93-17.97,4.42-23.68Z"/>
              <path class="cls-18" d="m333.79,205.6s15.04,2.07,27.19,21.33c12.15,19.26,21.01,41.55,21.01,41.55l.42,2.51c1.09,6.55,8.07,10.31,14.14,7.6,12.83-5.73,31.84-14.39,35.38-16.99,0,0,11.37,6.28,14.47,21.13,2.47,11.84,1.84,11.87,1.84,11.87,0,0-50.65,23.64-70.21,23.41-19.56-.23-44.38-64.54-47.11-77.84-2.73-13.29-5.74-30.81,2.86-34.57Z"/>
              <path class="cls-29" d="m333.79,205.6s15.04,2.07,27.19,21.33c12.15,19.26,21.01,41.55,21.01,41.55l.42,2.51c1.09,6.55,8.07,10.31,14.14,7.6,12.83-5.73,31.84-14.39,35.38-16.99,0,0,11.37,6.28,14.47,21.13,2.47,11.84,1.84,11.87,1.84,11.87,0,0-50.65,23.64-70.21,23.41-19.56-.23-44.38-64.54-47.11-77.84-2.73-13.29-5.74-30.81,2.86-34.57Z"/>
              <path class="cls-21" d="m389.28,281.59s-6.39,5.97-9.17,2.7c-2.78-3.27-1.96-3.63-1.96-3.63,0,0-5.75-.05-6.45-3.65-.7-3.6-3.53-1.7-3.69-5.71-.16-4.01,4.65-3.19,4.65-3.19l16.62,13.49Z"/>
              <path class="cls-12" d="m397,278.39s-1.76-1.63-4.02-3.55c-2.27-1.92-5.93-9.85-6.55-10.55-.62-.7-8.26-6.56-11.95-6.66-3.68-.1-.95,4.02-.1,4.6.85.58,4.45,2.37,4.45,2.37,0,0,3.7,3.11,4.12,3.56.42.46-10.29-.74-11.99.31-1.7,1.04-1.3,3.78-.11,4.53,1.2.74,2.12.72,2.12.72,0,0-1.21,3.22,2.01,4.72,3.21,1.49,3.95.66,3.95.66,0,0,.28,5.57,5.58,4.46l12.49-5.17Z"/>
              <path class="cls-15" d="m430.71,122.63s4.77,15.17-7.78,10.85c-12.55-4.32-23.89-11.54-27.83-8.79-3,2.09-2.86,8.51-2.62,11.46.08,1-.18,2-.75,2.83l-3.72,5.41c-.42.61-.67,1.32-.72,2.06l-.27,3.76c-.07.95-.83,1.7-1.77,1.75l-.86.05c-.96.06-1.8-.61-1.97-1.56l-.97-5.52s-2.95-7.43-9.19-4.51c0,0-4.17-5.61-2.79-17.6,1.39-11.99,6.76-24.46,30.29-26.45,23.53-1.99,30.95,26.26,30.95,26.26Z"/>
              <path class="cls-16" d="m394.75,202.07l3.52-2.73s3.26,2.71,4.53,5.58c1.27,2.87,0,11.99,0,11.99l1.07,1.85,1.32-2.41,1.12-10.78s-1.2-7.97-1.31-8.17c-.12-.2-6.79.71-6.79.71,0,0-2.31,1.76-3.45,3.98Z"/>
              <path class="cls-16" d="m411.68,191.33s3.76.25,5.46,1.66c0,0-3.95.19-4.57.27-.63.07-.88-1.92-.88-1.92Z"/>
              <path class="cls-18" d="m404.51,192.18l-6.31,5.9s5.54,2.55,7.09,7.51c0,0,6.87,1.28,7.5-1.21s-.02-8.76.8-11.54c.82-2.78-9.08-.66-9.08-.66Z"/>
              <path class="cls-18" d="m412.53,204.24s1.17,5.17,2.46,7.3c1.28,2.13,2.6,4.52,2.6,4.52l-.16,30.29s-11.14-22.97-13.56-27.62c0,0,.37-11.06,1.42-13.16,1.05-2.09,7.24-1.35,7.24-1.35Z"/>
              <path class="cls-17" d="m382.61,159.47c7.32,21.12,27.91,27.39,27.91,27.39,0,0-3.68,3.58-4.83,3.75-1.15.17-4.47-1.89-4.47-1.89,0,0-15.72-3.82-20.26-10.49-4.54-6.67-2.81-13.54-2.81-13.54l-.61-4.5c3.27,1.07,5.06-.71,5.06-.71Z"/>
              <path class="cls-18" d="m365.87,184.19s2.89,9.97,3.26,10.34,7.26-.42,7.26-.42l-3.35,6.34s34.66,37.17,41.85,57.17c0,0-16.4-25.35-45.27-55.61l4.09-6.18-7.09,1.38-.75-13.01Z"/>
              <path class="cls-18" d="m422.8,175.39l1.84,2.1-2.16,2.02,6.41,5.79s1.96,40.66-5.87,67.6c0,0,10.63-24.71,8.21-68.71l-6.94-4.7,2.27-2.23-3.77-1.87Z"/>
              <path class="cls-19" d="m400.96,399.8s-.08.05-.24.19l8.98-9.56c-4.14,5.85.63,32.61,1.13,38.74.5,6.13-4.8,18.78-6.78,33.61-1.98,14.81,2.08,35.94,2.09,36.01-2.57-1.49-4.61-3.96-5.46-7.8-3.06-13.85-1.89-39.77,1.48-50.58,3.37-10.81-1.2-40.6-1.2-40.6Z"/>
              <path class="cls-47" d="m378.04,318c-19.56-.23-44.38-64.54-47.11-77.84-.46-2.22-.92-4.56-1.33-6.93.07.19,5.14,14.08,10.03,26.39,4.92,12.4,31.06,49.97,44.42,52.42,12.05,2.21,55.38-18.02,63.77-22.01.76,4.52.44,4.56.44,4.56,0,0-50.65,23.64-70.21,23.41Z"/>
              <path class="cls-13" d="m384.39,152.01c-.96.06-1.8-.61-1.97-1.56l-.97-5.52s-2.95-7.43-9.19-4.51c0,0-3.94-5.33-2.87-16.66,6.94,10.42,22.33,15.23,22.33,15.23l-3.72,5.41c-.42.61-.67,1.32-.72,2.06l-.27,3.76c-.07.95-.83,1.7-1.77,1.75l-.86.05Z"/>
            </g>
          </g>
          <g>
            <path class="cls-23" d="m155.36,459.51v-20.66c4.14,2.22,8.37,4.38,12.69,6.49v20.66c-4.32-2.1-8.55-4.27-12.69-6.49h0Zm-40.68-25.81v-38.07c3.44,2.59,6.98,5.13,10.63,7.63v38.07c-3.65-2.49-7.19-5.04-10.63-7.63h0Zm19.39,13.4v-44.9c3.8,2.41,7.7,4.77,11.7,7.08v44.9c-4-2.31-7.9-4.67-11.7-7.08h0Zm-52.03-42.88v-49.82c2.64,2.9,5.4,5.77,8.27,8.59v49.82c-2.87-2.82-5.63-5.68-8.27-8.59h0Zm15.25,15.16v-53.97c3.05,2.76,6.21,5.47,9.49,8.13v53.97c-3.27-2.66-6.43-5.38-9.49-8.13h0Zm-38.88-47.75v-58.51c1.75,3.17,3.64,6.3,5.65,9.41v58.51c-2.01-3.1-3.9-6.24-5.65-9.41h0Zm10.62,16.64v-76.12c2.21,3.04,4.54,6.05,7,9.02v76.12c-2.45-2.97-4.79-5.98-7-9.02h0Zm-18.75-33.9v-85.97c1.28,3.28,2.69,6.53,4.24,9.75v85.97c-1.55-3.22-2.96-6.47-4.24-9.75h0Zm143.86,19.08c-81.8-32.95-138.31-85.01-150.15-144.65v122.27c11.84,59.64,68.35,111.7,150.15,144.65v-122.27h0Z"/>
            <path class="cls-23" d="m434,509.26v-27.58c14.07-.77,27.91-2.01,41.47-3.68v27.58c-13.56,1.68-27.4,2.92-41.47,3.68h0Zm-66.15.13v-50.26c8.43.43,16.95.69,25.55.77,5.87.06,11.72.04,17.53-.07v50.26c-5.81.1-11.65.13-17.53.07-8.59-.09-17.11-.35-25.55-.77h0Zm-63.75-6.6v-76.85c13.33,2.11,26.98,3.79,40.9,5.02v76.85c-13.92-1.22-27.57-2.9-40.9-5.02h0Zm193.16-.33v-81.16c13.23-2.15,26.16-4.72,38.73-7.7v81.16c-12.57,2.97-25.5,5.55-38.73,7.7h0Zm71.35-116.11c-52.11,16.04-111.88,24.87-175.21,24.24-44.14-.44-86.27-5.45-125.06-14.22v122.27c38.78,8.77,80.92,13.78,125.06,14.22,63.33.63,123.1-8.2,175.21-24.24v-122.27h0Z"/>
            <path class="cls-23" d="m656.45,421.32v-23.68c57.06-33.69,94.2-78.61,100.27-128.58v23.68c-6.07,49.97-43.21,94.89-100.27,128.58h0Zm101.1-90.16v-122.27c-1.82,59.8-48.04,113.19-120.33,149.99v122.27c72.29-36.81,118.51-90.19,120.33-149.99h0Z"/>
            <path class="cls-26" d="m756.72,269.06c-6.07,49.97-43.21,94.89-100.27,128.58v23.68c57.06-33.69,94.2-78.61,100.27-128.58v-23.68h0Z"/>
            <path class="cls-22" d="m345,430.96c-13.92-1.22-27.57-2.9-40.9-5.02v76.85c13.33,2.11,26.98,3.79,40.9,5.02v-76.85h0Z"/>
            <path class="cls-22" d="m475.47,478c-13.56,1.68-27.4,2.92-41.47,3.68v27.58c14.07-.77,27.91-2.01,41.47-3.68v-27.58h0Z"/>
            <path class="cls-22" d="m535.99,413.61c-12.57,2.97-25.5,5.55-38.73,7.7v81.16c13.23-2.15,26.16-4.72,38.73-7.7v-81.16h0Z"/>
            <path class="cls-26" d="m410.93,459.83c-5.81.1-11.65.12-17.53.07-8.59-.09-17.11-.35-25.55-.77v50.26c8.43.43,16.95.69,25.55.77,5.87.06,11.72.04,17.53-.07v-50.26h0Z"/>
            <path class="cls-22" d="m54.53,278.14c-1.55-3.22-2.96-6.47-4.24-9.75v85.97c1.28,3.28,2.69,6.53,4.24,9.75v-85.97h0Z"/>
            <path class="cls-22" d="m64.06,322.52c-2.01-3.1-3.9-6.24-5.65-9.41v58.51c1.75,3.17,3.64,6.3,5.65,9.41v-58.51h0Z"/>
            <path class="cls-26" d="m76.03,321.17c-2.45-2.97-4.79-5.98-7-9.02v76.12c2.21,3.04,4.54,6.05,7,9.02v-76.12h0Z"/>
            <path class="cls-22" d="m90.31,362.98c-2.87-2.82-5.63-5.68-8.27-8.59v49.82c2.64,2.9,5.4,5.77,8.27,8.59v-49.82h0Z"/>
            <path class="cls-26" d="m106.78,373.54c-3.27-2.66-6.43-5.38-9.49-8.13v53.97c3.05,2.76,6.21,5.47,9.49,8.13v-53.97h0Z"/>
            <path class="cls-26" d="m125.3,403.25c-3.65-2.49-7.19-5.04-10.63-7.63v38.07c3.44,2.59,6.98,5.13,10.63,7.63v-38.07h0Z"/>
            <path class="cls-26" d="m145.77,409.27c-4-2.31-7.9-4.67-11.7-7.08v44.9c3.8,2.41,7.7,4.77,11.7,7.08v-44.9h0Z"/>
            <path class="cls-26" d="m168.05,445.33c-4.32-2.1-8.55-4.27-12.69-6.49v20.66c4.14,2.22,8.37,4.38,12.69,6.49v-20.66h0Z"/>
          </g>
        </g>
      </g>
    </g>
  </g>
</svg>