<?xml version="1.0" encoding="utf-8"?>
<!-- Generator: Adobe Illustrator 27.3.1, SVG Export Plug-In . SVG Version: 6.00 Build 0)  -->
<svg version="1.1" id="Layer_1" xmlns="http://www.w3.org/2000/svg" xmlns:xlink="http://www.w3.org/1999/xlink" x="0px" y="0px"
	 viewBox="0 0 500 500" style="enable-background:new 0 0 500 500;" xml:space="preserve">
<style type="text/css">
	.st0{fill:#FFFFFF;}
	.st1{opacity:0.5;}
	.st2{fill:#CEE7FD;}
	.st3{fill:#005B88;}
	.st4{fill:#0094A4;}
	.st5{opacity:0.3;}
	.st6{fill:#3199F0;}
	.st7{opacity:0.43;fill:#0094A4;}
	.st8{fill:#005BEA;}
	.st9{opacity:0.43;}
	.st10{fill:#3C72A4;}
	.st11{fill:#EDEDEF;}
	.st12{opacity:0.56;fill:#005B88;}
	.st13{opacity:0.7;}
	.st14{opacity:0.2;fill:#FFFFFF;}
</style>
<g>
	<g>
		<polygon class="st0" points="201.7,460.2 220.2,470.9 220.2,482.3 203.4,491.9 184.9,481.2 184.9,469.9 		"/>
		<g class="st1">
			<polygon class="st2" points="203.4,491.9 184.9,481.2 184.9,469.9 203.4,480.6 			"/>
		</g>
		<polygon class="st2" points="220.2,482.3 203.4,491.9 203.4,480.6 220.2,470.9 		"/>
		<g>
			<path class="st3" d="M203.4,492.8c-0.1,0-0.3,0-0.4-0.1L184.5,482c-0.3-0.2-0.4-0.4-0.4-0.7v-11.3c0-0.3,0.2-0.6,0.4-0.7
				l16.7-9.7c0.3-0.2,0.6-0.2,0.8,0l18.5,10.7c0.3,0.2,0.4,0.4,0.4,0.7l0,11.3c0,0.3-0.2,0.6-0.4,0.7l-16.7,9.7
				C203.7,492.7,203.6,492.8,203.4,492.8z M185.8,480.7l17.7,10.2l15.9-9.2l0-10.4l-17.7-10.2l-15.9,9.2V480.7z"/>
		</g>
	</g>
	<g>
		<path class="st0" d="M52.3,372.6c2.9-2.9,7.7-2.9,10.6,0c2.9,2.9,2.9,7.6,0,10.6c-2.9,2.9-7.7,2.9-10.6,0
			C49.4,380.2,49.4,375.5,52.3,372.6z"/>
		<path class="st2" d="M60.4,380.7c2.5-2.5,2.8-6.3,1.1-9.2c0.5,0.3,1,0.6,1.4,1.1c2.9,2.9,2.9,7.6,0,10.6c-2.9,2.9-7.7,2.9-10.6,0
			c-0.4-0.4-0.8-0.9-1.1-1.4C54.1,383.5,57.9,383.2,60.4,380.7z"/>
		<g>
			<path class="st3" d="M57.6,386.2C57.6,386.2,57.6,386.2,57.6,386.2c-2.2,0-4.3-0.9-5.9-2.4c-1.6-1.6-2.4-3.7-2.4-5.9
				s0.9-4.3,2.4-5.9l0,0c1.6-1.6,3.7-2.4,5.9-2.4c0,0,0,0,0,0c2.2,0,4.3,0.9,5.9,2.4c1.6,1.6,2.4,3.7,2.4,5.9c0,2.2-0.9,4.3-2.4,5.9
				C61.9,385.3,59.8,386.2,57.6,386.2z M57.6,371.3c-1.8,0-3.4,0.7-4.7,1.9c0,0,0,0,0,0c-1.3,1.3-1.9,2.9-1.9,4.7
				c0,1.8,0.7,3.4,1.9,4.7c1.3,1.3,2.9,1.9,4.7,1.9c0,0,0,0,0,0c1.8,0,3.4-0.7,4.7-1.9c1.3-1.3,1.9-2.9,1.9-4.7
				c0-1.8-0.7-3.4-1.9-4.7C61,371.9,59.3,371.3,57.6,371.3C57.6,371.3,57.6,371.3,57.6,371.3z M52.3,372.6L52.3,372.6L52.3,372.6z"
				/>
		</g>
	</g>
	<g>
		<path class="st0" d="M253.7,453.7c2.9-2.9,7.7-2.9,10.6,0c2.9,2.9,2.9,7.6,0,10.6c-2.9,2.9-7.7,2.9-10.6,0
			C250.8,461.4,250.8,456.6,253.7,453.7z"/>
		<path class="st2" d="M261.8,461.8c2.5-2.5,2.8-6.3,1.1-9.2c0.5,0.3,1,0.6,1.4,1.1c2.9,2.9,2.9,7.6,0,10.6c-2.9,2.9-7.7,2.9-10.6,0
			c-0.4-0.4-0.8-0.9-1.1-1.4C255.5,464.7,259.3,464.3,261.8,461.8z"/>
		<g>
			<path class="st3" d="M259,467.3c-2.2,0-4.3-0.9-5.9-2.4c-3.2-3.2-3.2-8.5,0-11.8l0,0c1.6-1.6,3.7-2.4,5.9-2.4c0,0,0,0,0,0
				c2.2,0,4.3,0.9,5.9,2.4c3.2,3.2,3.2,8.5,0,11.8C263.3,466.5,261.2,467.3,259,467.3z M259,452.4c-1.8,0-3.4,0.7-4.7,1.9l0,0
				c-2.6,2.6-2.6,6.8,0,9.4c1.3,1.3,2.9,1.9,4.7,1.9c1.8,0,3.4-0.7,4.7-1.9c2.6-2.6,2.6-6.8,0-9.4
				C262.4,453.1,260.8,452.4,259,452.4C259,452.4,259,452.4,259,452.4z M253.7,453.7L253.7,453.7L253.7,453.7z"/>
		</g>
	</g>
	<g>
		<path class="st0" d="M339.9,167.6c2.9-2.9,7.7-2.9,10.6,0c2.9,2.9,2.9,7.6,0,10.6c-2.9,2.9-7.7,2.9-10.6,0
			C337,175.2,337,170.5,339.9,167.6z"/>
		<path class="st2" d="M348,175.7c2.5-2.5,2.8-6.3,1.1-9.2c0.5,0.3,1,0.6,1.4,1.1c2.9,2.9,2.9,7.6,0,10.6c-2.9,2.9-7.7,2.9-10.6,0
			c-0.4-0.4-0.8-0.9-1.1-1.4C341.7,178.5,345.5,178.2,348,175.7z"/>
		<g>
			<path class="st3" d="M345.2,181.2c-2.2,0-4.3-0.9-5.9-2.4c-3.2-3.2-3.2-8.5,0-11.8c1.6-1.6,3.7-2.4,5.9-2.4c0,0,0,0,0,0
				c2.2,0,4.3,0.9,5.9,2.4c1.6,1.6,2.4,3.7,2.4,5.9c0,2.2-0.9,4.3-2.4,5.9C349.5,180.3,347.4,181.2,345.2,181.2z M345.2,166.2
				c-1.8,0-3.4,0.7-4.7,1.9l0,0c-2.6,2.6-2.6,6.8,0,9.4c1.3,1.3,2.9,1.9,4.7,1.9c1.8,0,3.4-0.7,4.7-1.9c1.3-1.3,1.9-2.9,1.9-4.7
				s-0.7-3.4-1.9-4.7C348.6,166.9,347,166.2,345.2,166.2C345.2,166.2,345.2,166.2,345.2,166.2z M339.9,167.6L339.9,167.6
				L339.9,167.6z"/>
		</g>
	</g>
	<g>
		<path class="st2" d="M445.5,332.5L445.5,332.5L445.5,332.5C445.5,332.4,445.5,332.4,445.5,332.5c0-2.1-1.3-4-3.9-5.5L254.4,218.9
			c-5.2-3-13.6-3-18.8,0l-133.9,75.7c-2.6,1.5-3.9,3.5-3.9,5.4c0,0,0,0,0,0v0.1h0c0.1,1.9,1.3,3.8,3.9,5.3L289,413.6
			c5.2,3,13.6,3,18.8,0l133.9-75.7C444.2,336.4,445.5,334.4,445.5,332.5z"/>
		<path class="st4" d="M305.2,415l-7.5,4.3c0,0,0,0,0,0l-0.1,0.1l0,0c-1.7,0.9-4,0.8-6.5-0.7L103.8,310.5c-5.2-3-9.4-10.3-9.4-16.2
			l0-274.5c0-2.9,1-5,2.7-6l0,0l0.1,0c0,0,0,0,0,0l7.5-4.3l0,0c1.7-1,4.1-0.9,6.7,0.6l187.3,108.1c5.2,3,9.4,10.3,9.4,16.2l0,274.5
			C308,411.9,306.9,414,305.2,415L305.2,415L305.2,415C305.2,415,305.2,415,305.2,415z"/>
		<path class="st5" d="M144.9,176.3c2.4,1.4,4.4,0.3,4.4-2.5l0-82.5c0-2.8-2-6.2-4.4-7.6l-50.2-29c-0.1,0-0.2-0.1-0.3-0.1l0,92.6
			c0.1,0.1,0.2,0.1,0.3,0.2L144.9,176.3z"/>
		<polygon class="st5" points="289.8,134.4 113,32.3 113,293.7 289.8,395.7 		"/>
		<path class="st6" d="M240.6,123.1l-3.7,2.2c0,0,0,0,0,0l0,0v0c-0.7,0.4-1.6,0.3-2.6-0.3l-81-46.8c-2.1-1.2-3.8-4.1-3.8-6.5v-14
			c0-1.2,0.4-2.1,1.1-2.4l3.7-2.1c0.7-0.4,1.6-0.4,2.7,0.2l81,46.8c2.1,1.2,3.8,4.1,3.8,6.5v14C241.7,121.9,241.3,122.7,240.6,123.1
			L240.6,123.1z"/>
		<path class="st4" d="M240.6,123.1l-3.7,2.2c0,0,0,0,0,0l0,0v0c-0.7,0.4-1.6,0.3-2.6-0.3l-81-46.8c-2.1-1.2-3.8-4.1-3.8-6.5v-14
			c0-1.2,0.4-2.1,1.1-2.4l3.7-2.1c0.7-0.4,1.6-0.4,2.7,0.2l81,46.8c2.1,1.2,3.8,4.1,3.8,6.5v14C241.7,121.9,241.3,122.7,240.6,123.1
			L240.6,123.1z"/>
		<g>
			<path class="st3" d="M235.9,126.4c-0.7,0-1.4-0.2-2.1-0.6l-81-46.8c-2.3-1.4-4.2-4.5-4.2-7.2v-14c0-1.5,0.6-2.6,1.6-3.2l3.7-2.1
				c1-0.6,2.3-0.5,3.5,0.2l81,46.8c2.3,1.4,4.2,4.5,4.2,7.2v14c0,1.4-0.5,2.5-1.5,3.1c0,0-0.1,0-0.1,0.1l-3.7,2.2c0,0,0,0-0.1,0
				C236.8,126.3,236.3,126.4,235.9,126.4z M155.2,53.8c-0.2,0-0.4,0-0.6,0.1l-3.7,2.1c-0.5,0.3-0.7,0.9-0.7,1.7v14
				c0,2.1,1.5,4.7,3.3,5.8l81,46.8c0.7,0.4,1.4,0.5,1.8,0.3c0,0,0,0,0,0l3.6-2.1c0,0,0.1,0,0.1-0.1c0.4-0.2,0.7-0.9,0.7-1.7v-14
				c0-2.1-1.5-4.7-3.3-5.8l-81-46.8C156,53.9,155.6,53.8,155.2,53.8z"/>
		</g>
		<path class="st5" d="M334.7,414.4V140c0-6-4.2-13.3-9.4-16.2L138,15.6c-2.6-1.5-4.9-1.6-6.6-0.7l0,0l7.5-4.3l0,0
			c1.7-1,4.1-0.9,6.7,0.6l187.3,108.1c5.2,3,9.4,10.3,9.4,16.2l0,274.5c0,3-1,5.1-2.7,6l0,0l0,0c0,0,0,0,0,0l-7.5,4.3l0,0
			C333.7,419.5,334.7,417.4,334.7,414.4z"/>
		<g>
			<path class="st3" d="M295.2,420.7c-1.4,0-3-0.5-4.6-1.4L103.3,311.2c-5.4-3.1-9.8-10.7-9.8-17l0-274.5c0-3.1,1-5.4,2.9-6.6
				c0,0,0.1-0.1,0.2-0.1l0,0c0,0,0,0,0,0l7.5-4.3c0,0,0.1,0,0.1-0.1c2-1.1,4.7-0.9,7.4,0.7L299,117.4c5.4,3.1,9.8,10.7,9.8,17
				l0,274.5c0,3.1-1.1,5.5-3.1,6.7c0,0,0,0,0,0c0,0-0.1,0-0.1,0.1l0,0l-7.5,4.3c0,0,0,0,0,0l-0.1,0.1c-0.1,0-0.1,0.1-0.2,0.1
				C297,420.6,296.2,420.7,295.2,420.7z M97.6,14.4c0,0-0.1,0.1-0.1,0.1c-1.5,0.9-2.3,2.8-2.3,5.3l0,274.5c0,5.7,4,12.7,9,15.5
				l187.3,108.1c2.2,1.2,4.2,1.5,5.7,0.7c0,0,0.1,0,0.1-0.1l7.4-4.3c0,0,0,0,0.1,0c1.5-0.9,2.3-2.8,2.3-5.3l0-274.5
				c0-5.7-4-12.7-9-15.5L110.9,10.8c-2.3-1.3-4.3-1.5-5.8-0.6c0,0-0.1,0-0.1,0.1L97.6,14.4z"/>
		</g>
		<polygon class="st0" points="282.1,400.4 105.3,298.3 105.3,36.9 109,34.8 285.8,136.8 285.8,398.2 		"/>
		<path class="st7" d="M262.3,165.5c2.4,1.4,4.4,4.8,4.4,7.6l0,49.5c0,2.8-2,3.9-4.4,2.5l-85.7-49.5c-2.4-1.4-4.4-4.8-4.4-7.6
			l0-49.5c0-2.8,2-3.9,4.4-2.5L262.3,165.5z"/>
		<path class="st7" d="M144.2,177.1l0-82.5c0-2.8-2-6.2-4.4-7.6l-34.5-19.9l0,92.6l34.5,19.9C142.2,181.1,144.2,179.9,144.2,177.1z"
			/>
		<polygon class="st7" points="132.1,285.7 132.1,313.8 259,387.1 259,285.7 		"/>
		<polygon class="st7" points="285.8,398.2 285.8,136.8 109,34.8 105.3,36.9 282.1,139 282.1,400.4 		"/>
		<g>
			<path class="st3" d="M282.1,401.2c-0.1,0-0.3,0-0.4-0.1L104.9,299.1c-0.3-0.2-0.4-0.4-0.4-0.7l0-261.4c0-0.3,0.2-0.6,0.4-0.7
				l3.8-2.2c0.3-0.2,0.6-0.2,0.8,0l176.8,102.1c0.3,0.2,0.4,0.4,0.4,0.7l0,261.4c0,0.3-0.2,0.6-0.4,0.7l-3.8,2.2
				C282.3,401.2,282.2,401.2,282.1,401.2z M106.1,297.8l175.9,101.6l2.9-1.7l0-260.4L109,35.7l-2.9,1.7L106.1,297.8z"/>
		</g>
		<path class="st4" d="M236.8,125.3l-3.7,2.1c0,0,0,0,0,0l0,0l0,0c-0.7,0.4-1.6,0.3-2.6-0.3l-81-46.8c-2.1-1.2-3.8-4.1-3.8-6.5l0-14
			c0-1.2,0.4-2.1,1.1-2.4l3.7-2.1c0.7-0.4,1.6-0.4,2.7,0.2l81,46.8c2.1,1.2,3.8,4.1,3.8,6.5l0,14
			C237.9,124.1,237.5,124.9,236.8,125.3L236.8,125.3z"/>
		<path class="st5" d="M237.9,108.9c0-2.4-1.7-5.3-3.8-6.5l-81-46.8c-1.1-0.6-2-0.7-2.7-0.2l-3.7,2.1c0.7-0.4,1.6-0.3,2.6,0.3
			l81,46.8c2.1,1.2,3.8,4.1,3.8,6.5l0,14c0,1.2-0.4,2-1.1,2.4l3.7-2.1v0c0.7-0.4,1.1-1.2,1.1-2.4L237.9,108.9z"/>
		<g>
			<path class="st3" d="M232.1,128.5c-0.7,0-1.4-0.2-2.1-0.6l-81-46.8c-2.3-1.4-4.2-4.5-4.2-7.2l0-14c0-1.5,0.6-2.6,1.6-3.2l3.7-2.1
				c1-0.6,2.3-0.5,3.5,0.2l81,46.8c2.3,1.4,4.2,4.5,4.2,7.2l0,14c0,1.4-0.5,2.6-1.5,3.1c0,0,0,0-0.1,0l-3.7,2.1c0,0-0.1,0.1-0.2,0.1
				c0,0,0,0,0,0C233,128.4,232.6,128.5,232.1,128.5z M151.5,55.9c-0.2,0-0.4,0-0.6,0.1l-3.7,2.1c-0.5,0.3-0.7,0.9-0.7,1.7l0,14
				c0,2.1,1.5,4.7,3.3,5.8l81,46.8c0.7,0.4,1.4,0.5,1.8,0.3c0,0,0,0,0.1,0l3.6-2.1c0,0,0,0,0.1,0c0.4-0.2,0.7-0.9,0.7-1.7l0-14
				c0-2.1-1.5-4.7-3.3-5.8l-81-46.8C152.3,56.1,151.8,55.9,151.5,55.9z M236.8,125.3L236.8,125.3L236.8,125.3z"/>
		</g>
		<path class="st0" d="M212.9,105.8L212.9,105.8c-0.7,0.4-1.6,0.3-2.6-0.3l-48.2-27.8c-2.1-1.2-3.8-4.1-3.8-6.5l0-9.1
			c0-1.2,0.4-2,1.1-2.4l0,0l3.6-2.1l0,0c0.7-0.5,1.7-0.5,2.8,0.2L214,85.6c2.1,1.2,3.8,4.1,3.8,6.5v9.1c0,1.2-0.4,2-1.1,2.4h0
			L212.9,105.8z"/>
		<path class="st7" d="M212.9,105.8c0,0-0.1,0-0.1,0c0.7-0.4,1.2-1.2,1.2-2.5v-9.1c0-2.4-1.7-5.3-3.8-6.5l-48.2-27.8
			c-1-0.6-2-0.7-2.7-0.3l0,0l3.6-2.1l0,0c0.7-0.5,1.7-0.5,2.8,0.2L214,85.6c2.1,1.2,3.8,4.1,3.8,6.5v9.1c0,1.2-0.4,2-1.1,2.4h0
			L212.9,105.8L212.9,105.8z"/>
		<g>
			<path class="st3" d="M211.9,106.9c-0.7,0-1.4-0.2-2.1-0.6l-48.2-27.8c-2.3-1.4-4.2-4.5-4.2-7.2l0-9.1c0-1.5,0.6-2.6,1.5-3.2
				l3.6-2.1c0.1,0,0.1-0.1,0.2-0.1c1-0.5,2.2-0.4,3.5,0.3l48.2,27.8c2.3,1.4,4.2,4.5,4.2,7.2v9.1c0,1.5-0.5,2.6-1.5,3.1c0,0,0,0,0,0
				l-3.8,2.2c0,0-0.1,0-0.1,0C212.8,106.8,212.4,106.9,211.9,106.9z M163.3,58.4l-3.5,2c-0.4,0.2-0.7,0.9-0.7,1.7l0,9.2
				c0,2.1,1.5,4.7,3.3,5.8l48.2,27.8c0.7,0.4,1.4,0.5,1.8,0.3c0,0,0,0,0.1,0l3.6-2.1c0,0,0,0,0.1,0c0.4-0.2,0.7-0.9,0.7-1.7v-9.1
				c0-2.1-1.5-4.7-3.3-5.8l-48.2-27.8c-0.7-0.4-1.4-0.5-1.9-0.2C163.5,58.3,163.4,58.4,163.3,58.4z"/>
		</g>
	</g>
	<g>
		<g>
			<path class="st0" d="M245.4,175.6c2.4,1.4,4.4,4.8,4.4,7.6l0,49.5c0,2.8-2,3.9-4.4,2.5l-85.7-49.5c-2.4-1.4-4.4-4.8-4.4-7.6
				l0-49.5c0-2.8,2-3.9,4.4-2.5L245.4,175.6z"/>
			<g>
				<path class="st8" d="M247.4,236.7c-0.8,0-1.6-0.2-2.4-0.7l-85.7-49.5c-2.7-1.6-4.8-5.2-4.8-8.3l0-49.5c0-1.7,0.6-2.9,1.7-3.6
					c1.1-0.6,2.5-0.5,4,0.3l85.7,49.5c2.7,1.6,4.8,5.2,4.8,8.3l0,49.5c0,1.7-0.6,2.9-1.7,3.6C248.5,236.6,247.9,236.7,247.4,236.7z
					 M157.7,126.4c-0.3,0-0.5,0.1-0.7,0.2c-0.5,0.3-0.9,1.1-0.9,2.1l0,49.5c0,2.5,1.8,5.6,4,6.9l85.7,49.5c0.9,0.5,1.7,0.6,2.3,0.3
					c0.5-0.3,0.9-1.1,0.9-2.1l0-49.5c0-2.5-1.8-5.6-4-6.9c0,0,0,0,0,0l-85.7-49.5C158.7,126.5,158.2,126.4,157.7,126.4z"/>
			</g>
		</g>
		<g>
			<path class="st2" d="M171.3,160.8l-6.4-3.7c-0.6-0.3-1.1-0.1-1.1,0.6l0,19.4l0,0c0,0.7,0.5,1.5,1.1,1.8l6.4,3.7
				c0.6,0.3,1.1,0.1,1.1-0.6l0,0l0-19.4C172.4,161.9,171.9,161.1,171.3,160.8z M182.8,159l-6.4-3.7c-0.6-0.3-1.1-0.1-1.1,0.6v27.9
				l0,0c0,0.7,0.5,1.5,1.1,1.8l6.4,3.7c0.6,0.3,1.1,0.1,1.1-0.6l0,0l0-27.9C183.9,160.1,183.4,159.3,182.8,159z M194.3,182.5
				l-6.4-3.7c-0.6-0.3-1.1-0.1-1.1,0.6v11l0,0c0,0.7,0.5,1.5,1.1,1.8l6.4,3.7c0.6,0.3,1.1,0.1,1.1-0.6l0,0l0-11
				C195.3,183.6,194.9,182.8,194.3,182.5z M205.8,162.6l-6.4-3.7c-0.6-0.3-1.1-0.1-1.1,0.6V197l0,0c0,0.7,0.5,1.5,1.1,1.8l6.4,3.7
				c0.6,0.3,1.1,0.1,1-0.6l0,0l0-37.5C206.8,163.7,206.4,162.9,205.8,162.6z M217.3,187.3l-6.4-3.7c-0.6-0.3-1.1-0.1-1,0.6v19.4l0,0
				c0,0.7,0.5,1.5,1.1,1.8l6.4,3.7c0.6,0.3,1.1,0.1,1-0.6l0,0v-19.4C218.3,188.4,217.8,187.6,217.3,187.3z M240.2,200.5l-6.4-3.7
				c-0.6-0.3-1.1-0.1-1.1,0.6v19.4l0,0c0,0.7,0.5,1.5,1.1,1.8l6.4,3.7c0.6,0.3,1.1,0.1,1.1-0.6l0,0l0-19.4
				C241.3,201.7,240.8,200.9,240.2,200.5z M228.7,185.5l-6.4-3.7c-0.6-0.3-1.1-0.1-1,0.6v27.9l0,0c0,0.7,0.5,1.5,1.1,1.8l6.4,3.7
				c0.6,0.3,1.1,0.1,1.1-0.6l0,0l0-27.9C229.8,186.6,229.3,185.8,228.7,185.5z"/>
		</g>
		<g>
			<path class="st3" d="M247.4,236.7c-0.8,0-1.6-0.2-2.4-0.7l-85.7-49.5c-2.7-1.6-4.8-5.2-4.8-8.3l0-49.5c0-1.7,0.6-2.9,1.7-3.6
				c1.1-0.6,2.5-0.5,4,0.3l85.7,49.5c2.7,1.6,4.8,5.2,4.8,8.3l0,49.5c0,1.7-0.6,2.9-1.7,3.6C248.5,236.6,247.9,236.7,247.4,236.7z
				 M157.7,126.4c-0.3,0-0.5,0.1-0.7,0.2c-0.5,0.3-0.9,1.1-0.9,2.1l0,49.5c0,2.5,1.8,5.6,4,6.9l85.7,49.5c0.9,0.5,1.7,0.6,2.3,0.3
				c0.5-0.3,0.9-1.1,0.9-2.1l0-49.5c0-2.5-1.8-5.6-4-6.9c0,0,0,0,0,0l-85.7-49.5C158.7,126.5,158.2,126.4,157.7,126.4z"/>
		</g>
	</g>
	<g>
		<path class="st4" d="M255.4,289.7L255.4,289.7c-0.7,0.4-1.7,0.3-2.8-0.3l-118.1-68.2c-2.2-1.3-4-4.3-3.9-6.8
			c0-1.3,0.4-2.1,1.2-2.6l2.4-1.4l0,0c0.7-0.4,1.7-0.4,2.8,0.3l118.1,68.2c2.2,1.3,4,4.3,4,6.8v0c0,1.3-0.5,2.2-1.2,2.6l0,0
			L255.4,289.7z"/>
		<path class="st5" d="M254.7,288.3c-0.2,0.1-0.6,0.1-1.3-0.3l-118.1-68.2c-0.8-0.5-1.6-1.3-2.2-2.4c-0.6-1-1-2.2-1-3.1
			c0-0.7,0.2-1.1,0.4-1.2c0.2-0.1,0.6-0.1,1.3,0.3l118.1,68.2c1.6,0.9,3.2,3.6,3.2,5.5C255.1,287.8,254.9,288.2,254.7,288.3z"/>
		<path class="st5" d="M254.9,285.9l-117-67.5c-0.8-0.5-1.6-1.3-2.2-2.4c-0.4-0.6-0.6-1.3-0.8-1.9l117,67.5
			C253.2,282.3,254.4,284.2,254.9,285.9z"/>
		<g>
			<path class="st3" d="M254.4,290.8c-0.7,0-1.4-0.2-2.2-0.7l-118.1-68.2c-2.5-1.4-4.4-4.7-4.4-7.6c0-1.5,0.6-2.7,1.6-3.3l2.4-1.4
				c0,0,0.1,0,0.1,0c1-0.5,2.3-0.4,3.6,0.3l118.1,68.2c2.5,1.4,4.4,4.7,4.4,7.6c0,1.5-0.6,2.6-1.5,3.2c0,0-0.1,0.1-0.1,0.1l-2.4,1.4
				C255.4,290.6,254.9,290.8,254.4,290.8z M134.5,211.2l-2.3,1.3c-0.5,0.3-0.7,0.9-0.7,1.8c0,2.2,1.6,5,3.5,6.1l118.1,68.2
				c0.8,0.4,1.5,0.5,1.9,0.3c0,0,0,0,0,0l2.3-1.3c0,0,0.1-0.1,0.1-0.1c0.5-0.3,0.8-0.9,0.8-1.8c0-2.2-1.6-5-3.5-6.1l-118.1-68.2
				C135.7,211,135,210.9,134.5,211.2C134.5,211.2,134.5,211.2,134.5,211.2z"/>
		</g>
		<path class="st0" d="M94.4,359.1c0-9.9,7-22,15.6-27l14.7,8.5v-96.8c0-9.5,6.4-20.9,14.4-26.2l112.5,65c-8,4.8-14.4,16-14.4,25.2
			v97.9c0,9.9-7,22-15.6,27c-4.3,2.5-8.1,2.7-11,1.1h0l-0.1,0c0,0,0,0,0,0L99,369.2l0,0C96.2,367.6,94.4,364.1,94.4,359.1z"/>
		<path class="st2" d="M139.1,217.5l112.5,65c-0.9,0.5-1.8,1.2-2.6,1.8l-112.4-64.9C137.4,218.7,138.2,218.1,139.1,217.5z"/>
		<path class="st7" d="M221.6,432.5c-4.3,2.5-8.1,2.7-11,1.1h0l-0.1,0c0,0,0,0,0,0L99,369.2l0,0c-2.9-1.6-4.6-5.1-4.6-10.1
			c0-9.9,7-22,15.6-27l14.7,8.5v-6.8l112.6,65v6.8C237.2,415.4,230.2,427.6,221.6,432.5z"/>
		<g>
			<path class="st3" d="M214.7,435.5c-1.6,0-3.1-0.4-4.4-1.1c0,0,0,0,0,0c0,0,0,0-0.1,0L98.6,369.9c0,0-0.1,0-0.1-0.1
				c-3.2-1.9-5-5.7-5-10.8c0-10.2,7.2-22.6,16-27.7c0.3-0.2,0.6-0.2,0.8,0l13.4,7.7v-95.3c0-9.6,6.5-21.4,14.8-26.9
				c0.3-0.2,0.6-0.2,0.9,0l112.5,65c0.3,0.1,0.4,0.4,0.4,0.7c0,0.3-0.2,0.6-0.4,0.7c-7.7,4.6-14,15.6-14,24.5v97.9
				c0,10.2-7.2,22.6-16,27.7C219.5,434.7,216.9,435.5,214.7,435.5z M209.7,433.6c0,0.3,0.1,0.5,0.3,0.7l0,0
				C209.9,434.1,209.7,433.8,209.7,433.6z M211.1,432.9C211.1,432.9,211.1,432.9,211.1,432.9c2.7,1.5,6.3,1.1,10.1-1.1
				c8.4-4.8,15.2-16.6,15.2-26.3v-97.9c0-9.1,5.9-19.9,13.6-25.2l-110.9-64c-7.7,5.3-13.6,16.3-13.6,25.2v96.8
				c0,0.3-0.2,0.6-0.4,0.7c-0.3,0.2-0.6,0.2-0.8,0l-14.3-8.2c-8.2,5-14.8,16.5-14.8,26c0,0,0,0,0,0c0,4.5,1.5,7.8,4.2,9.4
				c0,0,0.1,0,0.1,0.1L211.1,432.9C211,432.9,211,432.9,211.1,432.9z"/>
		</g>
		<path class="st0" d="M206,423.5c0,5,1.7,8.4,4.6,10.1L99,369.2l0,0c-2.9-1.6-4.6-5.1-4.6-10.1c0-9.9,7-22,15.6-27l111.6,64.5
			C213,401.5,206,413.6,206,423.5z"/>
		<path class="st7" d="M210.6,433.6L99,369.2l0,0c-2.9-1.6-4.6-5.1-4.6-10.1c0-0.7,0-1.5,0.1-2.2l111.6,64.5
			c-0.1,0.7-0.1,1.5-0.1,2.2C206,428.5,207.8,432,210.6,433.6z"/>
		<g>
			<path class="st3" d="M210.6,434.4c-0.1,0-0.3,0-0.4-0.1c0,0,0,0,0,0L98.6,369.9c0,0-0.1,0-0.1-0.1c-3.2-1.9-5-5.7-5-10.8
				c0-10.2,7.2-22.6,16-27.7c0.3-0.2,0.6-0.2,0.8,0L222,395.8c0.3,0.2,0.4,0.4,0.4,0.7c0,0.3-0.2,0.6-0.4,0.7
				c-8.4,4.8-15.2,16.6-15.2,26.2c0,4.5,1.5,7.8,4.1,9.3l0,0c0.4,0.2,0.5,0.7,0.3,1.2C211.2,434.3,210.9,434.4,210.6,434.4z
				 M99.5,368.5l107,61.8c-0.9-1.8-1.3-4.1-1.3-6.7c0-9.7,6.5-21.5,14.8-27l-110-63.5c-8.2,5-14.8,16.5-14.8,26
				C95.2,363.6,96.7,366.9,99.5,368.5C99.5,368.5,99.5,368.5,99.5,368.5z"/>
		</g>
		<g class="st9">
			<path class="st4" d="M137.3,258.1c0.2-0.1,0.4-0.1,0.7,0.1l9.9,5.7c0.3,0.2,0.5,0.4,0.7,0.7l-1.9,1.1l-7.4-4.3L137.3,258.1z
				 M146.6,269.2v5.4l-7.6-4.4l0-5.5l-2.1-3.7v9.3c0,0.7,0.5,1.5,1,1.8l9.9,5.7c0.6,0.3,1,0.1,1-0.6v-9.1L146.6,269.2z M137.3,279.6
				c0.2-0.1,0.4-0.1,0.7,0.1l9.9,5.7c0.3,0.2,0.5,0.4,0.7,0.7l-1.9,1.1l-7.4-4.3L137.3,279.6z M146.6,290.7v5.4l-7.6-4.4l0-5.5
				l-2.2-3.7v9.3c0,0.7,0.5,1.5,1,1.8l9.9,5.7c0.6,0.3,1,0.1,1-0.6v-9.1L146.6,290.7z M137.3,301.1c0.2-0.1,0.4-0.1,0.6,0.1l9.9,5.7
				c0.3,0.2,0.5,0.4,0.7,0.7l-1.9,1.1l-7.4-4.3L137.3,301.1z M146.6,312.2l0,5.4l-7.6-4.4l0-5.5l-2.2-3.7v9.3c0,0.7,0.5,1.5,1,1.8
				l9.9,5.7c0.6,0.3,1,0.1,1-0.6v-9.1L146.6,312.2z M147.8,328.4l-9.9-5.7c-0.6-0.3-1-0.1-1,0.6v11.4c0,0.7,0.5,1.5,1,1.8l9.9,5.7
				c0.6,0.3,1,0.1,1-0.6v-11.4C148.8,329.6,148.3,328.7,147.8,328.4z M146.6,339.1l-7.6-4.4l0-8.8l7.6,4.4V339.1z"/>
		</g>
		<g class="st9">
			<path class="st4" d="M223.6,312.2c0,0.7-0.5,0.9-1,0.6l-64.7-37.4c-0.6-0.3-1-1.1-1-1.8l0,0c0-0.7,0.5-0.9,1-0.6l64.7,37.4
				C223.1,310.7,223.6,311.5,223.6,312.2L223.6,312.2z M216.1,312.6c0-0.7-0.5-1.5-1-1.8l-57.3-33.1c-0.6-0.3-1-0.1-1,0.6l0,0
				c0,0.7,0.5,1.5,1,1.8l57.3,33.1C215.7,313.6,216.1,313.3,216.1,312.6L216.1,312.6z M223.6,333.7c0,0.7-0.5,0.9-1,0.6l-64.7-37.4
				c-0.6-0.3-1-1.1-1-1.8l0,0c0-0.7,0.5-0.9,1-0.6l64.7,37.4C223.1,332.2,223.6,333,223.6,333.7L223.6,333.7z M216.1,334.1
				c0-0.7-0.5-1.5-1-1.8l-57.3-33.1c-0.6-0.3-1-0.1-1,0.6l0,0c0,0.7,0.5,1.5,1,1.8l57.3,33.1C215.7,335.1,216.1,334.8,216.1,334.1
				L216.1,334.1z M223.6,355.2c0,0.7-0.5,0.9-1,0.6l-64.7-37.4c-0.6-0.3-1-1.1-1-1.8l0,0c0-0.7,0.5-0.9,1-0.6l64.7,37.4
				C223.1,353.7,223.6,354.5,223.6,355.2L223.6,355.2z M216.1,355.6c0-0.7-0.5-1.5-1-1.8l-57.3-33.1c-0.6-0.3-1-0.1-1,0.6l0,0
				c0,0.7,0.5,1.5,1,1.8l57.3,33.1C215.7,356.6,216.1,356.3,216.1,355.6L216.1,355.6z M223.6,376.7c0,0.7-0.5,0.9-1,0.6l-64.7-37.4
				c-0.6-0.3-1-1.1-1-1.8l0,0c0-0.7,0.5-0.9,1-0.6l64.7,37.4C223.1,375.2,223.6,376,223.6,376.7L223.6,376.7z M216.1,377.1
				c0-0.7-0.5-1.5-1-1.8l-57.3-33.1c-0.6-0.3-1-0.1-1,0.6l0,0c0,0.7,0.5,1.5,1,1.8l57.3,33.1C215.7,378.1,216.1,377.8,216.1,377.1
				L216.1,377.1z"/>
		</g>
		<g>
			<path class="st4" d="M142.9,271.4l-7.6-13.1l1.5-0.9l6.1,10.5l7.7-4.5l1.5,2.6L142.9,271.4z M152.1,287.5l-1.5-2.6l-7.7,4.5
				l-6.1-10.5l-1.5,0.9l7.6,13.1L152.1,287.5z M152.1,309l-1.5-2.6l-7.7,4.5l-6.1-10.5l-1.5,0.9l7.6,13.1L152.1,309z"/>
		</g>
	</g>
	<g>
		<g>
			<path class="st2" d="M103.7,437.7c-1.6,0.9-4.1,0.9-5.7,0l-13.7-7.9c-1.6-0.9-1.6-2.4,0-3.3l35.5-20.5c1.6-0.9,4.1-0.9,5.7,0
				l13.7,7.9c1.6,0.9,1.6,2.4,0,3.3L103.7,437.7z M170.1,427.3c1.6-0.9,1.6-2.4,0-3.3l-13.7-7.9c-1.6-0.9-4.1-0.9-5.7,0l-42.2,24.4
				c-1.6,0.9-1.6,2.4,0,3.3l13.7,7.9c1.6,0.9,4.1,0.9,5.7,0L170.1,427.3z M178.1,450.5c1.6-0.9,1.6-2.4,0-3.3l-13.7-7.9
				c-1.6-0.9-4.1-0.9-5.7,0l-26,15c-1.6,0.9-1.6,2.4,0,3.3l13.7,7.9c1.6,0.9,4.1,0.9,5.7,0L178.1,450.5z"/>
		</g>
		<g>
			<path class="st0" d="M103.2,415L103.2,415c0-0.6-0.4-1.2-1.2-1.6l-13.7-7.9c-1.6-0.9-4.1-0.9-5.7,0l-13.7,7.9
				c-0.8,0.5-1.2,1.1-1.2,1.7l0,0v21.9v0l0,0l0,0c0,0.6,0.4,1.2,1.2,1.6l13.7,7.9c1.6,0.9,4.1,0.9,5.7,0l13.7-7.9
				c0.8-0.5,1.2-1.1,1.2-1.6l0,0V415z"/>
			<path class="st2" d="M103.2,414.9c0,0.6-0.3,1.3-1.2,1.7l-13.7,7.9c-0.8,0.5-1.8,0.7-2.9,0.7v21.9c1,0,2.1-0.2,2.9-0.7l13.7-7.9
				c0.8-0.5,1.2-1.1,1.2-1.6l0,0L103.2,414.9C103.2,415,103.2,415,103.2,414.9z"/>
			<g class="st1">
				<path class="st2" d="M82.6,424.6l-13.7-7.9c-0.8-0.5-1.2-1-1.2-1.6l0,0l0,0v21.9v0l0,0c0,0.6,0.4,1.2,1.2,1.6l13.7,7.9
					c0.8,0.4,1.8,0.7,2.8,0.7v-21.9C84.4,425.3,83.4,425,82.6,424.6z"/>
			</g>
			<g>
				<path class="st3" d="M85.5,448c-1.2,0-2.4-0.3-3.3-0.8l-13.7-7.9c-1-0.6-1.6-1.4-1.6-2.4V415c0-0.9,0.6-1.8,1.6-2.4l13.7-7.9
					c1.8-1.1,4.7-1.1,6.5,0l13.7,7.9c1,0.6,1.6,1.5,1.6,2.4V437c0,0.9-0.6,1.8-1.6,2.4l-13.7,7.9C87.8,447.8,86.6,448,85.5,448z
					 M85.4,405.6c-0.9,0-1.8,0.2-2.4,0.6l-13.7,7.9c-0.5,0.3-0.8,0.6-0.8,0.9v21.9c0,0.3,0.3,0.6,0.8,0.9l13.7,7.9
					c1.3,0.8,3.5,0.8,4.8,0l13.7-7.9c0.5-0.3,0.8-0.6,0.8-0.9V415c0-0.3-0.3-0.6-0.8-0.9l-13.7-7.9
					C87.2,405.8,86.3,405.6,85.4,405.6z"/>
			</g>
		</g>
		<g>
			<path class="st10" d="M127.3,413.6L127.3,413.6c0-0.6-0.4-1.2-1.2-1.6l-13.7-7.9c-1.6-0.9-4.1-0.9-5.7,0L93.1,412
				c-0.8,0.5-1.2,1.1-1.2,1.7l0,0v37.3c0,0,0,0,0,0v0l0,0c0,0.6,0.4,1.2,1.2,1.6l13.7,7.9c1.6,0.9,4.1,0.9,5.7,0l13.7-7.9
				c0.8-0.5,1.2-1.1,1.2-1.6h0V413.6z"/>
			<path class="st4" d="M127.3,413.5c0,0.6-0.3,1.3-1.2,1.7l-13.7,7.9c-0.8,0.5-1.8,0.7-2.9,0.7v37.3c1,0,2.1-0.2,2.9-0.7l13.7-7.9
				c0.8-0.5,1.2-1.1,1.2-1.6h0L127.3,413.5C127.3,413.6,127.3,413.6,127.3,413.5z"/>
			<path class="st3" d="M106.8,423.2l-13.7-7.9c-0.8-0.5-1.2-1-1.2-1.6l0,0l0,0v37.3c0,0,0,0,0,0v0c0,0.6,0.4,1.2,1.2,1.6l13.7,7.9
				c0.8,0.5,1.8,0.7,2.8,0.7v-37.3C108.6,423.9,107.6,423.6,106.8,423.2z"/>
			<g>
				<path class="st3" d="M109.6,462c-1.2,0-2.4-0.3-3.3-0.8l-13.7-7.9c-1-0.6-1.6-1.4-1.6-2.4v-37.3c0-0.9,0.6-1.8,1.6-2.4l13.7-7.9
					c1.8-1.1,4.7-1.1,6.5,0l13.7,7.9c1,0.6,1.6,1.5,1.6,2.4v37.3c0,0,0,0.1,0,0.1c0,0.9-0.6,1.7-1.6,2.3l-13.7,7.9
					C112,461.7,110.8,462,109.6,462z M109.6,404.2c-0.9,0-1.8,0.2-2.4,0.6l-13.7,7.9c-0.5,0.3-0.8,0.6-0.8,0.9v37.3
					c0,0.3,0.3,0.6,0.8,0.9l13.7,7.9c1.3,0.8,3.5,0.8,4.8,0l13.7-7.9c0.5-0.3,0.8-0.6,0.8-0.9c0,0,0-0.1,0-0.1v-37.2
					c0-0.3-0.3-0.6-0.8-0.9l-13.7-7.9C111.4,404.4,110.5,404.2,109.6,404.2z"/>
			</g>
		</g>
		<g>
			<path class="st0" d="M151.5,447.3L151.5,447.3c0-0.6-0.4-1.2-1.2-1.6l-13.7-7.9c-1.6-0.9-4.1-0.9-5.7,0l-13.7,7.9
				c-0.8,0.5-1.2,1.1-1.2,1.7h0v17.5c0,0,0,0,0,0v0l0,0c0,0.6,0.4,1.2,1.2,1.6l13.7,7.9c1.6,0.9,4.1,0.9,5.7,0l13.7-7.9
				c0.8-0.5,1.2-1.1,1.2-1.6l0,0V447.3z"/>
			<path class="st2" d="M151.5,447.2c0,0.6-0.3,1.3-1.2,1.7l-13.7,7.9c-0.8,0.5-1.8,0.7-2.9,0.7v17.5c1,0,2.1-0.2,2.9-0.7l13.7-7.9
				c0.8-0.5,1.2-1.1,1.2-1.6l0,0L151.5,447.2C151.5,447.3,151.5,447.2,151.5,447.2z"/>
			<g class="st1">
				<path class="st2" d="M130.9,456.9l-13.7-7.9c-0.8-0.5-1.2-1-1.2-1.6l0,0h0v17.5c0,0,0,0,0,0v0c0,0.6,0.4,1.2,1.2,1.6l13.7,7.9
					c0.8,0.5,1.8,0.7,2.8,0.7v-17.5C132.7,457.5,131.7,457.3,130.9,456.9z"/>
			</g>
			<g>
				<path class="st3" d="M133.8,475.9c-1.2,0-2.4-0.3-3.3-0.8l-13.7-7.9c-1-0.6-1.6-1.4-1.6-2.4v-17.5c0,0,0-0.1,0-0.1
					c0-0.9,0.6-1.7,1.6-2.3l13.7-7.9c1.8-1.1,4.7-1.1,6.5,0l13.7,7.9c1,0.6,1.6,1.4,1.6,2.4v17.5c0,0.9-0.6,1.8-1.6,2.4l-13.7,7.9
					C136.1,475.7,135,475.9,133.8,475.9z M116.9,447.4v17.5c0,0.3,0.3,0.6,0.8,0.9l13.7,7.9c1.3,0.8,3.5,0.8,4.8,0l13.7-7.9
					c0.5-0.3,0.8-0.6,0.8-0.9v-17.5c0-0.3-0.3-0.6-0.8-0.9l-13.7-7.9c-1.3-0.8-3.5-0.8-4.8,0l-13.7,7.9
					C117.2,446.7,116.9,447,116.9,447.4C116.9,447.3,116.9,447.4,116.9,447.4z"/>
			</g>
		</g>
	</g>
	<g>
		<g>
			<path class="st0" d="M68.3,153.2c0,2.8,2,6.2,4.4,7.6l50.2,29c2.4,1.4,4.4,0.3,4.4-2.5l0-82.5c0-2.8-2-6.2-4.4-7.6l-50.2-29
				c-2.4-1.4-4.4-0.3-4.4,2.5V153.2z"/>
			<g>
				<path class="st3" d="M124.9,191.3c-0.8,0-1.6-0.2-2.4-0.7l-50.2-29c-2.7-1.6-4.8-5.2-4.8-8.3V70.7c0-1.7,0.6-2.9,1.7-3.6
					c1.1-0.6,2.5-0.5,4,0.3l50.2,29c2.7,1.6,4.8,5.2,4.8,8.3l0,82.5c0,1.7-0.6,2.9-1.7,3.6C126,191.1,125.4,191.3,124.9,191.3z
					 M70.7,68.4c-0.3,0-0.5,0.1-0.7,0.2c-0.5,0.3-0.9,1.1-0.9,2.1v82.5c0,2.5,1.8,5.6,4,6.9l50.2,29c0.9,0.5,1.7,0.6,2.3,0.3
					c0.5-0.3,0.9-1.1,0.9-2.1l0-82.5c0-2.5-1.8-5.6-4-6.9l-50.2-29C71.7,68.6,71.2,68.4,70.7,68.4z"/>
			</g>
		</g>
		<g>
			<path class="st4" d="M118.7,166.6c0,0.7-0.5,1-1,0.6l-39.8-23c-0.6-0.3-1.1-1.1-1.1-1.8l0,0c0-0.7,0.5-0.9,1.1-0.6l39.8,23
				C118.3,165.1,118.7,165.9,118.7,166.6L118.7,166.6z M111.4,172.1c0,0.7-0.5,0.9-1.1,0.6L77.9,154c-0.6-0.3-1.1-1.2-1-1.8l0,0
				c0-0.7,0.5-0.9,1.1-0.6l32.5,18.8C111,170.6,111.4,171.4,111.4,172.1L111.4,172.1z M104.1,163c0-0.7-0.5-1.5-1-1.8l-25.2-14.5
				c-0.6-0.3-1-0.1-1.1,0.6l0,0c0,0.7,0.5,1.5,1.1,1.8l25.2,14.5C103.6,164,104.1,163.7,104.1,163L104.1,163z M118.7,149.6
				c0,0.7-0.5,0.9-1,0.6l-39.8-23c-0.6-0.3-1.1-1.1-1.1-1.8l0,0c0-0.7,0.5-0.9,1.1-0.6l39.8,23C118.3,148.1,118.7,148.9,118.7,149.6
				L118.7,149.6z M111.4,155.1c0,0.7-0.5,0.9-1.1,0.6l-32.5-18.8c-0.6-0.3-1-1.1-1-1.8l0,0c0-0.7,0.5-1,1-0.6l32.5,18.8
				C111,153.6,111.4,154.4,111.4,155.1L111.4,155.1z M104.1,146c0-0.7-0.5-1.5-1-1.8l-25.2-14.5c-0.6-0.3-1.1-0.1-1.1,0.6l0,0
				c0,0.7,0.5,1.5,1.1,1.8l25.2,14.5C103.6,147,104.1,146.7,104.1,146L104.1,146z M97.8,95.6c-7.4-4.3-13.4-0.8-13.4,7.7
				c0,8.5,6,18.9,13.4,23.1c7.4,4.3,13.4,0.8,13.4-7.7L97.8,111V95.6z"/>
		</g>
		<path class="st7" d="M100.7,93.9l0,15.4l13.4,7.7C114.1,108.5,108.1,98.2,100.7,93.9z"/>
	</g>
	<g>
		<polygon class="st11" points="56.8,305.4 41.3,307.8 37.2,316.7 48.5,323.3 64,320.9 68.2,311.9 		"/>
		<polygon class="st0" points="37.2,316.7 37.2,330.1 48.5,336.6 64,334.2 68.2,325.3 68.2,311.9 64,320.9 48.5,323.3 		"/>
		<g class="st1">
			<polygon class="st2" points="64,334.2 64,320.9 48.5,323.3 48.5,336.6 			"/>
		</g>
		<polygon class="st2" points="68.2,325.3 68.2,311.9 64,320.9 64,334.2 		"/>
		<g>
			<path class="st3" d="M48.5,337.5c-0.1,0-0.3,0-0.4-0.1l-11.3-6.6c-0.3-0.2-0.4-0.4-0.4-0.7v-13.3c0-0.3,0.2-0.6,0.4-0.7
				c0.3-0.2,0.6-0.2,0.8,0l11.1,6.4l14.7-2.3l4-8.5c0.2-0.4,0.6-0.6,0.9-0.5c0.4,0.1,0.7,0.4,0.7,0.8l0,13.3c0,0.1,0,0.2-0.1,0.4
				l-4.1,8.9c-0.1,0.3-0.4,0.4-0.6,0.5l-15.5,2.4C48.6,337.5,48.6,337.5,48.5,337.5z M38,329.6l10.7,6.2l14.8-2.3l3.9-8.4l0-9.3
				l-2.5,5.5c-0.1,0.3-0.4,0.4-0.6,0.5l-15.5,2.4c-0.2,0-0.4,0-0.6-0.1L38,318.2V329.6z"/>
		</g>
		<polygon class="st11" points="56.8,305.4 41.3,307.8 37.2,316.7 48.5,323.3 64,320.9 68.2,311.9 		"/>
		<polygon class="st4" points="37.2,223.9 37.2,316.7 48.5,323.3 64,320.9 68.2,311.9 68.2,219.1 64,228.1 48.5,230.5 		"/>
		<polygon class="st7" points="64,228.1 64,320.9 48.5,323.3 48.5,230.5 		"/>
		<polygon class="st5" points="68.2,219.1 68.2,311.9 64,320.9 64,228.1 		"/>
		<g>
			<path class="st3" d="M48.5,324.1c-0.1,0-0.3,0-0.4-0.1l-11.3-6.6c-0.3-0.2-0.4-0.4-0.4-0.7l0-92.8c0-0.3,0.2-0.6,0.4-0.7
				c0.3-0.2,0.6-0.2,0.8,0l11.1,6.4l14.7-2.3l3.9-8.5c0.2-0.4,0.6-0.6,0.9-0.5c0.4,0.1,0.7,0.4,0.7,0.8l0,92.8c0,0.1,0,0.2-0.1,0.4
				l-4.1,8.9c-0.1,0.3-0.4,0.4-0.6,0.5l-15.5,2.4C48.6,324.1,48.6,324.1,48.5,324.1z M38,316.2l10.7,6.2l14.7-2.3l3.9-8.4l0-88.8
				l-2.5,5.5c-0.1,0.3-0.4,0.4-0.6,0.5l-15.5,2.4c-0.2,0-0.4,0-0.6-0.1L38,225.4L38,316.2z"/>
		</g>
		<polygon class="st11" points="54,196.9 49.1,197.6 47.8,200.5 51.4,202.5 56.3,201.8 57.6,199 		"/>
		<polygon class="st0" points="47.8,200.5 37.2,223.9 48.5,230.5 64,228.1 68.2,219.1 57.6,199 56.3,201.8 51.4,202.5 		"/>
		<g class="st1">
			<polygon class="st2" points="56.3,201.8 64,228.1 48.5,230.5 51.4,202.5 			"/>
		</g>
		<polygon class="st2" points="57.6,199 68.2,219.1 64,228.1 56.3,201.8 		"/>
		<g>
			<path class="st3" d="M48.5,231.3c-0.1,0-0.3,0-0.4-0.1l-11.3-6.5c-0.4-0.2-0.5-0.7-0.3-1.1L47,200.1c0.1-0.2,0.3-0.4,0.5-0.5
				c0.2-0.1,0.5,0,0.7,0.1l3.3,1.9l4.1-0.6l1.1-2.4c0.1-0.3,0.4-0.5,0.7-0.5c0.3,0,0.6,0.2,0.8,0.5l10.6,20.2c0.1,0.2,0.1,0.5,0,0.7
				l-4.1,8.9c-0.1,0.3-0.4,0.4-0.6,0.5l-15.5,2.4C48.6,231.3,48.6,231.3,48.5,231.3z M38.3,223.6l10.4,6l14.7-2.3l3.8-8.2l-9.6-18.3
				l-0.6,1.3c-0.1,0.3-0.4,0.4-0.6,0.5l-4.9,0.8c-0.2,0-0.4,0-0.6-0.1l-2.8-1.6L38.3,223.6z"/>
		</g>
		<polygon class="st6" points="51.1,190 51.5,189.1 53.1,188.8 54.3,189.5 57.6,199 56.3,201.8 51.4,202.5 47.8,200.5 		"/>
		<polygon class="st7" points="53.9,190.4 52.2,190.7 51.4,202.5 56.3,201.8 		"/>
		<polygon class="st12" points="54.3,189.5 53.9,190.4 56.3,201.8 57.6,199 		"/>
		<g>
			<path class="st3" d="M51.4,203.4c-0.1,0-0.3,0-0.4-0.1l-3.6-2.1c-0.3-0.2-0.5-0.6-0.4-1l3.2-10.5c0,0,0-0.1,0-0.1l0.4-0.9
				c0.1-0.3,0.4-0.4,0.6-0.5L53,188c0.2,0,0.4,0,0.6,0.1l1.2,0.7c0.2,0.1,0.3,0.3,0.4,0.5l3.2,9.4c0.1,0.2,0.1,0.4,0,0.6l-1.3,2.8
				c-0.1,0.3-0.4,0.4-0.6,0.5l-4.9,0.8C51.5,203.4,51.4,203.4,51.4,203.4z M48.8,200.1l2.7,1.6l4.1-0.6l1-2.1l-3-8.8l-0.7-0.4
				l-0.9,0.1l-0.2,0.5L48.8,200.1z"/>
		</g>
	</g>
	<g>
		<path class="st0" d="M375,254.6l0-36.7c-8.8-5.1-16.7-5.6-22.5-2.3l-7.3,4.2c-5.8,3.3-9.3,10.4-9.3,20.6
			c0,20.3,14.2,44.9,31.8,55.1c8.8,5.1,16.7,5.6,22.5,2.3l0,0l0,0c0,0,0,0,0,0l7.3-4.2c5.8-3.3,9.3-10.4,9.3-20.6L375,254.6z"/>
		<path class="st2" d="M375,254.6l0-36.7c-8.8-5.1-16.7-5.6-22.5-2.3l0,0l-7.3,4.2c5.8-3.3,13.7-2.8,22.5,2.2v36.7l31.8,18.4
			c0,10.1-3.6,17.3-9.3,20.6v0l7.3-4.2c5.8-3.3,9.3-10.4,9.3-20.6L375,254.6z"/>
		<g>
			<path class="st3" d="M381.9,300.8c-4.5,0-9.5-1.5-14.7-4.5C349.5,286,335,261,335,240.5c0-10.1,3.5-17.7,9.7-21.3l7.3-4.2
				c6.3-3.6,14.6-2.8,23.3,2.3c0.3,0.2,0.4,0.4,0.4,0.7l0,36.2l31.4,18.1c0.3,0.2,0.4,0.4,0.4,0.7c0,10.1-3.5,17.7-9.7,21.3
				l-7.3,4.2c0,0-0.1,0-0.1,0.1l0,0C388,300,385.1,300.8,381.9,300.8z M360.8,214.4c-2.9,0-5.5,0.7-7.8,2l-7.3,4.2
				c-5.7,3.3-8.9,10.3-8.9,19.8c0,20,14.1,44.3,31.4,54.3c8.2,4.7,15.9,5.5,21.6,2.3c0,0,0,0,0,0c0,0,0,0,0,0l7.3-4.2
				c5.6-3.3,8.8-10.1,8.9-19.3l-31.4-18.1c-0.3-0.2-0.4-0.4-0.4-0.7l0-36.2C369.4,215.8,364.9,214.4,360.8,214.4z"/>
		</g>
		<polygon class="st13" points="367.7,222.2 375,217.9 375,254.6 367.7,258.9 		"/>
		<polygon class="st14" points="406.8,273 399.5,277.2 367.7,258.9 375,254.6 		"/>
		<path class="st4" d="M380.9,214.6l-7.3,4.2v36.7l31.8,18.4l7.3-4.2C412.7,249.4,398.4,224.7,380.9,214.6z"/>
		<path class="st5" d="M380.9,214.6l-7.3,4.2c17.6,10.1,31.8,34.8,31.8,55.1l7.3-4.2C412.7,249.4,398.4,224.7,380.9,214.6z"/>
		<g>
			<path class="st3" d="M405.4,274.7c-0.1,0-0.3,0-0.4-0.1l-31.8-18.4c-0.3-0.2-0.4-0.4-0.4-0.7v-36.7c0-0.3,0.2-0.6,0.4-0.7
				l7.3-4.2c0.3-0.2,0.6-0.2,0.8,0c17.8,10.3,32.2,35.3,32.2,55.8c0,0.3-0.2,0.6-0.4,0.7l-7.3,4.2
				C405.7,274.7,405.5,274.7,405.4,274.7z M374.4,255l31,17.9l6.5-3.7c-0.2-19.7-14-43.5-31-53.6l-6.5,3.7V255z"/>
		</g>
	</g>
	<g>
		<path class="st2" d="M326.2,452.7l74.8-43.9c13.2-7.6,34.6-7.6,47.8,0c13.2,7.6,13.2,20,0,27.6c0,0,0,0,0,0l0,0L374,480.3
			c-13.2,7.6-34.6,7.6-47.7,0C313.1,472.6,313,460.3,326.2,452.7z"/>
		<path class="st4" d="M316.4,455.8L316.4,455.8c0-5,3.3-9.9,9.8-13.7c13.1-7.5,34.3-7.5,47.4,0c6.5,3.8,9.8,8.7,9.8,13.7l0,0v10.8
			l0,0c0,5-3.3,9.9-9.8,13.7c-13.1,7.6-34.3,7.6-47.4,0c-6.6-3.8-9.8-8.7-9.8-13.7V455.8z"/>
		<path class="st10" d="M326.2,469.5c13.1,7.6,34.4,7.6,47.4,0c6.6-3.8,9.8-8.7,9.8-13.7l0,0v10.8l0,0c0,5-3.3,9.9-9.8,13.7
			c-13.1,7.6-34.3,7.6-47.4,0c-6.6-3.8-9.8-8.7-9.8-13.7v-10.8v0C316.4,460.7,319.6,465.7,326.2,469.5z"/>
		<g>
			<path class="st3" d="M349.9,486.8c-8.8,0-17.5-1.9-24.2-5.8c-6.6-3.8-10.2-8.9-10.2-14.4v-10.8c0-5.5,3.6-10.6,10.2-14.4
				c13.3-7.7,35-7.7,48.3,0c6.6,3.8,10.2,8.9,10.3,14.4v10.8c0,5.5-3.6,10.6-10.2,14.4C367.4,484.9,358.7,486.8,349.9,486.8z
				 M349.8,437.2c-8.4,0-16.8,1.8-23.3,5.5c-6.1,3.5-9.4,8.1-9.4,13c0,0,0,0,0,0v10.8c0,4.9,3.3,9.5,9.4,13
				c12.9,7.4,33.8,7.4,46.6,0c6.1-3.5,9.4-8.1,9.4-13v-10.8c0-4.9-3.4-9.5-9.4-12.9C366.8,439.1,358.3,437.2,349.8,437.2z"/>
		</g>
		<path class="st4" d="M336.2,433.3c4.1-1.6,8.9-2.4,13.7-2.4c4.8,0,9.6,0.8,13.7,2.4c14.1,5.2,22.8,17.9,13,29.5
			c-1.4,1.8-3.4,3.5-6,5c-5.7,3.3-13.2,5-20.8,5c-7.5,0-15-1.6-20.8-5c-2.6-1.5-4.5-3.2-6-5C313.4,451.2,322.1,438.5,336.2,433.3z"
			/>
		<path class="st10" d="M363.6,433.3c14.1,5.2,22.8,17.9,13,29.5c-1.4,1.8-3.4,3.5-6,5c-5.7,3.3-13.2,5-20.8,5c-7.5,0-15-1.6-20.8-5
			c-0.1-0.1-0.2-0.1-0.3-0.2c8.6,5.2,33.1,4.4,22.7-12.4c-4.7-7.6-7.7-16.7-8-23.8c2.1-0.3,4.2-0.5,6.3-0.5
			C354.7,430.9,359.5,431.7,363.6,433.3z"/>
		<g>
			<path class="st3" d="M350,473.6C349.9,473.6,349.9,473.6,350,473.6c-8.1,0-15.6-1.8-21.2-5.1c-2.6-1.5-4.7-3.2-6.2-5.2
				c-3.8-4.5-5.2-9.6-3.9-14.6c1.8-6.8,8.2-12.8,17.2-16.2c4.1-1.6,8.9-2.5,14-2.5c5.1,0,9.9,0.9,14,2.5c9,3.3,15.4,9.4,17.2,16.2
				c1.3,5,0,10.1-3.9,14.6c-1.5,1.9-3.6,3.7-6.2,5.2C365.4,471.8,357.9,473.6,350,473.6z M349.9,471.9
				C349.9,471.9,349.9,471.9,349.9,471.9c7.7,0,14.9-1.7,20.3-4.9c2.4-1.4,4.3-3,5.7-4.8c3.5-4.1,4.7-8.7,3.6-13.1
				c-1.6-6.2-7.8-11.9-16.2-15c-3.9-1.6-8.6-2.4-13.4-2.4c-4.9,0-9.5,0.8-13.4,2.4c0,0,0,0,0,0c-8.4,3.1-14.6,8.9-16.2,15
				c-1.2,4.5,0.1,9,3.5,13.1c1.4,1.8,3.3,3.4,5.7,4.8C335,470.2,342.2,471.9,349.9,471.9C349.9,471.9,349.9,471.9,349.9,471.9z
				 M336.2,433.3L336.2,433.3L336.2,433.3z"/>
		</g>
		<path class="st0" d="M325.5,440.6c0-3.6,2.4-7.2,7.1-10c9.5-5.5,24.9-5.5,34.5,0c4.8,2.7,7.1,6.3,7.1,9.9l0,0v4.3l0,0
			c0,3.6-2.4,7.2-7.1,10c-9.5,5.5-24.9,5.5-34.5,0c-4.8-2.8-7.2-6.4-7.1-10V440.6z"/>
		<path class="st2" d="M332.7,450.5c9.5,5.5,25,5.5,34.5,0c4.8-2.7,7.1-6.3,7.1-9.9v4.3c0,3.6-2.4,7.2-7.1,10
			c-9.5,5.5-24.9,5.5-34.5,0c-4.8-2.8-7.2-6.4-7.1-10v-4.3C325.5,444.2,327.9,447.8,332.7,450.5z"/>
		<g>
			<path class="st3" d="M349.9,426.5c6.2,0,12.5,1.4,17.3,4.1c4.8,2.7,7.1,6.3,7.1,9.9v4.3c0,3.6-2.4,7.2-7.1,10
				c-4.8,2.7-11,4.1-17.2,4.1c-6.2,0-12.5-1.4-17.2-4.1c-4.8-2.8-7.2-6.4-7.1-10v-4.3c0-3.6,2.4-7.2,7.1-10
				C337.4,427.9,343.6,426.5,349.9,426.5L349.9,426.5z M349.9,424.8L349.9,424.8c-6.8,0-13.2,1.5-18,4.3c-5.2,3-8,7-8,11.4v4.3
				c0,4.4,2.8,8.5,8,11.4c4.9,2.8,11.3,4.4,18.1,4.4c6.8,0,13.2-1.5,18.1-4.3c5.2-3,8-7,8-11.4v-4.3c0-4.4-2.8-8.4-8-11.4
				C363.1,426.4,356.7,424.8,349.9,424.8L349.9,424.8z"/>
		</g>
		<path class="st0" d="M338.7,375.9c0-1.7,1.1-3.3,3.3-4.6c4.4-2.5,11.5-2.5,15.9,0c2.2,1.3,3.3,2.9,3.3,4.6l0,0v0l0,0
			c0,64.6,10.6,55.4,10.6,64.7c0,0,0,0,0,0v0l0,0v0l0,0c0,3.2-2.1,6.4-6.4,8.9c-8.5,4.9-22.3,4.9-30.8,0c-4.2-2.5-6.4-5.7-6.4-8.9
			C328.1,431.3,338.7,440.6,338.7,375.9z"/>
		<path class="st2" d="M355.4,440.6L355.4,440.6L355.4,440.6L355.4,440.6C355.4,440.6,355.4,440.6,355.4,440.6
			c0-9.3-2.6-0.1-2.6-64.7v0l0,0c0-0.5,0-3-0.1-6.3c1.9,0.3,3.7,0.8,5.2,1.7c2.2,1.3,3.3,2.9,3.3,4.6l0,0v0
			c0,64.6,10.6,55.4,10.6,64.7c0,0,0,0,0,0v0l0,0v0c0,3.2-2.1,6.4-6.4,8.9c-3.2,1.8-7.1,3-11.3,3.5
			C354.9,449.9,355.4,443.5,355.4,440.6z"/>
		<g>
			<path class="st3" d="M349.9,454c-5.7,0-11.5-1.3-15.9-3.8c-4.4-2.5-6.8-5.9-6.8-9.6c0-2.8,0.9-4.2,2.1-5.9
				c3-4.3,8.5-12.2,8.5-58.8c0-2,1.3-3.9,3.7-5.3c4.6-2.7,12.1-2.7,16.7,0c2.4,1.4,3.7,3.3,3.7,5.3c0,46.6,5.5,54.5,8.5,58.8
				c1.2,1.7,2.1,3,2.1,5.9c0,3.7-2.4,7.1-6.8,9.6C361.4,452.8,355.7,454,349.9,454z M349.9,370.3c-2.7,0-5.4,0.6-7.5,1.8
				c-1.8,1.1-2.9,2.4-2.9,3.9c0,0,0,0,0,0c0,47.1-5.7,55.3-8.8,59.8c-1.1,1.6-1.8,2.6-1.8,4.9c0,3,2.1,5.9,6,8.2
				c8.3,4.8,21.7,4.8,30,0c3.8-2.2,6-5.1,6-8.2c0-2.3-0.7-3.3-1.8-4.9c-3.1-4.4-8.8-12.6-8.8-59.8c0-1.4-1-2.8-2.9-3.9
				C355.3,370.9,352.6,370.3,349.9,370.3z"/>
		</g>
		<path class="st0" d="M337.2,371.6c0-1.9,1.2-3.8,3.7-5.2c4.9-2.9,13-2.9,17.9,0c2.5,1.4,3.7,3.3,3.7,5.2v0v4.3l0,0v0l0,0
			c0,1.9-1.2,3.7-3.7,5.2c-4.9,2.9-13,2.9-17.9,0c-2.5-1.4-3.7-3.3-3.7-5.2V371.6L337.2,371.6z"/>
		<path class="st2" d="M340.9,376.8c5,2.9,13,2.9,17.9,0c2.5-1.4,3.7-3.3,3.7-5.2v4.3l0,0v0c0,1.9-1.2,3.7-3.7,5.2
			c-4.9,2.9-13,2.9-17.9,0c-2.5-1.4-3.7-3.3-3.7-5.2v-4.3C337.2,373.5,338.5,375.3,340.9,376.8z"/>
		<g>
			<path class="st3" d="M349.9,364.3c3.2,0,6.5,0.7,9,2.1c2.5,1.4,3.7,3.3,3.7,5.2v0v4.3v0c0,1.9-1.2,3.7-3.7,5.2
				c-2.5,1.4-5.7,2.1-9,2.1c-3.2,0-6.5-0.7-9-2.1c-2.5-1.4-3.7-3.3-3.7-5.2v-4.3c0-1.9,1.2-3.8,3.7-5.2
				C343.4,365,346.6,364.3,349.9,364.3L349.9,364.3z M349.9,362.6L349.9,362.6c-3.7,0-7.2,0.8-9.8,2.4c-2.9,1.7-4.6,4.1-4.6,6.7v4.3
				c0,2.6,1.6,4.9,4.6,6.6c2.6,1.5,6.1,2.4,9.8,2.4c3.7,0,7.2-0.8,9.8-2.4c2.9-1.7,4.6-4.1,4.6-6.6v-4.3c0-2.6-1.6-4.9-4.6-6.6
				C357.1,363.4,353.6,362.6,349.9,362.6L349.9,362.6z"/>
		</g>
		<path class="st4" d="M341.4,372.5C341.4,372.5,341.4,372.5,341.4,372.5c-1.4-2-9.1-16-9.1-22.6c0-2.6,1.7-5.2,5.1-7.2
			c6.9-4,18-4,24.9,0c3.4,2,5.1,4.6,5.2,7.2v0c0,0,0,0,0,0l0,0c0,6.6-7.6,20.4-9,22.6c-0.4,0.7-1.1,1.3-2.1,1.8
			c-3.6,2.1-9.4,2.1-13,0C342.5,373.7,341.8,373.1,341.4,372.5C341.4,372.5,341.4,372.5,341.4,372.5L341.4,372.5z"/>
		<path class="st10" d="M362.4,357c-6.9,4-18,4-24.9,0c-3.4-2-5.1-4.6-5.2-7.2c0,6.6,7.7,20.6,9.1,22.6c0,0,0,0,0,0l0,0c0,0,0,0,0,0
			c0.4,0.6,1.1,1.2,2,1.7c3.6,2.1,9.4,2.1,13,0c0.9-0.5,1.6-1.2,2.1-1.8c1.4-2.2,9-16,9-22.6C367.5,352.4,365.8,355,362.4,357z"/>
		<g>
			<path class="st3" d="M349.9,376.6c-2.5,0-5-0.6-6.9-1.7c-0.9-0.5-1.7-1.2-2.2-1.9c0,0,0-0.1-0.1-0.1c0,0,0,0,0,0c0,0,0,0,0-0.1
				c-1.6-2.5-9.2-16.3-9.2-23c0-3,2-5.9,5.6-7.9c7.1-4.1,18.6-4.1,25.8,0c3.6,2.1,5.6,4.9,5.6,7.9c0,6.7-7.6,20.6-9.2,23
				c-0.5,0.8-1.3,1.5-2.3,2.1C354.9,376.1,352.4,376.6,349.9,376.6z M342.1,372C342.1,372,342.1,372,342.1,372
				c0.4,0.6,1,1.1,1.7,1.5c3.4,1.9,8.8,1.9,12.2,0c0.8-0.5,1.4-1,1.8-1.6c1.5-2.3,8.9-15.9,8.9-22.1c0-2.4-1.7-4.7-4.7-6.5
				c-6.6-3.8-17.4-3.8-24.1,0c-3.1,1.8-4.7,4.1-4.7,6.5C333.1,356.2,340.7,370,342.1,372C342.1,372,342.1,372,342.1,372z"/>
		</g>
		<path class="st0" d="M343.3,327.3c3.6-3.6,9.5-3.6,13.2,0c3.6,3.6,3.6,9.5,0,13.2c-3.6,3.6-9.5,3.6-13.2,0
			C339.7,336.8,339.7,330.9,343.3,327.3z"/>
		<path class="st2" d="M353.4,337.4c3.1-3.1,3.5-7.9,1.3-11.5c0.6,0.4,1.2,0.8,1.7,1.3c3.6,3.6,3.6,9.5,0,13.2
			c-3.6,3.6-9.5,3.6-13.2,0c-0.5-0.5-1-1.1-1.3-1.7C345.6,340.9,350.3,340.5,353.4,337.4z"/>
		<g>
			<path class="st3" d="M349.9,344C349.9,344,349.9,344,349.9,344c-2.7,0-5.3-1.1-7.2-3c-1.9-1.9-3-4.5-3-7.2c0-2.7,1.1-5.3,3-7.2
				c1.9-1.9,4.5-3,7.2-3c0,0,0,0,0,0c2.7,0,5.3,1.1,7.2,3c1.9,1.9,3,4.5,3,7.2c0,2.7-1.1,5.3-3,7.2C355.2,343,352.6,344,349.9,344z
				 M349.9,325.4c-2.3,0-4.4,0.9-6,2.5c0,0,0,0,0,0c-1.6,1.6-2.5,3.7-2.5,6c0,2.3,0.9,4.4,2.5,6c1.6,1.6,3.7,2.5,6,2.5c0,0,0,0,0,0
				c2.3,0,4.4-0.9,6-2.5c1.6-1.6,2.5-3.7,2.5-6c0-2.3-0.9-4.4-2.5-6C354.3,326.3,352.2,325.4,349.9,325.4
				C349.9,325.4,349.9,325.4,349.9,325.4z M343.3,327.3L343.3,327.3L343.3,327.3z"/>
		</g>
	</g>
</g>
</svg>
