<?xml version="1.0" encoding="UTF-8"?>
<svg xmlns="http://www.w3.org/2000/svg" viewBox="0 0 482.1 401.32">
  <defs>
    <style>
      .cls-1, .cls-2, .cls-3, .cls-4 {
        mix-blend-mode: overlay;
      }

      .cls-1, .cls-5 {
        opacity: .5;
      }

      .cls-2 {
        opacity: .3;
      }

      .cls-3 {
        opacity: .2;
      }

      .cls-6 {
        fill: #005b88;
      }

      .cls-7 {
        fill: #005bea;
      }

      .cls-8, .cls-9 {
        fill: #0094a4;
      }

      .cls-10 {
        fill: #fff;
      }

      .cls-11 {
        fill: #80b6f1;
      }

      .cls-12 {
        fill: #b7dafe;
      }

      .cls-13 {
        fill: #cee7fd;
      }

      .cls-14 {
        fill: #7185a3;
      }

      .cls-15 {
        fill: #5091dd;
      }

      .cls-9, .cls-16, .cls-17 {
        isolation: isolate;
      }

      .cls-9, .cls-17 {
        opacity: .43;
      }

      .cls-4 {
        opacity: .1;
      }
    </style>
  </defs>
  <g class="cls-16">
    <g id="Layer_2" data-name="Layer 2">
      <g id="Layer_1-2" data-name="Layer 1">
        <g>
          <g>
            <path class="cls-13" d="m479.8,203.58l-184.07-106.28c-3.07-1.77-8.04-1.77-11.1,0l-37.3,21.56-6.46-3.73c-3.31-1.91-8.67-1.91-11.97,0l-119.42,68.95c-3.3,1.91-3.3,5.01,0,6.92l14.04,8.11,5.02-2.9c1.32-.76,3.47-.76,4.79,0l2.2,1.27c1.32.76,1.32,2,0,2.76l-5.02,2.9,156.58,90.41,5.02-2.9c1.32-.77,3.47-.76,4.79,0l2.2,1.27c1.32.77,1.33,2,0,2.77l-5.02,2.9,14.04,8.11c3.31,1.91,8.67,1.91,11.98,0l119.42-68.95c2.22-1.28,2.94-3.09,2.18-4.72l38.1-22.03c3.06-1.77,3.06-4.64,0-6.41Z"/>
            <path class="cls-11" d="m351.71,210.29h-.02c-.02-.8-.55-1.6-1.59-2.21l-46.68-26.95c-1.87-1.08-4.8-1.24-6.98-.38l-48.84,19.22c-1.35.53-2.22,1.38-2.37,2.32-.02.1,0,.19,0,.28h-.03s0,5.07,0,5.07h.03c-.03.86.52,1.7,1.58,2.32l62.24,35.93c1.16.67,2.77,1.01,4.4.92,1.63-.09,3.11-.59,4.03-1.37l33.28-28.2c.66-.56.95-1.2.93-1.83h.02s0-5.13,0-5.13Z"/>
            <path class="cls-2" d="m350.1,208.08l-46.68-26.95c-1.87-1.08-4.8-1.24-6.98-.38l-30.18,11.87,63.93,36.92,20.57-17.43c1.49-1.26,1.21-2.96-.66-4.03Z"/>
            <path class="cls-2" d="m351.69,210.28c.02.63-.28,1.28-.93,1.83l-33.28,28.2c-.92.78-2.4,1.28-4.03,1.37-1.63.09-3.24-.25-4.4-.92l-62.23-35.93c-1.04-.6-1.59-1.42-1.58-2.26h-.03s0,5.07,0,5.07h.03c-.03.86.52,1.7,1.58,2.32l62.24,35.93c1.16.67,2.77,1.01,4.4.92,1.63-.09,3.11-.59,4.03-1.37l33.28-28.2c.66-.56.95-1.2.93-1.83h.02s0-5.13,0-5.13h-.02Z"/>
            <path class="cls-4" d="m351.69,210.28c.02.63-.28,1.28-.93,1.83l-20.57,17.43v5.13l20.57-17.43c.66-.56.95-1.2.93-1.83h.02s0-5.13,0-5.13h-.02Z"/>
            <path class="cls-15" d="m312.93,247.47c-1.56,0-3.06-.36-4.2-1.02l-62.24-35.93c-1.17-.68-1.86-1.65-1.9-2.69-.02-.06-.03-.12-.03-.18v-5.08s0-.1.02-.15c0-.07,0-.15.01-.23.19-1.17,1.2-2.2,2.77-2.82l48.84-19.22c2.35-.92,5.52-.75,7.54.42l46.68,26.95c1.14.66,1.81,1.57,1.9,2.58.02.06.03.12.03.19v5.13c0,.06,0,.11-.02.17-.03.59-.27,1.4-1.16,2.15l-33.28,28.2c-1.02.87-2.63,1.43-4.41,1.52-.18.01-.37.02-.55.02Zm-67.08-39.99c.02.06.03.13.03.19-.02.63.42,1.25,1.26,1.74l62.24,35.93c1.05.6,2.57.91,4.04.83,1.48-.08,2.84-.54,3.65-1.22l33.29-28.2c.47-.4.72-.86.7-1.32,0-.06,0-.12.02-.18v-4.81s-.02-.1-.02-.15c-.01-.61-.46-1.2-1.27-1.66l-46.68-26.95c-1.71-.99-4.41-1.13-6.43-.34l-48.84,19.22c-1.12.44-1.86,1.12-1.98,1.83.01.07.02.11.02.16,0,.07,0,.14-.03.21v4.71Z"/>
            <path class="cls-8" d="m211.75,1.01l-5.53,3.2s-.01.01-.02.01h0c-1,.59-1.61,1.82-1.62,3.58v131.62c0,3.54,2.49,7.84,5.55,9.61l184.08,106.27c1.52.88,2.89.96,3.89.41h0s.03-.01.03-.01h0s5.53-3.2,5.53-3.2h0c1.01-.58,1.64-1.82,1.64-3.6V117.28c0-3.53-2.48-7.84-5.55-9.61L215.68,1.4c-1.51-.87-2.86-.96-3.86-.42h0s-.05.02-.05.02c0,0-.01,0-.02,0Z"/>
            <path class="cls-2" d="m379.88,134.68L204.58,33.47v105.95c0,3.54,2.49,7.84,5.55,9.61l175.74,101.46v-105.44c0-3.81-2.68-8.46-5.99-10.37Z"/>
            <path class="cls-2" d="m398.93,107.86L214.86,1.59c-1.51-.87-2.86-.96-3.86-.42h0s-.05.02-.05.02c0,0-.01,0-.02,0l-5.52,3.19c1-.57,2.38-.48,3.9.4l184.08,106.27c3.07,1.77,5.55,6.08,5.55,9.61v131.62c0,1.76-.61,2.99-1.61,3.58l5.52-3.19h0c1.01-.58,1.64-1.82,1.64-3.6V117.46c0-3.53-2.48-7.84-5.55-9.61Z"/>
            <path class="cls-6" d="m396.68,256.7c-.87,0-1.83-.28-2.8-.85l-184.08-106.27c-3.24-1.87-5.87-6.43-5.87-10.16V7.8c0-1.93.68-3.4,1.92-4.13.02,0,.03-.02.05-.03,0,0,0,0,.01,0l5.51-3.18s.05-.03.08-.04c0,0,0,0,0,0,.01,0,.02-.01.03-.01,1.24-.66,2.83-.5,4.46.44l184.07,106.27c3.24,1.87,5.87,6.42,5.88,10.16v131.63c0,1.95-.7,3.43-1.96,4.15l-5.53,3.2s-.04.02-.06.03c-.52.28-1.1.43-1.71.43ZM206.45,4.81c-.79.51-1.23,1.56-1.23,2.99v131.62c0,3.33,2.35,7.39,5.23,9.05l184.08,106.27c1.26.73,2.42.87,3.26.4.02,0,.03-.02.05-.02l5.51-3.18c.86-.49,1.32-1.57,1.32-3.04V117.28c0-3.33-2.35-7.39-5.23-9.05L215.36,1.95c-1.25-.72-2.4-.87-3.24-.41-.03.02-.06.03-.09.04l-5.5,3.18s-.06.04-.09.05Zm5.48-3.19s-.07.02-.1.02c.04,0,.07-.01.1-.02h0Zm.11-.04h0s0,0,0,0c0,0,0,0,0,0Z"/>
            <path class="cls-10" d="m394.2,242.5l-184.08-106.28c-1.22-.71-2.22-2.43-2.22-3.85V9.72c0-1.41,1-1.98,2.22-1.28l184.08,106.27c1.23.71,2.22,2.43,2.22,3.84v122.66c0,1.41-1,1.99-2.22,1.28Z"/>
            <path class="cls-9" d="m379.88,134.68L207.91,35.39v96.98c0,1.42,1,3.14,2.22,3.85l175.74,101.46v-92.64c0-3.81-2.68-8.46-5.99-10.37Z"/>
            <path class="cls-6" d="m395.2,243.44c-.42,0-.87-.13-1.31-.39h0l-184.08-106.28c-1.42-.82-2.54-2.76-2.54-4.4V9.72c0-.91.35-1.63.97-1.99.62-.36,1.42-.3,2.21.15l184.08,106.27c1.42.82,2.54,2.75,2.54,4.39v122.66c0,.91-.35,1.63-.97,1.99-.27.16-.58.23-.9.23Zm-.67-1.5c.38.22.72.27.93.15.21-.12.33-.44.33-.88v-122.66c0-1.19-.88-2.69-1.9-3.29L209.81,9c-.38-.22-.72-.27-.93-.15-.21.12-.33.44-.33.88v122.66c0,1.19.87,2.7,1.9,3.29l184.07,106.28h0Z"/>
          </g>
          <g>
            <path class="cls-8" d="m134.5,18.59l-2.37,1.37s-.01.01-.02.01h0c-1.08.63-1.74,1.97-1.74,3.87v142.05c0,3.81,2.68,8.46,5.99,10.37l198.65,114.69c1.64.94,3.12,1.04,4.2.44h0s.03-.01.03-.01c0,0,0,0,0,0l2.38-1.37h0c1.09-.62,1.77-1.96,1.77-3.88v-142.05c0-3.81-2.68-8.46-5.99-10.37L138.75,19.01c-1.63-.94-3.09-1.04-4.17-.45h0s-.05.02-.05.02c0,0-.02,0-.02.01Z"/>
            <path class="cls-2" d="m241.77,98.66l-57.83-33.39c-5.51-3.18-9.99-.6-9.99,5.76v126.84s77.82,44.93,77.82,44.93v-126.84c0-6.36-4.48-14.11-9.99-17.29Z"/>
            <path class="cls-2" d="m337.4,133.7L138.75,19.01c-1.63-.94-3.09-1.04-4.17-.45h0s-.05.02-.05.02c0,0-.02,0-.02.01l-2.36,1.36c1.08-.61,2.57-.52,4.21.43l198.65,114.69c3.31,1.91,5.99,6.56,5.99,10.37v142.05c0,1.9-.67,3.24-1.75,3.87l2.37-1.37h0c1.09-.62,1.77-1.96,1.77-3.88v-142.05c0-3.81-2.68-8.46-5.99-10.37Z"/>
            <path class="cls-2" d="m292.35,131.72l48.64,28.08v29.46l-36.14-20.86c-5.13-2.96-7.62-2.4-9.85-1.93l-2.46.64c-.39.1-.84,0-1.3-.27-.35-.2-.69-.49-1.01-.86-.74-.87-1.21-2.02-1.21-2.98v-29.36c0-2.12,1.49-2.98,3.33-1.92Zm13.99,43.85c-1.84-1.06-3.33-.2-3.33,1.92v21.77c0,2.12,1.49,4.71,3.33,5.77l34.65,20.01v-29.45l-34.65-20.01Z"/>
            <path class="cls-3" d="m335,285.68l-198.65-114.69c-1.9-1.1-3.59-1.05-4.69-.09,1.1,2.24,2.78,4.26,4.69,5.36l198.65,114.69c1.9,1.1,3.6,1.05,4.69.09-1.1-2.24-2.78-4.26-4.69-5.36Z"/>
            <path class="cls-6" d="m337.67,292.4c-.93,0-1.95-.3-2.99-.9l-198.65-114.69c-3.48-2.01-6.31-6.91-6.31-10.93V23.84c0-2.07.72-3.63,2.05-4.41.02-.01.04-.02.06-.03l2.35-1.36s.01,0,.02-.01c.03-.02.07-.03.1-.05,1.33-.7,3.02-.53,4.77.48l198.65,114.69c3.48,2.01,6.31,6.91,6.32,10.92v142.05c0,2.08-.74,3.65-2.07,4.42,0,0-.02.01-.02.01l-2.33,1.35s-.04.03-.07.04h0s-.05.02-.07.03c-.54.29-1.15.43-1.79.43ZM132.42,20.53s0,0,0,0c-.92.54-1.42,1.71-1.42,3.31v142.05c0,3.61,2.54,8.01,5.67,9.82l198.65,114.69c1.38.79,2.64.95,3.57.43.02-.01.04-.02.06-.03l2.32-1.34s.02-.01.03-.02c.93-.53,1.44-1.71,1.44-3.32v-142.05c0-3.6-2.55-8.01-5.67-9.81L138.43,19.56c-1.36-.79-2.62-.95-3.55-.44-.03.01-.05.03-.08.04l-2.36,1.36s-.01,0-.02.01Zm2.33-1.36s-.07.03-.09.03c.04,0,.08-.02.12-.04,0,0-.02,0-.03,0Zm.2-.13s0,0,0,0c0,0,0,0,0,0Zm-.45-.45h0,0Z"/>
            <path class="cls-10" d="m335,277.13l-198.65-114.7c-1.32-.76-2.4-2.62-2.4-4.15V25.92c0-1.52,1.08-2.14,2.4-1.38l198.65,114.69c1.32.77,2.39,2.63,2.39,4.15v132.37c0,1.52-1.07,2.14-2.4,1.38Z"/>
            <g class="cls-17">
              <path class="cls-8" d="m337.4,193.49v29.45l-31.06-17.93c-1.84-1.06-3.33-3.64-3.33-5.77v-21.77c0-2.12,1.49-2.99,3.33-1.92l31.05,17.93Zm-48.37-59.86v29.36c0,.96.47,2.12,1.21,2.98.32.37.66.66,1.01.86.46.27.91.37,1.3.27l2.46-.64c2.23-.48,4.72-1.03,9.85,1.93l32.54,18.78v-29.46l-45.04-26c-1.84-1.06-3.33-.2-3.33,1.92Z"/>
            </g>
            <path class="cls-9" d="m268.23,199.04c0,2.12-1.49,2.98-3.33,1.92l-52.13-30.1c-1.84-1.06-3.33-3.64-3.33-5.76v-49.06c0-2.12,1.49-2.98,3.33-1.92l52.13,30.09c1.84,1.06,3.33,3.64,3.33,5.76v49.06Z"/>
            <path class="cls-9" d="m241.77,98.66l-57.83-33.39c-5.51-3.18-9.99-.6-9.99,5.76v113.02l77.82,44.93v-113.02c0-6.36-4.48-14.11-9.99-17.29Z"/>
            <path class="cls-11" d="m143.54,186.16l1.2.69,3.82-2.21v-4.15l-5.02,2.9c-1.32.76-1.32,2,0,2.77Z"/>
            <path class="cls-3" d="m143.54,186.16l1.2.69,3.82-2.21v-4.15l-5.02,2.9c-1.32.76-1.32,2,0,2.77Z"/>
            <g>
              <path class="cls-14" d="m147.25,191.09h0c.42.23.99.2,1.62-.17l8.98-5.19v-5.31l-3.22-1.86-8.99,5.19c-1.27.73-2.3,2.51-2.3,3.98,0,.7.24,1.19.62,1.44h0s3.3,1.91,3.3,1.91Z"/>
              <path class="cls-12" d="m147.25,191.09h0c.42.23.99.2,1.62-.17l8.98-5.19v-5.31l-3.22-1.86-8.99,5.19c-1.27.73-2.3,2.51-2.3,3.98,0,.7.24,1.19.62,1.44h0s3.3,1.91,3.3,1.91Z"/>
              <path class="cls-1" d="m157.84,180.43l-8.99,5.19c-1.27.74-2.3,2.51-2.3,3.98,0,1.46,1.03,2.06,2.3,1.33l8.98-5.19v-5.31Z"/>
            </g>
            <path class="cls-11" d="m307.12,280.59l1.19.69,3.82-2.21v-4.15l-5.03,2.9c-1.32.76-1.31,2,.01,2.76Z"/>
            <path class="cls-3" d="m307.12,280.59l1.19.69,3.82-2.21v-4.15l-5.03,2.9c-1.32.76-1.31,2,.01,2.76Z"/>
            <g>
              <path class="cls-14" d="m310.82,285.51h0c.41.23.98.2,1.62-.16l8.98-5.19v-5.3s-3.22-1.87-3.22-1.87l-8.99,5.19c-1.26.73-2.29,2.51-2.3,3.98,0,.7.24,1.19.62,1.44h0s3.3,1.91,3.3,1.91Z"/>
              <path class="cls-10" d="m310.82,285.51h0c.41.23.98.2,1.62-.16l8.98-5.19v-5.3s-3.22-1.87-3.22-1.87l-8.99,5.19c-1.26.73-2.29,2.51-2.3,3.98,0,.7.24,1.19.62,1.44h0s3.3,1.91,3.3,1.91Z"/>
              <path class="cls-13" d="m321.42,274.85l-8.99,5.19c-1.26.73-2.29,2.51-2.29,3.98s1.03,2.06,2.3,1.33l8.98-5.19v-5.3Z"/>
            </g>
            <path class="cls-8" d="m335.61,290.12s0-.04,0-.06c-.02-.14-.06-.28-.11-.42,0-.02,0-.03-.01-.05-.05-.14-.11-.28-.18-.41,0-.01-.01-.03-.02-.04-.07-.13-.14-.25-.23-.37-.02-.02-.03-.05-.05-.08-.09-.12-.19-.24-.29-.36-.02-.02-.03-.05-.06-.07-.39-.43-.89-.83-1.51-1.18l-14.04-8.11-5.02,2.9c-1.33.76-3.47.76-4.79,0l-.99-.57h0s-1.19-.69-1.19-.69c-1.32-.76-1.33-2-.01-2.76l1.43-.83h0l3.6-2.07-156.59-90.4-5.02,2.9c-1.32.76-3.47.76-4.79,0l-1-.58-1.2-.69c-1.32-.77-1.32-2,0-2.77l1.43-.82h0l3.6-2.08-14.05-8.11c-3.31-1.91-8.67-1.91-11.97,0L3.12,241.33c-.2.12-.4.24-.57.37-1.26.89-1.89,1.97-1.9,3.06h0v.02s0,.01,0,.02v4.07h.01c-.03,1.28.78,2.56,2.47,3.53l198.65,114.69c3.31,1.91,8.67,1.91,11.98,0l119.42-68.95c1.64-.94,2.46-2.18,2.47-3.42h0v-.03h0v-4.15h0c0-.14-.02-.28-.04-.41Z"/>
            <path class="cls-2" d="m82.54,258.78l57.83,33.39c6.13,3.54,16.07,3.54,22.2,0l89.19-52.1-80.04-46.21-89.19,52.1c-6.13,3.54-6.12,9.27,0,12.81Z"/>
            <path class="cls-2" d="m335.62,290.21c.16,1.36-.65,2.74-2.45,3.78l-119.42,68.95c-3.3,1.91-8.67,1.91-11.98,0L3.12,248.24c-1.65-.96-2.48-2.21-2.48-3.46h0v4.07h.01c-.03,1.28.78,2.56,2.47,3.53l198.65,114.69c3.31,1.91,8.67,1.91,11.98,0l119.42-68.95c1.64-.94,2.46-2.18,2.47-3.42h0v-.03h0v-4.15h0c0-.12-.01-.22-.03-.33Z"/>
            <path class="cls-6" d="m207.77,369.15c-2.29,0-4.57-.5-6.32-1.51L2.8,252.95c-1.79-1.03-2.77-2.43-2.79-3.96,0-.04-.01-.08-.01-.13v-4.07s0-.03,0-.05c0,0,0,0,0-.01.02-1.32.79-2.58,2.17-3.55.19-.14.4-.27.62-.4l119.42-68.95c3.47-2.01,9.13-2.01,12.61,0l14.05,8.11c.2.11.32.33.32.56s-.12.44-.32.56l-5.02,2.9c-.43.25-.67.55-.67.83s.24.58.67.83l2.2,1.26c1.13.65,3.02.65,4.15,0l5.02-2.9c.2-.11.44-.11.64,0l156.59,90.4c.2.11.32.33.32.56s-.12.44-.32.56l-5.03,2.9c-.42.24-.67.54-.67.82,0,.28.25.58.67.83l1.14.66s.04.02.06.03l.99.57c1.12.65,3.02.65,4.15,0l5.02-2.9c.2-.11.44-.11.64,0l14.04,8.11c.66.38,1.22.82,1.67,1.31.03.03.06.07.09.11.1.11.21.25.31.39,0,.01.04.07.05.08.1.15.19.29.27.44,0,.02.03.05.03.07.07.15.14.31.2.48,0,.02.02.06.02.09.05.17.09.33.12.48h0s0,.06.01.09c.02.16.04.31.04.47v4.16s0,.08,0,.11c-.04,1.51-1.03,2.89-2.79,3.9l-119.42,68.95c-1.74,1-4.02,1.5-6.3,1.5ZM1.28,248.73s.02.1.01.15c-.03,1.09.73,2.14,2.15,2.96l198.65,114.69c3.13,1.8,8.21,1.81,11.34,0l119.42-68.95c1.38-.79,2.14-1.81,2.15-2.87,0-.03,0-.07,0-.1v-4.08c0-.11-.01-.21-.03-.32h0s0-.04,0-.07c-.02-.1-.04-.2-.08-.3,0-.02-.01-.05-.02-.07-.04-.12-.09-.21-.13-.31,0-.01-.02-.05-.03-.06-.04-.08-.11-.18-.18-.29,0,0-.04-.06-.04-.07-.07-.1-.15-.2-.24-.3-.01-.02-.04-.06-.06-.07-.35-.38-.81-.74-1.36-1.06l-13.72-7.92-4.7,2.71c-1.53.88-3.92.88-5.44,0l-.93-.54s-.05-.02-.07-.03l-1.19-.7c-.83-.48-1.31-1.19-1.32-1.94,0-.75.48-1.45,1.31-1.93l4.07-2.34-155.31-89.66-4.7,2.71c-1.52.88-3.91.88-5.43,0l-2.19-1.26c-.85-.49-1.31-1.18-1.31-1.94s.47-1.45,1.31-1.94l4.06-2.35-13.08-7.55c-3.13-1.8-8.21-1.81-11.33,0L3.44,241.88c-.19.11-.36.22-.52.33-1.04.74-1.62,1.64-1.63,2.54,0,.02,0,.04,0,.06,0,.01,0,.02,0,.03v3.89Zm334.37,45.99h0,0Z"/>
            <path class="cls-3" d="m254.91,328.99c-1.99,1.14-5.2,1.14-7.19,0L61.91,221.71c-1.98-1.14-1.99-3.01,0-4.15l59.84-34.55c1.98-1.14,5.2-1.14,7.19,0l185.81,107.28c1.98,1.15,1.99,3,0,4.15l-59.85,34.55Z"/>
            <path class="cls-13" d="m81.48,226c-1.32.76-3.47.76-4.79,0l-8.79-5.07c-1.32-.76-1.32-2,0-2.76l6.38-3.69c1.32-.76,3.47-.76,4.79,0l8.79,5.07c1.32.76,1.32,2,0,2.77l-6.38,3.69Zm33.53-3.68c1.32-.76,1.32-2,0-2.77l-22.37-12.91c-1.33-.77-3.47-.76-4.79,0l-6.38,3.68c-1.32.76-1.32,2,0,2.77l22.37,12.92c1.32.76,3.47.77,4.79,0l6.38-3.69Zm-13.56,7.83c1.32-.77,1.32-2,0-2.77l-6.39-3.69c-1.32-.76-3.47-.77-4.79,0l-6.38,3.68c-1.32.76-1.32,2,0,2.76l6.39,3.69c1.32.76,3.47.77,4.79,0l6.38-3.69Zm13.58,7.84c1.32-.76,1.32-2,0-2.76l-6.39-3.69c-1.32-.76-3.47-.77-4.79,0l-6.38,3.68c-1.32.76-1.32,2,0,2.77l6.39,3.69c1.32.76,3.47.77,4.79,0l6.38-3.69Zm13.58,7.84c1.32-.76,1.32-2,0-2.76l-6.39-3.69c-1.32-.76-3.47-.76-4.79,0l-6.38,3.68c-1.32.76-1.32,2,0,2.77l6.39,3.69c1.32.76,3.47.77,4.79,0l6.38-3.69Zm90.74,52.39c1.32-.76,1.32-2,0-2.76l-15.64-9.03c-1.32-.77-3.47-.77-4.79,0l-6.39,3.69c-1.32.76-1.32,2,0,2.77l15.65,9.03c1.32.76,3.47.76,4.79,0l6.38-3.69Zm27.14.01c1.32-.76,1.32-2,0-2.77l-15.64-9.03c-1.33-.76-3.47-.76-4.79,0l-6.38,3.69c-1.32.76-1.32,2,0,2.76l15.64,9.03c1.32.76,3.47.76,4.79,0l6.38-3.69Zm-49.98-13.19c1.32-.77,1.32-2,0-2.77l-6.39-3.69c-1.33-.77-3.47-.76-4.79,0l-6.38,3.69c-1.32.76-1.32,2,0,2.76l6.39,3.69c1.32.76,3.47.76,4.79,0l6.38-3.68Zm-13.58-7.85c1.32-.76,1.32-2,0-2.76l-47.14-27.22c-1.32-.77-3.47-.77-4.79,0l-6.38,3.69c-1.32.76-1.32,2,0,2.76l47.13,27.21c1.32.76,3.47.76,4.79,0l6.38-3.69Zm-37.14-77.65c1.32-.76,1.32-2,0-2.76l-18.04-10.42c-1.32-.76-3.47-.77-4.79,0l-.8.46c-1.32.76-1.32,2,0,2.77l18.04,10.42c1.32.76,3.47.77,4.79,0l.8-.46Zm13.58,7.84c1.32-.76,1.32-2,0-2.77l-6.39-3.69c-1.32-.76-3.47-.76-4.79,0l-.8.46c-1.32.77-1.32,2.01,0,2.77l6.39,3.69c1.32.76,3.47.77,4.79,0l.8-.46Zm13.58,7.84c1.32-.76,1.32-2,0-2.77l-6.39-3.69c-1.32-.77-3.47-.77-4.79,0l-.8.46c-1.32.76-1.32,2,0,2.76l6.39,3.69c1.32.76,3.47.77,4.79,0l.8-.46Zm13.58,7.84c1.32-.76,1.32-2,0-2.77l-6.39-3.69c-1.33-.77-3.47-.76-4.79,0l-.8.46c-1.32.76-1.32,2,0,2.76l6.39,3.69c1.32.76,3.47.76,4.79,0l.8-.46Zm13.58,7.84c1.32-.77,1.32-2.01,0-2.77l-6.39-3.69c-1.32-.76-3.46-.76-4.79,0l-.8.46c-1.32.76-1.32,2,0,2.76l6.39,3.69c1.32.77,3.47.77,4.79,0l.8-.46Zm13.58,7.84c1.32-.76,1.32-2,0-2.77l-6.39-3.69c-1.32-.77-3.47-.76-4.79,0l-.8.46c-1.32.77-1.32,2,0,2.77l6.39,3.69c1.32.76,3.47.76,4.79,0l.79-.46Zm13.58,7.84c1.32-.77,1.32-2,0-2.77l-6.39-3.69c-1.32-.76-3.47-.76-4.79,0l-.8.46c-1.32.76-1.32,2,0,2.77l6.39,3.69c1.32.76,3.46.76,4.79,0l.8-.46Zm13.58,7.84c1.32-.77,1.32-2,0-2.77l-6.39-3.69c-1.32-.77-3.47-.77-4.79,0l-.79.46c-1.32.77-1.32,2,0,2.77l6.39,3.69c1.32.76,3.47.76,4.79,0l.8-.46Zm13.58,7.84c1.33-.77,1.32-2,0-2.77l-6.39-3.69c-1.32-.77-3.47-.77-4.79,0l-.8.46c-1.32.76-1.32,2,0,2.77l6.39,3.69c1.32.76,3.47.77,4.79,0l.8-.46Zm13.58,7.84c1.32-.76,1.32-2,0-2.76l-6.39-3.69c-1.32-.76-3.47-.76-4.79,0l-.8.46c-1.33.76-1.32,2,0,2.77l6.39,3.69c1.32.76,3.47.76,4.79,0l.8-.46Zm13.58,7.84c1.32-.77,1.32-2,0-2.77l-6.39-3.69c-1.33-.76-3.47-.76-4.79,0l-.8.46c-1.32.76-1.32,2,0,2.76l6.39,3.69c1.32.76,3.47.76,4.79,0l.8-.46Zm13.58,7.84c1.32-.76,1.32-2,0-2.77l-6.39-3.69c-1.32-.76-3.47-.77-4.79,0l-.79.46c-1.32.76-1.32,2,0,2.76l6.39,3.69c1.32.76,3.47.76,4.79,0l.79-.46Zm13.58,7.84c1.32-.76,1.32-2,0-2.77l-6.39-3.69c-1.32-.76-3.47-.77-4.79,0l-.8.46c-1.32.77-1.32,2,0,2.77l6.39,3.69c1.32.76,3.47.76,4.79,0l.8-.46Zm-180.18-63.48c1.32-.76,1.32-2,0-2.76l-6.39-3.69c-1.32-.76-3.47-.77-4.79,0l-6.38,3.69c-1.32.76-1.32,2,0,2.77l6.39,3.69c1.32.77,3.47.76,4.79,0l6.38-3.69Zm13.58,7.84c1.32-.76,1.32-2,0-2.77l-6.39-3.69c-1.33-.76-3.47-.77-4.79,0l-6.38,3.68c-1.32.76-1.32,2,0,2.77l6.39,3.69c1.32.76,3.47.76,4.79,0l6.38-3.68Zm13.58,7.84c1.32-.77,1.32-2.01,0-2.77l-6.39-3.69c-1.32-.76-3.47-.76-4.79,0l-6.38,3.69c-1.32.76-1.32,2,0,2.77l6.39,3.69c1.32.76,3.47.77,4.79,0l6.39-3.68Zm13.58,7.84c1.32-.76,1.32-2,0-2.76l-6.39-3.69c-1.32-.77-3.47-.77-4.79,0l-6.38,3.68c-1.32.77-1.32,2,0,2.77l6.39,3.69c1.32.76,3.47.76,4.79,0l6.38-3.68Zm13.58,7.84c1.32-.76,1.32-2,0-2.76l-6.39-3.69c-1.32-.76-3.47-.76-4.79,0l-6.38,3.69c-1.32.76-1.32,2,0,2.76l6.39,3.69c1.32.76,3.47.76,4.79,0l6.38-3.68Zm13.58,7.84c1.32-.76,1.32-2,0-2.77l-6.39-3.69c-1.32-.76-3.47-.76-4.79,0l-6.38,3.69c-1.32.76-1.32,2,0,2.76l6.39,3.69c1.33.76,3.47.77,4.79,0l6.38-3.69Zm13.58,7.84c1.32-.77,1.32-2,0-2.77l-6.39-3.69c-1.33-.77-3.47-.77-4.79,0l-6.38,3.69c-1.32.76-1.32,2,0,2.76l6.39,3.69c1.32.77,3.47.77,4.79,0l6.38-3.68Zm13.58,7.84c1.32-.76,1.32-2,0-2.77l-6.39-3.69c-1.32-.76-3.47-.76-4.79,0l-6.38,3.68c-1.32.77-1.32,2,0,2.77l6.39,3.69c1.32.76,3.47.77,4.79,0l6.38-3.69Zm-60.34-50.5c1.32-.76,1.32-2,0-2.76l-6.39-3.69c-1.32-.76-3.47-.76-4.79,0l-6.38,3.68c-1.32.77-1.32,2,0,2.77l6.39,3.69c1.32.76,3.47.76,4.79,0l6.38-3.69Zm13.58,7.84c1.32-.76,1.32-2,0-2.76l-6.39-3.69c-1.32-.76-3.47-.76-4.79,0l-6.38,3.68c-1.32.77-1.32,2,0,2.77l6.39,3.69c1.32.76,3.47.76,4.79,0l6.38-3.69Zm13.58,7.84c1.32-.76,1.32-2,0-2.76l-6.39-3.69c-1.32-.76-3.47-.76-4.79,0l-6.38,3.68c-1.32.77-1.32,2,0,2.77l6.39,3.69c1.32.76,3.47.76,4.79,0l6.38-3.69Zm13.58,7.84c1.32-.76,1.32-2,0-2.77l-6.4-3.69c-1.32-.76-3.47-.76-4.79,0l-6.38,3.68c-1.32.77-1.32,2,0,2.77l6.39,3.69c1.32.76,3.47.76,4.79,0l6.39-3.69Zm13.58,7.84c1.32-.76,1.32-2,0-2.77l-6.39-3.69c-1.32-.76-3.47-.77-4.79,0l-6.38,3.68c-1.32.77-1.32,2,0,2.77l6.39,3.69c1.32.76,3.47.77,4.79,0l6.38-3.69Zm13.58,7.84c1.32-.76,1.32-2,0-2.76l-6.39-3.69c-1.32-.76-3.46-.77-4.79,0l-6.38,3.68c-1.32.77-1.32,2,0,2.77l6.39,3.69c1.32.76,3.47.76,4.78,0l6.39-3.69Zm13.58,7.84c1.32-.76,1.32-2,0-2.76l-6.39-3.69c-1.32-.77-3.47-.76-4.79,0l-6.38,3.69c-1.32.76-1.32,2,0,2.77l6.39,3.69c1.32.76,3.47.76,4.79,0l6.38-3.69Zm13.59,7.84c1.32-.76,1.32-2,0-2.77l-6.39-3.69c-1.32-.76-3.47-.77-4.79,0l-6.38,3.69c-1.32.76-1.32,2,0,2.77l6.39,3.69c1.32.76,3.47.77,4.79,0l6.39-3.69Zm28.83,16.64c1.32-.76,1.32-2,0-2.76l-21.64-12.49c-1.32-.76-3.47-.77-4.79,0l-6.39,3.69c-1.32.76-1.32,2,0,2.76l21.64,12.49c1.32.76,3.47.76,4.79,0l6.38-3.69Zm-13.57,7.83c1.32-.76,1.32-2,0-2.77l-6.39-3.69c-1.32-.76-3.47-.76-4.79,0l-6.38,3.68c-1.32.77-1.33,2,0,2.77l6.39,3.69c1.32.76,3.47.77,4.8,0l6.38-3.68Zm-13.56,7.83c1.32-.76,1.32-2,0-2.77l-6.39-3.69c-1.32-.76-3.47-.77-4.79,0l-6.39,3.68c-1.32.76-1.32,2,0,2.77l6.4,3.69c1.32.76,3.46.77,4.79,0l6.39-3.69Zm-13.59-7.84c1.32-.76,1.32-2,0-2.77l-6.39-3.69c-1.32-.76-3.47-.76-4.79,0l-6.38,3.69c-1.32.76-1.32,2,0,2.77l6.39,3.69c1.32.76,3.47.77,4.79,0l6.38-3.69Zm13.57-7.83c1.32-.76,1.32-2,0-2.77l-6.39-3.69c-1.33-.76-3.47-.76-4.79,0l-6.38,3.68c-1.32.76-1.32,2,0,2.76l6.39,3.69c1.32.76,3.47.77,4.79,0l6.39-3.68Zm-27.15-.01c1.32-.76,1.32-2,0-2.76l-6.4-3.69c-1.32-.77-3.47-.77-4.79,0l-6.38,3.68c-1.32.76-1.32,2,0,2.77l6.39,3.69c1.32.76,3.47.76,4.79,0l6.38-3.69Zm-110.35-95.03c1.32-.76,1.32-2,0-2.77l-16.38-9.45c-1.32-.77-3.47-.77-4.79,0l-6.38,3.68c-1.32.76-1.32,2,0,2.77l16.38,9.46c1.32.76,3.47.76,4.79,0l6.38-3.69Zm13.58,7.84c1.32-.76,1.32-2,0-2.77l-6.39-3.69c-1.32-.77-3.47-.76-4.79,0l-6.38,3.69c-1.32.76-1.32,2,0,2.77l6.39,3.69c1.32.76,3.47.76,4.79,0l6.38-3.69Zm13.58,7.84c1.32-.76,1.32-2,0-2.77l-6.39-3.69c-1.32-.76-3.47-.77-4.79,0l-6.38,3.68c-1.32.76-1.32,2,0,2.77l6.39,3.69c1.32.77,3.47.77,4.79,0l6.38-3.69Zm48.32,12.24c1.32-.77,1.32-2.01,0-2.77l-6.39-3.69c-1.32-.77-3.46-.77-4.79,0l-6.39,3.69c-1.32.77-1.32,2,0,2.77l6.39,3.69c1.32.76,3.47.77,4.79,0l6.38-3.68Zm13.58,7.84c1.33-.77,1.32-2.01,0-2.77l-6.39-3.69c-1.32-.76-3.47-.76-4.79,0l-6.38,3.69c-1.32.76-1.32,2,0,2.77l6.39,3.69c1.32.76,3.47.77,4.79,0l6.38-3.68Zm13.58,7.84c1.32-.76,1.32-2,0-2.76l-6.39-3.69c-1.32-.76-3.47-.76-4.79,0l-6.38,3.69c-1.32.76-1.32,2,0,2.76l6.39,3.69c1.32.76,3.47.76,4.79,0l6.38-3.69Zm13.58,7.84c1.32-.76,1.32-2,0-2.77l-6.39-3.69c-1.32-.76-3.47-.76-4.79,0l-6.38,3.69c-1.32.76-1.32,2,0,2.76l6.39,3.69c1.32.76,3.47.77,4.79,0l6.38-3.68Zm13.58,7.84c1.32-.76,1.32-2,0-2.77l-6.39-3.69c-1.33-.76-3.47-.76-4.79,0l-6.39,3.69c-1.32.76-1.32,2,0,2.77l6.39,3.69c1.33.76,3.47.77,4.79,0l6.38-3.68Zm13.59,7.84c1.32-.76,1.32-2,0-2.77l-6.39-3.69c-1.32-.76-3.47-.77-4.79,0l-6.39,3.69c-1.32.76-1.32,2,0,2.76l6.39,3.69c1.32.76,3.47.77,4.79,0l6.38-3.69Zm13.58,7.84c1.32-.76,1.32-2,0-2.77l-6.39-3.69c-1.33-.77-3.47-.77-4.79,0l-6.39,3.69c-1.32.77-1.32,2,0,2.76l6.39,3.69c1.32.76,3.47.77,4.79,0l6.38-3.69Zm21.24,12.26c1.32-.76,1.32-2.01,0-2.77l-14.04-8.11c-1.33-.77-3.47-.77-4.79,0l-6.39,3.69c-1.32.76-1.32,2,0,2.76l14.05,8.11c1.32.76,3.47.77,4.79,0l6.39-3.68Zm-129.89-74.99c1.32-.76,1.32-2,0-2.77l-6.39-3.69c-1.32-.76-3.47-.76-4.79,0l-6.38,3.69c-1.32.76-1.32,2,0,2.76l6.39,3.69c1.32.77,3.47.77,4.79,0l6.39-3.69Zm13.58,7.84c1.32-.76,1.32-2,0-2.77l-6.39-3.69c-1.32-.76-3.47-.76-4.79,0l-6.39,3.69c-1.32.76-1.32,2,0,2.76l6.39,3.69c1.32.76,3.47.77,4.79,0l6.38-3.69Zm-54.32-31.36c1.32-.77,1.32-2,0-2.77l-10.39-6c-1.33-.76-3.47-.76-4.79,0l-6.38,3.69c-1.32.76-1.32,2,0,2.77l10.39,6c1.32.76,3.47.76,4.79,0l6.39-3.68Zm13.58,7.84c1.32-.77,1.32-2,0-2.77l-6.39-3.69c-1.32-.76-3.47-.77-4.79,0l-6.38,3.68c-1.32.76-1.32,2,0,2.77l6.39,3.69c1.32.76,3.47.77,4.79,0l6.38-3.68Zm13.58,7.84c1.32-.76,1.32-2,0-2.77l-6.4-3.69c-1.32-.76-3.47-.77-4.79,0l-6.38,3.68c-1.32.76-1.32,2,0,2.77l6.39,3.69c1.32.76,3.47.77,4.79,0l6.38-3.69Z"/>
            <path class="cls-2" d="m144.61,317.02c-1.98,1.15-5.2,1.14-7.18,0l-54.79-31.64c-1.99-1.14-1.99-3,0-4.15l34.81-20.1c1.99-1.15,5.2-1.14,7.19,0l54.79,31.63c1.99,1.15,1.99,3,0,4.15l-34.81,20.09Z"/>
            <path class="cls-3" d="m82.63,282.63l34.81-20.1c1.99-1.14,5.2-1.14,7.19,0l54.79,31.63c.69.4,1.12.88,1.33,1.39.4-.96-.02-2.02-1.33-2.77l-54.79-31.63c-1.98-1.15-5.2-1.15-7.19,0l-34.81,20.1c-1.3.75-1.73,1.8-1.33,2.77.21-.51.64-.99,1.33-1.38Z"/>
            <path class="cls-2" d="m318.79,303.3c0,.52-.38,1.16-.83,1.42l-11.39,6.58c-.45.26-.83.05-.83-.47h0c0-.53.37-1.17.83-1.43l11.38-6.57c.46-.26.83-.05.83.47h0Zm3.54-3c-.46.26-.83.9-.82,1.43,0,.53.37.74.82.47.45-.26.83-.9.82-1.43,0-.53-.37-.73-.82-.48Zm3.01-1.73c-.46.26-.82.9-.82,1.43s.36.74.83.47c.45-.26.82-.9.82-1.42,0-.53-.37-.74-.82-.48Zm-87.61,51.53c0,.52-.38,1.16-.83,1.42l-11.39,6.58c-.45.26-.82.05-.83-.47h0c0-.53.37-1.16.83-1.43l11.38-6.57c.45-.26.83-.05.83.47h0Z"/>
          </g>
          <g>
            <path class="cls-8" d="m80.81,71.2c-3.2,1.85-5.24,4.62-5.39,6.95-.16.76-.24,1.6-.24,2.51v163.1c0,7.08,4.97,15.68,11.1,19.22l57.83,33.39c.84.48,1.64.83,2.42,1.08,2.11.89,5.39.47,8.47-1.3,1.6-.92,2.9-2.07,3.83-3.29,1.22-1.35,1.93-3.42,1.94-6.1V123.66c0-7.07-4.98-15.68-11.11-19.22l-57.83-33.39c-.8-.46-1.58-.81-2.32-1.05-2.1-1.03-5.51-.65-8.7,1.2Z"/>
            <path class="cls-2" d="m160.01,124.83c0-7.07-4.98-15.68-11.11-19.22l-57.83-33.39c-.8-.46-1.58-.81-2.32-1.05-2.1-1.03-5.51-.65-8.7,1.2-3.2,1.85-5.24,4.62-5.39,6.95,0,0,0,0,0,.01,1.06-5.2,5.52-6.99,10.86-3.9l57.83,33.39c6.13,3.54,11.1,12.14,11.1,19.22v163.1c0,6.12-3.72,9.07-8.69,7.48,0,0,0,0,.01,0,2.11.89,5.39.47,8.47-1.3,1.6-.92,2.9-2.07,3.83-3.29,1.22-1.35,1.93-3.42,1.94-6.1V124.83Z"/>
            <path class="cls-6" d="m149.04,298.55c-1.01,0-1.94-.17-2.75-.51-.79-.25-1.65-.64-2.49-1.12l-57.83-33.39c-6.3-3.64-11.43-12.51-11.42-19.78V80.65c0-.91.08-1.78.24-2.6.19-2.62,2.43-5.53,5.71-7.42,3.27-1.89,6.9-2.37,9.26-1.24.8.27,1.61.64,2.4,1.1l57.83,33.39c6.3,3.64,11.43,12.51,11.43,19.77v163.1c0,2.75-.73,5-2.1,6.52-.99,1.29-2.38,2.49-3.99,3.41-2.1,1.21-4.33,1.85-6.28,1.85Zm-62.24-228.47c-1.74,0-3.79.58-5.67,1.67h0c-2.89,1.67-4.93,4.26-5.07,6.44,0,.03,0,.06-.01.09-.15.74-.23,1.54-.23,2.38v163.1c0,6.86,4.83,15.23,10.78,18.66l57.83,33.39c.76.44,1.54.78,2.3,1.03,2.06.87,5.16.37,7.95-1.25,1.47-.84,2.73-1.92,3.64-3.12,1.19-1.32,1.8-3.28,1.8-5.71V123.66c0-6.86-4.84-15.23-10.79-18.66l-57.83-33.39c-.73-.42-1.47-.76-2.2-1-.03,0-.06-.02-.08-.03-.68-.33-1.51-.49-2.42-.49Zm-5.99,1.12h0,0Z"/>
            <path class="cls-13" d="m75.06,82v163.1c0,6.36,4.48,14.11,9.99,17.3l57.83,33.39c5.51,3.18,9.99.6,9.99-5.76V126.93c0-6.36-4.48-14.11-9.99-17.29l-57.83-33.39c-5.51-3.18-9.99-.6-9.99,5.76Z"/>
            <path class="cls-10" d="m142.88,112.84l-57.83-33.39c-3.98-2.29-7.22-.43-7.21,4.16v163.1c0,4.59,3.23,10.19,7.22,12.49l57.83,33.39c3.98,2.3,7.22.43,7.22-4.15V125.33c0-4.59-3.24-10.2-7.22-12.49Z"/>
            <path class="cls-9" d="m145.35,256.5v-37.57c0-2.12-1.49-4.7-3.33-5.76l-64.18-37.06v45.25s64.18,37.06,64.18,37.06c1.84,1.06,3.33.2,3.33-1.92Z"/>
            <path class="cls-6" d="m147.34,297.8c-1.48,0-3.1-.49-4.78-1.45l-57.83-33.39c-5.69-3.29-10.32-11.3-10.32-17.85V82c0-3.31,1.15-5.8,3.25-7.01,2.1-1.21,4.83-.96,7.71.7l57.83,33.39c5.69,3.28,10.31,11.29,10.31,17.85v163.1c0,3.31-1.16,5.8-3.25,7.01-.88.51-1.86.76-2.93.76ZM80.6,75.52c-.84,0-1.61.19-2.29.58-1.68.97-2.61,3.07-2.6,5.9h0v163.1c0,6.15,4.34,13.66,9.67,16.74l57.83,33.39c2.46,1.42,4.74,1.66,6.42.69,1.68-.97,2.61-3.06,2.61-5.9V126.93c0-6.15-4.34-13.66-9.67-16.74l-57.83-33.39c-1.47-.85-2.88-1.28-4.14-1.28Z"/>
            <path class="cls-13" d="m116.5,105.28c0,.43-.3.6-.67.39l-9.3-5.37c-.37-.21-.67-.74-.67-1.16h0c0-.43.3-.6.67-.39l9.3,5.37c.37.21.67.74.68,1.16h0Zm2.89.89c-.37-.22-.67-.04-.67.39,0,.43.3.95.67,1.16.37.22.67.04.67-.39,0-.43-.3-.95-.67-1.16Zm2.45,1.42c-.37-.21-.67-.04-.67.39s.3.95.67,1.16c.37.22.67.04.67-.39s-.3-.95-.67-1.16Z"/>
            <g>
              <path class="cls-13" d="m157.93,162.73l1.09.63c.27.16.65.14,1.06-.1.82-.48,1.49-1.63,1.49-2.58v-16.56c0-.47-.17-.81-.44-.96l-1.09-.63h-.02s0-.01,0-.01c-.26-.14-.63-.12-1.03.12-.82.48-1.49,1.63-1.49,2.58v16.55c0,.46.16.79.42.95h0s.02.02.02.02t0,0Z"/>
              <path class="cls-6" d="m159.41,164.1c-.25,0-.5-.06-.71-.18l-1.09-.63s-.05-.03-.08-.05c-.44-.29-.69-.83-.69-1.48v-16.55c0-1.17.8-2.55,1.81-3.14.56-.32,1.12-.38,1.58-.17.03.01.06.02.09.04l1.12.65c.48.28.76.84.76,1.52v16.56c0,1.17-.8,2.55-1.81,3.14-.33.19-.67.29-.99.29Zm-1.14-1.91l1.06.61c.06.03.21.02.42-.1.63-.36,1.17-1.31,1.18-2.03v-16.56c0-.25-.07-.38-.12-.41l-1.05-.6s-.04-.02-.06-.03c-.03-.02-.18-.02-.41.11-.62.36-1.17,1.31-1.17,2.03v16.55c0,.26.08.38.12.41,0,0,.02.01.03.02Z"/>
            </g>
            <path class="cls-4" d="m95.82,74.21c-1.13-.66-2.97-.65-4.1,0-1.13.65-1.13,1.71,0,2.36,1.13.66,2.97.66,4.1,0,1.13-.65,1.13-1.71,0-2.36Zm-.53,2.26c-.84.48-2.2.48-3.03,0-.84-.49-.84-1.27,0-1.76.83-.48,2.19-.48,3.03,0,.84.48.84,1.26,0,1.75Z"/>
            <path class="cls-3" d="m92.26,74.72c.83-.48,2.19-.48,3.03,0,.84.48.84,1.26,0,1.75-.84.48-2.2.48-3.03,0-.84-.49-.84-1.27,0-1.76Z"/>
          </g>
          <g>
            <g>
              <path class="cls-10" d="m51,176.95c0,2.12-1.49,4.71-3.33,5.77l-38.12,22.01c-1.84,1.06-3.33.21-3.33-1.92v-62.59c0-2.12,1.49-4.7,3.33-5.76l38.12-22.01c1.84-1.06,3.33-.21,3.33,1.92v62.59Z"/>
              <path class="cls-6" d="m8.05,205.83c-.43,0-.83-.1-1.19-.31-.83-.48-1.29-1.44-1.29-2.71v-62.59c0-2.36,1.6-5.13,3.65-6.32l38.12-22.01c1.1-.63,2.16-.72,3-.24.83.48,1.29,1.44,1.29,2.71v62.59c0,2.36-1.6,5.14-3.65,6.32l-38.12,22.01c-.63.36-1.24.54-1.81.54Zm41.11-93.19c-.34,0-.75.12-1.17.37l-38.12,22.01c-1.64.95-3.02,3.33-3.01,5.21v62.59c0,.78.24,1.36.65,1.6.42.24,1.04.15,1.72-.23l38.12-22.01c1.63-.94,3.01-3.33,3.01-5.21h0s0-62.59,0-62.59c0-.78-.24-1.36-.65-1.6-.16-.09-.34-.13-.54-.13Z"/>
            </g>
            <g class="cls-17">
              <path class="cls-8" d="m44.51,168.76c0,.51-.35,1.13-.79,1.39l-30.21,17.45c-.44.25-.8.05-.8-.46h0c0-.51.36-1.13.8-1.38l30.21-17.45c.44-.26.8-.04.8.46h0Zm-5.55,10.58c0,.51-.36,1.13-.8,1.38l-24.66,14.24c-.44.25-.8.05-.8-.46h0c0-.5.35-1.13.8-1.38l24.65-14.24c.44-.25.8-.04.8.46h0Zm-5.55-.48c0-.51-.36-.71-.8-.46l-19.11,11.03c-.44.25-.79.87-.8,1.38h0c0,.51.36.72.8.46l19.11-11.03c.44-.25.8-.88.8-1.38h0Zm11.11-23c0,.51-.36,1.13-.8,1.38l-30.21,17.44c-.44.25-.8.05-.8-.46h0c0-.51.36-1.13.8-1.38l30.21-17.45c.44-.25.8-.05.8.46h0Zm-5.55,10.58c0,.51-.36,1.13-.8,1.39l-24.66,14.23c-.44.26-.8.05-.79-.46h0c0-.51.35-1.12.8-1.38l24.66-14.24c.44-.25.8-.05.8.46h0Zm-5.56-.48c0-.51-.35-.71-.79-.46l-19.11,11.03c-.44.25-.8.87-.8,1.39h0c0,.51.36.71.8.46l19.1-11.03c.45-.26.8-.88.8-1.39h0Zm-4.8-32.71c-5.6,3.24-10.14,11.09-10.14,17.55s4.54,9.08,10.13,5.84c5.6-3.23,10.14-11.09,10.14-17.55l-10.14,5.85v-11.69Z"/>
            </g>
            <path class="cls-8" d="m30.83,129.4v11.69s10.14-5.86,10.14-5.86c0-6.46-4.54-9.07-10.14-5.84Z"/>
          </g>
          <g>
            <g>
              <path class="cls-10" d="m129.2,220.86c1.84,1.06,3.33,3.64,3.33,5.76v37.57c0,2.12-1.49,2.98-3.33,1.92l-65.06-37.56c-1.84-1.06-3.33-3.64-3.33-5.77v-37.57c0-2.12,1.49-2.98,3.33-1.92l65.06,37.57Z"/>
              <path class="cls-6" d="m130.69,267.21c-.57,0-1.18-.18-1.81-.55l-65.06-37.56c-2.05-1.18-3.65-3.96-3.65-6.32v-37.57c0-1.26.46-2.23,1.29-2.71.84-.48,1.9-.4,3,.23l65.06,37.57h0c2.05,1.18,3.65,3.95,3.65,6.32v37.57c0,1.26-.46,2.23-1.29,2.71-.36.21-.76.31-1.19.31Zm-68.04-83.73c-.21,0-.39.04-.55.13-.42.24-.65.82-.65,1.6v37.57c0,1.88,1.38,4.27,3.01,5.21l65.06,37.56c.67.39,1.3.48,1.72.23.42-.24.65-.82.65-1.6v-37.57c0-1.88-1.38-4.27-3.01-5.21h0l-65.06-37.57c-.42-.24-.83-.37-1.17-.37Z"/>
            </g>
            <g class="cls-17">
              <path class="cls-8" d="m72.98,209.57l-4.89-2.82c-.44-.26-.8-.05-.8.46v14.75h0c0,.51.36,1.13.8,1.38l4.89,2.82c.44.25.8.05.8-.46h0v-14.75c0-.51-.36-1.12-.8-1.38Zm8.71-1.37l-4.89-2.83c-.44-.25-.8-.05-.8.46v21.15h0c0,.51.36,1.13.8,1.38l4.89,2.82c.44.26.8.05.8-.46h0v-21.15c0-.51-.36-1.13-.8-1.38Zm8.71,17.84l-4.89-2.83c-.44-.25-.8-.05-.8.46v8.34h0c0,.51.36,1.13.8,1.38l4.89,2.82c.44.26.8.05.8-.46h0v-8.34c0-.51-.36-1.13-.8-1.38Zm8.71-15.1l-4.89-2.82c-.44-.26-.8-.05-.8.46v28.48h0c0,.51.35,1.13.8,1.38l4.89,2.82c.44.25.8.05.8-.46h0v-28.48c0-.51-.36-1.13-.8-1.38Zm8.71,18.76l-4.89-2.83c-.44-.25-.8-.05-.8.46v14.75h0c0,.51.36,1.13.8,1.38l4.89,2.83c.44.25.8.05.8-.46h0v-14.75c0-.51-.36-1.13-.8-1.38Zm17.41,10.06l-4.89-2.82c-.44-.25-.8-.05-.8.46v14.75h0c0,.51.36,1.13.8,1.38l4.89,2.83c.44.25.8.05.8-.46h0v-14.75c0-.51-.36-1.13-.8-1.38Zm-8.7-11.43l-4.89-2.82c-.44-.26-.8-.05-.8.46v21.15h0c0,.52.36,1.13.8,1.39l4.89,2.82c.44.26.8.05.8-.46h0v-21.15c0-.51-.36-1.13-.8-1.38Z"/>
            </g>
          </g>
          <g>
            <path class="cls-10" d="m255.41,206.73c0,2.12-1.49,2.98-3.33,1.92l-52.13-30.09c-1.84-1.06-3.33-3.64-3.33-5.76v-49.06c0-2.12,1.49-2.98,3.33-1.92l52.13,30.09c1.84,1.06,3.33,3.64,3.33,5.76v49.06Z"/>
            <g class="cls-17">
              <path class="cls-8" d="m209.69,145.97l-5.77-3.33c-.45-.26-.8-.05-.8.46v6.66h0c0,.51.36,1.13.8,1.38l5.77,3.33c.45.26.8.05.8-.46h0v-6.65c0-.51-.36-1.13-.79-1.38Zm9.59,5.54l-5.77-3.33c-.45-.25-.8-.05-.8.46v6.65h0c0,.51.36,1.13.8,1.39l5.77,3.33c.44.25.8.05.8-.46h0v-6.66c0-.51-.36-1.13-.8-1.38Zm9.59,5.54l-5.77-3.33c-.44-.26-.8-.05-.8.46v6.66h0c0,.51.35,1.13.8,1.38l5.77,3.33c.44.26.8.05.8-.46h0v-6.66c0-.51-.36-1.13-.8-1.38Zm-19.18-22.13l-5.77-3.33c-.44-.26-.8-.05-.8.46v6.66h0c0,.51.36,1.13.8,1.38l5.77,3.33c.44.26.8.05.8-.46h0v-6.66c0-.51-.36-1.13-.8-1.38Zm19.18,11.07l-5.77-3.33c-.44-.25-.8-.05-.8.46v6.66h0c0,.51.36,1.13.8,1.38l5.77,3.33c.44.26.8.05.8-.46h0v-6.66c0-.51-.36-1.13-.8-1.38Zm-9.59,16.58l-5.77-3.33c-.44-.26-.8-.05-.8.46v6.65h0c0,.51.35,1.13.8,1.38l5.77,3.33c.44.26.8.05.8-.46h0v-6.65c0-.51-.36-1.13-.8-1.38Zm9.59,5.54l-5.77-3.33c-.44-.26-.8-.05-.8.46v6.66h0c0,.51.36,1.13.8,1.38l5.77,3.33c.44.25.8.05.8-.46h0v-6.65c0-.51-.36-1.13-.8-1.38Zm-19.18-.02l-5.77-3.33c-.44-.26-.8-.05-.8.46v6.65h0c0,.51.36,1.13.8,1.39l5.77,3.33c.44.25.8.05.8-.46h0v-6.66c0-.51-.36-1.13-.8-1.38Zm9.59,5.54l-5.77-3.33c-.44-.25-.8-.05-.8.46v6.66h0c0,.51.36,1.13.8,1.38l5.77,3.33c.44.25.8.05.8-.46h0v-6.66c0-.51-.36-1.12-.8-1.38Zm19.18-22.11l-5.77-3.33c-.44-.26-.8-.05-.8.46v6.66h0c0,.51.36,1.13.8,1.38l5.77,3.33c.44.25.79.05.8-.46h0v-6.66c0-.51-.35-1.13-.8-1.38Zm0,22.12l-5.77-3.33c-.44-.25-.8-.05-.8.46v6.66h0c0,.51.36,1.13.8,1.38l5.77,3.33c.44.25.8.05.8-.46h0v-6.66c0-.51-.36-1.13-.8-1.38Zm0,11.06l-5.77-3.33c-.44-.25-.8-.05-.8.46v6.66h0c0,.51.36,1.13.8,1.38l5.77,3.33c.44.26.8.05.8-.46h0v-6.66c0-.51-.36-1.13-.8-1.38Zm9.59-16.58l-5.77-3.33c-.44-.25-.8-.05-.8.46v6.66h0c0,.51.36,1.13.8,1.38l5.77,3.34c.44.25.8.04.8-.46h0v-6.66c0-.51-.36-1.13-.8-1.38Zm0-11.06l-5.77-3.33c-.44-.25-.8-.05-.8.46v6.66h0c0,.51.36,1.13.8,1.39l5.77,3.33c.44.26.8.05.8-.46h0v-6.65c0-.51-.36-1.13-.8-1.38Zm0,22.12l-5.77-3.33c-.44-.26-.8-.05-.8.46v6.65h0c0,.51.36,1.13.8,1.39l5.77,3.33c.44.25.8.05.8-.46h0v-6.65c0-.51-.36-1.13-.8-1.38Z"/>
            </g>
            <path class="cls-13" d="m199.96,121.81c-1.84-1.06-3.33-.21-3.33,1.92v49.06c0,2.12,1.49,4.7,3.33,5.76l38.98,22.5v-56.74l-38.98-22.5Z"/>
            <path class="cls-9" d="m209.69,145.97l-5.77-3.33c-.45-.26-.8-.05-.8.46v6.66h0c0,.51.36,1.13.8,1.38l5.77,3.33c.45.26.8.05.8-.46h0v-6.65c0-.51-.36-1.13-.79-1.38Zm9.59,5.54l-5.77-3.33c-.45-.25-.8-.05-.8.46v6.65h0c0,.51.36,1.13.8,1.39l5.77,3.33c.44.25.8.05.8-.46h0v-6.66c0-.51-.36-1.13-.8-1.38Zm9.59,5.54l-5.77-3.33c-.44-.26-.8-.05-.8.46v6.66h0c0,.51.35,1.13.8,1.38l5.77,3.33c.44.26.8.05.8-.46h0v-6.66c0-.51-.36-1.13-.8-1.38Zm-19.18-22.13l-5.77-3.33c-.44-.26-.8-.05-.8.46v6.66h0c0,.51.36,1.13.8,1.38l5.77,3.33c.44.26.8.05.8-.46h0v-6.66c0-.51-.36-1.13-.8-1.38Zm19.18,11.07l-5.77-3.33c-.44-.25-.8-.05-.8.46v6.66h0c0,.51.36,1.13.8,1.38l5.77,3.33c.44.26.8.05.8-.46h0v-6.66c0-.51-.36-1.13-.8-1.38Zm-9.59,16.58l-5.77-3.33c-.44-.26-.8-.05-.8.46v6.65h0c0,.51.35,1.13.8,1.38l5.77,3.33c.44.26.8.05.8-.46h0v-6.65c0-.51-.36-1.13-.8-1.38Zm9.59,5.54l-5.77-3.33c-.44-.26-.8-.05-.8.46v6.66h0c0,.51.36,1.13.8,1.38l5.77,3.33c.44.25.8.05.8-.46h0v-6.65c0-.51-.36-1.13-.8-1.38Zm-19.18-.02l-5.77-3.33c-.44-.26-.8-.05-.8.46v6.65h0c0,.51.36,1.13.8,1.39l5.77,3.33c.44.25.8.05.8-.46h0v-6.66c0-.51-.36-1.13-.8-1.38Zm9.59,5.54l-5.77-3.33c-.44-.25-.8-.05-.8.46v6.66h0c0,.51.36,1.13.8,1.38l5.77,3.33c.44.25.8.05.8-.46h0v-6.66c0-.51-.36-1.12-.8-1.38Zm19.18-22.11l-5.77-3.33c-.44-.26-.8-.05-.8.46v6.66h0c0,.51.36,1.13.8,1.38l5.77,3.33c.44.25.79.05.8-.46h0v-6.66c0-.51-.35-1.13-.8-1.38Zm0,22.12l-5.77-3.33c-.44-.25-.8-.05-.8.46v6.66h0c0,.51.36,1.13.8,1.38l5.77,3.33c.44.25.8.05.8-.46h0v-6.66c0-.51-.36-1.13-.8-1.38Zm0,11.06l-5.77-3.33c-.44-.25-.8-.05-.8.46v6.66h0c0,.51.36,1.13.8,1.38l5.77,3.33c.44.26.8.05.8-.46h0v-6.66c0-.51-.36-1.13-.8-1.38Z"/>
            <path class="cls-6" d="m253.57,209.75c-.57,0-1.19-.18-1.81-.55l-52.13-30.09c-2.05-1.18-3.65-3.96-3.65-6.32v-49.06c0-1.26.46-2.23,1.29-2.71.84-.48,1.9-.4,3,.23l52.13,30.09c2.05,1.18,3.65,3.96,3.65,6.32v49.06c0,1.26-.46,2.23-1.3,2.71-.36.21-.76.31-1.19.31Zm-55.11-87.75c-.21,0-.39.04-.55.13-.42.24-.65.82-.65,1.6v49.06c0,1.88,1.38,4.27,3.01,5.21l52.13,30.09c.67.39,1.3.48,1.72.24.42-.24.65-.82.65-1.6h0s0-49.06,0-49.06c0-1.88-1.38-4.27-3.01-5.21l-52.13-30.09c-.42-.24-.83-.37-1.17-.37Z"/>
            <path class="cls-8" d="m219.27,140.45l-5.77-3.33c-.45-.25-.8-.05-.8.46v6.66h0c0,.51.36,1.13.8,1.38l5.77,3.33c.44.25.8.05.8-.46h0v-6.66c0-.51-.36-1.12-.8-1.38Zm-9.59,16.58l-5.77-3.33c-.44-.26-.8-.05-.8.46v6.66h0c0,.51.36,1.13.8,1.38l5.78,3.33c.44.25.79.05.8-.46h0v-6.65c0-.51-.36-1.13-.8-1.38Zm19.18,22.13l-5.77-3.33c-.44-.25-.8-.05-.81.46v6.66h0c0,.51.36,1.13.8,1.38l5.77,3.33c.44.25.8.05.8-.46h0v-6.66c0-.51-.36-1.13-.8-1.38Zm9.59-16.59l-5.77-3.33c-.44-.25-.8-.05-.8.46v6.66h0c0,.51.36,1.13.81,1.38l5.77,3.33c.44.25.8.05.8-.46h0v-6.66c0-.51-.36-1.12-.8-1.38Zm9.59,27.66l-5.77-3.33c-.45-.25-.8-.05-.8.46v6.66h0c0,.51.36,1.13.8,1.38l5.77,3.33c.44.25.8.05.8-.46h0v-6.66c0-.51-.36-1.13-.8-1.38Z"/>
          </g>
          <g>
            <path class="cls-10" d="m22.89,252.66h0c-.68.39-1.1,1.24-1.1,2.43v46.74c0,2.4,1.69,5.31,3.76,6.51l29.7,17.14c1.03.6,1.97.66,2.65.27h0s0,0,0,0c0,0,0,0,0,0l4.96-2.86h0c.71-.39,1.16-1.23,1.16-2.47v-46.74c0-2.4-1.68-5.32-3.76-6.51l-29.69-17.14c-1.08-.62-2.04-.65-2.72-.21h-.01s-4.94,2.84-4.94,2.84Z"/>
            <path class="cls-13" d="m22.62,252.88c.69-.6,1.74-.65,2.94.04l29.69,17.14c2.08,1.2,3.76,4.12,3.76,6.52v46.74c0,1.2-.42,2.04-1.1,2.43h0l4.96-2.86h0c.71-.39,1.16-1.23,1.16-2.47v-46.74c0-2.4-1.68-5.32-3.76-6.51l-29.69-17.14c-1.08-.62-2.04-.65-2.72-.21h-.01s-4.94,2.84-4.94,2.84c-.1.06-.18.15-.28.23Z"/>
            <path class="cls-6" d="m56.93,326.65c-.63,0-1.31-.2-2-.6l-29.7-17.14c-2.29-1.32-4.08-4.43-4.08-7.07v-46.74c0-1.4.51-2.46,1.43-2.99,0,0,0,0,0,0l4.94-2.85s.09-.04.13-.06c.9-.5,2.07-.4,3.24.28l29.69,17.14c2.29,1.31,4.08,4.42,4.09,7.07v46.74c0,1.35-.5,2.42-1.37,2.95-.03.03-.07.05-.1.08l-4.94,2.85s-.07.04-.1.05c-.37.2-.78.3-1.22.3Zm-33.72-73.44c-.5.29-.78.97-.78,1.88v46.74c0,2.15,1.57,4.88,3.44,5.96l29.7,17.14c.79.46,1.51.56,2.01.27.02-.01.04-.02.05-.03l4.81-2.78s.08-.06.13-.09c.53-.28.81-.95.81-1.89v-46.74c0-2.16-1.58-4.89-3.44-5.96l-29.69-17.15c-.81-.47-1.56-.55-2.05-.23-.05.03-.11.06-.17.08l-4.82,2.78Z"/>
            <path class="cls-8" d="m32.64,273.78l-6.52-3.76c-.5-.29-.91-.05-.9.51v7.53h0c0,.58.41,1.27.9,1.56l6.52,3.76c.5.29.9.05.9-.52h0v-7.52c0-.58-.41-1.27-.9-1.56Zm10.83,6.25l-6.52-3.76c-.5-.29-.91-.06-.9.52v7.52h0c0,.58.41,1.28.91,1.56l6.51,3.76c.5.29.9.06.9-.52h0v-7.52c0-.57-.4-1.27-.9-1.56Zm10.83,6.26l-6.51-3.76c-.51-.29-.91-.06-.91.51v7.52h0c0,.58.4,1.27.9,1.56l6.52,3.76c.5.29.9.06.9-.52h0v-7.52c0-.58-.4-1.28-.9-1.56Zm-21.66-.02l-6.52-3.76c-.5-.29-.9-.06-.91.52v7.52h0c0,.58.4,1.28.91,1.56l6.52,3.76c.49.29.9.06.9-.52h0v-7.51c0-.57-.4-1.28-.9-1.56Zm10.83,6.26l-6.52-3.76c-.5-.29-.9-.06-.9.52v7.52h0c0,.58.41,1.27.91,1.56l6.52,3.76c.5.29.9.06.9-.52h0v-7.52c0-.57-.4-1.27-.9-1.56Zm10.83,6.25l-6.52-3.76c-.5-.29-.9-.05-.9.52v7.52h0c0,.57.41,1.27.9,1.56l6.53,3.76c.49.29.9.06.9-.52h0v-7.52c0-.57-.4-1.27-.89-1.56Zm-21.67-.01l-6.52-3.76c-.5-.29-.9-.06-.91.52v7.52h0c0,.58.4,1.27.91,1.56l6.52,3.76c.49.29.9.06.9-.52h0v-7.53c0-.57-.41-1.27-.9-1.56Zm10.83,6.26l-6.52-3.77c-.5-.29-.9-.05-.9.51v7.52h0c0,.58.4,1.27.9,1.56l6.52,3.76c.5.29.9.06.9-.52h0v-7.52c0-.57-.4-1.27-.9-1.56Zm10.83,6.25l-6.52-3.77c-.5-.29-.9-.05-.9.52v7.52h0c0,.58.4,1.27.91,1.57l6.52,3.76c.5.29.9.05.9-.51h0v-7.53c0-.57-.41-1.27-.9-1.56Z"/>
            <path class="cls-13" d="m44.21,273.27v1.21c0,.21-.1.27-.28.16l-.4-.23c-.18-.11-.28-.28-.29-.49v-1.2c0-.22.1-.27.29-.17l.4.24c.18.1.28.27.28.49Zm4.94-.04l-.41-.24c-.19-.11-.28-.05-.29.16v3.78c0,.22.1.39.28.5l.41.24c.19.11.29.06.29-.16v-3.78c0-.22-.1-.39-.29-.49Zm-8.75-5.05l-.41-.24c-.19-.11-.28-.05-.28.16v3.79c0,.22.1.39.28.49l.42.24c.18.1.29.05.28-.16v-3.79c0-.21-.1-.39-.28-.49Zm12.28,7.11l-.4-.23c-.19-.11-.29-.04-.29.17v1.21c0,.21.1.38.29.49l.4.23c.19.11.28.05.28-.16v-1.2c0-.21-.1-.39-.28-.49Zm2.67-.02v7.52c0,.57-.41.8-.9.52l-28.18-16.27c-.5-.29-.9-.99-.91-1.56v-7.52c0-.58.41-.8.91-.52l28.18,16.27c.5.28.9.98.9,1.56Zm-13.75-6.28c0-.78-.36-1.39-1.02-1.77l-.8-.46c-.67-.39-1.02-.19-1.02.58v4.2c0,.77.36,1.39,1.02,1.77l.8.46c.67.38,1.02.18,1.02-.59v-4.19Zm3.55,4.55c0-.75-.35-1.35-.99-1.72l-.62-.36.86-1.85c.04-.09,0-.19-.11-.26l-.74-.42c-.08-.06-.14-.04-.16.03l-1.01,2.18c-.05.12-.07.21-.07.37v2.11c0,.75.35,1.35,1,1.73l.86.49c.64.37.99.17.99-.57v-1.73Zm1.64,2.9c0-.11-.05-.19-.14-.25l-.65-.38c-.09-.05-.14-.02-.14.08v.76c0,.11.05.2.14.25l.65.37c.09.05.14.02.14-.09v-.75Zm3.55-2.41c0-.77-.36-1.39-1.02-1.77l-.8-.46c-.67-.38-1.02-.18-1.02.59v4.2c0,.77.36,1.39,1.03,1.77l.79.46c.67.39,1.03.18,1.02-.59v-4.2Zm3.55,2.02c0-.75-.35-1.35-1-1.72l-.85-.49c-.65-.37-.99-.17-.99.57v1.73c0,.74.35,1.36.99,1.73l.62.36-.86,1.85c-.04.08,0,.19.11.25l.74.43c.09.04.14.04.16-.03l1.01-2.18c.05-.12.07-.21.07-.37v-2.11Z"/>
            <path class="cls-8" d="m38.75,267.36c0-.77.36-.97,1.02-.58l.8.46c.67.39,1.02,1,1.02,1.77v4.19c0,.77-.36.97-1.02.59l-.8-.46c-.66-.38-1.02-1-1.02-1.77v-4.2Zm1.64,5.27c.18.1.29.05.28-.16v-3.79c0-.21-.1-.39-.28-.49l-.41-.24c-.19-.11-.28-.05-.28.16v3.79c0,.22.1.39.28.49l.42.24Zm3.76-.8c.64.37.99.97.99,1.72v1.73c0,.75-.35.95-.99.57l-.86-.49c-.64-.37-1-.98-1-1.73v-2.11c0-.15.03-.24.07-.37l1.01-2.18c.03-.07.08-.09.16-.03l.74.42c.11.07.15.16.11.26l-.86,1.85.62.36Zm-.23,2.81c.18.11.28.05.28-.16v-1.21c0-.22-.1-.39-.28-.49l-.4-.24c-.19-.11-.28-.05-.29.17v1.2c0,.21.1.39.29.49l.4.23Zm1.93,1.28c0-.1.05-.13.14-.08l.65.38c.09.05.14.14.14.25v.75c0,.11-.05.14-.14.09l-.65-.37c-.09-.05-.15-.14-.14-.25v-.76Zm1.64-3.51c0-.77.35-.97,1.02-.59l.8.46c.67.38,1.02,1,1.02,1.77v4.2c0,.77-.36.98-1.02.59l-.79-.46c-.67-.39-1.03-1-1.03-1.77v-4.2Zm1.64,5.27c.19.11.29.06.29-.16v-3.78c0-.22-.1-.39-.29-.49l-.41-.24c-.19-.11-.28-.05-.29.16v3.78c0,.22.1.39.28.5l.41.24Zm2.9.21c-.64-.37-.99-.98-.99-1.73v-1.73c0-.74.35-.94.99-.57l.85.49c.65.37,1,.98,1,1.72v2.11c0,.15-.02.25-.07.37l-1.01,2.18c-.02.07-.08.08-.16.03l-.74-.43c-.1-.06-.15-.16-.11-.25l.86-1.85-.62-.36Zm.24-2.81c-.19-.11-.29-.04-.29.17v1.21c0,.21.1.38.29.49l.4.23c.19.11.28.05.28-.16v-1.2c0-.21-.1-.39-.28-.49l-.4-.23Z"/>
            <path class="cls-10" d="m53.63,315.22l-5.18-2.99v-1.16l5.19,2.99v1.16Zm0,.96l-5.18-2.99v1.16s5.18,2.99,5.18,2.99v-1.16Zm0-26.05l-2.09-1.21v-2.41s-1-.58-1-.58v2.41s-2.09-1.2-2.09-1.2v1.16s2.09,1.21,2.09,1.21v2.41l1,.58v-2.41l2.09,1.2v-1.16Zm-.41,14.55l-1.48-2.57,1.48-.85-.71-1.23-1.47.85-1.48-2.56-.71.42,1.48,2.55-1.47.85.71,1.23,1.48-.85,1.48,2.56.71-.4Zm-13.38-8.31c-.07.01-.1.05-.1.14v.71c0,.1.05.19.14.24l.77.44v-.33c0-.1.05-.14.14-.08l.68.39c.09.06.14.14.14.25v1.25c0,.1-.05.14-.14.09l-2.56-1.48c-.09-.06-.14-.14-.14-.25v-2.42c0-.15.05-.19.18-.19l1.69-.07v-1.21c0-.22-.1-.39-.28-.49l-.34-.19c-.19-.11-.29-.06-.29.16v.64c0,.08-.04.1-.11.06l-.74-.43c-.08-.04-.12-.11-.11-.2v-.87c0-.77.35-.98,1.02-.59l.8.46c.66.38,1.02,1,1.02,1.77v1.93c0,.16-.06.19-.19.2l-1.58.07Zm-9.06-20.05c0,.09-.04.11-.11.07l-.71-.41c-.08-.04-.11-.11-.11-.2v-.66c0-.21-.1-.39-.29-.49l-.37-.22c-.19-.11-.28-.04-.28.16v3.74c0,.22.09.39.28.49l.37.21c.18.11.29.06.29-.16v-.65c0-.09.04-.12.11-.07l.71.41c.07.03.11.12.11.2v.88c0,.77-.36.97-1.02.59l-.79-.46c-.67-.38-1.03-1-1.03-1.77v-4.2c0-.77.36-.97,1.03-.59l.79.46c.66.38,1.02,1,1.02,1.77v.88Zm0,25.61c0,.3-.19.42-.45.32v.02c.26.2.45.54.45.85v1.5c0,.77-.37.97-1.03.59l-.82-.47c-.64-.38-.99-.98-1-1.72v-.28c0-.11.05-.13.14-.08l.68.4c.09.05.14.13.14.24v.34l.8.46c.09.05.14.03.14-.08v-1.17c0-.21-.09-.38-.28-.49l-.84-.49c-.09-.05-.14-.14-.14-.25v-.75c0-.1.05-.14.14-.08l.84.48c.19.11.29.05.29-.15v-1.18c0-.11-.05-.19-.14-.24l-.8-.46v.33c0,.11-.05.14-.14.08l-.68-.39c-.09-.05-.14-.14-.14-.24v-.33c0-.71.35-.89.99-.51l.82.47c.67.38,1.04,1.01,1.03,1.78v1.51Zm11.02,7.26c.09.06.14.14.14.25v.7c0,.11-.05.14-.14.09l-.29-.17v1.76c0,.11-.05.14-.14.09l-.62-.36c-.1-.05-.15-.14-.14-.24v-1.79s-2.04-1.17-2.04-1.17c-.09-.05-.14-.14-.14-.24v-.73c0-.08.01-.13.05-.17l1.82-2.35c.03-.05.09-.05.16-.01l.75.43c.11.06.16.17.1.25l-1.78,2.38,1.08.63v-.99c0-.1.05-.13.14-.08l.62.36c.09.05.14.14.14.24v.97s.29.16.29.16Zm-11.79-22.88c.07.04.12.11.11.19v6.29c0,.08-.04.11-.11.07l-.74-.43c-.08-.04-.11-.11-.11-.2v-5.17l-.44-.19c-.1-.03-.15-.13-.15-.23v-.79c0-.11.04-.15.13-.1l1.3.56Zm12.76-1.27l-5.19-2.99v-1.16s5.19,2.99,5.19,2.99v1.16Zm-2.06-3.82c0-.35-.24-.75-.53-.92-.3-.17-.53-.04-.53.31,0,.34.23.75.53.92.29.17.53.03.53-.3Zm0,4.11c0-.34-.24-.76-.53-.92-.29-.16-.53-.02-.53.31,0,.34.24.75.53.92.29.17.54.03.53-.31Z"/>
          </g>
          <g>
            <g>
              <path class="cls-10" d="m368.94,223.3l-71.57-41.33c-1.84-1.06-3.33-.2-3.33,1.92v21.77c0,2.12,1.49,4.71,3.33,5.77l59.07,34.1c5.14,2.96,7.62,6.4,9.85,9.45h0l2.46,3.48c.39.54.85.97,1.3,1.24.34.2.69.31,1.01.3.75,0,1.22-.61,1.22-1.58v-18.63s0-10.74,0-10.74c0-2.12-1.5-4.7-3.33-5.77Z"/>
              <path class="cls-6" d="m371.02,260.65c-.41,0-.86-.14-1.29-.39-.55-.32-1.07-.81-1.5-1.42l-2.51-3.55c-2.17-2.97-4.62-6.33-9.6-9.2l-59.07-34.1c-2.05-1.18-3.65-3.96-3.65-6.32v-21.77c0-1.27.46-2.23,1.29-2.71.84-.48,1.9-.4,3,.23l71.57,41.33h0c2.05,1.18,3.65,3.96,3.65,6.32v10.74s0,18.63,0,18.63c0,1.32-.75,2.21-1.86,2.22-.01,0-.03,0-.04,0Zm-75.14-78.49c-.21,0-.39.04-.55.13-.42.24-.65.82-.65,1.6v21.77c0,1.88,1.37,4.27,3.01,5.21l59.07,34.1c5.21,3,7.75,6.48,9.99,9.55l.06.08,2.47,3.49c.32.45.71.83,1.1,1.05.24.14.46.23.67.22.54,0,.59-.66.59-.94v-29.36c0-1.88-1.38-4.27-3.01-5.21l-71.57-41.33c-.42-.24-.83-.37-1.17-.37Z"/>
            </g>
            <path class="cls-13" d="m301.85,203.68c-.83-1.69-1.32-3.52-1.32-5.19,0-3.98,2.8-5.59,6.25-3.6,3.45,1.99,6.25,6.83,6.25,10.82,0,1.67-.49,2.91-1.32,3.66-.58-2.13-1.88-4.28-3.49-5.74.61-.16,1.01-.75,1.01-1.69,0-1.56-1.1-3.46-2.45-4.24-1.35-.78-2.45-.15-2.44,1.41,0,.94.4,1.99,1.01,2.85-1.62-.4-2.91.26-3.49,1.72Z"/>
            <path class="cls-8" d="m306.77,209.3c2,1.16,3.78,1.09,4.93.06-.58-2.13-1.88-4.28-3.49-5.74.61-.16,1.02-.75,1.02-1.69,0-1.56-1.1-3.45-2.45-4.23-1.35-.78-2.45-.15-2.45,1.41,0,.93.4,1.99,1.01,2.86-1.62-.41-2.91.25-3.49,1.72,1.14,2.35,2.92,4.47,4.93,5.62Zm58.92,23.16c0,.51-.36.72-.79.46l-45.67-26.37c-.45-.25-.8-.87-.8-1.38h0c0-.51.36-.71.8-.46l45.67,26.37c.44.25.8.87.79,1.38h0Zm-5.55,4.17c0,.51-.36.72-.8.46l-40.12-23.16c-.44-.26-.8-.87-.8-1.39h0c0-.5.36-.71.8-.46l40.12,23.16c.44.26.8.88.8,1.38h0Zm-5.55-6.89c0-.51-.36-1.12-.8-1.38l-34.57-19.95c-.44-.26-.8-.05-.8.46h0c0,.51.36,1.13.8,1.39l34.56,19.96c.44.26.8.05.8-.47h0Z"/>
            <g>
              <path class="cls-10" d="m283.38,138.13l71.58,41.32c1.84,1.06,3.33,3.64,3.33,5.77v21.77c0,2.12-1.49,2.98-3.33,1.92l-59.07-34.1c-5.13-2.96-7.61-2.4-9.85-1.93h0l-2.46.64c-.39.1-.84,0-1.3-.26-.35-.2-.69-.49-1.01-.86-.74-.87-1.21-2.02-1.21-2.98v-29.36c0-2.12,1.49-2.98,3.33-1.92Z"/>
              <path class="cls-6" d="m356.45,210.01c-.57,0-1.19-.18-1.81-.55l-59.07-34.1c-4.88-2.82-7.15-2.33-9.34-1.87l-2.49.64c-.55.14-1.16.03-1.78-.33-.42-.24-.82-.58-1.18-1-.84-.98-1.36-2.28-1.36-3.4v-29.36c0-1.26.46-2.22,1.29-2.71.83-.48,1.9-.4,3,.23h0l71.58,41.32c2.05,1.18,3.65,3.96,3.65,6.32v21.77c0,1.26-.46,2.23-1.29,2.71-.36.21-.76.31-1.19.31Zm-67.55-38.15c1.79,0,4.04.51,7.31,2.4l59.07,34.1c.67.39,1.3.47,1.72.23.42-.24.65-.82.65-1.6v-21.77c0-1.88-1.38-4.27-3.01-5.21l-71.58-41.32c-.67-.39-1.3-.47-1.71-.23-.42.24-.65.82-.65,1.6v29.36c0,.81.42,1.82,1.06,2.57.26.31.55.56.84.72.31.18.61.25.82.2l2.46-.64s.07-.02.08-.02c.89-.19,1.83-.39,2.94-.39Z"/>
            </g>
            <path class="cls-13" d="m287.86,159.83c-.82-1.7-1.32-3.52-1.32-5.18,0-3.98,2.8-5.59,6.25-3.6,3.45,1.99,6.25,6.83,6.25,10.81,0,1.67-.5,2.92-1.32,3.66-.58-2.14-1.87-4.28-3.49-5.74.61-.16,1.01-.75,1.01-1.69,0-1.56-1.09-3.46-2.44-4.24-1.35-.78-2.45-.15-2.45,1.41,0,.94.4,1.99,1.01,2.86-1.62-.4-2.91.25-3.49,1.71Z"/>
            <path class="cls-8" d="m317.81,171.56c-.08-.33-.31-.64-.56-.79l-2.44-1.4-.75-3.11c-.07-.32-.3-.64-.56-.79-.26-.15-.48-.09-.56.15l-.75,2.24-2.44-1.41c-.25-.15-.48-.09-.56.15-.08.24.01.59.21.89l1.97,2.78-.75,2.24c-.08.23,0,.59.22.88.2.29.48.45.69.4l1.97-.51,1.97,2.78c.11.15.23.26.35.33.12.07.24.1.35.07.21-.06.29-.31.21-.63l-.75-3.11,1.97-.51c.21-.05.29-.31.21-.63Zm15.16,8.75c-.08-.33-.31-.65-.56-.79l-2.44-1.41-.75-3.1c-.07-.32-.3-.64-.56-.79-.26-.15-.48-.09-.56.15l-.75,2.24-2.44-1.4c-.25-.15-.48-.09-.56.14-.08.23,0,.59.21.88l1.97,2.78-.75,2.24c-.08.23,0,.59.21.88.21.3.49.46.69.4l1.97-.51,1.96,2.79c.11.15.23.26.36.33.12.07.24.1.34.07.21-.06.29-.31.22-.64l-.75-3.11,1.97-.51c.21-.05.3-.31.22-.63Zm15.16,8.75c-.08-.33-.3-.65-.56-.79l-2.44-1.41-.75-3.1c-.08-.32-.3-.65-.56-.79-.26-.15-.48-.08-.56.15l-.75,2.24-2.43-1.41c-.26-.15-.48-.09-.56.15-.08.23,0,.59.21.88l1.97,2.78-.76,2.24c-.08.23,0,.59.21.88.21.29.49.45.69.4l1.97-.51,1.97,2.79c.1.15.23.26.35.33.12.07.24.09.34.07.21-.05.29-.31.22-.63l-.75-3.11,1.97-.51c.21-.05.29-.31.21-.63Zm-55.33-23.6c2,1.16,3.78,1.09,4.93.06-.58-2.14-1.87-4.28-3.49-5.74.61-.16,1.01-.76,1.01-1.69,0-1.56-1.1-3.46-2.45-4.24-1.35-.78-2.44-.15-2.45,1.41,0,.94.41,1.99,1.02,2.86-1.62-.4-2.91.25-3.49,1.72,1.14,2.35,2.92,4.47,4.93,5.63Z"/>
          </g>
          <g>
            <g>
              <path class="cls-10" d="m84.48,316.53l75.61,43.65c1.84,1.06,3.33,3.64,3.33,5.77v16.85c0,2.12-1.49,2.98-3.33,1.92l-75.61-43.65c-1.84-1.06-3.33-3.64-3.33-5.76v-16.86c0-2.12,1.49-2.98,3.33-1.91Z"/>
              <path class="cls-6" d="m161.57,385.82c-.57,0-1.18-.18-1.81-.54l-75.61-43.65c-2.05-1.18-3.65-3.96-3.65-6.32v-16.86c0-1.27.46-2.23,1.3-2.71.84-.48,1.9-.4,2.99.24l75.61,43.65c2.05,1.18,3.65,3.96,3.65,6.32v16.85c0,1.26-.46,2.23-1.29,2.71-.36.21-.76.31-1.19.31Zm-78.59-69.11c-.2,0-.39.04-.54.13-.42.24-.65.82-.66,1.6v16.86c0,1.88,1.38,4.27,3.01,5.21l75.61,43.65c.67.39,1.3.47,1.72.23.42-.24.65-.82.65-1.6v-16.85c0-1.88-1.38-4.27-3.01-5.21l-75.61-43.65h0c-.42-.24-.83-.37-1.17-.37Z"/>
            </g>
            <path class="cls-9" d="m148.29,364.46c.08-.24.3-.29.56-.15l2.43,1.41.75-2.24c.08-.23.31-.29.56-.14.26.15.48.46.56.79l.76,3.1,2.43,1.41c.25.15.48.47.56.79.08.32,0,.58-.21.64l-1.97.51.75,3.11c.08.32-.01.58-.22.63-.2.06-.48-.11-.69-.4l-1.97-2.78-1.97.51c-.1.03-.23,0-.34-.07-.12-.07-.24-.18-.35-.33-.21-.29-.29-.65-.22-.88l.75-2.24-1.97-2.79c-.21-.3-.3-.65-.22-.88Z"/>
            <path class="cls-8" d="m133.34,356.59l1.97,2.79-.76,2.24c-.08.23.01.59.22.88.1.15.22.26.35.33.12.07.24.1.35.07l1.97-.51,1.97,2.79c.21.29.49.46.69.4.21-.06.29-.31.22-.63l-.76-3.11,1.97-.51c.2-.05.29-.31.22-.64-.08-.32-.31-.64-.56-.78l-2.43-1.41-.75-3.1c-.08-.33-.3-.65-.56-.79-.26-.15-.48-.09-.56.14l-.75,2.24-2.44-1.41c-.25-.15-.48-.09-.56.15-.08.23,0,.59.21.88Zm-15.15-8.75l1.97,2.79-.75,2.24c-.08.23.01.59.21.88.11.15.22.26.35.33.12.07.24.1.35.07l1.97-.51,1.97,2.79c.21.29.48.46.69.4.21-.05.29-.31.22-.63l-.75-3.11,1.97-.51c.21-.06.29-.31.22-.64-.08-.32-.31-.64-.56-.79l-2.44-1.41-.75-3.11c-.08-.32-.3-.64-.56-.79-.25-.15-.48-.09-.56.15l-.75,2.24-2.44-1.41c-.25-.14-.48-.09-.56.14-.08.23,0,.59.21.88Zm-15.16-8.75l1.97,2.79-.75,2.23c-.08.24,0,.59.21.88.1.15.22.26.34.33.12.07.25.1.34.07l1.97-.51,1.97,2.79c.21.3.49.46.69.4.21-.05.29-.31.21-.63l-.75-3.11,1.97-.51c.2-.06.29-.31.22-.64-.08-.32-.31-.64-.56-.79l-2.43-1.41-.76-3.11c-.08-.33-.3-.64-.56-.79-.25-.15-.48-.09-.56.15l-.75,2.24-2.44-1.41c-.25-.15-.48-.09-.56.15-.08.23,0,.59.21.88Zm-14.26-10.27c.08-.23.3-.29.56-.14l2.44,1.4.75-2.24c.08-.24.3-.29.56-.15.25.15.48.47.56.79l.75,3.11,2.44,1.41c.25.15.48.46.56.79.08.33-.01.58-.22.64l-1.97.51.76,3.11c.08.33-.01.58-.22.64-.21.05-.48-.11-.69-.4l-1.97-2.79-1.97.51c-.1.03-.22,0-.35-.07-.12-.07-.24-.18-.35-.33-.2-.29-.29-.65-.21-.88l.75-2.24-1.97-2.79c-.21-.29-.3-.65-.22-.88Z"/>
          </g>
          <g>
            <g>
              <path class="cls-10" d="m249.96,368.27l78.13-45.11c1.84-1.06,3.33-.21,3.33,1.92v18.34c0,2.12-1.49,4.71-3.33,5.77l-78.13,45.11c-1.84,1.07-3.33.2-3.33-1.92v-18.34c0-2.12,1.49-4.7,3.33-5.76Z"/>
              <path class="cls-6" d="m248.47,395.4c-.43,0-.83-.1-1.19-.31-.84-.48-1.3-1.44-1.3-2.71v-18.34c0-2.36,1.6-5.14,3.65-6.32l78.13-45.11c1.1-.63,2.16-.72,3-.23.84.48,1.3,1.44,1.3,2.71v18.34c0,2.36-1.6,5.14-3.65,6.32l-78.13,45.11c-.63.36-1.24.55-1.81.55Zm81.12-72.05c-.34,0-.75.12-1.17.37l-78.13,45.11h0c-1.63.94-3.01,3.33-3.01,5.21v18.34c0,.78.24,1.36.66,1.6.42.24,1.04.15,1.72-.24l78.13-45.11c1.63-.94,3.01-3.33,3.01-5.21v-18.34c0-.77-.24-1.36-.65-1.6-.16-.09-.34-.13-.55-.13Zm-79.62,44.92h0,0Z"/>
            </g>
            <path class="cls-8" d="m323.78,340.92c1.54-2.67,1.54-5.56,0-6.45-1.55-.89-4.05.56-5.59,3.23-1.35,2.34-1.52,4.84-.51,6.03l-2.09,3.62c-.32.54-.32,1.12,0,1.31.31.18.81-.11,1.13-.65l2.09-3.62c1.53.28,3.62-1.12,4.97-3.46Zm-4.47,1.27c-.92-.53-.92-2.25,0-3.84.92-1.59,2.41-2.45,3.33-1.93.92.53.92,2.25,0,3.85-.92,1.59-2.41,2.45-3.34,1.92Z"/>
            <path class="cls-9" d="m308.06,342.21l-54.14,31.26c-.44.25-.8.87-.8,1.38v9.22h0c0,.51.36.71.8.46l54.15-31.26c.44-.26.8-.87.8-1.39h0v-9.21c0-.51-.36-.72-.8-.46Z"/>
            <path class="cls-8" d="m255.91,374.49c-.44.26-.8.87-.8,1.38v4.88c0,.51.36.72.8.46h0c.44-.26.8-.88.8-1.39v-4.88c0-.51-.36-.72-.8-.46h0Z"/>
          </g>
          <g>
            <polygon class="cls-10" points="371.6 299.64 385.64 307.75 385.64 316.35 372.95 323.68 358.91 315.57 358.91 306.97 371.6 299.64"/>
            <g class="cls-5">
              <polygon class="cls-13" points="372.95 323.68 358.91 315.57 358.91 306.97 372.95 315.08 372.95 323.68"/>
            </g>
            <polygon class="cls-13" points="385.64 316.35 372.95 323.68 372.95 315.08 385.64 307.75 385.64 316.35"/>
            <path class="cls-6" d="m372.95,324.32c-.11,0-.22-.03-.32-.09l-14.04-8.11c-.2-.11-.32-.33-.32-.56v-8.6c0-.23.12-.44.32-.56l12.69-7.33c.2-.11.44-.11.64,0l14.04,8.11c.2.11.32.33.32.56v8.6c0,.23-.12.44-.32.56l-12.69,7.33c-.1.06-.21.09-.32.09Zm-13.4-9.12l13.4,7.74,12.05-6.96v-7.86l-13.4-7.74-12.05,6.96v7.86Z"/>
          </g>
          <g>
            <path class="cls-10" d="m199.1,390.99c2.21-2.22,5.81-2.21,8.02,0,2.21,2.21,2.21,5.8,0,8.02-2.21,2.22-5.81,2.22-8.02,0-2.21-2.21-2.21-5.8,0-8.02Z"/>
            <path class="cls-13" d="m205.26,397.15c1.9-1.89,2.16-4.78.81-6.97.37.23.73.49,1.05.81,2.21,2.21,2.21,5.8,0,8.02-2.21,2.22-5.81,2.22-8.02,0-.32-.32-.58-.68-.81-1.05,2.19,1.34,5.08,1.08,6.97-.81Z"/>
            <path class="cls-7" d="m203.11,401.32c-1.69,0-3.27-.66-4.46-1.85-2.46-2.46-2.46-6.46,0-8.92h0c1.19-1.19,2.78-1.85,4.46-1.85h0c1.69,0,3.27.66,4.46,1.85,2.46,2.46,2.46,6.46,0,8.92-1.19,1.19-2.78,1.85-4.46,1.85Zm0-11.34c-1.34,0-2.61.52-3.56,1.47h0c-1.96,1.96-1.96,5.15,0,7.11.95.95,2.21,1.47,3.56,1.47s2.61-.52,3.56-1.47c1.96-1.96,1.96-5.15,0-7.11-.95-.95-2.21-1.47-3.56-1.47h0Zm-4.01,1.02h0,0Z"/>
          </g>
          <g>
            <path class="cls-10" d="m93.4,37.86c2.21-2.22,5.81-2.22,8.02,0,2.21,2.21,2.21,5.8,0,8.02-2.21,2.22-5.81,2.22-8.02,0-2.21-2.21-2.21-5.8,0-8.02Z"/>
            <path class="cls-13" d="m99.56,44.01c1.89-1.89,2.15-4.78.81-6.97.37.23.73.49,1.05.81,2.21,2.21,2.21,5.8,0,8.02-2.21,2.22-5.81,2.22-8.02,0-.32-.32-.58-.68-.81-1.05,2.19,1.34,5.08,1.08,6.97-.81Z"/>
            <path class="cls-7" d="m97.41,48.18c-1.69,0-3.27-.66-4.46-1.85-2.46-2.46-2.46-6.46,0-8.92h0c1.19-1.19,2.78-1.85,4.46-1.85h0c1.69,0,3.27.66,4.46,1.85,1.19,1.19,1.85,2.78,1.85,4.46s-.66,3.27-1.85,4.46c-1.19,1.19-2.78,1.85-4.46,1.85Zm0-11.34c-1.34,0-2.61.52-3.56,1.47h0c-1.96,1.96-1.96,5.15,0,7.11.95.95,2.21,1.47,3.56,1.47s2.61-.52,3.56-1.47c.95-.95,1.47-2.21,1.47-3.55s-.52-2.61-1.47-3.56c-.95-.95-2.21-1.48-3.56-1.48h0Zm-4.01,1.02h0,0Z"/>
          </g>
        </g>
      </g>
    </g>
  </g>
</svg>