<?xml version="1.0" encoding="UTF-8"?>
<svg xmlns="http://www.w3.org/2000/svg" viewBox="0 0 468.31 357.59">
  <defs>
    <style>
      .cls-1 {
        opacity: .7;
      }

      .cls-1, .cls-2, .cls-3, .cls-4, .cls-5 {
        mix-blend-mode: overlay;
      }

      .cls-2 {
        opacity: .3;
      }

      .cls-3, .cls-5 {
        opacity: .2;
      }

      .cls-6 {
        fill: #005b88;
      }

      .cls-7, .cls-8 {
        fill: #0094a4;
      }

      .cls-9, .cls-5 {
        fill: #fff;
      }

      .cls-10 {
        fill: #cee7fd;
      }

      .cls-11 {
        fill: #dae8ff;
      }

      .cls-12 {
        fill: #7185a3;
      }

      .cls-8, .cls-13, .cls-14 {
        isolation: isolate;
      }

      .cls-8, .cls-14 {
        opacity: .43;
      }

      .cls-15 {
        opacity: .5;
      }

      .cls-4 {
        opacity: .1;
      }
    </style>
  </defs>
  <g class="cls-13">
    <g id="Layer_2" data-name="Layer 2">
      <g id="Layer_1-2" data-name="Layer 1">
        <g>
          <g>
            <polygon class="cls-9" points="244.29 327.33 261.51 337.27 261.51 347.82 245.94 356.81 228.72 346.87 228.72 336.32 244.29 327.33"/>
            <g class="cls-15">
              <polygon class="cls-10" points="245.94 356.81 228.72 346.87 228.72 336.32 245.94 346.26 245.94 356.81"/>
            </g>
            <polygon class="cls-10" points="261.51 347.82 245.94 356.81 245.94 346.26 261.51 337.27 261.51 347.82"/>
            <path class="cls-6" d="m245.94,357.59c-.14,0-.27-.03-.39-.11l-17.22-9.94c-.25-.14-.4-.4-.4-.68v-10.55c0-.28.15-.54.4-.68l15.56-8.99c.24-.14.54-.14.79,0l17.22,9.94c.24.14.39.4.39.68v10.55c0,.28-.15.54-.39.68l-15.56,8.99c-.12.07-.26.11-.39.11Zm-16.44-11.18l16.44,9.49,14.78-8.53v-9.64s-16.43-9.49-16.43-9.49l-14.78,8.53v9.64Z"/>
          </g>
          <g>
            <path class="cls-7" d="m271.51,257.86h-.03c-.02-.99-.67-1.97-1.95-2.71l-57.23-33.04c-2.29-1.32-5.89-1.52-8.57-.47l-59.89,23.57c-1.66.65-2.73,1.69-2.91,2.85-.02.12,0,.23,0,.34h-.03s0,6.22,0,6.22h.03c-.04,1.06.63,2.09,1.94,2.84l76.31,44.06c1.42.82,3.4,1.24,5.39,1.13,2-.11,3.81-.72,4.94-1.68l40.81-34.57c.81-.68,1.16-1.47,1.14-2.24h.03s0-6.29,0-6.29Z"/>
            <path class="cls-2" d="m269.53,255.15l-57.23-33.04c-2.29-1.32-5.89-1.52-8.57-.47l-37.01,14.56,78.4,45.27,25.22-21.37c1.82-1.55,1.48-3.63-.81-4.95Z"/>
            <path class="cls-2" d="m271.48,257.85c.02.78-.34,1.57-1.14,2.25l-40.81,34.58c-1.13.96-2.94,1.57-4.94,1.68-2,.11-3.98-.3-5.4-1.12l-76.31-44.06c-1.28-.74-1.95-1.74-1.94-2.77h-.03s0,6.22,0,6.22h.03c-.04,1.06.63,2.09,1.94,2.84l76.31,44.06c1.42.82,3.4,1.24,5.39,1.13,2-.11,3.81-.72,4.94-1.68l40.81-34.57c.81-.68,1.16-1.47,1.14-2.24h.03s0-6.29,0-6.29h-.03Z"/>
            <path class="cls-4" d="m271.48,257.85c.02.78-.34,1.57-1.14,2.25l-25.22,21.37v6.29s25.22-21.37,25.22-21.37c.81-.68,1.16-1.47,1.14-2.24h.03s0-6.29,0-6.29h-.03Z"/>
            <path class="cls-6" d="m223.95,303.45c-1.91,0-3.76-.44-5.15-1.25l-76.31-44.06c-1.44-.83-2.28-2.02-2.33-3.3-.02-.07-.03-.15-.03-.22v-6.22c0-.06,0-.12.02-.18,0-.09,0-.17.01-.27.23-1.45,1.47-2.71,3.4-3.47l59.89-23.56c2.93-1.15,6.73-.94,9.25.52l57.23,33.05c1.41.81,2.23,1.92,2.34,3.16.02.07.03.15.03.23v6.29c0,.07,0,.14-.03.21-.03.73-.33,1.71-1.42,2.64l-40.81,34.57c-1.26,1.07-3.23,1.75-5.4,1.87-.23.01-.46.02-.68.02Zm-82.26-49.04c.02.08.04.16.03.24-.03.78.52,1.54,1.55,2.13l76.31,44.06c1.28.74,3.14,1.12,4.96,1.02,1.82-.1,3.49-.66,4.47-1.5l40.81-34.58c.58-.49.88-1.05.87-1.63,0-.07,0-.15.03-.21v-5.9c-.01-.06-.02-.12-.03-.18-.02-.74-.57-1.47-1.56-2.04l-57.23-33.05c-2.1-1.21-5.42-1.38-7.89-.41l-59.89,23.57c-1.38.54-2.28,1.38-2.42,2.24.02.08.02.15.02.21,0,.08-.01.16-.04.24v5.77Z"/>
            <path class="cls-7" d="m99.88,1.24l-6.78,3.92s-.02.01-.02.01h0c-1.22.72-1.98,2.23-1.98,4.39v161.4c0,4.34,3.05,9.61,6.81,11.78l225.71,130.31c1.86,1.07,3.54,1.18,4.78.5h0s.03-.02.03-.02h0l6.78-3.92h0c1.24-.71,2.01-2.23,2.01-4.41v-161.4c0-4.33-3.05-9.61-6.81-11.78L104.71,1.72c-1.85-1.07-3.52-1.18-4.74-.51h0s-.06.03-.06.03c0,0-.01,0-.02.01Z"/>
            <path class="cls-2" d="m147.7,208.82c5.34-3.02,9.41-7.9,9.41-15.75v-48.29c0-1.19-.96-2.69-1.98-3.28-13.2-7.62-25.51-18.41-32.13-28.16-.67-.98-1.61-1.52-2.28-1.31-6.18,1.97-17.32-.89-29.62-7.55v65c2.04,4.54,4.61,9.16,7.4,13.61l46.71,26.96c.86-.38,1.7-.78,2.51-1.24,0,0,0,0-.01,0Z"/>
            <path class="cls-2" d="m330.42,132.03L104.71,1.72c-1.85-1.07-3.52-1.18-4.74-.51h0s-.06.03-.06.03c0,0-.01,0-.02.01l-6.77,3.91c1.23-.7,2.92-.59,4.79.49l225.72,130.32c3.76,2.17,6.81,7.45,6.81,11.78v161.4c0,2.16-.75,3.67-1.97,4.39l6.77-3.91h0c1.24-.71,2.01-2.23,2.01-4.41v-161.4c0-4.33-3.05-9.61-6.81-11.78Z"/>
            <path class="cls-6" d="m326.66,314.78c-1.07,0-2.24-.35-3.43-1.04L97.51,183.43c-3.97-2.29-7.2-7.89-7.2-12.46V9.57c0-2.37.84-4.17,2.36-5.07.01,0,.02-.02.04-.02l6.78-3.92s.03-.01.04-.02h0c.06-.04.13-.07.19-.09,1.51-.75,3.41-.54,5.37.59l225.71,130.31c3.97,2.29,7.2,7.88,7.2,12.46v161.4c0,2.4-.86,4.2-2.41,5.09,0,0-.02.01-.03.02l-6.75,3.9s-.05.03-.07.04c-.64.35-1.35.52-2.1.52ZM93.45,5.86c-1.01.6-1.57,1.92-1.57,3.71v161.4c0,4.08,2.88,9.06,6.41,11.1l225.72,130.31c1.54.89,2.96,1.07,4,.49.02-.01.03-.02.05-.03l6.76-3.91s.02-.01.03-.02c1.02-.6,1.59-1.92,1.59-3.71v-161.4c0-4.08-2.88-9.06-6.41-11.1L104.32,2.4c-1.53-.89-2.94-1.06-3.97-.5-.03.02-.07.03-.11.05,0,0,0,0,0,0l-6.72,3.88s-.04.02-.05.03Z"/>
            <path class="cls-9" d="m323.62,297.36L97.9,167.04c-1.5-.87-2.72-2.98-2.72-4.72V11.92c0-1.73,1.22-2.43,2.72-1.57l225.72,130.32c1.5.87,2.72,2.98,2.73,4.71v150.41c0,1.73-1.22,2.44-2.73,1.57Z"/>
            <g class="cls-14">
              <path class="cls-7" d="m305.07,168.54c-2.21-1.74-4.23-4.43-5.43-7.55-1.21-3.12-1.35-5.98-.59-7.99-.62-.92-1.26-1.83-1.97-2.71-.7-.87-1.43-1.67-2.16-2.43-1.45,1.13-3.6,1.14-6.02-.25-2.42-1.4-4.58-3.9-6.03-6.71-1.47-.18-2.86-.05-4.12.37.53,2.01.61,3.93.2,5.5-.18.68-.43,1.29-.79,1.81-1.21,1.73-3.23,2.09-5.43,1.28-.23,1.7-.23,3.56,0,5.51,2.2,1.74,4.22,4.44,5.43,7.55,1.21,3.11,1.35,5.98.6,7.99.62.92,1.27,1.83,1.97,2.71.7.88,1.43,1.68,2.16,2.43,1.45-1.13,3.61-1.14,6.02.25,2.42,1.39,4.57,3.89,6.02,6.71,1.48.17,2.87.05,4.13-.37-.75-2.87-.62-5.58.59-7.3,1.21-1.73,3.23-2.09,5.44-1.28.23-1.71.23-3.57,0-5.51Zm-8.54.15s-.02,0-.03,0c-.17.67-.41,1.29-.77,1.8-2.18,3.11-7.01,1.82-10.8-2.89-3.78-4.71-5.07-11.04-2.89-14.16,1.1-1.57,2.88-2.01,4.86-1.46h0s.05,0,.07.01c.23.07.48.17.72.26.12.05.24.08.36.14.07.03.15.08.23.11.1.05.21.11.31.17.19.1.37.18.56.3-.17-.11-.35-.18-.52-.27,1.43.77,2.89,1.98,4.22,3.63,2.02,2.52,3.32,5.49,3.77,8.2.07.4.11.79.14,1.18,0,.11.01.21.02.32,0,.11,0,.21,0,.32,0,.26,0,.5-.02.75,0,.14-.01.27-.03.41,0,.07,0,.15-.01.22-.01.1-.04.19-.05.28-.04.24-.08.47-.13.69Z"/>
            </g>
            <path class="cls-8" d="m269.72,191.79c-2.25-1.3-4.07-.25-4.07,2.34v15.64c0,2.59,1.82,5.74,4.07,7.04l56.62,32.69v-25.02l-56.62-32.69Z"/>
            <path class="cls-8" d="m130.14,73.56c0,2.51,1.76,5.56,3.94,6.82l45.1,26.04c2.18,1.25,3.94.24,3.94-2.27v-19.52c0-2.51-1.76-5.56-3.94-6.83l-45.1-26.03c-2.17-1.26-3.94-.23-3.94,2.28v19.52Z"/>
            <path class="cls-8" d="m157.1,144.78c0-1.19-.95-2.69-1.98-3.28-13.2-7.62-25.51-18.41-32.13-28.16-.67-.98-1.61-1.52-2.28-1.31-5.49,1.75-14.89-.32-25.54-5.46v55.75c0,1.74,1.22,3.85,2.72,4.72l57.76,33.35c.91-2.1,1.44-4.52,1.44-7.32v-48.29Z"/>
            <path class="cls-6" d="m324.84,298.51c-.52,0-1.07-.16-1.61-.47h0L97.51,167.72c-1.74-1.01-3.11-3.38-3.12-5.4V11.92c0-1.11.43-2,1.19-2.44.76-.44,1.75-.37,2.71.19l225.72,130.32c1.74,1,3.11,3.37,3.12,5.39v150.41c0,1.11-.44,2-1.19,2.44-.33.19-.71.29-1.1.29Zm-.82-1.84c.46.27.88.34,1.14.19.26-.15.41-.54.41-1.08v-150.41c0-1.46-1.08-3.3-2.34-4.03L97.51,11.03c-.47-.27-.88-.34-1.14-.19-.26.15-.41.54-.41,1.07v150.4c0,1.46,1.07,3.31,2.33,4.04l225.72,130.32Z"/>
          </g>
          <g>
            <path class="cls-9" d="m65.25,116.23l-9.52,5.5c-.34.2-.56.63-.56,1.23v48.28c0,22.4,33.07,58.83,34.48,60.37.24.26.5.48.76.62.26.15.52.24.76.25.91.05,15.2.81,25.09-4.81h0s9.64-5.56,9.64-5.56h0c5.28-3.04,9.28-7.9,9.28-15.69v-48.29c0-1.18-.96-2.69-1.98-3.28-13.21-7.62-25.51-18.41-32.13-28.16-.67-.99-1.6-1.52-2.28-1.31-6.61,2.1-18.91-1.31-32.22-9-.51-.34-.98-.37-1.33-.17h0Z"/>
            <path class="cls-10" d="m133.21,154.87c-13.21-7.62-25.51-18.41-32.13-28.16-.67-.99-1.6-1.52-2.28-1.31-6.61,2.1-18.91-1.31-32.22-9-.51-.34-.98-.37-1.33-.17h0l-9.52,5.5h0c.34-.2.81-.16,1.32.17,13.32,7.69,25.61,11.11,32.23,9,.67-.21,1.61.33,2.28,1.31,6.62,9.75,18.93,20.54,32.13,28.16,1.02.59,1.97,2.09,1.98,3.28v48.29c0,7.85-4.07,12.72-9.4,15.75,0,0,0,0,.01,0h0s9.64-5.56,9.64-5.56h0c5.28-3.04,9.28-7.9,9.28-15.69v-48.29c0-1.18-.96-2.69-1.98-3.28Z"/>
            <path class="cls-6" d="m93.86,233.34c-1.41,0-2.38-.05-2.73-.07-.37-.02-.74-.14-1.11-.36-.31-.18-.64-.45-.94-.77-1.42-1.55-34.7-38.19-34.7-60.91v-48.28c0-.86.35-1.56.96-1.91l9.52-5.5c.63-.37,1.42-.3,2.16.19,13.03,7.52,25.14,10.94,31.55,8.91,1.03-.32,2.3.34,3.17,1.62,6.56,9.66,18.78,20.36,31.88,27.92,1.3.76,2.36,2.53,2.37,3.96v48.29c0,7.14-3.23,12.64-9.61,16.32-.02.01-.04.03-.07.04l-9.64,5.57s-.08.04-.12.06c-7.71,4.33-17.81,4.91-22.69,4.91Zm-28.13-116.45s-.06,0-.08.02c0,0,0,0,0,0l-9.52,5.49c-.08.05-.17.24-.17.55v48.28c0,22.11,32.88,58.31,34.28,59.84.19.2.38.36.57.47.19.11.33.14.41.15.61.04,14.94.82,24.67-4.7.03-.02.07-.04.11-.05l9.47-5.47s.04-.03.07-.04c5.89-3.39,8.88-8.44,8.88-15v-48.29c0-.86-.77-2.13-1.58-2.6-13.29-7.67-25.7-18.55-32.39-28.39-.57-.84-1.19-1.07-1.39-1-6.82,2.17-19.4-1.31-32.85-9.07-.21-.14-.36-.19-.46-.19Zm-.48-.66h0,0Z"/>
            <polygon class="cls-7" points="90.41 189.72 79.93 171.58 82.82 169.91 90.41 183.05 101.81 176.48 104.7 181.49 90.41 189.72"/>
            <path class="cls-8" d="m90.41,189.72l-10.48-18.14,2.89-1.67,7.59,13.14,9.7-5.58c-2.36-4.48-5.83-8.45-9.7-10.68-7.13-4.12-12.91-.79-12.91,7.43,0,8.22,5.78,18.22,12.91,22.33,7.13,4.12,12.91.79,12.91-7.43,0-2.02-.35-4.14-.99-6.26l-11.92,6.86Z"/>
          </g>
          <g>
            <path class="cls-7" d="m181.92,174.34s0-.01,0-.01c-.02,1.17.51,2.34,1.72,3.29,9.09,6.77,19.62,12.85,31.36,18.1,3.65,1.55,9.23,1.26,12.3-.51.2-.12.39-.23.6-.35,1.71-.99,2.59-2.43,2.59-3.88t0,.01h.03v6.63h-.04c-.01,1.44-.88,2.88-2.59,3.86-.19.11-.4.23-.59.35-3.07,1.77-8.65,2.06-12.3.51-11.73-5.25-22.28-11.33-31.36-18.1-1.19-.93-1.72-2.09-1.71-3.23h-.03v-6.68h.02Z"/>
            <path class="cls-2" d="m181.92,175.22s0-.01,0-.01c-.02,1.17.51,2.34,1.72,3.29,9.09,6.77,19.62,12.85,31.36,18.1,3.65,1.55,9.23,1.26,12.3-.51.2-.12.39-.23.6-.35,1.71-.99,2.59-2.43,2.59-3.88t0,.01h.03v6.63h-.04c-.01,1.44-.88,2.88-2.59,3.86-.19.11-.4.23-.59.35-3.07,1.77-8.65,2.06-12.3.51-11.73-5.25-22.28-11.33-31.36-18.1-1.19-.93-1.72-2.09-1.71-3.23h-.03v-6.68h.02Z"/>
            <path class="cls-3" d="m227.29,195.21c.2-.12.39-.23.6-.35,1.71-.99,2.59-2.43,2.59-3.88t0,.01h.03v6.63h-.04c-.01,1.44-.88,2.88-2.59,3.86-.19.11-.4.23-.59.35-.41.23-.87.45-1.36.62v-6.62c.49-.18.95-.39,1.36-.63Z"/>
            <path class="cls-6" d="m220.58,204.14c-2.1,0-4.19-.35-5.89-1.07-11.8-5.28-22.41-11.4-31.52-18.19-1.26-.98-1.97-2.27-2.03-3.65-.02-.06-.03-.14-.03-.21v-6.68c0-.24.11-.47.31-.63.08-.06.16-.1.25-.13.02,0,.03,0,.05-.01.33-.09.69.05.88.34.09.13.13.3.12.45,0,.99.48,1.9,1.42,2.64,9.02,6.72,19.52,12.78,31.19,18,3.36,1.42,8.67,1.21,11.58-.48l.61-.35c1.36-.78,2.16-1.92,2.19-3.12,0-.04,0-.07,0-.11.01-.24.14-.47.34-.61.24-.17.56-.19.82-.05.05.03.1.06.14.09.19.15.32.37.32.62v6.63c0,.1-.02.18-.05.27-.11,1.7-1.19,3.25-2.98,4.28l-.59.35c-1.86,1.07-4.48,1.62-7.11,1.62Zm-37.9-23.32c.02.06.03.13.03.2,0,.97.48,1.88,1.41,2.6,9.01,6.71,19.51,12.77,31.19,18,3.36,1.42,8.67,1.21,11.58-.47l.6-.35c1.39-.8,2.19-1.96,2.2-3.19,0-.08.01-.16.03-.23v-2.94c-.41.41-.89.77-1.44,1.09l-.6.35c-3.33,1.93-9.16,2.18-13,.55-11.8-5.28-22.4-11.4-31.52-18.2-.17-.13-.33-.28-.49-.42v3Z"/>
            <path class="cls-9" d="m181.92,141.35c-.03-1.47.85-2.95,2.59-3.96.19-.11.4-.22.59-.34,3.06-1.77,8.66-2.05,12.3-.51,11.73,5.25,22.27,11.33,31.37,18.11,1.2.95,1.73,2.12,1.71,3.28h.04v32.83h-.04c.09,1.53-.79,3.07-2.59,4.11-.21.12-.4.23-.6.35-3.07,1.77-8.65,2.06-12.3.51-11.74-5.25-22.27-11.33-31.36-18.1-1.2-.95-1.73-2.12-1.72-3.29h-.02v-32.98s.03,0,.03,0Z"/>
            <path class="cls-10" d="m228.77,154.64c1.2.95,1.73,2.12,1.71,3.28h.04v32.83h-.04c.09,1.53-.79,3.07-2.59,4.11-.21.12-.4.23-.6.35-.41.24-.87.45-1.36.63v-43.17c.94.67,1.93,1.3,2.83,1.98Z"/>
            <path class="cls-6" d="m220.58,197.51c-2.1,0-4.19-.35-5.89-1.07-11.8-5.28-22.4-11.4-31.52-18.2-1.28-1.01-1.99-2.32-2.03-3.73-.02-.06-.03-.12-.03-.19v-32.98c0-.07.01-.13.03-.2.04-1.75,1.12-3.36,2.98-4.45.2-.11.4-.22.59-.34,3.35-1.93,9.18-2.18,13.01-.56,11.78,5.27,22.39,11.39,31.53,18.2,1.27,1,1.98,2.3,2.03,3.69.02.07.04.15.04.22v32.82c0,.07-.02.13-.03.2,0,1.8-1.1,3.5-2.99,4.59l-.6.35c-1.85,1.07-4.48,1.63-7.1,1.63Zm-37.9-23.37c.02.06.03.13.03.19-.02,1,.47,1.92,1.42,2.66,9.02,6.72,19.52,12.78,31.19,18,3.36,1.42,8.67,1.21,11.58-.48l.61-.35c1.47-.84,2.27-2.08,2.19-3.38,0-.09,0-.18.03-.26v-32.4c-.02-.07-.03-.15-.03-.22.01-.99-.47-1.91-1.42-2.65-9.04-6.73-19.54-12.8-31.2-18.01-3.36-1.42-8.67-1.21-11.58.47-.19.12-.41.24-.61.35-1.41.82-2.21,2.01-2.18,3.25,0,.07,0,.15-.02.21v32.6Z"/>
            <path class="cls-7" d="m230.51,151.25h-.03s0,0,0,0h0c0-1.15-.53-2.3-1.71-3.23-9.09-6.78-19.63-12.86-31.36-18.11-3.65-1.54-9.24-1.26-12.3.51-.2.12-.4.23-.59.34-1.7.98-2.58,2.42-2.59,3.86,0-.01,0-.02,0-.03h-.02v6.67h.02c0,1.14.53,2.3,1.71,3.23,9.09,6.78,19.63,12.86,31.37,18.1,3.65,1.55,9.22,1.27,12.29-.51.2-.11.39-.23.59-.35,1.71-.98,2.59-2.42,2.59-3.87h.04s0-6.62,0-6.62Z"/>
            <path class="cls-2" d="m230.51,151.25h-.03c0,1.45-.88,2.89-2.6,3.87-.2.11-.4.23-.59.34-3.07,1.77-8.65,2.05-12.3.51-11.74-5.25-22.27-11.34-31.36-18.11-1.19-.94-1.72-2.1-1.71-3.26h0s0-.02,0-.02h-.02v6.67h.02c0,1.14.53,2.3,1.71,3.23,9.09,6.78,19.63,12.86,31.37,18.1,3.65,1.55,9.22,1.27,12.29-.51.2-.11.39-.23.59-.35,1.71-.98,2.59-2.42,2.59-3.87h.04s0-6.62,0-6.62Z"/>
            <path class="cls-3" d="m220.12,152.62l.12-5.51c-.24-.14.41-1.97,1.29-4.14,2.51,1.64,4.93,3.32,7.24,5.05.23.17.4.37.58.56l-6.99,4.04c-.62.35-1.62.35-2.23,0Zm-24.48-15.61l7.57-4.37c-1.9-.93-3.83-1.84-5.8-2.73-.98-.41-2.1-.68-3.26-.84-.51,1.34-.8,2.33-.63,2.43l-.12,5.51c.62.36,1.61.36,2.23,0Z"/>
            <path class="cls-3" d="m225.93,156.09s-.02,0-.02,0c.49-.18.96-.39,1.38-.63.2-.12.39-.23.59-.34,1.72-.99,2.59-2.43,2.6-3.89,0,.02,0,.01,0,.02h.03s0,6.62,0,6.62h-.04c0,1.45-.88,2.88-2.59,3.86-.2.11-.4.23-.59.35-.41.24-.88.44-1.36.62v-6.62Z"/>
            <path class="cls-6" d="m220.59,164.39c-2.1,0-4.19-.35-5.89-1.07-11.8-5.27-22.4-11.39-31.53-18.2-1.26-.99-1.96-2.27-2.02-3.65-.02-.07-.03-.13-.03-.2v-6.67c0-.09.01-.16.04-.24.12-1.69,1.19-3.23,2.97-4.27l.6-.34c3.33-1.93,9.16-2.18,13-.55,11.78,5.27,22.38,11.39,31.53,18.2,1.25.98,1.96,2.26,2.02,3.63.02.07.04.15.04.23v6.63c0,.09-.01.18-.04.27-.11,1.7-1.18,3.25-2.98,4.28-.11.06-.21.12-.31.18-.1.06-.2.12-.3.17-1.85,1.07-4.47,1.62-7.09,1.62Zm-37.91-23.31c.02.06.03.12.03.19,0,.97.48,1.88,1.41,2.6,9.03,6.73,19.53,12.79,31.21,18,3.36,1.43,8.66,1.21,11.58-.47.1-.05.19-.11.28-.16.11-.07.22-.13.33-.19,1.38-.79,2.18-1.96,2.19-3.19,0-.08.01-.16.03-.24v-6.15c-.02-.07-.03-.15-.03-.23,0-1-.49-1.89-1.41-2.62-9.04-6.73-19.54-12.79-31.2-18-3.37-1.42-8.68-1.21-11.59.47l-.61.34c-1.37.8-2.18,1.96-2.19,3.18,0,.07-.01.14-.03.2v6.26Z"/>
            <path class="cls-9" d="m188.53,135.24s0-.06,0-.1v-16.97c0-5.63,2.2-10.14,6.06-12.36,3.85-2.22,8.87-1.88,13.75.95,8.72,5.03,15.54,16.85,15.54,26.91v17c.01.64-.4,1.28-1.25,1.77-1.66.96-4.36.96-6.03,0-.85-.49-1.26-1.13-1.25-1.77v-17c0-7.06-5.17-16-11.28-19.53-2.15-1.24-4.1-1.6-5.23-.94-1.12.65-1.8,2.51-1.8,4.98v17.09s0,0,0,0c-.04.61-.44,1.21-1.24,1.67-1.66.96-4.36.96-6.03,0-.8-.46-1.2-1.06-1.24-1.67h0v-.03Z"/>
            <path class="cls-10" d="m205.78,107.23c-3.83-2.21-7.74-2.73-10.98-1.51,3.82-2.1,8.73-1.73,13.54,1.04,8.72,5.03,15.54,16.85,15.54,26.91v17c.01.64-.4,1.28-1.25,1.77-.78.46-1.8.68-2.83.7v-21.63c0-9.07-6.16-19.74-14.03-24.28Zm-12.68,16.38v14.02c.98-.05,1.95-.26,2.7-.69.8-.46,1.21-1.06,1.24-1.67h0v-17.09c0-2.47.67-4.33,1.79-4.98.73-.42,1.81-.38,3.04,0-.06-.03-.11-.06-.18-.09-9.76-3.75-8.61,7.75-8.61,10.5Z"/>
            <path class="cls-6" d="m219.63,153.95c-1.23,0-2.46-.28-3.41-.83-1.05-.61-1.65-1.51-1.64-2.46v-16.99c0-6.81-4.99-15.44-10.89-18.85-1.84-1.07-3.59-1.44-4.45-.94-.85.49-1.4,2.18-1.4,4.3v17.09c0,.06,0,.13-.02.19-.1.85-.67,1.61-1.62,2.16-1.91,1.11-4.9,1.1-6.82,0-.97-.56-1.54-1.34-1.62-2.21,0-.04,0-.09,0-.13,0-.05,0-.1,0-.15v-16.94c0-5.92,2.35-10.68,6.45-13.04,4.1-2.37,9.4-2.02,14.54.95,8.94,5.16,15.94,17.28,15.94,27.59v17c.02.94-.58,1.84-1.64,2.45-.95.55-2.18.83-3.4.83Zm-19.41-41.87c1.22,0,2.69.47,4.25,1.37,6.33,3.66,11.68,12.91,11.68,20.21v17c0,.38.31.77.85,1.09,1.42.82,3.82.82,5.24,0,.55-.32.86-.71.86-1.08v-17.02c0-9.8-6.65-21.32-15.15-26.23-4.64-2.68-9.37-3.03-12.97-.95-3.6,2.08-5.66,6.34-5.66,11.68v16.97s0,.03,0,.04c0,.01,0,.02,0,.04.02.36.32.72.84,1.03,1.42.82,3.83.83,5.25,0,.53-.3.83-.67.85-1.03,0-.02,0-.05,0-.07v-16.97c0-2.79.8-4.86,2.19-5.66.5-.29,1.09-.43,1.77-.43Z"/>
            <path class="cls-7" d="m199.57,165.49c-1.86-1.08-3.38-.21-3.38,1.95,0,1.22.49,2.63,1.35,3.89.35.51.56,1.11.56,1.62v3.05c0,.93.66,2.07,1.46,2.53.81.47,1.46.09,1.46-.84v-3.05c0-.51.21-.87.56-.97.86-.26,1.36-1.1,1.36-2.32,0-2.15-1.52-4.78-3.39-5.85Z"/>
            <path class="cls-3" d="m201.04,176.81c-.5-.56-.85-1.34-.86-2.02v-3.05c0-.51-.2-1.11-.56-1.62-.87-1.25-1.36-2.66-1.36-3.88,0-.45.08-.83.2-1.16-.16-.03-.31-.04-.46-.04.47-.02,1,.11,1.57.44,1.87,1.08,3.39,3.7,3.39,5.85,0,1.22-.5,2.06-1.36,2.32-.35.1-.56.46-.56.97v2.18Z"/>
            <path class="cls-6" d="m200.23,179.51c-.34,0-.7-.1-1.05-.31-1.06-.61-1.86-1.99-1.86-3.21v-3.05c0-.34-.16-.79-.42-1.17-.95-1.38-1.49-2.96-1.49-4.33s.49-2.35,1.38-2.87c.89-.51,2.02-.43,3.17.24,2.12,1.22,3.78,4.09,3.78,6.54,0,1.56-.71,2.7-1.9,3.06,0,.01-.02.08-.02.23v3.05c0,.73-.3,1.32-.82,1.63-.23.13-.5.2-.77.2Zm-2.17-13.7c-.18,0-.35.04-.49.12-.38.22-.6.77-.6,1.5,0,1.06.44,2.31,1.21,3.44.45.64.7,1.4.7,2.06v3.05c0,.65.51,1.53,1.07,1.85.14.08.23.09.26.09,0-.01.03-.09.03-.26v-3.05c0-.86.43-1.52,1.12-1.73.7-.21.8-1.07.8-1.57,0-1.87-1.37-4.24-2.99-5.17h0c-.41-.24-.79-.36-1.11-.36Z"/>
          </g>
          <g>
            <g>
              <path class="cls-9" d="m254,201.23c-2.25-1.3-4.07-.25-4.07,2.35v15.64c0,2.59,1.82,5.75,4.06,7.04l86.48,49.93v-25.02l-86.48-49.93Z"/>
              <path class="cls-6" d="m340.48,276.97c-.14,0-.27-.04-.39-.11l-86.48-49.93c-2.5-1.45-4.46-4.84-4.46-7.72v-15.64c0-1.54.57-2.72,1.59-3.31,1.02-.59,2.32-.49,3.66.28h0l86.48,49.93c.24.14.39.4.39.68v25.02c0,.28-.15.54-.39.68-.12.07-.26.11-.39.11Zm-88.3-75.51c-.25,0-.48.06-.67.17-.51.29-.8,1-.8,1.95v15.64c0,2.3,1.68,5.21,3.67,6.36l85.3,49.25v-23.21l-86.08-49.7c-.52-.3-1.01-.45-1.43-.45Z"/>
            </g>
            <g>
              <path class="cls-9" d="m374.07,270.55l-33.58-19.39v25.02l33.58,19.39c2.25,1.29,4.07.25,4.07-2.35v-15.63c0-2.59-1.82-5.74-4.07-7.04Z"/>
              <path class="cls-6" d="m375.88,296.91c-.7,0-1.45-.22-2.22-.66l-33.58-19.39c-.25-.14-.4-.4-.4-.68v-25.02c0-.28.15-.54.4-.68.24-.14.54-.14.78,0l33.58,19.39h0c2.5,1.44,4.46,4.84,4.46,7.72v15.63c0,1.55-.56,2.72-1.58,3.31-.44.25-.93.38-1.45.38Zm-34.62-21.19l33.19,19.16c.83.47,1.59.58,2.1.29.51-.29.8-1,.8-1.95v-15.63c0-2.3-1.68-5.21-3.68-6.36l-32.4-18.71v23.21Z"/>
            </g>
            <path class="cls-10" d="m329.18,261.04c-1.61-.93-2.92-3.19-2.92-5.06,0-1.86,1.31-2.61,2.92-1.68,1.61.93,2.92,3.2,2.92,5.06s-1.31,2.61-2.92,1.68Zm-10.85-9.63c0-1.86-1.31-4.12-2.92-5.06-1.62-.93-2.92-.18-2.92,1.69,0,1.86,1.31,4.12,2.92,5.06,1.62.93,2.93.17,2.93-1.68Zm-13.77-7.95c0-1.87-1.31-4.13-2.93-5.06-1.61-.94-2.92-.18-2.92,1.68,0,1.86,1.31,4.13,2.92,5.06,1.62.93,2.93.18,2.93-1.68Zm-13.77-7.95c0-1.87-1.31-4.13-2.93-5.06-1.62-.93-2.92-.18-2.92,1.69s1.3,4.13,2.93,5.06c1.61.93,2.92.18,2.92-1.68Zm-13.77-7.95c0-1.86-1.31-4.13-2.93-5.06-1.61-.93-2.92-.18-2.92,1.69,0,1.86,1.31,4.13,2.92,5.06,1.62.93,2.92.18,2.92-1.68Zm-13.78-7.95c0-1.86-1.31-4.13-2.92-5.06-1.62-.93-2.92-.18-2.92,1.69s1.31,4.13,2.93,5.06c1.61.94,2.93.18,2.92-1.68Zm106.51,61.49c0,.32-.06.59-.16.81-.1-.09-.2-.18-.31-.25-.69-.4-1.25-.08-1.26.71-.09-.03-.17-.07-.26-.12l-2.29-1.32c0-.81-.57-1.8-1.27-2.2-.7-.41-1.27-.08-1.27.73l-2.54-1.47c0-.81-.57-1.8-1.27-2.2-.7-.41-1.27-.08-1.27.73l-3.18-1.84c-.65.78-1.78.89-3.06.15-2.02-1.17-3.65-3.99-3.65-6.32,0-2.33,1.64-3.27,3.65-2.11,1.28.74,2.4,2.16,3.06,3.69l13.1,7.56c1.1.63,1.99,2.18,1.99,3.45Zm-16.81-9.7c0-.85-.6-1.89-1.34-2.32-.74-.43-1.34-.08-1.34.77,0,.86.6,1.89,1.34,2.32.74.43,1.34.08,1.34-.77Z"/>
          </g>
          <g>
            <g>
              <path class="cls-9" d="m114.42,83c0,2.51,1.76,5.56,3.94,6.82l45.1,26.04c2.18,1.25,3.94.24,3.94-2.27v-19.52c0-2.51-1.76-5.57-3.94-6.83l-45.1-26.04c-2.17-1.25-3.94-.23-3.94,2.28v19.52Z"/>
              <path class="cls-6" d="m165.22,117.18c-.68,0-1.41-.22-2.15-.65l-45.1-26.04c-2.43-1.41-4.33-4.7-4.33-7.5v-19.52c0-1.51.55-2.65,1.55-3.23,1-.58,2.27-.48,3.57.27l45.1,26.03c2.43,1.41,4.33,4.7,4.33,7.51v19.52c0,1.51-.55,2.65-1.55,3.23-.43.25-.91.37-1.42.37Zm-48.62-55.73c-.24,0-.45.05-.63.16-.49.28-.76.96-.76,1.87v19.52c0,2.21,1.62,5.02,3.55,6.14l45.1,26.04c.79.45,1.51.56,2,.28.48-.28.76-.96.76-1.87v-19.52c0-2.22-1.62-5.03-3.55-6.15l-45.1-26.03c-.49-.28-.97-.43-1.37-.43Z"/>
            </g>
            <g class="cls-14">
              <path class="cls-7" d="m159.72,95.03c0,.6-.42.85-.95.55l-35.74-20.64c-.52-.3-.94-1.02-.94-1.63h0c0-.61.43-.85.94-.55l35.74,20.63c.52.3.95,1.04.95,1.64h0Zm-6.57,4.93c0,.61-.42.84-.94.54l-29.17-16.84c-.52-.31-.94-1.04-.94-1.64h0c0-.59.42-.84.94-.54l29.17,16.84c.52.3.95,1.03.94,1.63h0Zm-6.57-8.15c0-.61-.43-1.34-.94-1.63l-22.6-13.05c-.53-.31-.95-.06-.95.54h0c0,.61.42,1.33.95,1.64l22.6,13.05c.52.3.95.06.94-.55h0Z"/>
            </g>
          </g>
          <g>
            <path class="cls-9" d="m288.97,188.81c-.52-2.01-.61-3.93-.2-5.5.19.05.38.1.58.17l5.65-3.26c.23-1.71.23-3.57,0-5.52-2.2-1.74-4.23-4.43-5.43-7.55-1.2-3.11-1.35-5.98-.59-7.98-.62-.93-1.26-1.83-1.97-2.71-.71-.88-1.43-1.67-2.16-2.43-1.45,1.14-3.61,1.14-6.02-.25-2.42-1.4-4.57-3.9-6.03-6.71-1.47-.18-2.86-.05-4.13.37l-5.64,3.26c.52,2.01.6,3.93.2,5.5-.19-.05-.38-.1-.58-.17l-5.65,3.26c-.23,1.7-.23,3.56,0,5.51,2.2,1.74,4.22,4.44,5.43,7.55,1.21,3.11,1.35,5.98.6,7.99.62.92,1.27,1.83,1.97,2.7.7.88,1.42,1.68,2.16,2.43,1.45-1.13,3.61-1.14,6.02.25,2.41,1.4,4.57,3.89,6.02,6.71,1.48.18,2.87.06,4.13-.37l5.65-3.26Zm-11.85-23.05c3.16,3.92,4.57,8.98,3.69,12.36-1.94-.54-4.07-2.03-5.94-4.36-3.16-3.93-4.58-8.98-3.69-12.36,1.94.54,4.07,2.03,5.94,4.36Z"/>
            <path class="cls-11" d="m280.01,179.92c-2.18,3.11-7.02,1.81-10.8-2.89-3.78-4.71-5.07-11.05-2.89-14.16,1.51-2.15,4.28-2.19,7.1-.47-.76-.47-1.51-.8-2.24-1-.89,3.38.53,8.43,3.69,12.36,1.87,2.33,4,3.83,5.94,4.36.33-1.26.34-2.74.06-4.32.43,2.42.18,4.63-.85,6.11Zm9.33-1.94c.23,1.94.24,3.81,0,5.51l5.65-3.26c.23-1.71.23-3.57,0-5.52-2.2-1.74-4.23-4.43-5.43-7.55-1.2-3.11-1.35-5.98-.59-7.98-.62-.93-1.26-1.83-1.97-2.71-.71-.88-1.43-1.67-2.16-2.43-1.45,1.14-3.61,1.14-6.02-.25-2.42-1.4-4.57-3.9-6.03-6.71-1.47-.18-2.86-.05-4.13.37l-5.64,3.26c1.26-.42,2.65-.55,4.12-.37,1.45,2.81,3.61,5.31,6.03,6.71,2.41,1.39,4.57,1.38,6.02.25.74.76,1.46,1.56,2.17,2.43.7.88,1.35,1.79,1.97,2.71-.76,2.01-.62,4.87.59,7.99,1.21,3.12,3.23,5.81,5.43,7.55Zm-.38,10.84c-.52-2.01-.61-3.93-.2-5.5.19.05.38.1.58.17-2.21-.81-4.23-.45-5.44,1.28-1.21,1.72-1.35,4.43-.59,7.3l5.65-3.26Zm-25.75-32.6c-.19-.05-.38-.1-.58-.17l-5.65,3.26c2.2.8,4.22.44,5.43-1.29.36-.52.61-1.13.79-1.8Z"/>
            <path class="cls-6" d="m280.47,193.31c-.45,0-.91-.03-1.38-.08-.26-.03-.49-.19-.61-.42-1.43-2.79-3.52-5.12-5.72-6.39-2.03-1.17-3.9-1.29-5.14-.32-.32.25-.77.22-1.05-.07-.83-.85-1.55-1.66-2.21-2.49-.64-.8-1.3-1.7-2.01-2.76-.14-.21-.17-.48-.08-.71.71-1.91.5-4.62-.59-7.43-1.11-2.86-3-5.49-5.18-7.22-.16-.13-.27-.32-.29-.52-.24-2.03-.24-3.94,0-5.71.03-.24.18-.45.39-.57l5.65-3.26c.11-.06.24-.1.37-.11.18-1.27.06-2.76-.35-4.34-.09-.34.06-.7.37-.88l5.65-3.26s.09-.05.14-.06c1.37-.46,2.87-.6,4.47-.41.26.03.49.19.61.42,1.44,2.79,3.53,5.12,5.72,6.39,2.03,1.17,3.9,1.28,5.14.31.32-.25.77-.22,1.05.07.85.89,1.56,1.68,2.21,2.49.65.81,1.29,1.69,2.01,2.76.14.21.17.48.08.71-.71,1.9-.5,4.61.59,7.42,1.11,2.86,3,5.5,5.19,7.22.16.13.27.32.29.53.24,2.04.24,3.96,0,5.71-.03.24-.17.45-.38.57l-5.65,3.26c-.11.06-.24.1-.37.11-.18,1.27-.06,2.75.35,4.34.09.34-.06.7-.37.88l-5.65,3.26s-.09.05-.14.06c-.97.33-2.01.49-3.1.49Zm-.78-1.6c1.19.09,2.3-.02,3.31-.35l5.07-2.92c-.43-1.96-.45-3.78-.06-5.31.05-.2.19-.38.37-.48.18-.1.4-.13.6-.08.09.03.19.05.28.08l5.01-2.89c.16-1.43.16-2.98-.02-4.62-2.29-1.89-4.25-4.67-5.42-7.67-1.16-2.99-1.42-5.93-.74-8.15-.61-.89-1.16-1.64-1.71-2.33-.5-.62-1.04-1.24-1.66-1.91-1.72.96-3.97.76-6.3-.59-2.35-1.36-4.56-3.77-6.13-6.65-1.18-.09-2.29.02-3.31.35l-5.07,2.93c.43,1.95.45,3.78.06,5.31-.11.42-.53.67-.95.57-.1-.02-.2-.05-.3-.08l-5.01,2.89c-.16,1.44-.16,2.98.02,4.61,2.29,1.89,4.25,4.67,5.42,7.67,1.16,2.99,1.42,5.93.73,8.15.61.89,1.17,1.65,1.72,2.33.51.63,1.05,1.26,1.66,1.91,1.72-.96,3.97-.75,6.3.59,2.35,1.36,4.57,3.77,6.13,6.65Zm1.12-12.8c-.07,0-.14-.01-.21-.03-2.18-.6-4.44-2.25-6.35-4.63-3.22-4.01-4.8-9.38-3.83-13.05.05-.2.19-.37.37-.48.18-.1.4-.13.6-.07,2.18.61,4.44,2.25,6.35,4.63,3.22,4,4.8,9.37,3.84,13.05-.05.2-.19.38-.37.48-.12.07-.26.11-.39.11Zm-9.03-16.47c-.43,3.18,1.02,7.49,3.71,10.83,1.46,1.82,3.12,3.15,4.73,3.82.43-3.18-1.02-7.49-3.7-10.83h0c-1.46-1.82-3.12-3.15-4.74-3.82Z"/>
          </g>
          <g>
            <path class="cls-9" d="m117.03,300.37l-1.31-.75,1.31-.76c1.54-.89,1.54-2.33,0-3.22l-89.8-51.85c-1.09-.63-2.7-.83-4.14-.53l-5.68,1.2h0v3.04l-3.65.77-3.84-2.22-4.44.94c-.55.12-1.03.3-1.43.53-.58.33-.97.77-1.11,1.25l-2.1,7.65c-.03.13-.03.25-.02.37h-.02v4.77h.02c.02.58.41,1.14,1.14,1.56l89.79,51.84c1.54.89,4.04.89,5.59,0l19.71-11.38c1.54-.89,1.54-2.34,0-3.22Z"/>
            <path class="cls-10" d="m117.03,300.37l-1.31-.75,1.31-.76-19.71,11.38c-1.55.89-4.04.89-5.59,0L1.94,258.39c-.9-.52-1.31-1.25-1.11-1.97-.03.13-.03.25-.02.37h-.02v4.77h.02c.02.58.41,1.14,1.14,1.56l89.79,51.84c1.54.89,4.04.89,5.59,0l19.71-11.38c1.54-.89,1.54-2.34,0-3.22Z"/>
            <path class="cls-10" d="m83.83,282.81l-66.42-38.35v3.04l-3.65.77-3.84-2.22,68.8,39.72c1.41.81,3.7.81,5.12,0,1.41-.81,1.41-2.14,0-2.95Z"/>
            <path class="cls-1" d="m83.83,282.81l-66.42-38.35v3.04l66.34,38.3s.06-.02.08-.03c1.41-.81,1.41-2.14,0-2.95Z"/>
            <path class="cls-6" d="m94.53,316.42c-1.15,0-2.29-.26-3.18-.77L1.55,263.81c-.88-.51-1.41-1.22-1.52-2.01-.02-.07-.03-.15-.03-.23v-4.77c0-.06,0-.12.02-.17,0-.12.01-.26.05-.4l2.1-7.66c.19-.68.7-1.28,1.47-1.73.48-.27,1.04-.48,1.66-.62l4.44-.94c.19-.04.39,0,.56.09l3.58,2.07,2.73-.58v-2.4c0-.37.26-.69.63-.77l5.68-1.2c1.64-.35,3.44-.11,4.7.62l89.8,51.85c.98.57,1.55,1.4,1.55,2.29s-.57,1.73-1.55,2.29l-.13.08.13.07c1,.58,1.55,1.39,1.55,2.29,0,.9-.55,1.72-1.55,2.3l-19.71,11.38c-.89.51-2.04.77-3.19.77ZM1.57,261.4s.02.09.02.13c.01.31.29.64.75.91l89.79,51.84c1.3.75,3.5.75,4.8,0l19.71-11.38c.48-.28.76-.62.76-.94s-.28-.65-.76-.93h0l-1.31-.75c-.24-.14-.39-.4-.39-.68s.15-.54.39-.68l1.31-.75c.48-.28.76-.62.76-.93s-.28-.65-.76-.93l-89.8-51.85c-.92-.53-2.33-.7-3.59-.44l-5.05,1.07v2.4c0,.37-.26.69-.62.77l-3.65.77c-.19.04-.39,0-.56-.09l-3.58-2.07-4.15.88c-.46.1-.87.25-1.21.44-.39.23-.67.51-.74.78l-2.1,7.65s0,.09,0,.14c0,.08,0,.15-.02.22v4.42Z"/>
            <path class="cls-7" d="m112.05,292.66l4.94-2.85c1.3-.74,1.42-1.94.29-2.76l-12.46-9.17c-.64-.47-1.59-.76-2.63-.8-1.03-.03-2.04.19-2.77.61l-34.65,20s-.02.01-.03.02c-.71.41-1.06.95-1.06,1.48v9.46h0s0,.01,0,.01c0,.53.36,1.06,1.05,1.47.25.14.53.26.82.35l15.42,6.98c1.44.65,3.5.58,4.79-.16l31.23-18.04c1.3-.74,1.42-1.94.29-2.76l-5.23-3.85Z"/>
            <path class="cls-2" d="m112.05,292.66l4.94-2.85-31.23,18.03c-1.3.75-3.36.82-4.79.17l-15.42-6.99c-.29-.09-.57-.21-.82-.36-.7-.41-1.06-.94-1.06-1.47v9.46h0s0,.01,0,.01c0,.53.36,1.06,1.05,1.47.25.14.53.26.82.35l15.42,6.98c1.44.65,3.5.58,4.79-.16l31.23-18.04c1.3-.74,1.42-1.94.29-2.76l-5.23-3.85Z"/>
            <path class="cls-6" d="m83.2,318.71c-.9,0-1.79-.17-2.56-.52l-15.38-6.97c-.33-.11-.64-.24-.92-.4-.9-.52-1.4-1.25-1.45-2.04,0-.04,0-.07,0-.11v-9.48c0-.83.52-1.62,1.44-2.15.01-.01.03-.02.05-.03l34.65-20c.86-.49,2.03-.76,3.19-.72,1.18.04,2.3.39,3.07.95l12.46,9.17c.74.55,1.13,1.27,1.09,2.03-.04.81-.56,1.53-1.45,2.05l-3.89,2.25,4.26,3.14c.74.54,1.13,1.27,1.09,2.03-.04.81-.56,1.54-1.45,2.05l-31.23,18.03c-.82.48-1.89.72-2.95.72Zm-18.75-10.12s0,.05,0,.07c0,.26.25.55.67.8.19.11.42.21.66.28.03,0,.06.02.09.03l15.42,6.98c1.21.55,3,.49,4.07-.13l31.23-18.04c.4-.23.65-.52.67-.77.02-.29-.27-.55-.45-.68l-5.23-3.85c-.21-.16-.33-.41-.32-.68.02-.26.16-.5.39-.64l4.94-2.85c.41-.23.65-.52.67-.77.02-.29-.27-.55-.45-.68l-12.46-9.18c-.51-.37-1.33-.61-2.19-.64-.88-.02-1.75.16-2.35.51l-34.63,19.99s0,0,0,0c-.01,0-.03.02-.05.03-.42.24-.67.54-.67.8v9.4Z"/>
            <path class="cls-7" d="m149.3,288.09c-17.6-10.16-46.14-10.15-63.76.02-8.8,5.08-13.21,11.74-13.22,18.4h0v12.61h0c-.02,6.67,4.37,13.34,13.18,18.43,17.6,10.16,46.14,10.15,63.76-.02,8.81-5.09,13.22-11.75,13.23-18.41v-12.6c0-6.67-4.38-13.33-13.19-18.41Zm-9.89,31.12c-5.5,3.17-14.4,3.17-19.89,0-5.48-3.17-5.48-8.3.01-11.48,5.49-3.17,14.4-3.17,19.89,0,5.48,3.16,5.48,8.31,0,11.48Z"/>
            <path class="cls-2" d="m89.24,322.79c15.53,8.96,40.73,8.96,56.28-.02,7.77-4.49,11.66-10.36,11.67-16.24,0-5.88-3.87-11.76-11.64-16.25-15.53-8.97-40.73-8.96-56.28.01-7.77,4.49-11.66,10.36-11.67,16.24-.01,5.88,3.87,11.77,11.64,16.26Z"/>
            <path class="cls-2" d="m149.26,324.9c-17.61,10.17-46.16,10.18-63.76.02-8.81-5.09-13.2-11.75-13.18-18.42h0v12.61h0c-.02,6.67,4.37,13.34,13.18,18.43,17.6,10.16,46.14,10.15,63.76-.02,8.81-5.09,13.22-11.75,13.23-18.41v-12.6h0c-.01,6.65-4.42,13.31-13.23,18.4Z"/>
            <path class="cls-6" d="m117.35,345.92c-11.68,0-23.35-2.57-32.24-7.69-8.74-5.05-13.56-11.8-13.58-19.03,0-.03,0-.06,0-.09v-12.61s0-.06,0-.09c.05-7.2,4.88-13.94,13.61-18.99,17.81-10.28,46.76-10.29,64.55-.02h0c8.77,5.06,13.59,11.84,13.58,19.1v12.6c0,7.25-4.85,14.03-13.62,19.09-8.91,5.14-20.61,7.71-32.3,7.71Zm-44.25-26.89s0,.06,0,.09c-.02,6.67,4.52,12.97,12.79,17.75,17.35,10.02,45.6,10.01,62.97-.02,8.27-4.78,12.83-11.07,12.83-17.73v-12.6c.01-6.67-4.53-12.97-12.8-17.73h0c-17.35-10.02-45.6-10.01-62.98.02-8.26,4.77-12.81,11.07-12.82,17.72,0,.03,0,.06,0,.09v12.43Zm56.35,3.33c-3.74,0-7.48-.82-10.33-2.47-2.9-1.68-4.5-3.95-4.5-6.41,0-2.46,1.6-4.75,4.52-6.42,5.7-3.29,14.97-3.3,20.67,0,2.9,1.68,4.5,3.96,4.5,6.41s-1.6,4.74-4.51,6.42h0c-2.86,1.65-6.6,2.47-10.35,2.47Zm.03-16.23c-3.46,0-6.92.76-9.55,2.28-2.41,1.39-3.73,3.19-3.73,5.06s1.32,3.67,3.72,5.05c5.26,3.04,13.83,3.04,19.1,0h0c2.4-1.39,3.73-3.19,3.73-5.06,0-1.87-1.32-3.67-3.72-5.05-2.63-1.52-6.09-2.28-9.55-2.28Zm9.93,13.08h0,0Z"/>
            <path class="cls-7" d="m119.52,319.21c.12.07.26.12.38.18,5.39-2.91,13.74-2.91,19.13,0,.12-.06.26-.11.37-.17,5.49-3.17,5.49-8.31,0-11.48-5.49-3.17-14.39-3.17-19.89,0-5.5,3.17-5.5,8.31-.01,11.48Z"/>
            <path class="cls-6" d="m119.91,320.18c-.13,0-.25-.03-.37-.1-.03-.02-.07-.03-.11-.05-.1-.04-.2-.09-.29-.14-2.9-1.68-4.5-3.95-4.5-6.41,0-2.46,1.6-4.75,4.52-6.42,5.7-3.29,14.97-3.3,20.67,0,2.9,1.68,4.5,3.96,4.5,6.41s-1.6,4.74-4.51,6.42c-.09.05-.18.09-.28.13-.04.02-.08.03-.12.05-.23.12-.51.12-.74,0-5.16-2.78-13.23-2.77-18.38.01-.12.06-.25.09-.38.09Zm9.58-14.05c-3.46,0-6.92.76-9.55,2.28-2.41,1.39-3.73,3.19-3.73,5.06s1.31,3.66,3.69,5.04c5.54-2.81,13.62-2.81,19.17,0,2.38-1.38,3.69-3.17,3.69-5.04,0-1.87-1.32-3.67-3.72-5.05-2.63-1.52-6.09-2.28-9.55-2.28Z"/>
            <path class="cls-3" d="m89.28,292.63c15.55-8.98,40.75-8.98,56.28-.01,7.24,4.18,11.05,9.57,11.54,15.04.03-.39.1-.77.1-1.16,0-5.88-3.87-11.76-11.64-16.25-15.53-8.97-40.73-8.96-56.28.01-7.77,4.49-11.66,10.36-11.67,16.24,0,.4.06.8.1,1.21.49-5.49,4.31-10.89,11.57-15.08Z"/>
          </g>
          <g>
            <g>
              <path class="cls-7" d="m454.96,215.04s.01,0,.02-.01c-.75.21-1.68.06-2.68-.52l-31.7-18.3c-2.52-1.46-4.57-5-4.57-7.91v-36.65c0-.69.13-1.28.33-1.77,0,.02-.02.05-.03.07.01-.04.03-.07.05-.1.02-.05.05-.1.08-.15.06-.11.12-.22.19-.32-.06.09-.11.18-.16.28.08-.14.16-.28.26-.4-.04.04-.07.08-.1.12.03-.05.08-.11.12-.16.03-.04.07-.08.1-.11.06-.06.12-.12.19-.17-.05.03-.08.08-.11.12.11-.11.21-.2.34-.29-.01,0-.02,0-.03.02.04-.03.08-.07.12-.09l10.65-6.15h0c.83-.48,1.97-.42,3.24.31l31.7,18.31c2.52,1.45,4.56,4.99,4.56,7.91v36.65c0,1.44-.5,2.47-1.33,2.95h0s-10.67,6.17-10.67,6.17c-.18.1-.37.16-.56.21Z"/>
              <path class="cls-2" d="m456.86,211.87v-36.65c0-2.92-2.04-6.46-4.57-7.92l-31.7-18.3c-1.31-.76-2.48-.79-3.31-.24-.01,0-.02,0-.03.02.04-.03.08-.07.12-.09l10.65-6.15h0c.83-.48,1.97-.42,3.24.31l31.7,18.31c2.52,1.45,4.56,4.99,4.56,7.91v36.65c0,1.44-.5,2.47-1.33,2.95h0s-10.67,6.17-10.67,6.17c.82-.47,1.33-1.5,1.33-2.96Z"/>
              <path class="cls-6" d="m454.29,215.9c-.76,0-1.57-.24-2.39-.71l-31.7-18.3c-2.78-1.61-4.96-5.38-4.96-8.59v-36.65c0-.7.11-1.34.33-1.92,0-.02.01-.05.02-.07,0,0,0,0,0,0h0s.03-.08.04-.09c.04-.1.07-.14.09-.18.1-.19.17-.32.26-.44.02-.03.04-.06.06-.09.02-.02.03-.04.05-.06.08-.1.13-.17.19-.23.06-.07.13-.13.21-.2.03-.02.05-.05.08-.07.01,0,.03-.02.04-.03.03-.03.07-.06.1-.08.02-.02.05-.04.07-.05.06-.05.13-.1.19-.13l10.62-6.14s.04-.02.06-.03c1.11-.62,2.52-.5,3.97.34l31.7,18.31c2.78,1.6,4.96,5.38,4.96,8.59v36.65c0,1.66-.58,2.92-1.63,3.58-.03.02-.05.04-.08.06l-10.67,6.16c-.25.15-.51.23-.75.29-.05.01-.09.02-.13.02-.24.05-.48.08-.74.08Zm-37.21-65.71c-.18.42-.27.91-.27,1.45v36.65c0,2.61,1.91,5.92,4.18,7.23l31.7,18.3c.78.45,1.5.6,2.08.44.04,0,.07-.02.11-.02.1-.03.17-.06.24-.1l10.61-6.12s.05-.03.07-.05c.6-.34.94-1.17.94-2.27v-36.65c0-2.61-1.91-5.93-4.17-7.23l-31.7-18.31c-.97-.56-1.84-.67-2.45-.31-.02,0-.04.02-.06.03l-10.55,6.09s-.06.05-.1.07c-.07.04-.13.1-.2.17-.03.04-.07.07-.11.09,0,0,0,0-.01.01-.01.02-.02.03-.04.05-.07.09-.13.2-.18.29-.01.03-.03.05-.05.08,0,.01-.02.03-.03.05l-.02.04Z"/>
            </g>
            <path class="cls-3" d="m447.06,187.88c0-6.76-4.75-14.98-10.61-18.36-5.86-3.39-10.61-.65-10.61,6.11s4.75,14.98,10.61,18.36c5.86,3.39,10.61.65,10.61-6.11Z"/>
            <path class="cls-3" d="m444.71,186.52c0-5.26-3.7-11.66-8.26-14.29-4.56-2.64-8.26-.51-8.26,4.75s3.7,11.66,8.26,14.29c4.56,2.64,8.26.51,8.26-4.75Z"/>
            <g>
              <path class="cls-9" d="m385.17,216.95c-.62.36-1.48.31-2.42-.24-1.89-1.09-3.42-3.74-3.42-5.93,0-1.09.38-1.85,1-2.21h0l53.7-31.01h0c.62-.36,1.47-.31,2.42.24,1.89,1.09,3.43,3.74,3.42,5.93,0,1.09-.38,1.86-1,2.22l-53.69,31Z"/>
              <path class="cls-10" d="m386.16,214.73c0-1.09-.39-2.3-1.01-3.37l53.71-31.01c.62,1.08,1,2.28,1,3.37,0,1.09-.38,1.86-1,2.22l-53.69,31c.61-.36,1-1.12,1-2.22Z"/>
              <path class="cls-6" d="m384.27,217.97c-.61,0-1.26-.19-1.93-.57-2.14-1.23-3.81-4.14-3.81-6.61,0-1.34.49-2.36,1.39-2.89l53.71-31.01c.91-.52,2.04-.44,3.2.24,2.14,1.23,3.82,4.14,3.81,6.6,0,1.35-.5,2.38-1.39,2.9l-53.7,31c-.39.23-.82.34-1.28.34Zm50.64-39.85c-.19,0-.36.04-.5.12l-53.7,31c-.38.23-.61.78-.6,1.53,0,1.9,1.38,4.3,3.02,5.25.65.38,1.25.47,1.64.24h0l53.7-31c.38-.22.61-.78.61-1.54,0-1.89-1.38-4.3-3.03-5.24-.41-.24-.8-.37-1.13-.37Z"/>
            </g>
            <g>
              <path class="cls-7" d="m361.92,207.64c0-1.86,1.22-3.72,3.68-5.14,4.9-2.83,12.85-2.83,17.77.01,2.45,1.41,3.68,3.27,3.68,5.13h0v13.51h0c0,1.86-1.22,3.72-3.68,5.13-4.9,2.83-12.86,2.83-17.77,0-2.46-1.42-3.69-3.28-3.69-5.14v-13.49Z"/>
              <path class="cls-2" d="m365.6,211.92c4.91,2.84,12.86,2.84,17.77,0,2.46-1.42,3.68-3.28,3.68-5.13h0v13.51h0c0,1.86-1.22,3.72-3.68,5.13-4.9,2.83-12.86,2.83-17.77,0-2.46-1.42-3.69-3.28-3.69-5.14v-13.49c0,1.85,1.23,3.71,3.69,5.12Z"/>
              <path class="cls-6" d="m374.49,229.17c-3.36,0-6.72-.74-9.28-2.22-2.63-1.52-4.08-3.59-4.08-5.82v-13.49c0-2.23,1.44-4.3,4.08-5.82,5.11-2.95,13.44-2.95,18.55.01,2.6,1.49,4.04,3.52,4.07,5.73,0,.03,0,.05,0,.08v13.51c0,2.24-1.45,4.3-4.07,5.81-2.56,1.48-5.91,2.21-9.27,2.21Zm-.03-28.02c-3.07,0-6.14.67-8.47,2.02-2.12,1.23-3.29,2.81-3.29,4.46h0v13.49c0,1.64,1.17,3.23,3.29,4.46,4.68,2.7,12.3,2.7,16.98,0,2.12-1.22,3.29-2.8,3.29-4.45v-13.44s0-.05,0-.07c0-1.65-1.17-3.23-3.29-4.45-2.35-1.36-5.43-2.04-8.51-2.04Z"/>
            </g>
            <g>
              <path class="cls-9" d="m369.64,144.74c0-.72.47-1.43,1.42-1.98,1.89-1.09,4.95-1.09,6.85,0,.94.54,1.41,1.26,1.41,1.97h0v62.01h0c0,.71-.47,1.43-1.41,1.98-1.89,1.09-4.96,1.09-6.85,0-.94-.55-1.42-1.26-1.42-1.98v-62.01Z"/>
              <path class="cls-10" d="m374.48,147.53c1.24,0,2.48-.27,3.43-.82.95-.54,1.42-1.26,1.41-1.98h0v62.01c0,.71-.47,1.43-1.41,1.98-.95.55-2.19.82-3.43.82v-62.01Z"/>
              <path class="cls-6" d="m374.49,210.33c-1.38,0-2.75-.31-3.82-.93-1.17-.68-1.81-1.63-1.81-2.66v-62c0-1.04.64-1.99,1.81-2.66,2.14-1.23,5.49-1.23,7.63,0,1.16.67,1.81,1.61,1.81,2.65v62.01c0,1.02-.65,1.99-1.81,2.66-1.07.62-2.44.93-3.81.93Zm0-67.6c-1.1,0-2.2.24-3.02.71-.65.38-1.03.85-1.03,1.3v62c0,.44.37.92,1.03,1.3,1.64.95,4.41.95,6.06,0,.65-.38,1.02-.84,1.02-1.29v-62.02c0-.45-.37-.92-1.02-1.29-.83-.48-1.94-.71-3.04-.71Z"/>
            </g>
            <g>
              <g>
                <path class="cls-10" d="m344.77,177.54h0c-3.3,1.89-7.84,1.61-12.86-1.29-10.05-5.8-18.2-19.9-18.2-31.49,0-5.8,2.04-9.88,5.34-11.77h0l64.23-37.08h0c3.29-1.89,7.84-1.61,12.86,1.29,10.05,5.81,18.2,19.9,18.19,31.49,0,5.8-2.04,9.87-5.34,11.77h0l-64.23,37.08Z"/>
                <path class="cls-1" d="m344.77,177.54h0c-3.3,1.89-7.84,1.61-12.86-1.29-10.05-5.8-18.2-19.9-18.2-31.49,0-5.8,2.04-9.88,5.34-11.77h0l64.23-37.08h0c3.29-1.89,7.84-1.61,12.86,1.29,10.05,5.81,18.2,19.9,18.19,31.49,0,5.8-2.04,9.87-5.34,11.77h0l-64.23,37.08Z"/>
                <path class="cls-6" d="m340.05,179.53c-2.64,0-5.54-.87-8.53-2.6-10.25-5.91-18.59-20.34-18.6-32.17,0-5.9,2.04-10.33,5.74-12.45l64.23-37.08s.03-.02.05-.02c3.69-2.09,8.51-1.62,13.6,1.31,10.25,5.93,18.59,20.36,18.59,32.17,0,5.91-2.03,10.33-5.73,12.45l-64.18,37.06s-.03.02-.04.03c-1.53.88-3.25,1.31-5.11,1.31Zm43.57-82.92l-64.18,37.05c-3.19,1.84-4.95,5.77-4.95,11.09,0,11.32,7.99,25.14,17.81,30.81,4.58,2.64,8.85,3.11,12.03,1.31.01,0,.03-.01.04-.02l64.23-37.08c3.19-1.83,4.95-5.77,4.94-11.09,0-11.32-7.98-25.14-17.8-30.81-4.6-2.66-8.89-3.11-12.08-1.28-.01,0-.03.01-.04.02Z"/>
                <g>
                  <path class="cls-10" d="m350.11,165.77c0-11.59-8.15-25.69-18.2-31.5-10.05-5.8-18.2-1.11-18.2,10.48,0,11.59,8.15,25.69,18.2,31.49,10.05,5.81,18.2,1.11,18.2-10.48Z"/>
                  <path class="cls-6" d="m340.05,179.53c-2.63,0-5.54-.87-8.53-2.6-10.25-5.91-18.59-20.34-18.59-32.17,0-5.89,2.03-10.31,5.72-12.44,3.69-2.13,8.55-1.68,13.66,1.28,10.25,5.92,18.59,20.35,18.59,32.18h0c0,5.89-2.03,10.31-5.72,12.44-1.53.88-3.26,1.32-5.13,1.32Zm-16.27-46.96c-1.6,0-3.07.37-4.35,1.11-3.18,1.84-4.93,5.77-4.93,11.08,0,11.32,7.99,25.14,17.81,30.81,4.61,2.66,8.91,3.12,12.09,1.28,3.18-1.83,4.93-5.77,4.93-11.07,0-11.33-7.99-25.15-17.81-30.81-2.75-1.58-5.38-2.39-7.74-2.39Z"/>
                </g>
                <path class="cls-9" d="m339.46,176.34c-2.82,1.62-6.71,1.38-11.01-1.1-8.6-4.97-15.58-17.04-15.58-26.97,0-4.97,1.75-8.45,4.57-10.07l-.11-.19,3.47-2,.1.18c2.82-1.62,6.71-1.38,11.01,1.1,8.61,4.97,15.59,17.04,15.59,26.97,0,4.96-1.75,8.45-4.57,10.07h0l-3.46,2h0Z"/>
                <path class="cls-10" d="m331.91,137.29c-4.3-2.48-8.19-2.72-11.01-1.1l-3.4,1.97c2.81-1.58,6.68-1.34,10.95,1.13,8.61,4.97,15.58,17.04,15.58,26.97,0,4.97-1.75,8.45-4.57,10.07h0l3.46-2c2.82-1.62,4.57-5.11,4.57-10.07,0-9.92-6.97-21.99-15.59-26.97Z"/>
                <path class="cls-6" d="m335.41,178.16c-2.28,0-4.78-.75-7.36-2.24-8.81-5.09-15.98-17.49-15.98-27.65,0-4.84,1.6-8.53,4.49-10.45.05-.2.18-.37.37-.48l3.47-2c.18-.1.39-.13.59-.08,3.13-1.53,7.12-1.06,11.31,1.36,8.81,5.09,15.98,17.49,15.98,27.65,0,5.1-1.76,8.92-4.97,10.76l-3.46,2s-.05.03-.08.04c-1.31.73-2.78,1.1-4.36,1.1Zm-17.23-39.73c-.06.19-.19.36-.36.45-2.69,1.54-4.17,4.87-4.18,9.39,0,9.66,6.81,21.45,15.19,26.29,3.91,2.25,7.54,2.64,10.23,1.1.02-.01.05-.02.07-.04l3.39-1.96c2.7-1.55,4.18-4.88,4.18-9.39,0-9.66-6.81-21.45-15.19-26.29-3.9-2.25-7.53-2.65-10.23-1.1-.17.1-.37.13-.56.09l-2.54,1.47Z"/>
                <path class="cls-8" d="m341.01,164.53c0-8.01-5.63-17.75-12.57-21.76-6.94-4.01-12.57-.77-12.58,7.24,0,8.01,5.63,17.75,12.58,21.75,6.94,4.02,12.58.77,12.57-7.24Z"/>
                <path class="cls-7" d="m337.71,162.62c0-5.91-4.15-13.08-9.27-16.04-5.12-2.96-9.27-.57-9.27,5.34,0,5.9,4.15,13.09,9.27,16.04,5.12,2.96,9.27.57,9.27-5.34Z"/>
                <path class="cls-3" d="m335.89,161.57c0-4.75-3.33-10.51-7.45-12.89-4.11-2.37-7.44-.46-7.44,4.29,0,4.75,3.33,10.51,7.44,12.88,4.11,2.38,7.44.46,7.45-4.28Z"/>
                <path class="cls-9" d="m328.82,152.02c0-1.05-.74-2.33-1.64-2.85-.92-.53-1.66-.1-1.66.95,0,1.05.74,2.32,1.65,2.85.92.53,1.65.1,1.65-.95Z"/>
                <path class="cls-1" d="m317.6,149.01c0,8.01,5.63,17.75,12.58,21.76,3.03,1.75,5.81,2.12,7.98,1.31-2.31,1.91-5.8,1.95-9.72-.31-6.94-4-12.58-13.75-12.58-21.75,0-4.51,1.78-7.51,4.59-8.55-1.78,1.48-2.85,4.06-2.85,7.55Z"/>
              </g>
              <g>
                <path class="cls-12" d="m347.64,163.03c-.09.06-.2.1-.33.08-.1-.01-.2-.05-.3-.11-.35-.21-.68-.64-.81-1.13-3.17-11.61-11.36-22.92-20.4-28.13-2.61-1.5-5.13-2.4-7.49-2.76l-13.08,7.55s-.02.01-.04.02l-.05.03v-.02c-.24.1-.56,0-.86-.31-.45-.45-.68-1.16-.51-1.58,1.22-3.08,3.16-5.3,5.58-6.63h-.01s72.25-41.73,72.25-41.73v.02c4.33-2.39,10.21-1.93,16.46,1.68,9.76,5.64,18.61,17.84,22.03,30.38.13.48.01.85-.26.95h0s-72.18,41.68-72.18,41.68h0Z"/>
                <path class="cls-7" d="m347.64,163.03c-.09.06-.2.1-.33.08-.1-.01-.2-.05-.3-.11-.35-.21-.68-.64-.81-1.13-3.17-11.61-11.36-22.92-20.4-28.13-2.61-1.5-5.13-2.4-7.49-2.76l-13.08,7.55s-.02.01-.04.02l-.05.03v-.02c-.24.1-.56,0-.86-.31-.45-.45-.68-1.16-.51-1.58,1.22-3.08,3.16-5.3,5.58-6.63h-.01s72.25-41.73,72.25-41.73v.02c4.33-2.39,10.21-1.93,16.46,1.68,9.76,5.64,18.61,17.84,22.03,30.38.13.48.01.85-.26.95h0s-72.18,41.68-72.18,41.68h0Z"/>
                <path class="cls-5" d="m347,163c-.35-.21-.68-.64-.81-1.13-3.17-11.61-11.36-22.92-20.4-28.13-9.04-5.22-17.23-3.38-20.4,4.58-.17.42-.66.4-1.11-.06-.45-.45-.68-1.16-.51-1.58,3.42-8.59,12.27-10.57,22.02-4.94,9.75,5.63,18.59,17.83,22.02,30.37.17.61-.06,1.06-.51.99-.1-.01-.2-.05-.3-.11Z"/>
                <path class="cls-2" d="m347.64,163.03c-.09.06-.2.1-.33.08-.1-.01-.2-.05-.3-.11-.35-.21-.68-.64-.81-1.13-1.12-4.1-2.87-8.16-5.06-11.93l73.48-42.43c2.36,4.07,4.26,8.45,5.47,12.88.13.48.01.85-.26.95h0s-72.18,41.68-72.18,41.68h0Z"/>
                <path class="cls-6" d="m347.37,163.9c-.07,0-.13,0-.19-.01-.18-.02-.38-.09-.57-.2-.54-.32-.99-.93-1.18-1.6-3.12-11.43-11.17-22.54-20.03-27.66-2.36-1.36-4.69-2.24-6.95-2.62l-12.84,7.41s-.04.02-.06.03c-.07.04-.15.07-.23.08-.53.17-1.12-.02-1.61-.52-.58-.58-1.01-1.63-.67-2.43,1.24-3.12,3.19-5.46,5.77-6.93.04-.03.08-.06.12-.09l72.25-41.72c.06-.03.11-.06.17-.07,4.69-2.51,10.75-1.89,17.08,1.77,9.93,5.73,18.92,18.13,22.4,30.85.25.91-.09,1.55-.57,1.82-.01.01-.03.02-.05.03l-72.18,41.67s-.06.03-.09.05c-.21.11-.41.14-.57.14Zm-29.07-33.7s.08,0,.12,0c2.53.38,5.15,1.34,7.77,2.85,9.2,5.31,17.54,16.8,20.76,28.6.08.27.26.51.41.63l71.99-41.56s0-.07-.03-.13c-3.37-12.35-12.08-24.37-21.66-29.9-5.9-3.4-11.47-4-15.68-1.67-.04.02-.09.05-.13.06l-71.97,41.55s-.09.07-.14.1c-2.34,1.29-4.09,3.39-5.23,6.23-.02.1.06.47.33.74.04.04.08.07.1.09l12.97-7.49c.12-.07.26-.1.39-.1Z"/>
              </g>
            </g>
          </g>
          <g>
            <path class="cls-9" d="m407.59,246.65c2.72-2.72,7.12-2.72,9.84,0,2.72,2.72,2.72,7.12,0,9.83-2.72,2.72-7.12,2.72-9.84,0-2.72-2.71-2.72-7.12,0-9.83Z"/>
            <path class="cls-10" d="m415.14,254.19c2.32-2.32,2.64-5.86.99-8.54.46.28.9.6,1.29,1,2.72,2.72,2.72,7.12,0,9.83-2.72,2.72-7.12,2.72-9.84,0-.4-.39-.72-.83-1-1.29,2.68,1.65,6.23,1.33,8.55-1Z"/>
            <path class="cls-6" d="m412.51,259.3c-2.07,0-4.01-.8-5.48-2.27-3.01-3.02-3.01-7.92,0-10.94h0c1.46-1.46,3.41-2.27,5.48-2.27h0c2.07,0,4.01.81,5.47,2.27,1.46,1.46,2.27,3.4,2.27,5.47s-.81,4.01-2.27,5.47c-1.46,1.46-3.4,2.27-5.47,2.27Zm0-13.91c-1.65,0-3.2.64-4.36,1.81h0c-2.4,2.4-2.4,6.32,0,8.72,1.17,1.17,2.72,1.81,4.36,1.81s3.2-.64,4.36-1.81c1.17-1.16,1.81-2.71,1.81-4.36s-.64-3.19-1.81-4.36c-1.16-1.17-2.71-1.81-4.36-1.81h0Zm-4.92,1.25h0,0Z"/>
          </g>
          <g>
            <path class="cls-9" d="m42.49,63.82c2.71-2.72,7.12-2.71,9.83,0,2.72,2.72,2.72,7.12,0,9.83-2.72,2.72-7.12,2.72-9.83,0-2.72-2.72-2.72-7.11,0-9.83Z"/>
            <path class="cls-10" d="m50.03,71.36c2.32-2.32,2.64-5.86.99-8.54.46.28.9.6,1.3,1,2.72,2.72,2.72,7.12,0,9.83-2.72,2.72-7.12,2.72-9.83,0-.39-.39-.72-.83-1-1.29,2.68,1.65,6.22,1.33,8.55-1Z"/>
            <path class="cls-6" d="m47.4,76.47c-2.07,0-4.01-.8-5.48-2.27-3.02-3.01-3.02-7.92,0-10.94h0c1.46-1.46,3.41-2.27,5.47-2.27h0c2.07,0,4.01.81,5.47,2.27,1.46,1.46,2.27,3.41,2.27,5.47s-.8,4.01-2.27,5.47c-1.46,1.46-3.4,2.27-5.47,2.27h0Zm-4.36-12.1c-2.4,2.41-2.4,6.32,0,8.72,1.16,1.17,2.71,1.81,4.36,1.81h0c1.65,0,3.2-.64,4.36-1.81,1.17-1.16,1.81-2.71,1.81-4.36s-.64-3.19-1.81-4.36c-1.16-1.16-2.71-1.81-4.36-1.81h0c-1.65,0-3.2.64-4.36,1.81h0Z"/>
          </g>
          <g>
            <g>
              <path class="cls-9" d="m311.23,78.99c0,2.46-1.73,3.47-3.88,2.23l-44.29-25.57c-2.14-1.23-3.87-4.23-3.87-6.7v-19.17c0-2.47,1.73-3.47,3.87-2.23l44.3,25.58c2.14,1.24,3.87,4.23,3.87,6.7v19.17Z"/>
              <path class="cls-6" d="m309.08,82.54c-.67,0-1.39-.21-2.13-.64l-44.29-25.57c-2.39-1.38-4.26-4.62-4.26-7.38v-19.17c0-1.48.54-2.61,1.53-3.18.98-.57,2.24-.47,3.52.27l44.3,25.58c2.39,1.38,4.26,4.62,4.26,7.38v19.17h0c0,1.49-.54,2.62-1.53,3.18-.42.24-.89.37-1.4.37Zm-47.75-54.74c-.23,0-.44.05-.62.15-.47.27-.74.94-.74,1.82v19.17c0,2.18,1.59,4.93,3.48,6.02l44.29,25.57c.77.44,1.48.54,1.95.27.47-.27.74-.94.74-1.82v-19.17c0-2.17-1.59-4.93-3.48-6.02l-44.3-25.58c-.48-.28-.94-.42-1.33-.42Z"/>
            </g>
            <g>
              <path class="cls-10" d="m267.39,41.93c-.07.06-.15.1-.21.17.29-.36.69-.55,1.18-.57-.24,0-.46.06-.66.16.2-.1.42-.15.66-.16h0c.43-.02.91.11,1.43.41l30.82,17.79c1.69.98,3.07,3.36,3.07,5.32,0,.6-.14,1.07-.36,1.43-.52.84-1.53,1.03-2.72.34l-30.82-17.79c-1.71-.99-3.08-3.37-3.08-5.33,0-.83.27-1.41.68-1.77Z"/>
              <path class="cls-6" d="m301.98,68.03c-.55,0-1.16-.17-1.77-.52l-30.82-17.8c-1.95-1.13-3.48-3.77-3.48-6.01,0-.85.24-1.45.52-1.87.03-.08.07-.15.12-.21.26-.32.59-.56.97-.71.25-.1.52-.15.8-.16.62-.02,1.23.15,1.85.51l30.82,17.8c1.94,1.12,3.47,3.75,3.47,6,0,.7-.16,1.32-.48,1.84-.46.75-1.18,1.14-2.01,1.14Zm-33.96-25.62s-.07.08-.11.12c-.34.29-.41.8-.41,1.17,0,1.68,1.23,3.81,2.69,4.65l30.82,17.79c.44.25,1.24.58,1.65-.08.16-.27.25-.61.25-1.02,0-1.68-1.23-3.8-2.68-4.64l-30.82-17.8c-.36-.21-.7-.31-1.01-.3h-.02s-.08,0-.11.01c-.06,0-.11.02-.16.04-.02,0-.03.01-.05.02,0,0-.02,0-.03.01Z"/>
            </g>
            <path class="cls-7" d="m286.83,54.59s-.01,0-.02.01c.03-.02.05-.05.07-.06l2.58-1.49h0c.84-.48,2-.41,3.28.33,2.56,1.49,4.64,5.08,4.64,8.04,0,1.48-.52,2.51-1.36,3l-2.56,1.48c-.84.49-2.01.43-3.3-.31-2.57-1.48-4.64-5.08-4.64-8.04,0-1.44.5-2.45,1.31-2.95Z"/>
            <path class="cls-2" d="m286.32,55.01c.83-.94,2.25-1.06,3.85-.13,2.56,1.48,4.64,5.08,4.64,8.04,0,1.48-.52,2.52-1.36,3h0l2.59-1.49c.84-.48,1.36-1.52,1.36-3,0-2.96-2.08-6.55-4.64-8.04-1.28-.74-2.44-.8-3.28-.33h0l-2.58,1.49c-.21.12-.4.28-.57.47Z"/>
            <path class="cls-6" d="m292.24,67.01c-.77,0-1.61-.25-2.46-.74-2.82-1.63-5.04-5.46-5.04-8.72,0-1.62.57-2.89,1.6-3.57.05-.04.12-.09.16-.12l2.58-1.48s.04-.02.06-.03c1.12-.61,2.54-.48,4,.36,2.82,1.64,5.03,5.47,5.03,8.72,0,1.72-.62,3.03-1.75,3.68l-2.56,1.48c-.49.29-1.04.43-1.62.43Zm-5-11.74h0c-.6.37-.93,1.18-.93,2.28,0,2.65,1.95,6.02,4.25,7.35.99.57,1.88.69,2.51.32l2.57-1.48c.61-.35.96-1.2.96-2.31,0-2.66-1.95-6.03-4.25-7.36-.97-.56-1.88-.68-2.49-.33-.02.01-.04.02-.05.03l-2.47,1.43s-.05.04-.07.05l-.28-.39.25.41s0,0,0,0Zm-.47-.76l-.25-.63.25.63Z"/>
          </g>
        </g>
      </g>
    </g>
  </g>
</svg>