<?xml version="1.0" encoding="UTF-8"?>
<svg xmlns="http://www.w3.org/2000/svg" viewBox="0 0 479.33 438.82">
  <defs>
    <style>
      .cls-1, .cls-2, .cls-3, .cls-4 {
        mix-blend-mode: overlay;
      }

      .cls-1, .cls-5 {
        opacity: .5;
      }

      .cls-2 {
        opacity: .3;
      }

      .cls-3 {
        opacity: .2;
      }

      .cls-6 {
        fill: #005b88;
      }

      .cls-7, .cls-8, .cls-9 {
        fill: #0094a4;
      }

      .cls-10 {
        fill: #fff;
      }

      .cls-11 {
        fill: #cee7fd;
      }

      .cls-8, .cls-12, .cls-13 {
        isolation: isolate;
      }

      .cls-8, .cls-13 {
        opacity: .43;
      }

      .cls-4 {
        opacity: .1;
      }

      .cls-9 {
        opacity: .4;
      }
    </style>
  </defs>
  <g class="cls-12">
    <g id="Layer_2" data-name="Layer 2">
      <g id="Layer_1-2" data-name="Layer 1">
        <g>
          <g>
            <polygon class="cls-10" points="58.55 279.87 79.57 292 79.57 304.88 60.57 315.86 39.54 303.72 39.54 290.84 58.55 279.87"/>
            <g class="cls-5">
              <polygon class="cls-11" points="60.57 315.86 39.54 303.72 39.54 290.84 60.57 302.98 60.57 315.86"/>
            </g>
            <polygon class="cls-11" points="79.57 304.88 60.57 315.86 60.57 302.98 79.57 292 79.57 304.88"/>
            <path class="cls-6" d="m60.57,316.82c-.17,0-.33-.04-.48-.13l-21.02-12.14c-.3-.17-.48-.49-.48-.83v-12.88c0-.34.18-.66.48-.83l19.01-10.97c.3-.17.66-.17.96,0l21.02,12.14c.3.17.48.49.48.83v12.88c0,.34-.18.66-.48.83l-19.01,10.98c-.15.09-.31.13-.48.13Zm-20.06-13.66l20.06,11.59,18.05-10.42v-11.77l-20.06-11.58-18.05,10.42v11.77Z"/>
          </g>
          <g>
            <path class="cls-10" d="m297.49,398.12c3.31-3.32,8.69-3.32,12.01,0,3.31,3.32,3.31,8.69,0,12-3.31,3.32-8.69,3.32-12.01,0-3.31-3.31-3.31-8.69,0-12Z"/>
            <path class="cls-11" d="m306.71,407.33c2.84-2.83,3.23-7.16,1.21-10.43.56.34,1.1.73,1.58,1.22,3.31,3.32,3.31,8.69,0,12-3.31,3.32-8.69,3.32-12.01,0-.48-.48-.87-1.02-1.22-1.58,3.27,2.01,7.6,1.62,10.43-1.21Z"/>
            <path class="cls-6" d="m303.49,413.57c-2.53,0-4.9-.98-6.68-2.77-3.68-3.68-3.68-9.68,0-13.36h0c1.78-1.79,4.16-2.77,6.68-2.77h0c2.53,0,4.9.98,6.68,2.77,3.68,3.68,3.68,9.68,0,13.36-1.78,1.79-4.16,2.77-6.68,2.77Zm0-16.98h0c-2.01,0-3.9.78-5.32,2.21h0c-2.94,2.94-2.94,7.71,0,10.65,1.42,1.42,3.31,2.21,5.33,2.21s3.9-.78,5.33-2.21c2.94-2.94,2.94-7.71,0-10.65-1.42-1.42-3.32-2.21-5.33-2.21Zm-6,1.53h0,0Z"/>
          </g>
          <g>
            <path class="cls-9" d="m475.88,312.61l-177.89-102.7c-4.59-2.65-4.59-6.94,0-9.59l2.95-1.71c4.59-2.64,4.58-6.94,0-9.59l-78.15-45.11c-4.59-2.65-12.03-2.65-16.62,0l-2.96,1.72c-4.59,2.64-12.02,2.64-16.62-.01h0c-4.59-2.65-12.03-2.65-16.61,0l-11.27,6.51-95.54,54.95c-4.59,2.65-4.58,6.94.01,9.59l289.27,167.01c4.6,2.65,12.03,2.65,16.62,0l95.54-54.96,11.27-6.5c4.58-2.65,4.57-6.94-.02-9.59Z"/>
            <path class="cls-10" d="m56.96,27.58v179.17c0,5.3,3.72,11.74,8.31,14.38l289.27,167.01c2.3,1.32,4.38,1.45,5.88.58l13.27-7.66h0c1.52-.87,2.46-2.73,2.46-5.4v-179.17s-13.3,7.67-13.3,7.67L56.96,27.58Z"/>
            <path class="cls-7" d="m129.63,108.34c-2.69-2.12-5.16-5.41-6.64-9.22-1.47-3.81-1.64-7.31-.72-9.76-.76-1.12-1.54-2.23-2.4-3.3-.86-1.07-1.75-2.04-2.64-2.97-1.77,1.39-4.4,1.39-7.34-.3-2.95-1.71-5.59-4.76-7.36-8.19-1.8-.21-3.49-.07-5.03.45.64,2.46.74,4.81.24,6.72-.21.82-.52,1.57-.97,2.2-1.47,2.1-3.94,2.55-6.63,1.57-.28,2.08-.28,4.34,0,6.73,2.69,2.12,5.16,5.41,6.63,9.22,1.47,3.8,1.64,7.3.73,9.75.75,1.12,1.55,2.24,2.41,3.3.85,1.07,1.74,2.04,2.64,2.97,1.77-1.38,4.41-1.39,7.35.31,2.94,1.71,5.58,4.75,7.35,8.19,1.8.21,3.5.07,5.04-.45-.92-3.51-.75-6.82.72-8.92,1.48-2.11,3.94-2.55,6.64-1.56.28-2.08.28-4.36,0-6.73Zm-10.43.18s-.02,0-.03-.01c-.21.81-.49,1.58-.93,2.2-2.67,3.8-8.57,2.22-13.19-3.53-4.62-5.74-6.2-13.48-3.53-17.28,1.35-1.92,3.52-2.45,5.93-1.78,0,0,0,0,0-.01.03,0,.06.02.08.03.29.08.58.2.88.32.15.06.29.1.44.17.09.04.19.1.28.14.13.06.25.14.38.2.23.12.45.22.67.36-.21-.13-.42-.22-.63-.33,1.75.94,3.53,2.41,5.16,4.44,2.47,3.07,4.05,6.71,4.6,10.01.08.49.14.96.17,1.43,0,.13.02.26.02.39,0,.13,0,.26,0,.39,0,.31,0,.61-.02.91,0,.17-.02.33-.03.5-.01.09,0,.18-.02.27-.02.12-.05.23-.07.34-.04.29-.09.57-.16.84Z"/>
            <path class="cls-8" d="m132.15,256.27v-62.54h0c0-3.19-2.24-7.04-4.99-8.63l-70.2-40.53v62.19c0,5.3,3.72,11.74,8.32,14.38l65.84,38.01c.65-.6,1.04-1.56,1.04-2.88Z"/>
            <g class="cls-13">
              <path class="cls-7" d="m355.01,227.23v30.78c0,3.18-2.23,4.46-4.99,2.87l-26.68-15.41c-1.96-1.13-3.64-3.42-4.45-5.78-1.08-.84-2.07-1.9-2.93-3.09-.3-.4-.64-.77-1.04-.99-1.09-.63-1.98-.12-1.98,1.14v6.67c0,3.18-2.23,4.46-4.99,2.87l-26.69-15.41c-2.76-1.59-4.99-5.46-4.99-8.63v-30.78c0-3.18,2.23-4.47,4.99-2.88l5.78,3.34c1.1.63,1.98,2.17,1.98,3.43,0,.45-.14.76-.34.99-.82.88-1.31,2.24-1.31,4.01,0,4.61,3.24,10.22,7.23,12.52,4,2.31,7.23.44,7.24-4.17,0-1.78-.49-3.7-1.32-5.53-.2-.46-.34-.94-.34-1.39,0-1.26.89-1.77,1.98-1.14l5.79,3.34c2.76,1.59,4.99,5.46,4.99,8.64v6.67c0,1.26.89,2.8,1.98,3.43.39.23.73.26,1.03.21,1.17-.27,2.6-.02,4.14.88,3.51,2.03,6.43,6.61,7.09,10.81,3.18.96,5.55-.95,5.55-4.89,0-4.61-3.24-10.21-7.23-12.52-1.54-.89-2.97-1.15-4.14-.87-.3.05-.64.02-1.03-.21-1.1-.63-1.98-2.16-1.98-3.42v-6.68c0-3.17,2.24-4.46,4.99-2.87l5.79,3.34c1.09.63,1.98.12,1.98-1.14,0-.45-.14-.92-.34-1.39-.82-1.83-1.31-3.76-1.31-5.54,0-4.6,3.24-6.47,7.23-4.16,3.99,2.31,7.23,7.91,7.23,12.52,0,1.78-.49,3.14-1.32,4.02-.19.23-.34.54-.34.99,0,1.26.89,2.79,1.98,3.43l5.78,3.34c2.76,1.59,4.99,5.46,4.99,8.64Zm-13.69,73.26l-54.09-31.23c-2.61-1.5-4.72-.28-4.72,2.73v23.41c0,3.01,2.11,6.67,4.72,8.18l54.08,31.23c2.61,1.51,4.73.29,4.73-2.73v-23.41c0-3.01-2.12-6.67-4.73-8.18Zm-101.74-141.76l-74.1-42.79c-5.66-3.27-10.25-.62-10.25,5.89v63.18c0,6.53,4.59,14.46,10.24,17.73l74.11,42.79c5.65,3.26,10.24.62,10.24-5.9v-63.17c0-6.54-4.59-14.47-10.24-17.73Z"/>
            </g>
            <path class="cls-11" d="m362.86,204.18v179.17c0,2.65-.93,4.51-2.43,5.38h0l13.27-7.66h0c1.52-.87,2.46-2.73,2.46-5.4v-179.17s-13.3,7.67-13.3,7.67Z"/>
            <path class="cls-6" d="m358.26,390.25c-1.31,0-2.73-.42-4.2-1.27L64.79,221.97c-4.93-2.84-8.79-9.52-8.8-15.21V27.58c0-.34.19-.66.48-.83.3-.17.66-.17.96,0l305.42,176.33,12.82-7.4c.3-.17.66-.17.96,0,.3.17.48.49.48.83v179.17c0,2.89-1.02,5.08-2.87,6.17-.03.02-.05.04-.08.05l-13.27,7.66c-.79.46-1.69.69-2.65.69ZM57.92,29.24v177.51c0,4.99,3.51,11.07,7.83,13.55l289.27,167.02c1.91,1.1,3.66,1.31,4.92.58l13.19-7.61s.06-.04.09-.06c1.27-.72,1.98-2.34,1.98-4.56v-177.5s-11.86,6.84-11.86,6.84c-.3.17-.66.17-.96,0L57.92,29.24Z"/>
            <path class="cls-7" d="m59.47,9.16c-.05.03-.11.06-.15.09l-.15.09.02.02c-1.38.91-2.23,2.69-2.23,5.2v13.02l305.9,176.6,13.3-7.67v-13.01c0-5.29-3.72-11.73-8.32-14.38L78.57,2.09c-2.34-1.35-4.44-1.44-5.95-.52l-13.15,7.59Z"/>
            <path class="cls-2" d="m376.16,196.51v-13.01c0-5.29-3.72-11.73-8.32-14.38L78.57,2.09c-2.34-1.35-4.44-1.44-5.95-.52l-13.06,7.54c1.49-.76,3.49-.61,5.71.66l289.27,167.02c4.6,2.65,8.31,9.09,8.32,14.38v13.01l13.3-7.67Z"/>
            <path class="cls-6" d="m362.86,205.14c-.17,0-.33-.04-.48-.13L56.48,28.41c-.3-.17-.48-.49-.48-.83v-13.02c0-2.63.87-4.7,2.47-5.87.06-.07.14-.13.22-.18l.15-.09s.1-.06.16-.09l13.15-7.59c1.88-1.14,4.34-.96,6.91.52l289.28,167.02c4.93,2.84,8.79,9.52,8.79,15.21v13.01c0,.34-.18.66-.48.83l-13.3,7.67c-.15.09-.31.13-.48.13ZM57.92,27.03l304.94,176.05,12.34-7.12v-12.46c0-4.98-3.52-11.06-7.84-13.55L78.09,2.93c-1.94-1.11-3.7-1.31-4.97-.53l-13.16,7.6s0,0,0,0l-.1.06s-.08.08-.13.11c-1.16.77-1.8,2.34-1.8,4.41v12.46Z"/>
            <path class="cls-10" d="m224.99,113.3c0,3.11-2.18,4.36-4.88,2.81L74.43,31.99c-2.7-1.56-4.88-5.34-4.88-8.44h0c0-3.12,2.19-4.37,4.88-2.81l145.68,84.11c2.7,1.56,4.88,5.33,4.88,8.44h0Zm105.69,59.15c-.89-.51-1.62-.09-1.61.93,0,1.03.72,2.28,1.62,2.8.89.52,1.62.1,1.62-.93,0-1.02-.73-2.28-1.62-2.79Zm10.6,7.98c0,1.03-.73,1.45-1.62.93-.9-.51-1.62-1.77-1.62-2.8,0-1.03.72-1.44,1.62-.93.89.52,1.62,1.76,1.62,2.79Zm8.98,5.19c0,1.03-.72,1.44-1.62.93-.9-.51-1.61-1.76-1.62-2.8,0-1.03.73-1.44,1.62-.93.89.52,1.62,1.77,1.62,2.8Z"/>
          </g>
          <g>
            <path class="cls-10" d="m109.97,133.09c-.64-2.45-.74-4.8-.24-6.71.23.06.47.13.71.21l6.9-3.98c.28-2.09.28-4.36,0-6.74-2.7-2.12-5.16-5.41-6.63-9.22-1.47-3.8-1.65-7.3-.73-9.75-.76-1.12-1.55-2.23-2.41-3.3-.86-1.07-1.74-2.04-2.64-2.97-1.77,1.38-4.4,1.39-7.35-.3-2.95-1.71-5.58-4.76-7.36-8.2-1.79-.21-3.49-.06-5.04.45l-6.9,3.98c.64,2.46.74,4.81.24,6.72-.24-.06-.47-.12-.7-.21l-6.9,3.98c-.28,2.08-.28,4.34,0,6.73,2.69,2.12,5.16,5.41,6.63,9.22,1.47,3.8,1.64,7.3.73,9.75.75,1.12,1.54,2.23,2.41,3.3.86,1.07,1.74,2.04,2.64,2.97,1.77-1.38,4.41-1.39,7.35.31,2.94,1.71,5.58,4.75,7.35,8.19,1.8.21,3.5.07,5.04-.45l6.9-3.98Zm-14.47-28.15c3.85,4.8,5.58,10.97,4.5,15.09-2.37-.65-4.97-2.48-7.26-5.32-3.85-4.8-5.58-10.97-4.5-15.09,2.37.66,4.96,2.48,7.26,5.32Z"/>
            <path class="cls-11" d="m99.03,122.23c-2.67,3.8-8.57,2.22-13.19-3.53-4.62-5.74-6.2-13.48-3.53-17.28,1.84-2.62,5.22-2.68,8.66-.57-.92-.57-1.84-.98-2.73-1.22-1.08,4.12.65,10.3,4.5,15.09,2.28,2.84,4.89,4.67,7.26,5.32.4-1.53.41-3.34.07-5.26.53,2.95.22,5.65-1.04,7.46Zm11.39-2.37c.28,2.38.29,4.65,0,6.73l6.9-3.98c.28-2.09.28-4.36,0-6.74-2.7-2.12-5.16-5.41-6.63-9.22-1.47-3.8-1.65-7.3-.73-9.75-.76-1.12-1.55-2.23-2.41-3.3-.86-1.07-1.74-2.04-2.64-2.97-1.77,1.38-4.4,1.39-7.35-.3-2.95-1.71-5.58-4.76-7.36-8.2-1.79-.21-3.49-.06-5.04.45l-6.9,3.98c1.54-.52,3.24-.66,5.03-.45,1.77,3.43,4.41,6.49,7.36,8.19,2.94,1.7,5.57,1.69,7.35.3.9.93,1.78,1.9,2.64,2.97.86,1.07,1.65,2.18,2.4,3.3-.92,2.45-.75,5.95.72,9.76,1.48,3.8,3.94,7.09,6.64,9.22Zm-.46,13.23c-.64-2.45-.74-4.8-.24-6.71.23.06.47.13.71.21-2.7-.99-5.16-.55-6.64,1.56-1.48,2.1-1.65,5.41-.72,8.92l6.9-3.98Zm-31.45-39.81c-.24-.06-.47-.12-.7-.21l-6.9,3.98c2.69.98,5.16.54,6.63-1.57.45-.63.76-1.38.97-2.2Z"/>
            <path class="cls-6" d="m99.6,138.58c-.55,0-1.11-.03-1.68-.1-.32-.04-.59-.23-.74-.51-1.76-3.4-4.3-6.25-6.98-7.8-2.48-1.43-4.77-1.57-6.28-.38-.39.3-.94.26-1.28-.09-1.03-1.06-1.91-2.05-2.7-3.04-.78-.96-1.56-2.03-2.45-3.37-.17-.26-.21-.58-.1-.87.87-2.33.61-5.64-.72-9.07-1.35-3.49-3.66-6.7-6.33-8.81-.2-.16-.33-.39-.36-.64-.29-2.46-.3-4.8,0-6.97.04-.29.21-.55.47-.7l6.9-3.98c.14-.08.29-.12.44-.13.22-1.55.08-3.37-.43-5.31-.11-.42.07-.86.45-1.07l6.9-3.98c.06-.03.11-.06.17-.08,1.67-.56,3.51-.73,5.46-.5.32.04.59.23.74.51,1.76,3.41,4.31,6.26,6.99,7.81,2.47,1.43,4.76,1.56,6.28.38.39-.3.94-.26,1.28.09,1.02,1.05,1.9,2.04,2.7,3.04.77.95,1.55,2.02,2.45,3.37.17.26.21.58.1.87-.87,2.32-.61,5.63.72,9.07,1.35,3.5,3.66,6.71,6.33,8.81.2.16.33.39.36.64.29,2.48.29,4.83,0,6.98-.04.29-.21.55-.47.7l-6.9,3.98c-.14.08-.29.12-.44.13-.22,1.55-.08,3.36.43,5.3.11.42-.07.86-.45,1.07l-6.9,3.98c-.05.03-.11.06-.17.08-1.18.4-2.45.6-3.78.6Zm-.96-1.96c1.45.12,2.81-.03,4.04-.43l6.19-3.57c-.53-2.38-.56-4.61-.07-6.48.06-.25.23-.46.45-.59.22-.13.49-.16.73-.1.12.03.23.06.34.1l6.11-3.53c.2-1.75.19-3.65-.02-5.65-2.8-2.31-5.2-5.7-6.62-9.37-1.42-3.65-1.73-7.25-.9-9.95-.76-1.12-1.43-2.03-2.09-2.84-.62-.77-1.29-1.54-2.03-2.33-2.1,1.17-4.84.92-7.69-.72-2.86-1.66-5.57-4.6-7.49-8.12-1.44-.12-2.8.03-4.03.43l-6.19,3.57c.53,2.39.56,4.62.07,6.49-.06.25-.23.46-.45.59-.22.13-.48.16-.73.1-.12-.03-.23-.06-.34-.09l-6.12,3.53c-.2,1.76-.19,3.65.02,5.63,2.8,2.32,5.2,5.71,6.62,9.37,1.41,3.65,1.73,7.24.89,9.96.75,1.11,1.43,2.02,2.09,2.84.61.76,1.28,1.53,2.03,2.33,2.09-1.17,4.84-.92,7.69.72,2.87,1.66,5.57,4.6,7.48,8.12Zm1.36-15.63c-.09,0-.17-.01-.26-.03-2.66-.73-5.41-2.74-7.75-5.64-3.93-4.9-5.86-11.45-4.68-15.94.06-.25.23-.46.45-.59.22-.13.49-.16.74-.09,2.66.74,5.41,2.74,7.75,5.64,0,0,0,0,0,0,3.93,4.89,5.86,11.44,4.68,15.94-.06.25-.23.46-.45.59-.15.09-.31.13-.48.13Zm-11.03-20.11c-.53,3.88,1.24,9.14,4.52,13.23,1.79,2.22,3.8,3.84,5.78,4.66.52-3.88-1.24-9.15-4.52-13.23-1.79-2.22-3.81-3.84-5.78-4.66Z"/>
          </g>
          <g>
            <path class="cls-7" d="m335.82,238.75v30.78c0,3.18-2.23,4.46-4.99,2.87l-26.69-15.41c-2.75-1.59-4.99-5.45-4.99-8.63v-6.67c0-1.26.89-1.77,1.98-1.14.39.23.73.59,1.03.99,1.17,1.63,2.59,3.02,4.14,3.91,4,2.31,7.23.44,7.23-4.17s-3.24-10.21-7.23-12.52c-1.55-.89-2.97-1.15-4.14-.87-.3.05-.64.01-1.03-.21-1.1-.63-1.98-2.16-1.98-3.42v-6.68c0-3.17,2.23-4.46,4.99-2.87l5.79,3.34c1.1.63,1.98.12,1.98-1.14,0-.45-.14-.92-.34-1.39-.82-1.83-1.31-3.76-1.31-5.54,0-4.6,3.24-6.47,7.23-4.16,3.99,2.31,7.23,7.91,7.23,12.52,0,1.78-.49,3.14-1.32,4.02-.2.23-.34.54-.34.99,0,1.26.89,2.79,1.98,3.43l5.78,3.34c2.76,1.59,4.99,5.46,4.99,8.63Z"/>
            <path class="cls-2" d="m300.39,251.1l-.9-.52c-.21-.75-.33-1.51-.33-2.22v-6.67c0-1.26.89-1.77,1.98-1.14.39.23.73.59,1.03.99.94,1.29,2.02,2.42,3.21,3.28v3.4c0,3.18-2.23,4.46-4.99,2.87Zm-1.23-33.52v6.68c0,1.26.89,2.79,1.98,3.42.39.22.73.26,1.03.21,1.18-.27,2.6-.02,4.14.87,3.99,2.3,7.23,7.91,7.23,12.52,0,1.7-.45,3.02-1.2,3.9.07.04.13.09.2.13,3.99,2.3,7.23.44,7.23-4.17s-3.24-10.21-7.23-12.52c-1.54-.89-2.97-1.15-4.14-.87-.31.05-.65.02-1.03-.21-1.09-.63-1.98-2.16-1.98-3.43v-6.67c0-.72-.13-1.47-.33-2.22l-.9-.52c-2.75-1.59-4.99-.3-4.99,2.87Z"/>
            <path class="cls-6" d="m333.06,274.04c-.85,0-1.77-.27-2.71-.81l-26.69-15.41c-3.07-1.77-5.47-5.93-5.47-9.46v-6.67c0-.95.39-1.72,1.06-2.11.67-.39,1.53-.34,2.36.13.47.28.9.69,1.32,1.25,1.16,1.61,2.49,2.87,3.85,3.65,1.63.94,3.1,1.12,4.16.51,1.05-.61,1.63-1.97,1.63-3.84,0-4.3-3.03-9.54-6.75-11.68-1.27-.73-2.46-1-3.45-.77-.02,0-.04,0-.07.01-.57.09-1.13-.02-1.66-.33-1.38-.79-2.46-2.66-2.46-4.26v-6.68c0-1.89.69-3.33,1.94-4.05,1.25-.72,2.85-.6,4.49.35l5.79,3.34c.27.15.42.15.44.14.02-.01.1-.14.1-.45,0-.26-.09-.59-.26-1.01-.91-2.01-1.39-4.06-1.39-5.92,0-2.58.92-4.54,2.6-5.5,1.68-.97,3.83-.79,6.08.51,4.32,2.49,7.71,8.36,7.71,13.35,0,1.96-.54,3.58-1.57,4.68-.02.03-.08.13-.08.35,0,.91.71,2.13,1.5,2.59l5.78,3.34c3.07,1.77,5.47,5.93,5.47,9.47v30.78c0,1.89-.69,3.33-1.94,4.05-.54.31-1.14.46-1.78.46Zm-32.81-32.8s-.03,0-.04,0c-.02.02-.1.14-.1.45v6.67c0,2.81,2.06,6.38,4.51,7.8l26.68,15.41c1.01.58,1.95.71,2.57.35.62-.36.98-1.23.98-2.39v-30.78c0-2.82-2.06-6.39-4.51-7.8l-5.78-3.34c-1.4-.81-2.46-2.64-2.46-4.26,0-.63.2-1.17.57-1.61.73-.78,1.09-1.94,1.09-3.4,0-4.29-3.03-9.54-6.75-11.68-1.62-.94-3.1-1.12-4.16-.51-1.05.61-1.64,1.97-1.64,3.84,0,1.58.42,3.36,1.23,5.14.29.67.43,1.25.43,1.78,0,.95-.39,1.72-1.06,2.11-.67.39-1.53.34-2.36-.14l-5.79-3.34c-1.01-.58-1.94-.71-2.57-.35-.62.36-.98,1.23-.98,2.39v6.68c0,.92.7,2.13,1.5,2.59.18.1.29.11.38.1,1.46-.32,3.12.01,4.8.99,4.32,2.49,7.71,8.35,7.71,13.35,0,2.58-.92,4.54-2.59,5.5-1.68.97-3.83.79-6.08-.51-1.59-.92-3.13-2.36-4.44-4.18-.25-.34-.51-.59-.74-.73-.2-.11-.33-.14-.4-.14Z"/>
            <g>
              <path class="cls-10" d="m293.74,254.95v-6.67c0-1.26.89-1.77,1.98-1.14.39.23.73.59,1.04.99,1.17,1.63,2.59,3.02,4.14,3.91,3.99,2.3,7.23.44,7.23-4.17s-3.24-10.21-7.23-12.51c-1.54-.89-2.97-1.15-4.14-.88-.31.05-.65.02-1.03-.21-1.1-.63-1.98-2.16-1.98-3.43v-6.67c0-3.18-2.23-7.05-4.99-8.64l-5.79-3.34c-1.09-.63-1.98-.12-1.98,1.14,0,.45.14.93.34,1.39.82,1.83,1.32,3.76,1.32,5.53,0,4.6-3.24,6.47-7.24,4.17-3.99-2.3-7.23-7.91-7.23-12.52,0-1.78.49-3.13,1.31-4.01.2-.24.34-.55.34-.99,0-1.27-.88-2.8-1.98-3.43l-5.78-3.34c-2.76-1.59-4.99-.3-4.99,2.88v30.78c0,3.18,2.23,7.04,4.99,8.63l26.69,15.41c2.76,1.59,4.99.3,4.99-2.87Z"/>
              <path class="cls-6" d="m290.99,259.47c-.85,0-1.77-.27-2.71-.81l-26.69-15.41c-3.07-1.77-5.47-5.92-5.47-9.46v-30.78c0-1.89.69-3.33,1.94-4.06,1.25-.72,2.85-.6,4.49.35l5.78,3.34c1.41.81,2.46,2.65,2.46,4.27,0,.63-.19,1.17-.57,1.62-.72.77-1.08,1.93-1.08,3.39,0,4.3,3.03,9.54,6.75,11.69,1.62.94,3.1,1.12,4.16.51,1.06-.61,1.64-1.97,1.64-3.84,0-1.56-.43-3.34-1.23-5.14-.29-.67-.43-1.25-.43-1.78,0-.95.38-1.72,1.06-2.11.68-.39,1.54-.34,2.36.14l5.79,3.34c3.07,1.77,5.47,5.93,5.47,9.47v6.66c0,.92.7,2.14,1.5,2.6.18.11.29.11.38.1,1.46-.32,3.12.02,4.8.99,4.32,2.5,7.71,8.36,7.71,13.34,0,2.58-.92,4.54-2.59,5.51-1.67.97-3.83.79-6.07-.5-1.6-.92-3.13-2.37-4.44-4.18-.26-.35-.51-.59-.74-.72-.27-.16-.42-.15-.44-.14-.02.02-.1.14-.1.45v6.67c0,1.89-.69,3.33-1.94,4.05-.54.31-1.14.46-1.78.46Zm-31.15-59.05c-.31,0-.59.07-.82.2-.62.36-.98,1.23-.98,2.39v30.78c0,2.82,2.06,6.39,4.51,7.8l26.69,15.41c1.01.58,1.95.71,2.57.35.62-.36.98-1.23.98-2.39v-6.67c0-.95.39-1.72,1.06-2.11.67-.39,1.53-.34,2.36.14.45.26.89.67,1.32,1.24,1.16,1.61,2.49,2.87,3.85,3.66,1.62.94,3.1,1.11,4.16.5,1.05-.61,1.63-1.97,1.63-3.84,0-4.29-3.03-9.53-6.75-11.68-1.27-.73-2.46-1-3.44-.77-.02,0-.04,0-.07.01-.58.09-1.14-.02-1.67-.33-1.37-.79-2.45-2.66-2.45-4.25v-6.67c0-2.82-2.06-6.39-4.51-7.81l-5.79-3.34c-.27-.15-.42-.15-.44-.14-.02.02-.1.14-.1.45,0,.27.09.61.26,1.01.91,2.03,1.39,4.08,1.39,5.91,0,2.58-.93,4.54-2.6,5.5-1.68.97-3.83.79-6.08-.51-4.32-2.49-7.71-8.36-7.71-13.35,0-1.95.54-3.56,1.57-4.67.03-.04.08-.13.08-.34,0-.93-.7-2.14-1.5-2.6l-5.78-3.34c-.63-.36-1.23-.55-1.75-.55Z"/>
            </g>
          </g>
          <g>
            <path class="cls-11" d="m110.92,362.78c.13-.27.5-.49.97-.56.47-.08.98,0,1.32.2l17.77,10.26,11.34-1.76,3.05-6.55-17.77-10.26c-.35-.2-.48-.49-.35-.76.13-.27.49-.48.97-.56l15.26-2.36c.47-.07.97,0,1.32.21l20.59,11.88c.23.14.33.32.35.51,0,.09.04.17,0,.25l-3.65,7.84,61.94,35.76,13.58-2.1c.47-.07.98,0,1.32.2l20.58,11.89c.23.14.33.32.35.51,0,.08.04.17,0,.25l-4.1,8.81c-.12.27-.5.48-.97.56-.47.07-.98,0-1.32-.2l-17.78-10.26-11.34,1.76-3.05,6.55,17.77,10.26c.25.15.34.34.35.54,0,.07.03.15,0,.22-.12.27-.49.49-.96.56l-15.26,2.37c-.47.07-.98,0-1.32-.2l-20.58-11.89c-.26-.15-.35-.35-.35-.56,0-.07-.03-.14,0-.21l3.65-7.84-61.94-35.76-13.58,2.11c-.47.07-.98,0-1.32-.21l-20.58-11.88c-.26-.15-.35-.35-.35-.56,0-.07-.03-.14,0-.2l4.09-8.81Z"/>
            <path class="cls-7" d="m106.77,331.9h.05c0-.07-.03-.13,0-.2l4.09-8.81c.13-.27.5-.49.97-.56.47-.07.98,0,1.32.2l17.77,10.26,7.43-1.15-10.81-6.23c-.26-.15-.35-.35-.35-.56h-.05v-11.18h.05c0-.07-.03-.13,0-.2.13-.27.49-.49.97-.56l15.26-2.36c.47-.07.97,0,1.32.21l20.59,11.88c.23.14.33.32.35.51h.04v11.18h-.04c0,.09.04.17,0,.26l-7.56,16.24c-.06.14-.19.26-.36.35-.16.1-.38.17-.61.2l-28.14,4.36c-.47.07-.98,0-1.32-.21l-20.58-11.88c-.28-.16-.37-.38-.35-.61h-.05v-11.14Z"/>
            <path class="cls-2" d="m106.82,331.9c0,.21.09.41.35.56l20.58,11.88c.35.2.85.28,1.32.2l28.14-4.36c.23-.04.45-.11.61-.2.16-.1.29-.22.36-.36l7.56-16.24c.04-.09,0-.17,0-.26h0s.04,0,.04,0v11.18h-.04c0,.09.04.17,0,.26l-7.56,16.24c-.06.14-.19.26-.36.35-.16.1-.38.17-.61.2l-28.14,4.36c-.47.07-.98,0-1.32-.21l-20.58-11.88c-.28-.16-.37-.38-.35-.61h-.05v-11.14h.05Zm20.43-18.44c-.03.07,0,.13,0,.2h-.05v11.18h.05c0,.21.09.41.35.56l10.81,6.23-7.43,1.15,11.34-1.76,3.05-6.55-17.77-10.26c-.35-.2-.48-.49-.35-.76Z"/>
            <path class="cls-6" d="m128.73,356.71c-.53,0-1.05-.13-1.46-.36l-20.58-11.88c-.44-.26-.72-.64-.8-1.07-.05-.11-.08-.23-.08-.36v-11.14c0-.11.02-.21.05-.3.01-.1.04-.21.1-.32l4.08-8.8c.27-.58.91-.98,1.7-1.1.68-.11,1.41.01,1.95.32l17.47,10.09,4.41-.69-8.45-4.87c-.4-.23-.67-.58-.78-.98-.06-.12-.1-.26-.1-.41v-11.18c0-.1.02-.2.04-.29.01-.1.04-.22.1-.34.25-.55.87-.95,1.67-1.08l15.27-2.36c.69-.11,1.41.02,1.95.33l20.58,11.88c.35.21.6.51.73.85.09.14.14.31.14.48v11.18c0,.08,0,.15-.03.23,0,.12-.03.26-.1.41l-7.57,16.27c-.15.31-.4.57-.74.77-.25.15-.58.27-.95.33l-28.14,4.36c-.16.02-.33.04-.49.04Zm-20.97-13.84l20.47,11.82c.13.08.42.13.7.09l28.13-4.36c.14-.02.23-.06.26-.08,0,0,.01,0,.02,0l7.43-15.98c0-.11,0-.22.04-.33v-10.61s0,0,0,0l-20.5-11.83c-.14-.08-.41-.14-.69-.09l-15.26,2.36c-.07.01-.13.03-.18.05,0,.02-.01.04-.02.06v10.6s.02.05.02.07l10.7,6.17c.35.2.54.61.46,1.01-.07.4-.39.71-.8.77l-7.43,1.16c-.21.03-.44,0-.63-.12l-17.77-10.26c-.13-.08-.41-.13-.69-.09-.15.02-.24.06-.28.08l-3.97,8.55c0,.1-.02.2-.05.3v10.55s.02.07.03.11Z"/>
            <polygon class="cls-4" points="142.2 314.82 158.31 324.13 152.39 336.84 130.36 340.26 114.25 330.96 115.06 329.2 128.93 337.2 147.91 334.25 153 323.3 139.14 315.29 142.2 314.82"/>
            <path class="cls-10" d="m142.66,344.68l14.55-2.25c.23-.04.45-.11.61-.21.16-.1.29-.22.36-.35l3.91-8.41,61.94,35.76v6.71l-14.56,2.25c-.24.04-.44.11-.61.21-.17.1-.29.22-.36.36l-3.91,8.4-61.94-35.76v-6.71Z"/>
            <path class="cls-11" d="m204.6,380.44l3.91-8.4c.06-.13.19-.26.36-.35.17-.1.38-.17.61-.21l14.56-2.25v6.71l-14.56,2.25c-.24.04-.44.11-.61.21-.17.1-.29.22-.36.36l-3.91,8.4-61.94-35.76v-6.71l61.94,35.76Z"/>
            <path class="cls-11" d="m219.45,369.93l-58.59-33.83-2.68,5.76c-.06.13-.19.26-.36.35-.16.1-.38.17-.61.21l-9.98,1.54,3.05,1.76,55.54,32.06,2.68-5.76c.06-.13.19-.26.36-.35.17-.1.38-.17.61-.21l6.92-1.07h0s3.05-.47,3.05-.47Z"/>
            <path class="cls-1" d="m160.86,338.34l-2.68,5.76c-.06.13-.19.26-.36.35-.16.09-.38.17-.61.2l-6.92,1.07-3.05-1.76,9.98-1.54c.23-.04.45-.11.61-.21.16-.1.29-.22.36-.35l2.68-5.76,58.59,33.83-3.05.47-55.54-32.07Z"/>
            <path class="cls-6" d="m204.6,388.11c-.17,0-.33-.04-.48-.13l-61.94-35.76c-.3-.17-.48-.49-.48-.83v-6.71c0-.47.35-.88.81-.95l14.55-2.25c.13-.02.22-.06.26-.08,0,0,.01,0,.01,0l3.87-8.33c.11-.24.32-.43.58-.51.26-.08.54-.05.77.08l61.94,35.76c.3.17.48.49.48.83v6.71c0,.47-.35.88-.81.95l-14.56,2.25c-.15.02-.24.06-.28.09l-3.88,8.33c-.11.24-.32.43-.58.51-.09.03-.19.04-.29.04Zm-60.98-37.28l60.55,34.96,3.47-7.45c.14-.31.39-.58.74-.78.28-.16.6-.27.95-.33l13.75-2.13v-5.33l-60.56-34.96-3.46,7.46c-.15.32-.41.58-.74.78-.26.16-.59.27-.94.33l-13.74,2.13v5.33Zm65.76,28.32h0s0,0,0,0Z"/>
            <path class="cls-7" d="m200.9,386.25h.05c0-.07-.03-.13,0-.2l7.55-16.24c.06-.13.19-.26.36-.35.17-.1.38-.17.61-.21l28.14-4.36c.47-.07.98,0,1.32.2l20.58,11.88c.23.14.33.33.35.51h.03v11.15h-.03c.02.09.05.19,0,.28l-4.1,8.82c-.12.27-.5.49-.97.56-.47.07-.98,0-1.32-.2l-17.78-10.26-7.43,1.15,10.81,6.24c.25.15.34.34.35.54h.04v11.22h-.04c0,.06.03.12,0,.19-.12.27-.49.48-.96.55l-15.26,2.37c-.47.08-.98,0-1.32-.2l-20.58-11.88c-.24-.14-.34-.33-.35-.52h-.05v-11.21Z"/>
            <path class="cls-2" d="m228.28,388.97l10.81,6.24-17.77-10.26,3.05-6.55,11.34-1.76,17.78,10.26c.34.19.84.27,1.32.2.47-.08.85-.29.97-.56l4.1-8.81c.04-.08,0-.17,0-.25h.03v11.15h-.03c.02.09.05.19,0,.28l-4.1,8.82c-.12.27-.5.49-.97.56-.47.07-.98,0-1.32-.2l-17.78-10.26-7.43,1.15Zm-27.37-2.72v11.21h.05c.01.19.11.38.35.52l20.58,11.88c.34.2.85.28,1.32.2l15.26-2.37c.47-.07.84-.29.96-.55.03-.06,0-.13,0-.19h.04v-11.22h-.04c0,.08.03.15,0,.23-.12.27-.49.48-.96.56l-15.26,2.36c-.47.08-.98,0-1.32-.2l-20.58-11.89c-.26-.15-.35-.35-.35-.56h-.05Z"/>
            <path class="cls-6" d="m222.84,411.06c-.53,0-1.04-.13-1.44-.36l-20.57-11.88c-.37-.22-.63-.53-.75-.9-.08-.14-.13-.29-.13-.46v-11.21c0-.11.02-.21.05-.3.01-.1.04-.21.1-.33l7.54-16.23c.15-.31.4-.58.74-.78.27-.16.59-.27.94-.32l28.14-4.36c.69-.1,1.42.02,1.94.32l20.59,11.88c.37.22.63.54.75.91.07.13.11.28.11.44v11.15s0,.09,0,.14c0,.16-.02.36-.12.56l-4.09,8.8c-.26.56-.89.98-1.7,1.1-.68.11-1.41-.01-1.95-.32l-17.48-10.09-4.4.68,8.45,4.87c.39.23.65.55.77.94.07.13.11.28.11.43v11.22c0,.11-.02.21-.05.31-.01.09-.04.19-.09.29-.25.56-.88.97-1.69,1.09l-15.26,2.36c-.17.03-.34.04-.51.04Zm-20.97-13.85l20.49,11.83c.13.08.41.13.69.09l15.27-2.37c.08-.01.14-.03.19-.05,0-.01,0-.03.01-.04v-10.65s0-.03-.01-.04l-10.71-6.18c-.35-.2-.54-.61-.46-1.01.07-.4.39-.71.8-.77l7.43-1.15c.22-.03.44,0,.63.12l17.78,10.26c.13.08.41.13.69.09.14-.02.24-.06.28-.09l3.99-8.59c0-.06,0-.12.02-.17v-10.75l-20.49-11.83c-.13-.07-.41-.13-.7-.09l-28.13,4.36c-.16.03-.24.07-.27.09,0,0,0,0,0,0l-7.43,15.98c0,.1-.02.2-.05.3v10.61s0,.03.01.04Zm53.02.11s0,0,0,0h0Zm4.04-8.44h0,0Z"/>
            <polygon class="cls-4" points="224.49 394.61 208.38 385.3 214.3 372.58 236.33 369.17 252.44 378.47 251.62 380.24 237.76 372.23 218.78 375.18 213.68 386.14 227.55 394.14 224.49 394.61"/>
            <path class="cls-3" d="m227.55,394.14l-3.05.47-5.07-2.93-5.74-3.31v-2.23l.82.47,13.04,7.53Zm-19.16-8.83l.82.48,5.1-10.96,22.03-3.41,15.29,8.83.82-1.76-16.12-9.3-22.03,3.41-5.91,12.72Z"/>
            <path class="cls-3" d="m115.06,329.2l13.87,8,18.98-2.95,4.28-9.19.82-1.76v2.24l-5.1,10.96-18.98,2.94-2.4-1.39-12.28-7.09.82-1.76Zm27.13-12.14l15.3,8.83.82-1.76-16.12-9.31-3.05.47,3.05,1.77Z"/>
          </g>
          <g>
            <g>
              <path class="cls-10" d="m326.86,343.6c0,3.01-2.12,4.23-4.73,2.73l-54.08-31.23c-2.61-1.51-4.72-5.17-4.72-8.18v-23.41c0-3.01,2.11-4.23,4.72-2.73l54.09,31.23c2.61,1.51,4.72,5.17,4.72,8.18v23.41Z"/>
              <path class="cls-6" d="m324.24,347.94c-.82,0-1.7-.26-2.59-.78l-54.08-31.23c-2.91-1.68-5.2-5.64-5.2-9.01v-23.41c0-1.81.66-3.19,1.86-3.89,1.2-.7,2.73-.58,4.3.33l54.09,31.23c2.92,1.69,5.2,5.64,5.2,9.01v23.41s0,0,0,0c0,1.81-.67,3.19-1.87,3.89-.52.3-1.09.45-1.71.45Zm-58.31-66.83c-.28,0-.54.06-.75.18-.57.33-.9,1.14-.9,2.22v23.41c0,2.66,1.95,6.02,4.24,7.35l54.08,31.23c.94.54,1.81.66,2.39.33.57-.33.91-1.14.91-2.23v-23.41c0-2.65-1.95-6.02-4.25-7.35l-54.09-31.23c-.59-.34-1.15-.51-1.63-.51Z"/>
            </g>
            <g>
              <path class="cls-9" d="m273.34,298.35c-.08.07-.19.12-.26.21.35-.44.85-.67,1.44-.7-.29,0-.56.08-.81.19.24-.12.51-.18.81-.19h0c.52-.02,1.12.13,1.75.5l37.63,21.73c2.07,1.19,3.75,4.11,3.75,6.49,0,.73-.17,1.31-.44,1.75-.63,1.02-1.87,1.26-3.31.42l-37.63-21.73c-2.08-1.2-3.76-4.11-3.76-6.51,0-1.01.33-1.72.84-2.16Z"/>
              <path class="cls-6" d="m315.57,330.22c-.68,0-1.41-.21-2.16-.64l-37.63-21.73c-2.38-1.38-4.24-4.6-4.24-7.34,0-1.04.29-1.78.64-2.29.03-.09.08-.18.15-.26.34-.42.78-.73,1.29-.9.28-.1.57-.15.87-.16.75-.02,1.5.19,2.26.62l37.63,21.73c2.37,1.37,4.23,4.58,4.23,7.32,0,.86-.2,1.62-.58,2.25-.57.92-1.45,1.39-2.46,1.39Zm-41.47-31.29c-.04.05-.09.1-.14.15-.42.36-.51.98-.51,1.43,0,2.05,1.5,4.65,3.29,5.68l37.63,21.73c.54.31,1.52.71,2.02-.09.2-.32.3-.75.3-1.25,0-2.05-1.5-4.64-3.27-5.66l-37.63-21.73c-.44-.26-.86-.38-1.24-.37-.01,0-.02,0-.04,0-.1,0-.2.03-.29.06-.03.01-.06.02-.1.04,0,0-.02,0-.03.01Z"/>
            </g>
            <path class="cls-7" d="m295.48,317.42c0,3.61,2.54,8,5.67,9.81,1.58.91,3,.99,4.03.38l3.13-1.8c1.03-.59,1.66-1.86,1.66-3.66,0-3.62-2.54-8-5.67-9.82-1.56-.9-2.98-.99-4-.4h0l-3.15,1.82s-.06.05-.09.08c0,0,.02,0,.02-.01-.98.61-1.59,1.84-1.59,3.6Z"/>
            <path class="cls-2" d="m296.45,314.33c1.02-1.15,2.74-1.3,4.7-.17,3.13,1.81,5.67,6.2,5.67,9.81,0,1.81-.64,3.07-1.66,3.66h0l3.16-1.82c1.03-.59,1.66-1.86,1.66-3.66,0-3.62-2.54-8-5.67-9.82-1.56-.9-2.98-.99-4-.4h0l-3.15,1.82c-.26.15-.49.34-.69.57Z"/>
            <path class="cls-6" d="m303.68,328.97c-.94,0-1.97-.3-3.01-.9-3.45-1.99-6.15-6.67-6.15-10.64h0c0-1.98.7-3.53,1.95-4.36.05-.04.11-.1.2-.15l3.14-1.81s.04-.02.06-.03c1.36-.75,3.1-.6,4.9.43,3.45,2,6.15,6.68,6.15,10.65,0,2.1-.76,3.7-2.14,4.49l-3.13,1.8c-.6.35-1.26.52-1.98.52Zm-7.24-11.55c0,3.24,2.38,7.35,5.19,8.98,1.21.7,2.29.83,3.06.38l3.14-1.81c.76-.44,1.18-1.44,1.18-2.82,0-3.3-2.33-7.33-5.19-8.99-1.18-.68-2.29-.83-3.04-.4-.02,0-.04.02-.05.03l-3.02,1.74s-.08.07-.13.1h0c-.73.46-1.14,1.45-1.14,2.79h0Z"/>
          </g>
          <g>
            <g>
              <path class="cls-10" d="m230.64,251.15c0,6.52-4.59,9.16-10.24,5.9l-74.11-42.79c-5.65-3.26-10.25-11.19-10.24-17.73v-63.18c0-6.51,4.59-9.16,10.25-5.89l74.1,42.79c5.66,3.26,10.24,11.19,10.24,17.73v63.17Z"/>
              <path class="cls-6" d="m224.97,259.41c-1.57,0-3.29-.51-5.05-1.53l-74.11-42.79c-5.92-3.42-10.73-11.74-10.72-18.56v-63.18c0-3.51,1.24-6.15,3.48-7.44,2.25-1.3,5.16-1.04,8.21.72l74.1,42.79c5.91,3.41,10.72,11.73,10.72,18.56v63.17c0,3.51-1.23,6.16-3.48,7.45-.94.54-2,.82-3.14.82Zm-83.25-132.39c-.81,0-1.55.18-2.19.56-1.62.94-2.52,2.99-2.52,5.78v63.18c0,6.2,4.37,13.78,9.76,16.89l74.11,42.79c2.42,1.4,4.66,1.65,6.28.72,1.62-.94,2.52-2.99,2.52-5.79v-63.17c0-6.21-4.38-13.79-9.76-16.89l-74.1-42.79c-1.46-.85-2.86-1.28-4.09-1.28Z"/>
            </g>
            <path class="cls-7" d="m155.82,178.44v-4.45l16.12,2.46v4.51l-11.08-1.84,11.08,10.95v4.51l-16.12-16.14Zm32.01-3.71l4.69,2.71-13.65,32.04-4.68-2.72,13.65-32.04Zm6.93,33.02v-4.5l11.07,1.84-11.07-10.96v-4.5l16.11,16.15v4.44s-16.11-2.47-16.11-2.47Z"/>
          </g>
          <g>
            <g>
              <path class="cls-10" d="m.96,140.59c0-3.18,2.23-4.47,4.99-2.88l102.01,58.9c2.76,1.59,4.99,5.45,4.99,8.63h0v62.54c0,3.18-2.23,4.46-4.99,2.87L5.95,211.76c-2.75-1.59-4.99-5.46-4.99-8.63v-62.54h0Z"/>
              <path class="cls-6" d="m110.2,272.3c-.85,0-1.77-.27-2.71-.82L5.47,212.59c-3.07-1.77-5.47-5.93-5.47-9.46v-62.54h0c0-1.9.69-3.34,1.94-4.06,1.25-.72,2.84-.6,4.49.35l102.01,58.9c3.04,1.76,5.43,5.86,5.47,9.38,0,.03,0,.06,0,.08v62.54c0,1.89-.69,3.33-1.94,4.05-.54.31-1.14.46-1.77.46ZM1.92,140.59v62.54c0,2.82,2.06,6.39,4.51,7.8l102.02,58.89c1.01.58,1.95.71,2.57.35.62-.36.98-1.23.98-2.39v-62.46s0-.05,0-.08c0-2.82-2.07-6.39-4.51-7.8L5.47,138.55c-1.01-.58-1.95-.71-2.57-.35-.62.36-.98,1.23-.98,2.4h0Z"/>
            </g>
            <path class="cls-7" d="m29.12,167.02c0,.77-.53,1.07-1.19.69l-9.87-5.7c-.66-.38-1.2-1.31-1.2-2.07h0c0-.76.54-1.06,1.2-.69l9.87,5.7c.66.37,1.2,1.3,1.19,2.06h0Zm43.44,30.6c0,.77-.54,1.08-1.19.7l-6.54-3.79c-.66-.37-1.2-1.31-1.2-2.07h0c0-.76.53-1.07,1.19-.69l6.54,3.78c.66.38,1.2,1.31,1.2,2.07h0Zm-35.12-14.75c0,.76-.54,1.06-1.2.69l-3.22-1.86c-.66-.38-1.2-1.31-1.19-2.07h0c0-.76.53-1.07,1.2-.69l3.21,1.86c.66.38,1.2,1.31,1.2,2.07h0Zm13.92,13.56c0,.76-.54,1.07-1.19.69l-14.85-8.58c-.67-.39-1.2-1.31-1.2-2.07h0c0-.76.54-1.07,1.2-.69l14.85,8.58c.66.38,1.19,1.3,1.19,2.07h0Zm52.1,35.57c0,.77-.53,1.08-1.19.7l-12.93-7.47c-.66-.38-1.2-1.31-1.2-2.08h0c0-.76.54-1.06,1.2-.69l12.93,7.46c.66.39,1.2,1.31,1.19,2.07h0Zm-72.67-36.43c0,.76-.54,1.07-1.2.69l-6.54-3.78c-.66-.38-1.2-1.31-1.2-2.07h0c0-.76.54-1.06,1.2-.68l6.54,3.77c.66.38,1.2,1.31,1.2,2.07h0Zm27.84,32.6c0,.76-.54,1.07-1.19.7l-13.2-7.63c-.66-.38-1.2-1.3-1.2-2.07h0c0-.75.54-1.07,1.2-.69l13.19,7.62c.66.39,1.2,1.31,1.2,2.07h0Zm3.33-9.08c0,.76-.54,1.07-1.2.69l-8.2-4.74c-.66-.38-1.2-1.31-1.2-2.07h0c0-.76.54-1.07,1.2-.69l8.21,4.75c.66.38,1.2,1.31,1.19,2.07h0Zm24.52,19.68c0,.77-.53,1.08-1.19.7l-8.21-4.74c-.67-.39-1.2-1.32-1.2-2.07h0c0-.77.53-1.07,1.2-.68l8.2,4.73c.66.38,1.2,1.31,1.2,2.07h0Z"/>
            <path class="cls-11" d="m58.63,184.05c0,.77-.54,1.08-1.2.69l-13.19-7.62c-.66-.38-1.2-1.31-1.2-2.07h0c0-.76.54-1.07,1.2-.69l13.19,7.62c.66.38,1.2,1.31,1.2,2.06h0Zm15.58,9c0,.77-.53,1.07-1.2.69l-9.86-5.7c-.67-.39-1.2-1.32-1.2-2.07h0c0-.76.54-1.07,1.2-.68l9.86,5.69c.66.38,1.2,1.31,1.2,2.07h0Zm29.25,16.89c0,.76-.53,1.08-1.2.69l-12.93-7.47c-.66-.37-1.2-1.31-1.2-2.07h0c0-.76.54-1.07,1.2-.69l12.93,7.47c.66.38,1.2,1.31,1.19,2.07h0ZM10.68,156.38c0,.9.64,2.01,1.43,2.47.79.46,1.43.09,1.44-.82,0-.92-.65-2.03-1.44-2.47-.79-.46-1.42-.09-1.42.83Zm20.11,17.12c0,.77-.54,1.08-1.2.69l-6.54-3.77c-.66-.38-1.2-1.32-1.2-2.07h0c0-.76.54-1.07,1.2-.69l6.54,3.78c.66.38,1.19,1.3,1.2,2.06h0Zm20.57,11.88c0,.76-.54,1.07-1.19.7l-14.85-8.58c-.67-.38-1.2-1.31-1.2-2.07h0c0-.76.53-1.08,1.2-.69l14.86,8.58c.66.38,1.19,1.31,1.19,2.07h0Zm35.12,20.27c0,.76-.53,1.08-1.19.7l-8.21-4.74c-.67-.39-1.2-1.32-1.2-2.07h0c0-.77.53-1.07,1.2-.68l8.2,4.73c.66.38,1.2,1.31,1.2,2.07h0Zm-24.52-8.63c0,.76-.54,1.08-1.2.69l-8.21-4.74c-.66-.38-1.2-1.31-1.19-2.07h0c0-.77.53-1.07,1.2-.69l8.2,4.74c.66.38,1.19,1.31,1.2,2.07h0Zm8.94,5.16c0,.76-.54,1.06-1.2.69l-3.22-1.86c-.66-.38-1.2-1.31-1.2-2.07h0c0-.76.54-1.07,1.2-.69l3.22,1.86c.66.38,1.2,1.31,1.2,2.07h0Zm24.26,14c0,.77-.53,1.08-1.19.69l-7.95-4.59c-.66-.38-1.2-1.31-1.2-2.07h0c0-.76.54-1.07,1.2-.69l7.94,4.59c.66.38,1.2,1.31,1.19,2.07h0Zm-64.37-31.64c0,.76-.54,1.07-1.2.69l-6.54-3.78c-.66-.39-1.2-1.31-1.2-2.07h0c0-.76.54-1.07,1.2-.69l6.54,3.78c.66.38,1.2,1.31,1.2,2.07h0Zm29.51,17.04c0,.76-.54,1.07-1.2.69l-3.22-1.86c-.66-.38-1.2-1.31-1.2-2.07h0c0-.76.54-1.07,1.2-.69l3.22,1.86c.66.38,1.2,1.31,1.2,2.07h0Zm26.18,15.12c0,.76-.53,1.07-1.19.69l-8.2-4.74c-.66-.39-1.2-1.31-1.2-2.08h0c0-.76.54-1.07,1.2-.68l8.21,4.74c.66.37,1.19,1.31,1.19,2.07h0Zm-57.35-27.63c0,.76-.54,1.07-1.19.7l-9.87-5.7c-.66-.39-1.2-1.31-1.2-2.08h0c0-.76.53-1.06,1.2-.69l9.87,5.7c.66.38,1.2,1.3,1.2,2.07h0Zm29.51,17.03c0,.76-.54,1.08-1.19.7l-13.2-7.62c-.66-.39-1.2-1.31-1.2-2.07h0c0-.77.54-1.07,1.2-.69l13.2,7.62c.66.37,1.2,1.31,1.19,2.06h0Zm15.59,9c0,.76-.54,1.08-1.2.69l-9.86-5.69c-.67-.39-1.2-1.31-1.2-2.08h0c0-.76.54-1.07,1.2-.68l9.87,5.7c.66.37,1.2,1.31,1.2,2.06h0Zm-22.86-7.67c0,.76-.54,1.07-1.19.69l-14.85-8.57c-.67-.39-1.2-1.31-1.2-2.07h0c0-.76.54-1.07,1.2-.69l14.85,8.58c.66.38,1.19,1.3,1.19,2.07h0Zm21.2,12.23c0,.77-.54,1.07-1.2.69l-6.54-3.78c-.66-.38-1.2-1.3-1.2-2.07h0c0-.76.54-1.07,1.2-.69l6.54,3.78c.66.37,1.2,1.31,1.19,2.06h0Zm13.93,8.04c0,.77-.54,1.07-1.2.69l-8.2-4.74c-.66-.39-1.2-1.31-1.2-2.08h0c0-.76.54-1.07,1.2-.68l8.21,4.74c.66.38,1.19,1.31,1.19,2.06h0Zm-12.26,9.45c0,.76-.54,1.07-1.2.69l-9.87-5.69c-.66-.39-1.2-1.31-1.2-2.08h0c0-.76.53-1.07,1.2-.69l9.86,5.69c.66.38,1.2,1.31,1.2,2.07h0Zm23.43,13.53c0,.77-.54,1.07-1.2.69l-12.93-7.46c-.66-.38-1.2-1.31-1.2-2.08h0c0-.76.54-1.06,1.2-.68l12.93,7.46c.66.38,1.2,1.31,1.2,2.07h0Zm-60.22-45.77c0,.76-.53,1.08-1.19.69l-3.22-1.86c-.66-.38-1.2-1.31-1.2-2.07h0c0-.76.54-1.06,1.2-.69l3.22,1.87c.66.37,1.2,1.31,1.19,2.06h0Zm33.46,19.32c0,.77-.54,1.07-1.2.7l-3.22-1.86c-.66-.39-1.2-1.31-1.2-2.08h0c0-.76.54-1.07,1.2-.69l3.22,1.86c.66.38,1.2,1.31,1.2,2.07h0Zm24.26,14.01c0,.76-.54,1.06-1.2.69l-7.94-4.58c-.66-.39-1.2-1.31-1.2-2.08h0c0-.76.54-1.07,1.2-.69l7.95,4.59c.66.38,1.2,1.31,1.19,2.07h0Zm-64.37-31.65c0,.76-.54,1.08-1.2.69l-6.54-3.78c-.66-.38-1.2-1.31-1.2-2.07h0c0-.76.54-1.07,1.2-.69l6.54,3.78c.66.38,1.19,1.3,1.2,2.06h0Zm29.51,17.04c0,.76-.54,1.07-1.2.69l-3.21-1.86c-.66-.38-1.2-1.31-1.2-2.07h0c0-.77.53-1.07,1.2-.69l3.21,1.86c.66.38,1.2,1.3,1.2,2.07h0Zm-8.94-5.16c0,.76-.54,1.07-1.19.7l-14.85-8.58c-.67-.38-1.2-1.31-1.2-2.07h0c0-.76.53-1.08,1.2-.69l14.86,8.58c.66.38,1.2,1.31,1.19,2.07h0Zm-40.68-56.59c0,.91.64,2.01,1.43,2.47.79.46,1.43.09,1.43-.82s-.64-2.02-1.43-2.48c-.79-.45-1.43-.09-1.43.83Zm0,11.05c0,.91.64,2.02,1.43,2.47.79.45,1.43.09,1.43-.82,0-.91-.64-2.02-1.43-2.48-.8-.46-1.43-.09-1.43.82Zm0,11.01c0,.91.64,2.02,1.43,2.47.79.45,1.43.09,1.43-.82,0-.91-.64-2.02-1.43-2.48-.8-.46-1.43-.09-1.43.82Zm0,11.05c0,.92.64,2.01,1.43,2.47.79.46,1.43.09,1.43-.82s-.64-2.02-1.43-2.48c-.79-.45-1.43-.09-1.43.83Zm0,5.47c0,.91.64,2.02,1.43,2.48.79.45,1.43.09,1.43-.82,0-.92-.65-2.02-1.44-2.48-.79-.45-1.42-.08-1.42.83Zm0-22.05c0,.91.64,2.02,1.43,2.47.79.45,1.43.09,1.43-.82,0-.91-.64-2.02-1.43-2.48-.8-.46-1.43-.09-1.43.82Zm0,11.05c0,.9.64,2.01,1.43,2.47.79.46,1.43.09,1.44-.82,0-.91-.65-2.03-1.44-2.47-.79-.46-1.42-.09-1.42.83Zm0-22.07c0,.91.64,2.02,1.43,2.47.79.46,1.43.09,1.43-.82s-.64-2.02-1.43-2.48c-.8-.46-1.43-.09-1.43.82Z"/>
          </g>
          <g>
            <g>
              <path class="cls-10" d="m329.15,102.85v-26.76c0-2.63-1.85-5.83-4.14-7.16l-43.6-25.17c-2.28-1.32-4.14-.25-4.14,2.38v26.76c0,2.63,1.85,5.83,4.14,7.15l4.2,2.43c7.12,4.12,8.74,6.5,11.86,11.92l3.36,5.81c.66,1.13,1.51,2.01,2.37,2.5.85.49,1.72.61,2.37.24l3.36-1.93c3.13-1.81,4.74-2.33,11.87,1.78l4.2,2.43c1.14.66,2.17.72,2.92.29.75-.43,1.21-1.35,1.22-2.68Z"/>
              <path class="cls-6" d="m326.87,106.76c-.74,0-1.54-.23-2.34-.69l-4.2-2.43c-7.01-4.04-8.23-3.33-10.91-1.78l-3.36,1.93c-.93.54-2.15.45-3.33-.24-1.03-.59-2-1.61-2.72-2.85l-3.36-5.81c-3.03-5.25-4.54-7.54-11.51-11.57l-4.2-2.43c-2.59-1.49-4.62-5-4.62-7.99v-26.76c0-1.63.6-2.88,1.69-3.5,1.09-.63,2.47-.53,3.88.29l43.6,25.17c2.59,1.5,4.62,5.01,4.62,7.99v26.76h0c0,1.64-.61,2.89-1.7,3.51-.46.27-.98.4-1.54.4Zm-14.03-8.04c1.96,0,4.39.92,8.45,3.26l4.2,2.43c.78.45,1.5.56,1.96.29.47-.27.73-.93.74-1.85v-26.76c0-2.28-1.68-5.18-3.66-6.33l-43.6-25.17c-.78-.45-1.5-.56-1.97-.29-.47.27-.73.94-.73,1.84v26.76c0,2.28,1.68,5.18,3.66,6.32l4.2,2.43c7.39,4.27,9.08,6.85,12.21,12.27l3.36,5.81c.55.95,1.28,1.73,2.02,2.15.57.33,1.1.42,1.42.24l3.36-1.93c1.56-.9,2.82-1.48,4.38-1.48Zm16.31,4.13h0,0Z"/>
            </g>
            <path class="cls-11" d="m293.74,72.34c-.59.35-1.42.3-2.32-.23-1.81-1.05-3.28-3.59-3.28-5.68,0-1.05.37-1.78.96-2.13.6-.34,1.41-.28,2.32.24,1.81,1.05,3.28,3.58,3.28,5.68,0,1.05-.36,1.78-.96,2.12Zm13.03,4.86c0-2.1-1.47-4.63-3.28-5.68-.91-.52-1.73-.58-2.32-.23-.59.34-.96,1.08-.96,2.12,0,2.09,1.47,4.63,3.28,5.68.9.52,1.73.57,2.32.23.59-.35.96-1.08.96-2.12Zm12.08,6.97c0-2.09-1.47-4.63-3.28-5.68-.91-.52-1.73-.58-2.32-.24-.59.34-.96,1.08-.96,2.13,0,2.08,1.47,4.63,3.28,5.68.9.52,1.73.57,2.32.22.6-.35.97-1.08.96-2.12Z"/>
          </g>
        </g>
      </g>
    </g>
  </g>
</svg>