<?xml version="1.0" encoding="UTF-8"?>
<svg xmlns="http://www.w3.org/2000/svg" xmlns:xlink="http://www.w3.org/1999/xlink" viewBox="0 0 893.99 768.28">
  <defs>
    <style>
      .cls-1 {
        fill: none;
      }

      .cls-2 {
        fill: url(#_ÂÁ_Ï_ÌÌ_È_ËÂÌÚ_24-10);
      }

      .cls-3 {
        fill: url(#_ÂÁ_Ï_ÌÌ_È_ËÂÌÚ_24-11);
      }

      .cls-4 {
        fill: url(#_ÂÁ_Ï_ÌÌ_È_ËÂÌÚ_24-16);
      }

      .cls-5 {
        fill: url(#_ÂÁ_Ï_ÌÌ_È_ËÂÌÚ_24-15);
      }

      .cls-6 {
        fill: url(#_ÂÁ_Ï_ÌÌ_È_ËÂÌÚ_24-14);
      }

      .cls-7 {
        fill: url(#_ÂÁ_Ï_ÌÌ_È_ËÂÌÚ_24-13);
      }

      .cls-8 {
        fill: url(#_ÂÁ_Ï_ÌÌ_È_ËÂÌÚ_24-12);
      }

      .cls-9 {
        fill: url(#linear-gradient);
      }

      .cls-10 {
        filter: url(#luminosity-noclip-3);
      }

      .cls-11 {
        fill: url(#_ÂÁ_Ï_ÌÌ_È_ËÂÌÚ_41);
      }

      .cls-12 {
        fill: url(#_ÂÁ_Ï_ÌÌ_È_ËÂÌÚ_25);
      }

      .cls-13 {
        fill: url(#_ÂÁ_Ï_ÌÌ_È_ËÂÌÚ_24);
      }

      .cls-14 {
        clip-path: url(#clippath);
      }

      .cls-15 {
        mask: url(#mask);
      }

      .cls-16 {
        filter: url(#luminosity-noclip);
      }

      .cls-17 {
        fill: #6767c1;
      }

      .cls-18 {
        fill: #fff;
      }

      .cls-19 {
        fill: #bcbeff;
      }

      .cls-20, .cls-21 {
        fill: #24126a;
      }

      .cls-22, .cls-23 {
        fill: #453c9e;
      }

      .cls-24, .cls-25 {
        fill: #42e8e0;
      }

      .cls-26 {
        fill: #5351af;
      }

      .cls-27 {
        fill: url(#_ÂÁ_Ï_ÌÌ_È_ËÂÌÚ_41-2);
      }

      .cls-28 {
        fill: url(#_ÂÁ_Ï_ÌÌ_È_ËÂÌÚ_24-9);
      }

      .cls-29 {
        fill: url(#_ÂÁ_Ï_ÌÌ_È_ËÂÌÚ_24-2);
      }

      .cls-30 {
        fill: url(#_ÂÁ_Ï_ÌÌ_È_ËÂÌÚ_24-6);
      }

      .cls-31 {
        fill: url(#_ÂÁ_Ï_ÌÌ_È_ËÂÌÚ_24-7);
      }

      .cls-32 {
        fill: url(#_ÂÁ_Ï_ÌÌ_È_ËÂÌÚ_24-8);
      }

      .cls-33 {
        fill: url(#_ÂÁ_Ï_ÌÌ_È_ËÂÌÚ_24-3);
      }

      .cls-34 {
        fill: url(#_ÂÁ_Ï_ÌÌ_È_ËÂÌÚ_24-4);
      }

      .cls-35 {
        fill: url(#_ÂÁ_Ï_ÌÌ_È_ËÂÌÚ_24-5);
      }

      .cls-36 {
        fill: url(#linear-gradient-11);
        opacity: .8;
      }

      .cls-36, .cls-37, .cls-38 {
        mix-blend-mode: lighten;
      }

      .cls-39 {
        fill: url(#_ÂÁ_Ï_ÌÌ_È_ËÂÌÚ_14-2);
      }

      .cls-39, .cls-40 {
        opacity: .78;
      }

      .cls-41 {
        clip-path: url(#clippath-1);
      }

      .cls-37 {
        fill: url(#linear-gradient-9);
      }

      .cls-37, .cls-38, .cls-25 {
        opacity: .5;
      }

      .cls-38 {
        fill: url(#linear-gradient-8);
      }

      .cls-42 {
        fill: url(#_ÂÁ_Ï_ÌÌ_È_ËÂÌÚ_6);
      }

      .cls-42, .cls-43 {
        mix-blend-mode: multiply;
      }

      .cls-44 {
        fill: url(#linear-gradient-3);
      }

      .cls-45 {
        fill: url(#linear-gradient-4);
      }

      .cls-46 {
        fill: url(#linear-gradient-2);
      }

      .cls-47 {
        fill: url(#linear-gradient-6);
      }

      .cls-48 {
        fill: url(#linear-gradient-5);
      }

      .cls-49 {
        opacity: .15;
      }

      .cls-50 {
        opacity: .3;
      }

      .cls-51 {
        opacity: .67;
      }

      .cls-52, .cls-53, .cls-23 {
        opacity: .51;
      }

      .cls-54 {
        opacity: .9;
      }

      .cls-40 {
        fill: url(#_ÂÁ_Ï_ÌÌ_È_ËÂÌÚ_14);
      }

      .cls-55 {
        fill: url(#linear-gradient-12);
      }

      .cls-56 {
        fill: url(#linear-gradient-10);
      }

      .cls-57 {
        isolation: isolate;
      }

      .cls-58 {
        fill: url(#_ÂÁ_Ï_ÌÌ_È_ËÂÌÚ_2-3);
      }

      .cls-59 {
        fill: url(#_ÂÁ_Ï_ÌÌ_È_ËÂÌÚ_2-4);
      }

      .cls-60 {
        fill: url(#_ÂÁ_Ï_ÌÌ_È_ËÂÌÚ_2-2);
      }

      .cls-61 {
        fill: url(#_ÂÁ_Ï_ÌÌ_È_ËÂÌÚ_2-5);
      }

      .cls-53 {
        fill: url(#linear-gradient-7);
      }

      .cls-62 {
        mask: url(#mask-3);
      }

      .cls-63 {
        mask: url(#mask-2);
      }

      .cls-64 {
        mask: url(#mask-1);
      }

      .cls-65 {
        fill: url(#_ÂÁ_Ï_ÌÌ_È_ËÂÌÚ_2);
      }

      .cls-21 {
        opacity: .4;
      }

      .cls-43 {
        fill: url(#_ÂÁ_Ï_ÌÌ_È_ËÂÌÚ_6-2);
      }
    </style>
    <linearGradient id="linear-gradient" x1="0" y1="510.21" x2="893.99" y2="510.21" gradientUnits="userSpaceOnUse">
      <stop offset=".43" stop-color="#0094a4"/>
      <stop offset="1" stop-color="#333"/>
    </linearGradient>
    <linearGradient id="linear-gradient-2" x1="69.32" x2="824.66" xlink:href="#linear-gradient"/>
    <linearGradient id="linear-gradient-3" x1="149.87" y1="510.21" x2="744.12" y2="510.21" xlink:href="#linear-gradient"/>
    <linearGradient id="_ÂÁ_Ï_ÌÌ_È_ËÂÌÚ_2" data-name="¡ÂÁ˚ÏˇÌÌ˚È „‡‰ËÂÌÚ 2" x1="6015.31" y1="267.55" x2="6466.75" y2="267.55" gradientTransform="translate(6811.13) rotate(-180) scale(1 -1)" gradientUnits="userSpaceOnUse">
      <stop offset="0" stop-color="#c0bff6"/>
      <stop offset=".29" stop-color="#c4c3f6"/>
      <stop offset=".64" stop-color="#d2d2f9"/>
      <stop offset="1" stop-color="#e9e9fd"/>
    </linearGradient>
    <linearGradient id="_ÂÁ_Ï_ÌÌ_È_ËÂÌÚ_24" data-name="¡ÂÁ˚ÏˇÌÌ˚È „‡‰ËÂÌÚ 24" x1="6015.32" y1="383.33" x2="6092.83" y2="383.33" gradientTransform="translate(6811.13) rotate(-180) scale(1 -1)" gradientUnits="userSpaceOnUse">
      <stop offset="0" stop-color="#5761d7"/>
      <stop offset=".18" stop-color="#5b65d8"/>
      <stop offset=".39" stop-color="#6a72de"/>
      <stop offset=".61" stop-color="#8188e8"/>
      <stop offset=".85" stop-color="#a2a6f5"/>
      <stop offset="1" stop-color="#bcbeff"/>
    </linearGradient>
    <linearGradient id="linear-gradient-4" x1="6075.8" y1="509.64" x2="6713.37" y2="509.64" gradientTransform="translate(6811.13) rotate(-180) scale(1 -1)" gradientUnits="userSpaceOnUse">
      <stop offset="0" stop-color="#f6fbff"/>
      <stop offset="1" stop-color="#3d6dff"/>
    </linearGradient>
    <linearGradient id="linear-gradient-5" x1="6290.02" y1="492.21" x2="6927.94" y2="492.21" xlink:href="#linear-gradient-4"/>
    <linearGradient id="linear-gradient-6" x1="97.55" y1="492.21" x2="735.47" y2="492.21" gradientTransform="matrix(1,0,0,1,0,0)" xlink:href="#linear-gradient-4"/>
    <linearGradient id="linear-gradient-7" x1="97.55" y1="492.21" x2="735.47" y2="492.21" gradientTransform="matrix(1,0,0,1,0,0)" xlink:href="#linear-gradient-4"/>
    <linearGradient id="linear-gradient-8" x1="97.55" y1="483.99" x2="735.47" y2="483.99" gradientTransform="matrix(1,0,0,1,0,0)" xlink:href="#linear-gradient-4"/>
    <linearGradient id="linear-gradient-9" x1="97.55" y1="483.99" x2="735.47" y2="483.99" gradientTransform="matrix(1,0,0,1,0,0)" xlink:href="#linear-gradient-4"/>
    <clipPath id="clippath">
      <path class="cls-37" d="m101.05,442.79l386.81,223.33c4.23,2.44,10.64,2.71,14.31.59l230.82-133.27c3.67-2.12,3.21-5.81-1.03-8.26l-386.81-223.33c-4.23-2.44-10.64-2.71-14.31-.59l-230.82,133.27c-3.67,2.12-3.21,5.81,1.03,8.26Z"/>
    </clipPath>
    <linearGradient id="linear-gradient-10" x1="4302.61" y1="4344.54" x2="4596.3" y2="4344.54" gradientTransform="translate(3886.18 5268.13) rotate(-180) scale(.78 1.06)" xlink:href="#linear-gradient-4"/>
    <linearGradient id="linear-gradient-11" x1="96.64" y1="483.99" x2="736.38" y2="483.99" gradientTransform="matrix(1,0,0,1,0,0)" xlink:href="#linear-gradient-4"/>
    <linearGradient id="linear-gradient-12" x1="97.58" y1="560.91" x2="735.43" y2="560.91" gradientTransform="matrix(1,0,0,1,0,0)" xlink:href="#linear-gradient-4"/>
    <clipPath id="clippath-1">
      <polygon class="cls-1" points="785.05 236.37 392.43 9.79 343.1 303.09 735.47 529.52 785.05 236.37"/>
    </clipPath>
    <linearGradient id="_ÂÁ_Ï_ÌÌ_È_ËÂÌÚ_24-2" data-name="¡ÂÁ˚ÏˇÌÌ˚È „‡‰ËÂÌÚ 24" x1="5830.63" y1="369.33" x2="6468.21" y2="369.33" xlink:href="#_ÂÁ_Ï_ÌÌ_È_ËÂÌÚ_24"/>
    <linearGradient id="_ÂÁ_Ï_ÌÌ_È_ËÂÌÚ_2-2" data-name="¡ÂÁ˚ÏˇÌÌ˚È „‡‰ËÂÌÚ 2" x1="6044.86" y1="351.89" x2="6682.77" y2="351.89" xlink:href="#_ÂÁ_Ï_ÌÌ_È_ËÂÌÚ_2"/>
    <linearGradient id="_ÂÁ_Ï_ÌÌ_È_ËÂÌÚ_24-3" data-name="¡ÂÁ˚ÏˇÌÌ˚È „‡‰ËÂÌÚ 24" x1="5633.06" y1="351.32" x2="5821.56" y2="351.32" gradientTransform="translate(6417.28) rotate(-180) scale(1 -1)" xlink:href="#_ÂÁ_Ï_ÌÌ_È_ËÂÌÚ_24"/>
    <linearGradient id="_ÂÁ_Ï_ÌÌ_È_ËÂÌÚ_24-4" data-name="¡ÂÁ˚ÏˇÌÌ˚È „‡‰ËÂÌÚ 24" x1="5633.06" y1="300.61" x2="5821.56" y2="300.61" gradientTransform="translate(6417.28) rotate(-180) scale(1 -1)" xlink:href="#_ÂÁ_Ï_ÌÌ_È_ËÂÌÚ_24"/>
    <linearGradient id="_ÂÁ_Ï_ÌÌ_È_ËÂÌÚ_24-5" data-name="¡ÂÁ˚ÏˇÌÌ˚È „‡‰ËÂÌÚ 24" x1="5633.06" y1="248.84" x2="5821.56" y2="248.84" gradientTransform="translate(6417.28) rotate(-180) scale(1 -1)" xlink:href="#_ÂÁ_Ï_ÌÌ_È_ËÂÌÚ_24"/>
    <linearGradient id="_ÂÁ_Ï_ÌÌ_È_ËÂÌÚ_24-6" data-name="¡ÂÁ˚ÏˇÌÌ˚È „‡‰ËÂÌÚ 24" x1="5633.06" y1="197.08" x2="5821.56" y2="197.08" gradientTransform="translate(6417.28) rotate(-180) scale(1 -1)" xlink:href="#_ÂÁ_Ï_ÌÌ_È_ËÂÌÚ_24"/>
    <linearGradient id="_ÂÁ_Ï_ÌÌ_È_ËÂÌÚ_24-7" data-name="¡ÂÁ˚ÏˇÌÌ˚È „‡‰ËÂÌÚ 24" x1="5633.06" y1="197.08" x2="5821.56" y2="197.08" gradientTransform="translate(6417.28) rotate(-180) scale(1 -1)" xlink:href="#_ÂÁ_Ï_ÌÌ_È_ËÂÌÚ_24"/>
    <filter id="luminosity-noclip" x="689.97" y="148.56" width="94.25" height="50.46" color-interpolation-filters="sRGB" filterUnits="userSpaceOnUse">
      <feFlood flood-color="#fff" result="bg"/>
      <feBlend in="SourceGraphic" in2="bg"/>
    </filter>
    <filter id="luminosity-noclip-2" x="689.97" y="-8010.61" width="94.25" height="32766" color-interpolation-filters="sRGB" filterUnits="userSpaceOnUse">
      <feFlood flood-color="#fff" result="bg"/>
      <feBlend in="SourceGraphic" in2="bg"/>
    </filter>
    <mask id="mask-1" x="689.97" y="-8010.61" width="94.25" height="32766" maskUnits="userSpaceOnUse"/>
    <linearGradient id="_ÂÁ_Ï_ÌÌ_È_ËÂÌÚ_6" data-name="¡ÂÁ˚ÏˇÌÌ˚È „‡‰ËÂÌÚ 6" x1="5633.06" y1="173.79" x2="5727.31" y2="173.79" gradientTransform="translate(6417.28) rotate(-180) scale(1 -1)" gradientUnits="userSpaceOnUse">
      <stop offset="0" stop-color="#000"/>
      <stop offset=".05" stop-color="#2e2e2e"/>
      <stop offset=".1" stop-color="#5a5a5a"/>
      <stop offset=".15" stop-color="#818181"/>
      <stop offset=".22" stop-color="#a3a3a3"/>
      <stop offset=".28" stop-color="silver"/>
      <stop offset=".36" stop-color="#d7d7d7"/>
      <stop offset=".44" stop-color="#e9e9e9"/>
      <stop offset=".54" stop-color="#f5f5f5"/>
      <stop offset=".68" stop-color="#fcfcfc"/>
      <stop offset="1" stop-color="#fff"/>
    </linearGradient>
    <mask id="mask" x="689.97" y="148.56" width="94.25" height="50.46" maskUnits="userSpaceOnUse">
      <g class="cls-16">
        <g class="cls-64">
          <path class="cls-42" d="m775.54,199.02h-85.57v-50.46h81.24c15.76,15.43,17.2,34.39,4.32,50.46Z"/>
        </g>
      </g>
    </mask>
    <linearGradient id="_ÂÁ_Ï_ÌÌ_È_ËÂÌÚ_14" data-name="¡ÂÁ˚ÏˇÌÌ˚È „‡‰ËÂÌÚ 14" x1="5633.06" y1="173.79" x2="5727.31" y2="173.79" gradientTransform="translate(6417.28) rotate(-180) scale(1 -1)" gradientUnits="userSpaceOnUse">
      <stop offset="0" stop-color="#e9e9fd"/>
      <stop offset=".04" stop-color="#d3d4f7"/>
      <stop offset=".11" stop-color="#b2b5ee"/>
      <stop offset=".18" stop-color="#959be7"/>
      <stop offset=".27" stop-color="#7e85e1"/>
      <stop offset=".36" stop-color="#6c75dc"/>
      <stop offset=".48" stop-color="#6069d9"/>
      <stop offset=".64" stop-color="#5962d7"/>
      <stop offset="1" stop-color="#5761d7"/>
    </linearGradient>
    <linearGradient id="_ÂÁ_Ï_ÌÌ_È_ËÂÌÚ_24-8" data-name="¡ÂÁ˚ÏˇÌÌ˚È „‡‰ËÂÌÚ 24" x1="5678.92" y1="171.08" x2="5775.7" y2="171.08" gradientTransform="translate(6417.28) rotate(-180) scale(1 -1)" xlink:href="#_ÂÁ_Ï_ÌÌ_È_ËÂÌÚ_24"/>
    <linearGradient id="_ÂÁ_Ï_ÌÌ_È_ËÂÌÚ_2-3" data-name="¡ÂÁ˚ÏˇÌÌ˚È „‡‰ËÂÌÚ 2" x1="5678.92" y1="160.35" x2="5775.7" y2="160.35" gradientTransform="translate(6417.28) rotate(-180) scale(1 -1)" xlink:href="#_ÂÁ_Ï_ÌÌ_È_ËÂÌÚ_2"/>
    <linearGradient id="_ÂÁ_Ï_ÌÌ_È_ËÂÌÚ_41" data-name="¡ÂÁ˚ÏˇÌÌ˚È „‡‰ËÂÌÚ 41" x1="5694.73" y1="153.62" x2="5759.89" y2="153.62" gradientTransform="translate(6417.28) rotate(-180) scale(1 -1)" gradientUnits="userSpaceOnUse">
      <stop offset="0" stop-color="#bcbeff"/>
      <stop offset=".15" stop-color="#a2a6f5"/>
      <stop offset=".39" stop-color="#8188e8"/>
      <stop offset=".61" stop-color="#6a72de"/>
      <stop offset=".82" stop-color="#5b65d8"/>
      <stop offset="1" stop-color="#5761d7"/>
    </linearGradient>
    <linearGradient id="_ÂÁ_Ï_ÌÌ_È_ËÂÌÚ_24-9" data-name="¡ÂÁ˚ÏˇÌÌ˚È „‡‰ËÂÌÚ 24" x1="5831.05" y1="452.87" x2="6019.55" y2="452.87" gradientTransform="translate(6417.28) rotate(-180) scale(1 -1)" xlink:href="#_ÂÁ_Ï_ÌÌ_È_ËÂÌÚ_24"/>
    <linearGradient id="_ÂÁ_Ï_ÌÌ_È_ËÂÌÚ_24-10" data-name="¡ÂÁ˚ÏˇÌÌ˚È „‡‰ËÂÌÚ 24" x1="5831.05" y1="402.16" x2="6019.55" y2="402.16" gradientTransform="translate(6417.28) rotate(-180) scale(1 -1)" xlink:href="#_ÂÁ_Ï_ÌÌ_È_ËÂÌÚ_24"/>
    <linearGradient id="_ÂÁ_Ï_ÌÌ_È_ËÂÌÚ_24-11" data-name="¡ÂÁ˚ÏˇÌÌ˚È „‡‰ËÂÌÚ 24" x1="5831.05" y1="350.4" x2="6019.55" y2="350.4" gradientTransform="translate(6417.28) rotate(-180) scale(1 -1)" xlink:href="#_ÂÁ_Ï_ÌÌ_È_ËÂÌÚ_24"/>
    <linearGradient id="_ÂÁ_Ï_ÌÌ_È_ËÂÌÚ_24-12" data-name="¡ÂÁ˚ÏˇÌÌ˚È „‡‰ËÂÌÚ 24" x1="5831.05" y1="298.63" x2="6019.55" y2="298.63" gradientTransform="translate(6417.28) rotate(-180) scale(1 -1)" xlink:href="#_ÂÁ_Ï_ÌÌ_È_ËÂÌÚ_24"/>
    <linearGradient id="_ÂÁ_Ï_ÌÌ_È_ËÂÌÚ_24-13" data-name="¡ÂÁ˚ÏˇÌÌ˚È „‡‰ËÂÌÚ 24" x1="5831.05" y1="298.63" x2="6019.55" y2="298.63" gradientTransform="translate(6417.28) rotate(-180) scale(1 -1)" xlink:href="#_ÂÁ_Ï_ÌÌ_È_ËÂÌÚ_24"/>
    <filter id="luminosity-noclip-3" x="491.98" y="250.11" width="94.25" height="50.46" color-interpolation-filters="sRGB" filterUnits="userSpaceOnUse">
      <feFlood flood-color="#fff" result="bg"/>
      <feBlend in="SourceGraphic" in2="bg"/>
    </filter>
    <filter id="luminosity-noclip-4" x="491.98" y="-8010.61" width="94.25" height="32766" color-interpolation-filters="sRGB" filterUnits="userSpaceOnUse">
      <feFlood flood-color="#fff" result="bg"/>
      <feBlend in="SourceGraphic" in2="bg"/>
    </filter>
    <mask id="mask-3" x="491.98" y="-8010.61" width="94.25" height="32766" maskUnits="userSpaceOnUse"/>
    <linearGradient id="_ÂÁ_Ï_ÌÌ_È_ËÂÌÚ_6-2" data-name="¡ÂÁ˚ÏˇÌÌ˚È „‡‰ËÂÌÚ 6" x1="5831.05" y1="275.34" x2="5925.3" y2="275.34" xlink:href="#_ÂÁ_Ï_ÌÌ_È_ËÂÌÚ_6"/>
    <mask id="mask-2" x="491.98" y="250.11" width="94.25" height="50.46" maskUnits="userSpaceOnUse">
      <g class="cls-10">
        <g class="cls-62">
          <path class="cls-43" d="m577.55,300.57h-85.57v-50.46h81.24c15.76,15.43,17.2,34.39,4.33,50.46Z"/>
        </g>
      </g>
    </mask>
    <linearGradient id="_ÂÁ_Ï_ÌÌ_È_ËÂÌÚ_14-2" data-name="¡ÂÁ˚ÏˇÌÌ˚È „‡‰ËÂÌÚ 14" x1="5831.05" y1="275.34" x2="5925.3" y2="275.34" xlink:href="#_ÂÁ_Ï_ÌÌ_È_ËÂÌÚ_14"/>
    <linearGradient id="_ÂÁ_Ï_ÌÌ_È_ËÂÌÚ_24-14" data-name="¡ÂÁ˚ÏˇÌÌ˚È „‡‰ËÂÌÚ 24" x1="5876.91" y1="272.63" x2="5973.69" y2="272.63" gradientTransform="translate(6417.28) rotate(-180) scale(1 -1)" xlink:href="#_ÂÁ_Ï_ÌÌ_È_ËÂÌÚ_24"/>
    <linearGradient id="_ÂÁ_Ï_ÌÌ_È_ËÂÌÚ_2-4" data-name="¡ÂÁ˚ÏˇÌÌ˚È „‡‰ËÂÌÚ 2" x1="5876.91" y1="261.9" x2="5973.69" y2="261.9" gradientTransform="translate(6417.28) rotate(-180) scale(1 -1)" xlink:href="#_ÂÁ_Ï_ÌÌ_È_ËÂÌÚ_2"/>
    <linearGradient id="_ÂÁ_Ï_ÌÌ_È_ËÂÌÚ_41-2" data-name="¡ÂÁ˚ÏˇÌÌ˚È „‡‰ËÂÌÚ 41" x1="5892.72" y1="255.18" x2="5957.88" y2="255.18" xlink:href="#_ÂÁ_Ï_ÌÌ_È_ËÂÌÚ_41"/>
    <linearGradient id="_ÂÁ_Ï_ÌÌ_È_ËÂÌÚ_24-15" data-name="¡ÂÁ˚ÏˇÌÌ˚È „‡‰ËÂÌÚ 24" x1="6214.29" y1="1407.88" x2="6461.54" y2="1407.88" gradientTransform="translate(5868.66 1983.54) rotate(-150) scale(1 -1) skewX(-30)" xlink:href="#_ÂÁ_Ï_ÌÌ_È_ËÂÌÚ_24"/>
    <radialGradient id="_ÂÁ_Ï_ÌÌ_È_ËÂÌÚ_25" data-name="¡ÂÁ˚ÏˇÌÌ˚È „‡‰ËÂÌÚ 25" cx="5980.52" cy="437.8" fx="5884.2" fy="403.82" r="102.14" gradientTransform="translate(6417.28) rotate(-180) scale(1 -1)" gradientUnits="userSpaceOnUse">
      <stop offset="0" stop-color="#2b237c"/>
      <stop offset="1" stop-color="#180d5b"/>
    </radialGradient>
    <linearGradient id="_ÂÁ_Ï_ÌÌ_È_ËÂÌÚ_24-16" data-name="¡ÂÁ˚ÏˇÌÌ˚È „‡‰ËÂÌÚ 24" x1="5930.2" y1="469.88" x2="6176.31" y2="469.88" gradientTransform="translate(6417.28) rotate(-180) scale(1 -1)" xlink:href="#_ÂÁ_Ï_ÌÌ_È_ËÂÌÚ_24"/>
    <linearGradient id="_ÂÁ_Ï_ÌÌ_È_ËÂÌÚ_2-5" data-name="¡ÂÁ˚ÏˇÌÌ˚È „‡‰ËÂÌÚ 2" x1="6262.22" y1="1449.5" x2="6509.46" y2="1449.5" gradientTransform="translate(5868.66 1983.54) rotate(-150) scale(1 -1) skewX(-30)" xlink:href="#_ÂÁ_Ï_ÌÌ_È_ËÂÌÚ_2"/>
  </defs>
  <g class="cls-57">
    <g id="Layer_2" data-name="Layer 2">
      <g id="Layer_1-2" data-name="Layer 1">
        <g>
          <g>
            <g class="cls-51">
              <polygon class="cls-9" points="447 768.28 0 510.21 446.99 252.14 893.99 510.22 447 768.28"/>
            </g>
            <g class="cls-51">
              <polygon class="cls-46" points="447 728.26 69.32 510.21 446.99 292.16 824.66 510.21 447 728.26"/>
            </g>
            <g class="cls-54">
              <polygon class="cls-44" points="447 681.76 149.87 510.21 446.99 338.67 744.12 510.21 447 681.76"/>
            </g>
          </g>
          <g>
            <g>
              <g>
                <g>
                  <path class="cls-65" d="m344.46,295.63L393.36,5.53l-3.93-1.66,5.91-3.39v.03c1.14-.76,2.76-.72,4.54.31l390.79,225.62c3.21,1.85,5.64,6.6,5.07,9.93l-49.29,292.4c-.26,1.52-1.01,2.53-2.06,2.98h0s-5.78,3.34-5.78,3.34l-.99-5.4.33.1-388.42-224.25c-3.21-1.85-5.64-6.6-5.07-9.93Z"/>
                  <path class="cls-13" d="m788.48,234.39l6.42-2.84c.72,1.65,1.07,3.38.83,4.84l-49.29,292.4c-.26,1.52-1.01,2.53-2.06,2.98h0s-5.78,3.34-5.78,3.34l-.99-5.4.33.1-19.65-11.35,70.19-284.07Z"/>
                  <path class="cls-20" d="m343.4,309.07l390.79,225.62c3.02,1.74,5.6.74,6.13-2.39l49.29-292.4c.56-3.32-1.87-8.07-5.07-9.93L393.74,4.35c-3.02-1.74-5.6-.74-6.13,2.39l-49.29,292.4c-.56,3.32,1.87,8.07,5.07,9.93Z"/>
                  <g class="cls-52">
                    <polygon class="cls-22" points="392.43 9.79 785.05 236.37 735.47 529.52 343.1 303.09 392.43 9.79"/>
                  </g>
                </g>
                <g>
                  <path class="cls-45" d="m97.75,447.51l21.33,11.14,213.85-123.46c3.58-2.07,9.83-1.81,13.96.58l368.83,212.94c3.53-1.97,19.62-9.71,19.62-9.71l-7.81,12.69s-.03-.02-.03-.02c-.32.9-1.02,1.75-2.18,2.42l-225.22,130.03c-3.58,2.07-9.83,1.81-13.96-.58L108.71,465.62c-1.7-.98-2.74-2.17-3.17-3.37l-.03.02-7.76-14.77Z"/>
                  <path class="cls-48" d="m101.05,451.01l386.81,223.33c4.23,2.44,10.64,2.71,14.31.59l230.82-133.27c3.67-2.12,3.21-5.81-1.03-8.26l-386.81-223.33c-4.23-2.44-10.64-2.71-14.31-.59l-230.82,133.27c-3.67,2.12-3.21,5.81,1.03,8.26Z"/>
                  <path class="cls-47" d="m101.05,451.01l386.81,223.33c4.23,2.44,10.64,2.71,14.31.59l230.82-133.27c3.67-2.12,3.21-5.81-1.03-8.26l-386.81-223.33c-4.23-2.44-10.64-2.71-14.31-.59l-230.82,133.27c-3.67,2.12-3.21,5.81,1.03,8.26Z"/>
                  <path class="cls-53" d="m101.05,451.01l386.81,223.33c4.23,2.44,10.64,2.71,14.31.59l230.82-133.27c3.67-2.12,3.21-5.81-1.03-8.26l-386.81-223.33c-4.23-2.44-10.64-2.71-14.31-.59l-230.82,133.27c-3.67,2.12-3.21,5.81,1.03,8.26Z"/>
                  <g class="cls-50">
                    <path class="cls-38" d="m101.05,442.79l386.81,223.33c4.23,2.44,10.64,2.71,14.31.59l230.82-133.27c3.67-2.12,3.21-5.81-1.03-8.26l-386.81-223.33c-4.23-2.44-10.64-2.71-14.31-.59l-230.82,133.27c-3.67,2.12-3.21,5.81,1.03,8.26Z"/>
                    <g class="cls-14">
                      <path class="cls-56" d="m309.81,688.34c0-85.9,51.16-155.54,114.26-155.54s114.26,69.64,114.26,155.54-51.16,111.64-114.26,111.64-114.26-25.74-114.26-111.64Z"/>
                    </g>
                  </g>
                  <path class="cls-36" d="m495.94,669.07c-2.96,0-6.06-.73-8.53-2.16L100.59,443.58c-2.52-1.45-3.96-3.44-3.96-5.46,0-1.73,1.04-3.28,2.93-4.38l230.82-133.27c3.98-2.3,10.67-2.03,15.22.59l386.81,223.33c2.52,1.45,3.96,3.44,3.96,5.46,0,1.73-1.04,3.28-2.93,4.38l-230.83,133.27c-1.82,1.05-4.2,1.56-6.68,1.56Zm-158.88-368.33c-2.16,0-4.22.43-5.76,1.32l-230.82,133.27c-.92.53-2.02,1.45-2.02,2.8s1.11,2.76,3.05,3.88l386.81,223.33c3.97,2.3,9.98,2.56,13.39.59l230.83-133.27c.92-.53,2.02-1.45,2.02-2.8s-1.11-2.76-3.05-3.88l-386.81-223.33c-2.19-1.26-4.99-1.91-7.64-1.91Z"/>
                  <path class="cls-55" d="m101.05,449.28l386.81,223.33c4.23,2.44,10.64,2.71,14.31.59l230.82-133.27c1.29-.75,2.04-1.69,2.33-2.7.41,1.64-.32,3.28-2.33,4.44l-230.82,133.27c-3.67,2.12-10.07,1.85-14.31-.59L101.05,451.01c-2.74-1.58-3.87-3.69-3.35-5.56.34,1.36,1.44,2.72,3.35,3.82Z"/>
                </g>
              </g>
              <g class="cls-49">
                <g class="cls-41">
                  <g>
                    <path class="cls-29" d="m342.92,307.19l21.33,11.14,213.85-123.46c3.58-2.07,9.83-1.81,13.96.58l368.83,212.94c3.53-1.97,19.62-9.71,19.62-9.71l-7.81,12.69s-.03-.02-.03-.02c-.32.9-1.02,1.75-2.18,2.42l-225.22,130.03c-3.58,2.07-9.83,1.81-13.96-.58l-377.43-217.91c-1.7-.98-2.74-2.17-3.17-3.37l-.03.02-7.76-14.77Z"/>
                    <path class="cls-60" d="m346.22,310.7l386.81,223.33c4.23,2.44,10.64,2.71,14.31.59l230.82-133.27c3.67-2.12,3.21-5.81-1.03-8.26l-386.81-223.33c-4.23-2.44-10.64-2.71-14.31-.59l-230.82,133.27c-3.67,2.12-3.21,5.81,1.03,8.26Z"/>
                    <path class="cls-20" d="m346.22,310.7l386.81,223.33c4.23,2.44,10.64,2.71,14.31.59l230.82-133.27c3.67-2.12,3.21-5.81-1.03-8.26l-386.81-223.33c-4.23-2.44-10.64-2.71-14.31-.59l-230.82,133.27c-3.67,2.12-3.21,5.81,1.03,8.26Z"/>
                    <path class="cls-23" d="m346.22,310.7l386.81,223.33c4.23,2.44,10.64,2.71,14.31.59l230.82-133.27c3.67-2.12,3.21-5.81-1.03-8.26l-386.81-223.33c-4.23-2.44-10.64-2.71-14.31-.59l-230.82,133.27c-3.67,2.12-3.21,5.81,1.03,8.26Z"/>
                    <path class="cls-18" d="m977.13,393.09l-386.81-223.33c-2.73-1.57-6.34-2.23-9.56-1.94,2.38.19,4.77.82,6.71,1.94l386.81,223.33c4.23,2.44,4.69,6.14,1.03,8.26l-230.82,133.27c-1.31.75-2.97,1.19-4.75,1.35,2.82.22,5.61-.2,7.6-1.35l230.82-133.27c3.67-2.12,3.21-5.81-1.03-8.26Z"/>
                  </g>
                  <path class="cls-21" d="m631.29,437.12l-111.02-64.1c-11.27-6.51-11.27-17.09,0-23.6l111.01-64.09c11.27-6.51,29.61-6.51,40.88,0l111.02,64.1c11.27,6.51,11.27,17.09,0,23.6l-111.01,64.09c-11.27,6.51-29.61,6.51-40.88,0Z"/>
                  <g>
                    <path class="cls-24" d="m689.97,445.64c-27.72,0-53.76-6.22-73.32-17.52h0c-19.9-11.49-30.86-26.86-30.86-43.3s10.96-31.81,30.86-43.3c40.43-23.34,106.21-23.34,146.64,0,19.9,11.49,30.86,26.87,30.86,43.3s-10.96,31.81-30.86,43.3c-19.57,11.3-45.61,17.52-73.32,17.52Zm0-120.41c-26.33,0-52.66,5.78-72.71,17.36-19.5,11.26-30.24,26.26-30.24,42.23s10.74,30.97,30.24,42.23h0c19.38,11.19,45.2,17.35,72.7,17.35s53.33-6.16,72.71-17.35c19.5-11.26,30.24-26.26,30.24-42.23s-10.74-30.97-30.24-42.23c-20.04-11.57-46.38-17.36-72.7-17.36Z"/>
                    <g>
                      <g>
                        <path class="cls-33" d="m595.72,351.31v-20.91h7.23c4.6-6.39,11.38-12.37,20.38-17.57,36.81-21.25,96.49-21.25,133.29,0,9,5.19,15.78,11.18,20.38,17.57h7.23v20.91h0c0,13.93-9.2,27.85-27.61,38.48-36.81,21.25-96.49,21.25-133.29,0-18.4-10.63-27.61-24.55-27.6-38.48Z"/>
                        <ellipse class="cls-19" cx="689.97" cy="330.4" rx="94.25" ry="54.42"/>
                      </g>
                      <g>
                        <path class="cls-20" d="m602.93,329.6v-28.54h6.68c4.25-5.9,10.51-11.43,18.82-16.22,33.99-19.63,89.11-19.63,123.1,0,8.31,4.8,14.57,10.33,18.82,16.22h6.67v28.54h0c0,12.86-8.5,25.72-25.5,35.54-33.99,19.63-89.11,19.63-123.1,0-17-9.81-25.49-22.68-25.49-35.54Z"/>
                        <g class="cls-52">
                          <path class="cls-22" d="m602.93,322.73v-28.54h6.68c4.25-5.9,10.51-11.43,18.82-16.22,33.99-19.63,89.11-19.63,123.1,0,8.31,4.8,14.57,10.33,18.82,16.22h6.67v28.54h0c0,12.86-8.5,25.72-25.5,35.54-33.99,19.63-89.11,19.63-123.1,0-17-9.81-25.49-22.68-25.49-35.54Z"/>
                        </g>
                        <ellipse class="cls-19" cx="689.97" cy="301.06" rx="87.04" ry="50.25"/>
                      </g>
                      <g>
                        <g class="cls-52">
                          <path class="cls-26" d="m630,338.04c14.96,19.06,34.7,29.24,51.39,34.7-19.34-1.1-38.16-5.92-52.97-14.47-17-9.81-25.49-22.68-25.49-35.54v-8.53c8.8,4.92,18.13,12.44,27.08,23.84Z"/>
                        </g>
                        <path class="cls-34" d="m595.72,300.6v-20.91h7.23c4.6-6.39,11.38-12.37,20.38-17.57,36.81-21.25,96.49-21.25,133.29,0,9,5.19,15.78,11.18,20.38,17.57h7.23v20.91h0c0,13.93-9.2,27.85-27.61,38.48-36.81,21.25-96.49,21.25-133.29,0-18.4-10.63-27.61-24.55-27.6-38.48Z"/>
                        <ellipse class="cls-19" cx="689.97" cy="279.69" rx="94.25" ry="54.42"/>
                      </g>
                      <g>
                        <path class="cls-20" d="m602.93,277.84v-28.54h6.68c4.25-5.9,10.51-11.43,18.82-16.22,33.99-19.63,89.11-19.63,123.1,0,8.31,4.8,14.57,10.33,18.82,16.22h6.67v28.54h0c0,12.86-8.5,25.72-25.5,35.54-33.99,19.63-89.11,19.63-123.1,0-17-9.81-25.49-22.68-25.49-35.54Z"/>
                        <g class="cls-52">
                          <path class="cls-22" d="m602.93,271.31v-28.54h6.68c4.25-5.9,10.51-11.43,18.82-16.22,33.99-19.63,89.11-19.63,123.1,0,8.31,4.8,14.57,10.33,18.82,16.22h6.67v28.54h0c0,12.86-8.5,25.72-25.5,35.54-33.99,19.63-89.11,19.63-123.1,0-17-9.81-25.49-22.68-25.49-35.54Z"/>
                        </g>
                        <ellipse class="cls-19" cx="689.97" cy="249.3" rx="87.04" ry="50.25"/>
                      </g>
                      <g>
                        <g class="cls-52">
                          <path class="cls-26" d="m630,283.6c18.6,23.69,44.57,33.67,62.91,37.89-23.25.45-46.75-4.39-64.49-14.64-17-9.81-25.49-22.68-25.49-35.54v-11.55c8.8,4.92,18.13,12.44,27.08,23.84Z"/>
                        </g>
                        <path class="cls-35" d="m595.72,248.84v-20.91h7.23c4.6-6.39,11.38-12.37,20.38-17.57,36.81-21.25,96.49-21.25,133.29,0,9,5.19,15.78,11.18,20.38,17.57h7.23v20.91h0c0,13.93-9.2,27.85-27.61,38.48-36.81,21.25-96.49,21.25-133.29,0-18.4-10.63-27.61-24.55-27.6-38.48Z"/>
                        <ellipse class="cls-19" cx="689.97" cy="227.93" rx="94.25" ry="54.42"/>
                      </g>
                      <g>
                        <path class="cls-20" d="m602.93,226.08v-28.54h6.68c4.25-5.9,10.51-11.43,18.82-16.22,33.99-19.63,89.11-19.63,123.1,0,8.31,4.8,14.57,10.33,18.82,16.22h6.67v28.54h0c0,12.86-8.5,25.72-25.5,35.54-33.99,19.63-89.11,19.63-123.1,0-17-9.81-25.49-22.68-25.49-35.54Z"/>
                        <g class="cls-52">
                          <path class="cls-22" d="m602.93,218.09v-28.54h6.68c4.25-5.9,10.51-11.43,18.82-16.22,33.99-19.63,89.11-19.63,123.1,0,8.31,4.8,14.57,10.33,18.82,16.22h6.67v28.54h0c0,12.86-8.5,25.72-25.5,35.54-33.99,19.63-89.11,19.63-123.1,0-17-9.81-25.49-22.68-25.49-35.54Z"/>
                        </g>
                        <ellipse class="cls-19" cx="689.97" cy="197.54" rx="87.04" ry="50.25"/>
                      </g>
                      <g>
                        <path class="cls-30" d="m595.72,197.08v-20.91h7.23c4.6-6.39,11.38-12.37,20.38-17.57,36.81-21.25,96.49-21.25,133.29,0,9,5.19,15.78,11.18,20.38,17.57h7.23v20.91h0c0,13.93-9.2,27.85-27.61,38.48-36.81,21.25-96.49,21.25-133.29,0-18.4-10.63-27.61-24.55-27.6-38.48Z"/>
                        <ellipse class="cls-19" cx="689.97" cy="176.17" rx="94.25" ry="54.42"/>
                        <ellipse class="cls-19" cx="689.97" cy="176.17" rx="94.25" ry="54.42"/>
                      </g>
                      <g>
                        <g class="cls-52">
                          <path class="cls-26" d="m630,229.16c20.43,26.02,49.75,35.51,68.07,38.97-24.9,1.34-50.6-3.49-69.66-14.5-17-9.81-25.49-22.68-25.49-35.54v-12.77c8.8,4.92,18.13,12.44,27.08,23.84Z"/>
                        </g>
                        <path class="cls-31" d="m595.72,197.08v-20.91h7.23c4.6-6.39,11.38-12.37,20.38-17.57,36.81-21.25,96.49-21.25,133.29,0,9,5.19,15.78,11.18,20.38,17.57h7.23v20.91h0c0,13.93-9.2,27.85-27.61,38.48-36.81,21.25-96.49,21.25-133.29,0-18.4-10.63-27.61-24.55-27.6-38.48Z"/>
                        <ellipse class="cls-19" cx="689.97" cy="176.17" rx="94.25" ry="54.42"/>
                        <ellipse class="cls-19" cx="689.97" cy="176.17" rx="94.25" ry="54.42"/>
                        <path class="cls-18" d="m622.79,213c36.81,21.25,96.48,21.25,133.29,0,22.54-13.01,31.25-30.98,26.19-47.83,6.17,17.32-2.37,36.04-25.65,49.48-36.81,21.25-96.49,21.25-133.29,0-14.27-8.24-22.98-18.46-26.18-29.13,3.58,10.07,12.12,19.66,25.65,27.47Z"/>
                        <path class="cls-18" d="m622.79,264.76c36.81,21.25,96.48,21.25,133.29,0,22.54-13.01,31.25-30.98,26.19-47.83,6.17,17.32-2.37,36.04-25.65,49.48-36.81,21.25-96.49,21.25-133.29,0-14.27-8.24-22.98-18.46-26.18-29.13,3.58,10.07,12.12,19.66,25.65,27.47Z"/>
                        <path class="cls-18" d="m622.79,316.52c36.81,21.25,96.48,21.25,133.29,0,22.54-13.01,31.25-30.98,26.19-47.83,6.17,17.32-2.37,36.04-25.65,49.48-36.81,21.25-96.49,21.25-133.29,0-14.27-8.24-22.98-18.46-26.18-29.13,3.58,10.07,12.12,19.66,25.65,27.47Z"/>
                        <path class="cls-18" d="m622.79,368.28c36.81,21.25,96.48,21.25,133.29,0,22.54-13.01,31.25-30.98,26.19-47.83,6.17,17.32-2.37,36.04-25.65,49.48-36.81,21.25-96.49,21.25-133.29,0-14.27-8.24-22.98-18.46-26.18-29.13,3.58,10.07,12.12,19.66,25.65,27.47Z"/>
                      </g>
                      <g class="cls-15">
                        <path class="cls-40" d="m775.54,199.02h-85.57v-50.46h81.24c15.76,15.43,17.2,34.39,4.32,50.46Z"/>
                      </g>
                      <g>
                        <path class="cls-32" d="m641.58,171.08v-10.74h3.71c2.36-3.28,5.84-6.35,10.46-9.02,18.9-10.91,49.54-10.91,68.44,0,4.62,2.67,8.1,5.74,10.46,9.02h3.71v10.74h0c0,7.15-4.72,14.3-14.17,19.76-18.9,10.91-49.54,10.91-68.44,0-9.45-5.46-14.17-12.61-14.17-19.76Z"/>
                        <ellipse class="cls-19" cx="689.97" cy="160.35" rx="48.39" ry="27.94"/>
                        <ellipse class="cls-58" cx="689.97" cy="160.35" rx="48.39" ry="27.94"/>
                        <path class="cls-20" d="m666.93,173.65c12.72,7.35,33.35,7.35,46.08,0,3.97-2.29,6.71-5.03,8.2-7.94,3.29-6.4-4.93-11.04-13.68-16.1-12.72-7.35-21.75-9.17-34.47-1.82-8.75,5.05-17.61,11.51-14.33,17.91,1.49,2.91,4.22,5.65,8.2,7.95Z"/>
                        <path class="cls-11" d="m713.01,157.78c-12.72-7.35-33.35-7.35-46.08,0-3.97,2.29-6.7,5.03-8.19,7.93-3.29-6.4-.56-13.62,8.19-18.67,12.72-7.35,33.35-7.35,46.08,0,8.75,5.05,11.48,12.27,8.19,18.67-1.49-2.9-4.22-5.64-8.19-7.93Z"/>
                      </g>
                    </g>
                    <g>
                      <g class="cls-52">
                        <path class="cls-17" d="m636.91,255.58c6.35,2.5,11.09,1.82,10.59-1.51s-6.05-8.07-12.4-10.57c-6.35-2.5-11.09-1.82-10.59,1.51.5,3.33,6.05,8.07,12.4,10.57Z"/>
                      </g>
                      <g class="cls-52">
                        <path class="cls-17" d="m636.91,308.08c6.35,2.5,11.09,1.82,10.59-1.51s-6.05-8.06-12.4-10.57c-6.35-2.5-11.09-1.82-10.59,1.51.5,3.33,6.05,8.07,12.4,10.57Z"/>
                      </g>
                      <g class="cls-52">
                        <path class="cls-17" d="m636.57,360.93c6.35,2.5,11.09,1.82,10.59-1.51-.5-3.33-6.05-8.06-12.4-10.57-6.35-2.5-11.09-1.82-10.59,1.51.5,3.33,6.05,8.06,12.4,10.57Z"/>
                      </g>
                      <g class="cls-52">
                        <path class="cls-17" d="m618.83,242.41c1.5,1.07,3.36,1.01,4.18-.12.81-1.14.26-2.92-1.24-3.99s-3.36-1.01-4.18.12c-.81,1.14-.26,2.92,1.24,3.99Z"/>
                      </g>
                      <g class="cls-52">
                        <path class="cls-17" d="m618.83,295.15c1.5,1.07,3.36,1.01,4.18-.12.81-1.14.26-2.92-1.24-3.99-1.5-1.07-3.36-1.01-4.18.12-.81,1.14-.26,2.92,1.24,3.99Z"/>
                      </g>
                      <g class="cls-52">
                        <path class="cls-17" d="m618.83,347.7c1.5,1.07,3.36,1.01,4.18-.12.81-1.14.26-2.92-1.24-3.99s-3.36-1.01-4.18.12c-.81,1.14-.26,2.92,1.24,3.99Z"/>
                      </g>
                    </g>
                  </g>
                </g>
              </g>
            </g>
            <g>
              <g>
                <polygon class="cls-25" points="430.94 94.67 408.81 81.89 409.61 77.03 431.74 89.81 430.94 94.67"/>
                <polygon class="cls-25" points="442.29 101.23 434.32 96.63 435.12 91.76 443.09 96.37 442.29 101.23"/>
                <polygon class="cls-25" points="451.09 106.31 445.68 103.18 446.48 98.32 451.89 101.45 451.09 106.31"/>
                <polygon class="cls-25" points="419.04 99.96 406.98 93 407.78 88.13 419.84 95.1 419.04 99.96"/>
                <polygon class="cls-25" points="437.2 110.45 422.42 101.92 423.22 97.05 438 105.59 437.2 110.45"/>
                <polygon class="cls-25" points="446 115.53 440.59 112.41 441.39 107.54 446.8 110.67 446 115.53"/>
                <polygon class="cls-25" points="454.37 120.37 448.96 117.24 449.76 112.38 455.17 115.51 454.37 120.37"/>
                <polygon class="cls-24" points="413.88 109.15 405.15 104.11 405.95 99.24 414.68 104.28 413.88 109.15"/>
                <polygon class="cls-24" points="420.24 112.82 417.26 111.1 418.06 106.24 421.04 107.96 420.24 112.82"/>
                <polygon class="cls-25" points="429.04 117.9 423.63 114.77 424.43 109.91 429.84 113.04 429.04 117.9"/>
                <polygon class="cls-25" points="435.54 133.82 403.33 115.21 404.13 110.35 436.34 128.95 435.54 133.82"/>
                <polygon class="cls-25" points="446.89 140.37 438.92 135.77 439.72 130.91 447.69 135.51 446.89 140.37"/>
                <polygon class="cls-25" points="410.22 131.36 401.5 126.32 402.3 121.46 411.02 126.5 410.22 131.36"/>
                <polygon class="cls-25" points="430.7 143.19 413.61 133.32 414.41 128.45 431.5 138.33 430.7 143.19"/>
                <polygon class="cls-25" points="439.5 148.27 434.09 145.14 434.89 140.28 440.3 143.41 439.5 148.27"/>
                <polygon class="cls-25" points="417.53 147.74 399.67 137.43 400.47 132.57 418.33 142.88 417.53 147.74"/>
                <polygon class="cls-24" points="433.82 157.15 420.91 149.7 421.71 144.83 434.62 152.29 433.82 157.15"/>
                <polygon class="cls-25" points="445.93 164.15 437.2 159.11 438 154.24 446.73 159.28 445.93 164.15"/>
                <polygon class="cls-25" points="403.87 152.02 397.84 148.54 398.64 143.68 404.67 147.16 403.87 152.02"/>
                <polygon class="cls-25" points="415.23 158.58 407.26 153.98 408.06 149.11 416.03 153.72 415.23 158.58"/>
                <polygon class="cls-25" points="431.45 167.95 418.61 160.53 419.41 155.67 432.25 163.09 431.45 167.95"/>
                <polygon class="cls-25" points="414.49 170.32 396.02 159.65 396.82 154.79 415.29 165.45 414.49 170.32"/>
                <polygon class="cls-25" points="435.18 182.27 417.87 172.27 418.67 167.41 435.98 177.4 435.18 182.27"/>
                <polygon class="cls-24" points="443.98 187.35 438.56 184.22 439.36 179.36 444.78 182.49 443.98 187.35"/>
                <polygon class="cls-25" points="452.42 192.22 447 189.1 447.8 184.23 453.22 187.36 452.42 192.22"/>
                <polygon class="cls-25" points="405.26 177.15 394.19 170.76 394.99 165.89 406.06 172.29 405.26 177.15"/>
                <polygon class="cls-24" points="466.16 115.01 481.51 123.88 482.31 119.02 466.96 110.15 466.16 115.01"/>
                <polygon class="cls-25" points="467.62 128.02 479.68 134.99 480.48 130.12 468.42 123.16 467.62 128.02"/>
                <polygon class="cls-25" points="469.13 141.06 477.86 146.1 478.66 141.23 469.93 136.19 469.13 141.06"/>
                <polygon class="cls-25" points="463.34 149.87 476.03 157.21 476.83 152.34 464.14 145.01 463.34 149.87"/>
                <polygon class="cls-25" points="465.48 163.27 474.2 168.31 475 163.45 466.28 158.41 465.48 163.27"/>
                <polygon class="cls-25" points="461.31 173.03 472.37 179.42 473.17 174.56 462.11 168.17 461.31 173.03"/>
                <polygon class="cls-25" points="464.52 187.05 470.55 190.53 471.35 185.67 465.32 182.18 464.52 187.05"/>
                <polygon class="cls-25" points="457.03 194.89 468.72 201.64 469.52 196.78 457.83 190.03 457.03 194.89"/>
                <polygon class="cls-25" points="455.82 206.36 466.89 212.75 467.69 207.89 456.62 201.49 455.82 206.36"/>
                <polygon class="cls-25" points="413.34 181.82 408.64 179.1 409.44 174.24 414.14 176.96 413.34 181.82"/>
                <polygon class="cls-25" points="427.32 189.89 416.73 183.77 417.53 178.91 428.12 185.03 427.32 189.89"/>
                <polygon class="cls-25" points="516.81 144.06 494.68 131.27 495.48 126.41 517.61 139.2 516.81 144.06"/>
                <polygon class="cls-25" points="528.16 150.61 520.19 146.01 520.99 141.15 528.96 145.75 528.16 150.61"/>
                <polygon class="cls-24" points="536.96 155.7 531.55 152.57 532.35 147.71 537.76 150.83 536.96 155.7"/>
                <polygon class="cls-25" points="504.91 149.35 492.85 142.38 493.65 137.52 505.71 144.49 504.91 149.35"/>
                <polygon class="cls-25" points="523.07 159.84 508.29 151.3 509.09 146.44 523.87 154.98 523.07 159.84"/>
                <polygon class="cls-24" points="531.87 164.92 526.45 161.79 527.25 156.93 532.67 160.06 531.87 164.92"/>
                <polygon class="cls-25" points="540.24 169.75 534.83 166.63 535.63 161.76 541.04 164.89 540.24 169.75"/>
                <polygon class="cls-25" points="499.75 158.53 491.02 153.49 491.82 148.63 500.55 153.67 499.75 158.53"/>
                <polygon class="cls-25" points="506.11 162.21 503.13 160.48 503.93 155.62 506.91 157.34 506.11 162.21"/>
                <polygon class="cls-25" points="514.91 167.29 509.49 164.16 510.29 159.3 515.71 162.43 514.91 167.29"/>
                <polygon class="cls-25" points="521.4 183.2 489.19 164.6 489.99 159.74 522.2 178.34 521.4 183.2"/>
                <polygon class="cls-25" points="532.76 189.76 524.79 185.16 525.59 180.29 533.56 184.9 532.76 189.76"/>
                <polygon class="cls-25" points="496.09 180.75 487.37 175.71 488.17 170.85 496.89 175.89 496.09 180.75"/>
                <polygon class="cls-25" points="516.57 192.58 499.48 182.7 500.28 177.84 517.37 187.71 516.57 192.58"/>
                <polygon class="cls-25" points="525.37 197.66 519.96 194.53 520.76 189.67 526.17 192.8 525.37 197.66"/>
                <polygon class="cls-24" points="503.39 197.13 485.54 186.82 486.34 181.95 504.19 192.27 503.39 197.13"/>
                <polygon class="cls-25" points="519.69 206.54 506.78 199.08 507.58 194.22 520.49 201.68 519.69 206.54"/>
                <polygon class="cls-25" points="531.8 213.53 523.07 208.49 523.87 203.63 532.6 208.67 531.8 213.53"/>
                <polygon class="cls-25" points="489.74 201.41 483.71 197.93 484.51 193.06 490.54 196.55 489.74 201.41"/>
                <polygon class="cls-25" points="501.09 207.97 493.12 203.36 493.92 198.5 501.89 203.1 501.09 207.97"/>
                <polygon class="cls-24" points="517.32 217.33 504.48 209.92 505.28 205.06 518.12 212.47 517.32 217.33"/>
                <polygon class="cls-25" points="500.36 219.7 481.88 209.03 482.68 204.17 501.16 214.84 500.36 219.7"/>
                <polygon class="cls-25" points="521.05 231.65 503.74 221.66 504.54 216.79 521.85 226.79 521.05 231.65"/>
                <polygon class="cls-25" points="529.85 236.73 524.43 233.61 525.23 228.74 530.65 231.87 529.85 236.73"/>
                <polygon class="cls-25" points="538.29 241.61 532.87 238.48 533.67 233.62 539.09 236.75 538.29 241.61"/>
                <polygon class="cls-25" points="491.13 226.54 480.06 220.14 480.86 215.28 491.93 221.67 491.13 226.54"/>
                <polygon class="cls-24" points="552.03 164.4 567.38 173.26 568.18 168.4 552.83 159.54 552.03 164.4"/>
                <polygon class="cls-25" points="553.49 177.41 565.55 184.37 566.35 179.51 554.29 172.54 553.49 177.41"/>
                <polygon class="cls-25" points="555 190.44 563.73 195.48 564.53 190.62 555.8 185.58 555 190.44"/>
                <polygon class="cls-25" points="549.2 199.26 561.9 206.59 562.7 201.73 550 194.4 549.2 199.26"/>
                <polygon class="cls-25" points="551.34 212.66 560.07 217.7 560.87 212.84 552.14 207.8 551.34 212.66"/>
                <polygon class="cls-25" points="547.18 222.42 558.24 228.81 559.04 223.95 547.98 217.55 547.18 222.42"/>
                <polygon class="cls-25" points="550.39 236.43 556.42 239.92 557.22 235.05 551.19 231.57 550.39 236.43"/>
                <polygon class="cls-25" points="542.9 244.28 554.59 251.03 555.39 246.16 543.7 239.41 542.9 244.28"/>
                <polygon class="cls-25" points="541.69 255.74 552.76 262.13 553.56 257.27 542.49 250.88 541.69 255.74"/>
                <polygon class="cls-24" points="499.21 231.21 494.51 228.49 495.31 223.63 500.01 226.34 499.21 231.21"/>
                <polygon class="cls-25" points="513.19 239.28 502.6 233.16 503.4 228.3 513.99 234.42 513.19 239.28"/>
                <polygon class="cls-25" points="414.49 194.71 392.35 181.93 393.15 177.07 415.29 189.85 414.49 194.71"/>
                <polygon class="cls-25" points="425.84 201.27 417.87 196.67 418.67 191.81 426.64 196.41 425.84 201.27"/>
                <polygon class="cls-25" points="434.64 206.35 429.22 203.22 430.02 198.36 435.44 201.49 434.64 206.35"/>
                <polygon class="cls-25" points="402.58 200 390.52 193.04 391.32 188.18 403.38 195.14 402.58 200"/>
                <polygon class="cls-25" points="420.75 210.49 405.97 201.96 406.77 197.1 421.55 205.63 420.75 210.49"/>
                <polygon class="cls-25" points="429.54 215.58 424.13 212.45 424.93 207.59 430.34 210.71 429.54 215.58"/>
                <polygon class="cls-25" points="437.92 220.41 432.5 217.28 433.3 212.42 438.72 215.55 437.92 220.41"/>
                <polygon class="cls-25" points="397.42 209.19 388.7 204.15 389.5 199.28 398.22 204.32 397.42 209.19"/>
                <polygon class="cls-25" points="403.79 212.86 400.8 211.14 401.6 206.28 404.59 208 403.79 212.86"/>
                <polygon class="cls-25" points="412.58 217.94 407.17 214.82 407.97 209.95 413.38 213.08 412.58 217.94"/>
                <polygon class="cls-25" points="419.08 233.86 386.87 215.26 387.67 210.39 419.88 229 419.08 233.86"/>
                <polygon class="cls-25" points="430.43 240.42 422.46 235.81 423.26 230.95 431.23 235.55 430.43 240.42"/>
                <polygon class="cls-25" points="393.77 231.4 385.04 226.36 385.84 221.5 394.57 226.54 393.77 231.4"/>
                <polygon class="cls-25" points="414.25 243.23 397.15 233.36 397.95 228.49 415.05 238.37 414.25 243.23"/>
                <polygon class="cls-25" points="423.05 248.31 417.63 245.19 418.43 240.32 423.85 243.45 423.05 248.31"/>
                <polygon class="cls-25" points="401.07 247.79 383.21 237.47 384.01 232.61 401.87 242.92 401.07 247.79"/>
                <polygon class="cls-25" points="417.36 257.2 404.45 249.74 405.25 244.88 418.16 252.33 417.36 257.2"/>
                <polygon class="cls-25" points="429.47 264.19 420.75 259.15 421.55 254.29 430.27 259.33 429.47 264.19"/>
                <polygon class="cls-25" points="387.42 252.06 381.39 248.58 382.19 243.72 388.22 247.2 387.42 252.06"/>
                <polygon class="cls-25" points="398.77 258.62 390.8 254.02 391.6 249.16 399.57 253.76 398.77 258.62"/>
                <polygon class="cls-25" points="414.99 267.99 402.15 260.57 402.95 255.71 415.79 263.13 414.99 267.99"/>
                <polygon class="cls-25" points="398.03 270.36 379.56 259.69 380.36 254.83 398.83 265.5 398.03 270.36"/>
                <polygon class="cls-25" points="418.72 282.31 401.41 272.31 402.21 267.45 419.52 277.45 418.72 282.31"/>
                <polygon class="cls-25" points="427.52 287.39 422.1 284.26 422.9 279.4 428.32 282.53 427.52 287.39"/>
                <polygon class="cls-25" points="435.96 292.27 430.55 289.14 431.35 284.28 436.76 287.4 435.96 292.27"/>
                <polygon class="cls-25" points="388.8 277.19 377.73 270.8 378.53 265.94 389.6 272.33 388.8 277.19"/>
                <polygon class="cls-25" points="449.71 215.06 465.05 223.92 465.85 219.06 450.51 210.19 449.71 215.06"/>
                <polygon class="cls-25" points="451.17 228.06 463.23 235.03 464.03 230.17 451.97 223.2 451.17 228.06"/>
                <polygon class="cls-25" points="452.67 241.1 461.4 246.14 462.2 241.28 453.47 236.24 452.67 241.1"/>
                <polygon class="cls-25" points="446.88 249.92 459.57 257.25 460.37 252.38 447.68 245.05 446.88 249.92"/>
                <polygon class="cls-25" points="449.02 263.32 457.75 268.36 458.55 263.49 449.82 258.45 449.02 263.32"/>
                <polygon class="cls-25" points="444.85 273.07 455.92 279.46 456.72 274.6 445.65 268.21 444.85 273.07"/>
                <polygon class="cls-25" points="448.06 287.09 454.09 290.57 454.89 285.71 448.86 282.23 448.06 287.09"/>
                <polygon class="cls-25" points="440.58 294.93 452.26 301.68 453.06 296.82 441.38 290.07 440.58 294.93"/>
                <polygon class="cls-25" points="439.37 306.4 450.44 312.79 451.24 307.93 440.17 301.53 439.37 306.4"/>
                <polygon class="cls-25" points="396.89 281.86 392.18 279.14 392.98 274.28 397.69 277 396.89 281.86"/>
                <polygon class="cls-25" points="410.86 289.94 400.27 283.82 401.07 278.95 411.66 285.07 410.86 289.94"/>
                <polygon class="cls-25" points="500.36 244.1 478.22 231.32 479.02 226.45 501.16 239.24 500.36 244.1"/>
                <polygon class="cls-25" points="511.71 250.66 503.74 246.05 504.54 241.19 512.51 245.79 511.71 250.66"/>
                <polygon class="cls-25" points="520.5 255.74 515.09 252.61 515.89 247.75 521.3 250.88 520.5 255.74"/>
                <polygon class="cls-25" points="488.45 249.39 476.39 242.42 477.19 237.56 489.25 244.53 488.45 249.39"/>
                <polygon class="cls-25" points="506.62 259.88 491.84 251.34 492.64 246.48 507.42 255.02 506.62 259.88"/>
                <polygon class="cls-25" points="515.41 264.96 510 261.83 510.8 256.97 516.21 260.1 515.41 264.96"/>
                <polygon class="cls-25" points="523.79 269.8 518.37 266.67 519.17 261.81 524.59 264.93 523.79 269.8"/>
                <polygon class="cls-25" points="483.29 258.57 474.57 253.53 475.36 248.67 484.09 253.71 483.29 258.57"/>
                <polygon class="cls-25" points="489.66 262.25 486.67 260.53 487.47 255.66 490.46 257.39 489.66 262.25"/>
                <polygon class="cls-25" points="498.45 267.33 493.04 264.2 493.84 259.34 499.25 262.47 498.45 267.33"/>
                <polygon class="cls-25" points="504.95 283.25 472.74 264.64 473.54 259.78 505.75 278.38 504.95 283.25"/>
                <polygon class="cls-25" points="516.3 289.8 508.33 285.2 509.13 280.34 517.1 284.94 516.3 289.8"/>
                <polygon class="cls-25" points="479.64 280.79 470.91 275.75 471.71 270.89 480.44 275.93 479.64 280.79"/>
                <polygon class="cls-25" points="500.12 292.62 483.02 282.74 483.82 277.88 500.92 287.76 500.12 292.62"/>
                <polygon class="cls-25" points="508.91 297.7 503.5 294.57 504.3 289.71 509.71 292.84 508.91 297.7"/>
                <polygon class="cls-25" points="486.94 297.17 469.08 286.86 469.88 282 487.74 292.31 486.94 297.17"/>
                <polygon class="cls-25" points="503.23 306.58 490.32 299.12 491.12 294.26 504.03 301.72 503.23 306.58"/>
                <polygon class="cls-25" points="515.34 313.58 506.61 308.54 507.41 303.67 516.14 308.71 515.34 313.58"/>
                <polygon class="cls-25" points="473.29 301.45 467.26 297.97 468.06 293.11 474.09 296.59 473.29 301.45"/>
                <polygon class="cls-25" points="484.64 308.01 476.67 303.4 477.47 298.54 485.44 303.14 484.64 308.01"/>
                <polygon class="cls-25" points="500.86 317.38 488.02 309.96 488.82 305.1 501.66 312.51 500.86 317.38"/>
                <polygon class="cls-25" points="483.9 319.75 465.43 309.08 466.23 304.21 484.7 314.88 483.9 319.75"/>
                <polygon class="cls-25" points="504.59 331.7 487.28 321.7 488.08 316.84 505.39 326.83 504.59 331.7"/>
                <polygon class="cls-25" points="513.39 336.78 507.97 333.65 508.77 328.79 514.19 331.91 513.39 336.78"/>
                <polygon class="cls-25" points="521.83 341.65 516.42 338.53 517.22 333.66 522.63 336.79 521.83 341.65"/>
                <polygon class="cls-25" points="474.67 326.58 463.6 320.19 464.4 315.32 475.47 321.71 474.67 326.58"/>
                <polygon class="cls-25" points="535.58 264.44 550.92 273.31 551.72 268.44 536.38 259.58 535.58 264.44"/>
                <polygon class="cls-25" points="537.04 277.45 549.1 284.42 549.9 279.55 537.84 272.59 537.04 277.45"/>
                <polygon class="cls-25" points="538.54 290.48 547.27 295.52 548.07 290.66 539.34 285.62 538.54 290.48"/>
                <polygon class="cls-25" points="532.75 299.3 545.44 306.63 546.24 301.77 533.55 294.44 532.75 299.3"/>
                <polygon class="cls-25" points="534.89 312.7 543.61 317.74 544.41 312.88 535.69 307.84 534.89 312.7"/>
                <polygon class="cls-25" points="530.72 322.46 541.79 328.85 542.59 323.99 531.52 317.6 530.72 322.46"/>
                <polygon class="cls-25" points="533.93 336.48 539.96 339.96 540.76 335.1 534.73 331.61 533.93 336.48"/>
                <polygon class="cls-25" points="526.45 344.32 538.13 351.07 538.93 346.2 527.25 339.46 526.45 344.32"/>
                <polygon class="cls-25" points="525.24 355.78 536.3 362.18 537.1 357.31 526.04 350.92 525.24 355.78"/>
                <polygon class="cls-25" points="482.76 331.25 478.05 328.53 478.85 323.67 483.56 326.39 482.76 331.25"/>
                <polygon class="cls-25" points="496.73 339.32 486.14 333.2 486.94 328.34 497.53 334.46 496.73 339.32"/>
              </g>
              <g>
                <polygon class="cls-25" points="614.08 197.07 591.95 184.29 592.75 179.42 614.88 192.21 614.08 197.07"/>
                <polygon class="cls-25" points="625.43 203.63 617.46 199.02 618.26 194.16 626.23 198.76 625.43 203.63"/>
                <polygon class="cls-25" points="634.23 208.71 628.81 205.58 629.61 200.72 635.03 203.84 634.23 208.71"/>
                <polygon class="cls-25" points="602.18 202.36 590.12 195.39 590.92 190.53 602.98 197.5 602.18 202.36"/>
                <polygon class="cls-25" points="620.34 212.85 605.56 204.31 606.36 199.45 621.14 207.99 620.34 212.85"/>
                <polygon class="cls-25" points="629.14 217.93 623.72 214.8 624.52 209.94 629.94 213.07 629.14 217.93"/>
                <polygon class="cls-25" points="637.51 222.77 632.1 219.64 632.9 214.78 638.31 217.9 637.51 222.77"/>
                <polygon class="cls-24" points="597.02 211.54 588.29 206.5 589.09 201.64 597.82 206.68 597.02 211.54"/>
                <polygon class="cls-24" points="603.38 215.22 600.4 213.5 601.2 208.63 604.18 210.36 603.38 215.22"/>
                <polygon class="cls-25" points="612.18 220.3 606.76 217.17 607.56 212.31 612.98 215.44 612.18 220.3"/>
                <polygon class="cls-25" points="618.67 236.21 586.46 217.61 587.26 212.75 619.47 231.35 618.67 236.21"/>
                <polygon class="cls-25" points="630.03 242.77 622.06 238.17 622.86 233.3 630.83 237.91 630.03 242.77"/>
                <polygon class="cls-25" points="593.36 233.76 584.64 228.72 585.44 223.86 594.16 228.9 593.36 233.76"/>
                <polygon class="cls-25" points="613.84 245.59 596.75 235.71 597.54 230.85 614.64 240.73 613.84 245.59"/>
                <polygon class="cls-25" points="622.64 250.67 617.23 247.54 618.03 242.68 623.44 245.81 622.64 250.67"/>
                <polygon class="cls-25" points="600.66 250.14 582.81 239.83 583.61 234.97 601.46 245.28 600.66 250.14"/>
                <polygon class="cls-24" points="616.96 259.55 604.05 252.09 604.85 247.23 617.76 254.69 616.96 259.55"/>
                <polygon class="cls-25" points="629.07 266.54 620.34 261.5 621.14 256.64 629.87 261.68 629.07 266.54"/>
                <polygon class="cls-25" points="587.01 254.42 580.98 250.94 581.78 246.07 587.81 249.56 587.01 254.42"/>
                <polygon class="cls-25" points="598.36 260.98 590.39 256.37 591.19 251.51 599.16 256.11 598.36 260.98"/>
                <polygon class="cls-25" points="614.59 270.35 601.75 262.93 602.55 258.07 615.39 265.48 614.59 270.35"/>
                <polygon class="cls-25" points="597.63 272.71 579.15 262.05 579.95 257.18 598.43 267.85 597.63 272.71"/>
                <polygon class="cls-25" points="618.32 284.66 601.01 274.67 601.81 269.8 619.12 279.8 618.32 284.66"/>
                <polygon class="cls-24" points="627.11 289.75 621.7 286.62 622.5 281.75 627.91 284.88 627.11 289.75"/>
                <polygon class="cls-25" points="635.56 294.62 630.14 291.49 630.94 286.63 636.36 289.76 635.56 294.62"/>
                <polygon class="cls-25" points="588.4 279.55 577.33 273.15 578.13 268.29 589.2 274.68 588.4 279.55"/>
                <polygon class="cls-24" points="649.3 217.41 664.65 226.28 665.45 221.41 650.1 212.55 649.3 217.41"/>
                <polygon class="cls-25" points="650.76 230.42 662.82 237.38 663.62 232.52 651.56 225.56 650.76 230.42"/>
                <polygon class="cls-25" points="652.27 243.45 661 248.49 661.8 243.63 653.07 238.59 652.27 243.45"/>
                <polygon class="cls-25" points="646.47 252.27 659.17 259.6 659.97 254.74 647.27 247.41 646.47 252.27"/>
                <polygon class="cls-25" points="648.61 265.67 657.34 270.71 658.14 265.85 649.41 260.81 648.61 265.67"/>
                <polygon class="cls-25" points="644.45 275.43 655.51 281.82 656.31 276.96 645.25 270.56 644.45 275.43"/>
                <polygon class="cls-25" points="647.66 289.44 653.69 292.93 654.49 288.07 648.46 284.58 647.66 289.44"/>
                <polygon class="cls-25" points="640.17 297.29 651.86 304.04 652.66 299.17 640.97 292.42 640.17 297.29"/>
                <polygon class="cls-25" points="638.96 308.75 650.03 315.15 650.83 310.28 639.76 303.89 638.96 308.75"/>
                <polygon class="cls-25" points="596.48 284.22 591.78 281.5 592.58 276.64 597.28 279.35 596.48 284.22"/>
                <polygon class="cls-25" points="610.46 292.29 599.86 286.17 600.66 281.31 611.26 287.43 610.46 292.29"/>
                <polygon class="cls-25" points="699.95 246.46 677.82 233.67 678.61 228.81 700.75 241.59 699.95 246.46"/>
                <polygon class="cls-25" points="711.3 253.01 703.33 248.41 704.13 243.55 712.1 248.15 711.3 253.01"/>
                <polygon class="cls-24" points="720.1 258.09 714.68 254.97 715.48 250.1 720.9 253.23 720.1 258.09"/>
                <polygon class="cls-25" points="688.05 251.75 675.99 244.78 676.79 239.92 688.85 246.88 688.05 251.75"/>
                <polygon class="cls-25" points="706.21 262.24 691.43 253.7 692.23 248.84 707.01 257.37 706.21 262.24"/>
                <polygon class="cls-24" points="715.01 267.32 709.59 264.19 710.39 259.33 715.81 262.45 715.01 267.32"/>
                <polygon class="cls-25" points="723.38 272.15 717.96 269.02 718.76 264.16 724.18 267.29 723.38 272.15"/>
                <polygon class="cls-25" points="682.89 260.93 674.16 255.89 674.96 251.03 683.69 256.07 682.89 260.93"/>
                <polygon class="cls-25" points="689.25 264.6 686.27 262.88 687.07 258.02 690.05 259.74 689.25 264.6"/>
                <polygon class="cls-25" points="698.05 269.69 692.63 266.56 693.43 261.69 698.85 264.82 698.05 269.69"/>
                <polygon class="cls-25" points="704.54 285.6 672.33 267 673.13 262.13 705.34 280.74 704.54 285.6"/>
                <polygon class="cls-25" points="715.89 292.16 707.92 287.55 708.72 282.69 716.69 287.29 715.89 292.16"/>
                <polygon class="cls-25" points="679.23 283.15 670.51 278.11 671.31 273.24 680.03 278.28 679.23 283.15"/>
                <polygon class="cls-25" points="699.71 294.97 682.61 285.1 683.41 280.24 700.51 290.11 699.71 294.97"/>
                <polygon class="cls-25" points="708.51 300.06 703.09 296.93 703.89 292.06 709.31 295.19 708.51 300.06"/>
                <polygon class="cls-24" points="686.53 299.53 668.68 289.21 669.48 284.35 687.33 294.66 686.53 299.53"/>
                <polygon class="cls-25" points="702.83 308.94 689.92 301.48 690.72 296.62 703.63 304.07 702.83 308.94"/>
                <polygon class="cls-25" points="714.94 315.93 706.21 310.89 707.01 306.03 715.74 311.07 714.94 315.93"/>
                <polygon class="cls-25" points="672.88 303.81 666.85 300.32 667.65 295.46 673.68 298.94 672.88 303.81"/>
                <polygon class="cls-25" points="684.23 310.36 676.26 305.76 677.06 300.9 685.03 305.5 684.23 310.36"/>
                <polygon class="cls-24" points="700.46 319.73 687.62 312.32 688.41 307.45 701.26 314.87 700.46 319.73"/>
                <polygon class="cls-25" points="683.5 322.1 665.02 311.43 665.82 306.57 684.3 317.24 683.5 322.1"/>
                <polygon class="cls-25" points="704.19 334.05 686.88 324.05 687.68 319.19 704.99 329.19 704.19 334.05"/>
                <polygon class="cls-25" points="712.98 339.13 707.57 336 708.37 331.14 713.78 334.27 712.98 339.13"/>
                <polygon class="cls-25" points="721.43 344.01 716.01 340.88 716.81 336.02 722.23 339.15 721.43 344.01"/>
                <polygon class="cls-25" points="674.26 328.93 663.2 322.54 664 317.68 675.06 324.07 674.26 328.93"/>
                <polygon class="cls-24" points="735.17 266.8 750.52 275.66 751.32 270.8 735.97 261.93 735.17 266.8"/>
                <polygon class="cls-25" points="736.63 279.8 748.69 286.77 749.49 281.91 737.43 274.94 736.63 279.8"/>
                <polygon class="cls-25" points="738.14 292.84 746.86 297.88 747.66 293.02 738.94 287.98 738.14 292.84"/>
                <polygon class="cls-25" points="732.34 301.66 745.04 308.99 745.84 304.13 733.14 296.79 732.34 301.66"/>
                <polygon class="cls-25" points="734.48 315.06 743.21 320.1 744.01 315.23 735.28 310.19 734.48 315.06"/>
                <polygon class="cls-25" points="730.31 324.81 741.38 331.21 742.18 326.34 731.11 319.95 730.31 324.81"/>
                <polygon class="cls-25" points="733.52 338.83 739.55 342.31 740.35 337.45 734.32 333.97 733.52 338.83"/>
                <polygon class="cls-25" points="726.04 346.67 737.73 353.42 738.53 348.56 726.84 341.81 726.04 346.67"/>
                <polygon class="cls-25" points="724.83 358.14 735.9 364.53 736.7 359.67 725.63 353.28 724.83 358.14"/>
                <polygon class="cls-24" points="682.35 333.6 677.65 330.89 678.45 326.02 683.15 328.74 682.35 333.6"/>
                <polygon class="cls-25" points="696.33 341.68 685.73 335.56 686.53 330.69 697.13 336.81 696.33 341.68"/>
                <polygon class="cls-25" points="597.62 297.11 575.49 284.33 576.29 279.46 598.42 292.25 597.62 297.11"/>
                <polygon class="cls-25" points="608.98 303.67 601.01 299.07 601.81 294.2 609.78 298.81 608.98 303.67"/>
                <polygon class="cls-25" points="617.77 308.75 612.36 305.62 613.16 300.76 618.57 303.89 617.77 308.75"/>
                <polygon class="cls-25" points="585.72 302.4 573.66 295.44 574.46 290.57 586.52 297.54 585.72 302.4"/>
                <polygon class="cls-25" points="603.89 312.89 589.11 304.36 589.9 299.49 604.69 308.03 603.89 312.89"/>
                <polygon class="cls-25" points="612.68 317.97 607.27 314.85 608.07 309.98 613.48 313.11 612.68 317.97"/>
                <polygon class="cls-25" points="621.05 322.81 615.64 319.68 616.44 314.82 621.85 317.95 621.05 322.81"/>
                <polygon class="cls-25" points="580.56 311.58 571.83 306.54 572.63 301.68 581.36 306.72 580.56 311.58"/>
                <polygon class="cls-25" points="586.93 315.26 583.94 313.54 584.74 308.67 587.73 310.4 586.93 315.26"/>
                <polygon class="cls-25" points="595.72 320.34 590.31 317.21 591.11 312.35 596.52 315.48 595.72 320.34"/>
                <polygon class="cls-25" points="602.22 336.26 570.01 317.65 570.81 312.79 603.02 331.39 602.22 336.26"/>
                <polygon class="cls-25" points="613.57 342.81 605.6 338.21 606.4 333.35 614.37 337.95 613.57 342.81"/>
                <polygon class="cls-25" points="576.91 333.8 568.18 328.76 568.98 323.9 577.71 328.94 576.91 333.8"/>
                <polygon class="cls-25" points="597.39 345.63 580.29 335.76 581.09 330.89 598.19 340.77 597.39 345.63"/>
                <polygon class="cls-25" points="606.18 350.71 600.77 347.58 601.57 342.72 606.98 345.85 606.18 350.71"/>
                <polygon class="cls-25" points="584.21 350.18 566.35 339.87 567.15 335.01 585.01 345.32 584.21 350.18"/>
                <polygon class="cls-25" points="600.5 359.59 587.59 352.14 588.39 347.27 601.3 354.73 600.5 359.59"/>
                <polygon class="cls-25" points="612.61 366.59 603.88 361.55 604.68 356.68 613.41 361.72 612.61 366.59"/>
                <polygon class="cls-25" points="570.56 354.46 564.53 350.98 565.33 346.12 571.36 349.6 570.56 354.46"/>
                <polygon class="cls-25" points="581.91 361.02 573.94 356.42 574.74 351.55 582.71 356.16 581.91 361.02"/>
                <polygon class="cls-25" points="598.13 370.39 585.29 362.97 586.09 358.11 598.93 365.53 598.13 370.39"/>
                <polygon class="cls-25" points="581.17 372.76 562.7 362.09 563.5 357.22 581.97 367.89 581.17 372.76"/>
                <polygon class="cls-25" points="601.86 384.71 584.55 374.71 585.35 369.85 602.66 379.84 601.86 384.71"/>
                <polygon class="cls-25" points="610.66 389.79 605.24 386.66 606.04 381.8 611.46 384.93 610.66 389.79"/>
                <polygon class="cls-25" points="619.1 394.66 613.69 391.54 614.49 386.67 619.9 389.8 619.1 394.66"/>
                <polygon class="cls-25" points="571.94 379.59 560.87 373.2 561.67 368.33 572.74 374.73 571.94 379.59"/>
                <polygon class="cls-25" points="632.85 317.45 648.19 326.32 648.99 321.46 633.65 312.59 632.85 317.45"/>
                <polygon class="cls-25" points="634.3 330.46 646.37 337.43 647.17 332.56 635.1 325.6 634.3 330.46"/>
                <polygon class="cls-25" points="635.81 343.5 644.54 348.54 645.34 343.67 636.61 338.63 635.81 343.5"/>
                <polygon class="cls-25" points="630.02 352.31 642.71 359.64 643.51 354.78 630.82 347.45 630.02 352.31"/>
                <polygon class="cls-25" points="632.16 365.71 640.88 370.75 641.68 365.89 632.96 360.85 632.16 365.71"/>
                <polygon class="cls-25" points="627.99 375.47 639.06 381.86 639.86 377 628.79 370.61 627.99 375.47"/>
                <polygon class="cls-25" points="631.2 389.49 637.23 392.97 638.03 388.11 632 384.62 631.2 389.49"/>
                <polygon class="cls-25" points="623.72 397.33 635.4 404.08 636.2 399.22 624.52 392.47 623.72 397.33"/>
                <polygon class="cls-25" points="622.51 408.8 633.57 415.19 634.37 410.32 623.31 403.93 622.51 408.8"/>
                <polygon class="cls-25" points="580.03 384.26 575.32 381.54 576.12 376.68 580.83 379.4 580.03 384.26"/>
                <polygon class="cls-25" points="594 392.33 583.41 386.21 584.21 381.35 594.8 387.47 594 392.33"/>
                <polygon class="cls-25" points="683.49 346.5 661.36 333.71 662.16 328.85 684.29 341.63 683.49 346.5"/>
                <polygon class="cls-25" points="694.85 353.05 686.88 348.45 687.68 343.59 695.65 348.19 694.85 353.05"/>
                <polygon class="cls-25" points="703.64 358.14 698.23 355.01 699.03 350.14 704.44 353.27 703.64 358.14"/>
                <polygon class="cls-25" points="671.59 351.79 659.53 344.82 660.33 339.96 672.39 346.92 671.59 351.79"/>
                <polygon class="cls-25" points="689.75 362.28 674.97 353.74 675.77 348.88 690.55 357.42 689.75 362.28"/>
                <polygon class="cls-25" points="698.55 367.36 693.14 364.23 693.94 359.37 699.35 362.5 698.55 367.36"/>
                <polygon class="cls-25" points="706.92 372.19 701.51 369.07 702.31 364.2 707.72 367.33 706.92 372.19"/>
                <polygon class="cls-25" points="666.43 360.97 657.7 355.93 658.5 351.07 667.23 356.11 666.43 360.97"/>
                <polygon class="cls-25" points="672.79 364.65 669.81 362.92 670.61 358.06 673.59 359.78 672.79 364.65"/>
                <polygon class="cls-25" points="681.59 369.73 676.18 366.6 676.98 361.74 682.39 364.86 681.59 369.73"/>
                <polygon class="cls-25" points="688.09 385.64 655.88 367.04 656.68 362.18 688.89 380.78 688.09 385.64"/>
                <polygon class="cls-25" points="699.44 392.2 691.47 387.6 692.27 382.73 700.24 387.34 699.44 392.2"/>
                <polygon class="cls-25" points="662.78 383.19 654.05 378.15 654.85 373.29 663.58 378.33 662.78 383.19"/>
                <polygon class="cls-25" points="683.26 395.02 666.16 385.14 666.96 380.28 684.06 390.15 683.26 395.02"/>
                <polygon class="cls-25" points="692.05 400.1 686.64 396.97 687.44 392.11 692.85 395.23 692.05 400.1"/>
                <polygon class="cls-25" points="670.08 399.57 652.22 389.26 653.02 384.39 670.88 394.71 670.08 399.57"/>
                <polygon class="cls-25" points="686.37 408.98 673.46 401.52 674.26 396.66 687.17 404.12 686.37 408.98"/>
                <polygon class="cls-25" points="698.48 415.97 689.75 410.93 690.55 406.07 699.28 411.11 698.48 415.97"/>
                <polygon class="cls-25" points="656.43 403.85 650.39 400.37 651.19 395.5 657.22 398.99 656.43 403.85"/>
                <polygon class="cls-25" points="667.78 410.4 659.81 405.8 660.61 400.94 668.58 405.54 667.78 410.4"/>
                <polygon class="cls-25" points="684 419.77 671.16 412.36 671.96 407.49 684.8 414.91 684 419.77"/>
                <polygon class="cls-25" points="667.04 422.14 648.57 411.47 649.37 406.61 667.84 417.28 667.04 422.14"/>
                <polygon class="cls-25" points="687.73 434.09 670.42 424.1 671.22 419.23 688.53 429.23 687.73 434.09"/>
                <polygon class="cls-25" points="696.53 439.17 691.11 436.05 691.91 431.18 697.33 434.31 696.53 439.17"/>
                <polygon class="cls-25" points="704.97 444.05 699.55 440.92 700.35 436.06 705.77 439.19 704.97 444.05"/>
                <polygon class="cls-25" points="657.81 428.97 646.74 422.58 647.54 417.72 658.61 424.11 657.81 428.97"/>
                <polygon class="cls-25" points="718.71 366.84 734.06 375.7 734.86 370.84 719.51 361.98 718.71 366.84"/>
                <polygon class="cls-25" points="720.17 379.85 732.24 386.81 733.03 381.95 720.97 374.98 720.17 379.85"/>
                <polygon class="cls-25" points="721.68 392.88 730.41 397.92 731.21 393.06 722.48 388.02 721.68 392.88"/>
                <polygon class="cls-25" points="715.89 401.7 728.58 409.03 729.38 404.17 716.69 396.84 715.89 401.7"/>
                <polygon class="cls-25" points="718.03 415.1 726.75 420.14 727.55 415.28 718.83 410.24 718.03 415.1"/>
                <polygon class="cls-25" points="713.86 424.86 724.93 431.25 725.73 426.38 714.66 419.99 713.86 424.86"/>
                <polygon class="cls-25" points="717.07 438.87 723.1 442.36 723.9 437.49 717.87 434.01 717.07 438.87"/>
                <polygon class="cls-25" points="709.59 446.72 721.27 453.46 722.07 448.6 710.39 441.85 709.59 446.72"/>
                <polygon class="cls-25" points="708.38 458.18 719.44 464.57 720.24 459.71 709.18 453.32 708.38 458.18"/>
                <polygon class="cls-25" points="665.9 433.65 661.19 430.93 661.99 426.06 666.7 428.78 665.9 433.65"/>
                <polygon class="cls-25" points="679.87 441.72 669.28 435.6 670.08 430.74 680.67 436.86 679.87 441.72"/>
              </g>
            </g>
            <g>
              <g>
                <path class="cls-24" d="m491.98,547.19c-27.72,0-53.76-6.22-73.32-17.52h0c-19.9-11.49-30.86-26.87-30.86-43.3s10.96-31.81,30.87-43.3c40.43-23.34,106.21-23.34,146.64,0,19.9,11.49,30.86,26.87,30.86,43.3s-10.96,31.81-30.86,43.3c-19.57,11.3-45.61,17.52-73.32,17.52Zm0-120.41c-26.33,0-52.66,5.78-72.7,17.36-19.5,11.26-30.25,26.26-30.25,42.23s10.74,30.97,30.24,42.23h0c19.38,11.19,45.2,17.35,72.7,17.35s53.32-6.16,72.71-17.35c19.5-11.26,30.24-26.26,30.24-42.23s-10.74-30.97-30.24-42.23c-20.04-11.57-46.38-17.36-72.7-17.36Z"/>
                <g class="cls-51">
                  <ellipse class="cls-20" cx="491.98" cy="486.37" rx="76.96" ry="44.43"/>
                </g>
                <g>
                  <g>
                    <path class="cls-28" d="m397.73,452.87v-20.91h7.23c4.6-6.39,11.38-12.37,20.38-17.57,36.81-21.25,96.49-21.25,133.29,0,9,5.19,15.78,11.18,20.38,17.57h7.23v20.91h0c0,13.93-9.2,27.85-27.61,38.48-36.81,21.25-96.49,21.25-133.29,0-18.4-10.63-27.61-24.55-27.6-38.48Z"/>
                    <ellipse class="cls-19" cx="491.98" cy="431.96" rx="94.25" ry="54.42"/>
                  </g>
                  <g>
                    <path class="cls-20" d="m404.94,431.16v-28.54h6.68c4.25-5.9,10.51-11.43,18.82-16.22,33.99-19.63,89.11-19.63,123.1,0,8.31,4.8,14.57,10.33,18.82,16.22h6.67v28.54h0c0,12.86-8.5,25.72-25.5,35.54-33.99,19.63-89.11,19.63-123.1,0-17-9.81-25.49-22.68-25.49-35.54Z"/>
                    <g class="cls-52">
                      <path class="cls-22" d="m404.94,424.29v-28.54h6.68c4.25-5.9,10.51-11.43,18.82-16.22,33.99-19.63,89.11-19.63,123.1,0,8.31,4.8,14.57,10.33,18.82,16.22h6.67v28.54h0c0,12.86-8.5,25.72-25.5,35.54-33.99,19.63-89.11,19.63-123.1,0-17-9.81-25.49-22.68-25.49-35.54Z"/>
                    </g>
                    <ellipse class="cls-19" cx="491.98" cy="402.61" rx="87.04" ry="50.25"/>
                  </g>
                  <g>
                    <g class="cls-52">
                      <path class="cls-26" d="m432.01,439.6c14.96,19.06,34.7,29.24,51.39,34.7-19.34-1.1-38.16-5.92-52.97-14.47-17-9.81-25.49-22.68-25.49-35.54v-8.53c8.8,4.92,18.13,12.44,27.08,23.84Z"/>
                    </g>
                    <path class="cls-2" d="m397.73,402.16v-20.91h7.23c4.6-6.39,11.38-12.37,20.38-17.57,36.81-21.25,96.49-21.25,133.29,0,9,5.19,15.78,11.18,20.38,17.57h7.23v20.91h0c0,13.93-9.2,27.85-27.61,38.48-36.81,21.25-96.49,21.25-133.29,0-18.4-10.63-27.61-24.55-27.6-38.48Z"/>
                    <ellipse class="cls-19" cx="491.98" cy="381.25" rx="94.25" ry="54.42"/>
                  </g>
                  <g>
                    <path class="cls-20" d="m404.94,379.39v-28.54h6.68c4.25-5.9,10.51-11.43,18.82-16.22,33.99-19.63,89.11-19.63,123.1,0,8.31,4.8,14.57,10.33,18.82,16.22h6.67v28.54h0c0,12.86-8.5,25.72-25.5,35.54-33.99,19.63-89.11,19.63-123.1,0-17-9.81-25.49-22.68-25.49-35.54Z"/>
                    <g class="cls-52">
                      <path class="cls-22" d="m404.94,372.86v-28.54h6.68c4.25-5.9,10.51-11.43,18.82-16.22,33.99-19.63,89.11-19.63,123.1,0,8.31,4.8,14.57,10.33,18.82,16.22h6.67v28.54h0c0,12.86-8.5,25.72-25.5,35.54-33.99,19.63-89.11,19.63-123.1,0-17-9.81-25.49-22.68-25.49-35.54Z"/>
                    </g>
                    <ellipse class="cls-19" cx="491.98" cy="350.85" rx="87.04" ry="50.25"/>
                  </g>
                  <g>
                    <g class="cls-52">
                      <path class="cls-26" d="m432.01,385.15c18.6,23.69,44.57,33.67,62.91,37.89-23.25.45-46.75-4.39-64.49-14.64-17-9.81-25.49-22.68-25.49-35.54v-11.55c8.8,4.92,18.13,12.44,27.08,23.84Z"/>
                    </g>
                    <path class="cls-3" d="m397.73,350.39v-20.91h7.23c4.6-6.39,11.38-12.37,20.38-17.57,36.81-21.25,96.49-21.25,133.29,0,9,5.19,15.78,11.18,20.38,17.57h7.23v20.91h0c0,13.93-9.2,27.85-27.61,38.48-36.81,21.25-96.49,21.25-133.29,0-18.4-10.63-27.61-24.55-27.6-38.48Z"/>
                    <ellipse class="cls-19" cx="491.98" cy="329.48" rx="94.25" ry="54.42"/>
                  </g>
                  <g>
                    <path class="cls-20" d="m404.94,327.63v-28.54h6.68c4.25-5.9,10.51-11.43,18.82-16.22,33.99-19.63,89.11-19.63,123.1,0,8.31,4.8,14.57,10.33,18.82,16.22h6.67v28.54h0c0,12.86-8.5,25.72-25.5,35.54-33.99,19.63-89.11,19.63-123.1,0-17-9.81-25.49-22.68-25.49-35.54Z"/>
                    <g class="cls-52">
                      <path class="cls-22" d="m404.94,319.64v-28.54h6.68c4.25-5.9,10.51-11.43,18.82-16.22,33.99-19.63,89.11-19.63,123.1,0,8.31,4.8,14.57,10.33,18.82,16.22h6.67v28.54h0c0,12.86-8.5,25.72-25.5,35.54-33.99,19.63-89.11,19.63-123.1,0-17-9.81-25.49-22.68-25.49-35.54Z"/>
                    </g>
                    <ellipse class="cls-19" cx="491.98" cy="299.09" rx="87.04" ry="50.25"/>
                  </g>
                  <g>
                    <path class="cls-8" d="m397.73,298.63v-20.91h7.23c4.6-6.39,11.38-12.37,20.38-17.57,36.81-21.25,96.49-21.25,133.29,0,9,5.19,15.78,11.18,20.38,17.57h7.23v20.91h0c0,13.93-9.2,27.85-27.61,38.48-36.81,21.25-96.49,21.25-133.29,0-18.4-10.63-27.61-24.55-27.6-38.48Z"/>
                    <ellipse class="cls-19" cx="491.98" cy="277.72" rx="94.25" ry="54.42"/>
                    <ellipse class="cls-19" cx="491.98" cy="277.72" rx="94.25" ry="54.42"/>
                  </g>
                  <g>
                    <g class="cls-52">
                      <path class="cls-26" d="m432.01,330.71c20.43,26.02,49.75,35.51,68.07,38.97-24.9,1.34-50.6-3.49-69.66-14.5-17-9.81-25.49-22.68-25.49-35.54v-12.77c8.8,4.92,18.13,12.44,27.08,23.84Z"/>
                    </g>
                    <path class="cls-7" d="m397.73,298.63v-20.91h7.23c4.6-6.39,11.38-12.37,20.38-17.57,36.81-21.25,96.49-21.25,133.29,0,9,5.19,15.78,11.18,20.38,17.57h7.23v20.91h0c0,13.93-9.2,27.85-27.61,38.48-36.81,21.25-96.49,21.25-133.29,0-18.4-10.63-27.61-24.55-27.6-38.48Z"/>
                    <ellipse class="cls-19" cx="491.98" cy="277.72" rx="94.25" ry="54.42"/>
                    <ellipse class="cls-19" cx="491.98" cy="277.72" rx="94.25" ry="54.42"/>
                    <path class="cls-18" d="m424.8,314.55c36.81,21.25,96.48,21.25,133.29,0,22.54-13.01,31.25-30.98,26.19-47.83,6.17,17.32-2.37,36.04-25.65,49.48-36.81,21.25-96.49,21.25-133.29,0-14.27-8.24-22.98-18.46-26.18-29.13,3.58,10.07,12.12,19.66,25.65,27.47Z"/>
                    <path class="cls-18" d="m424.8,366.31c36.81,21.25,96.48,21.25,133.29,0,22.54-13.01,31.25-30.98,26.19-47.83,6.17,17.32-2.37,36.04-25.65,49.48-36.81,21.25-96.49,21.25-133.29,0-14.27-8.24-22.98-18.46-26.18-29.13,3.58,10.07,12.12,19.66,25.65,27.47Z"/>
                    <path class="cls-18" d="m424.8,418.07c36.81,21.25,96.48,21.25,133.29,0,22.54-13.01,31.25-30.98,26.19-47.83,6.17,17.32-2.37,36.04-25.65,49.48-36.81,21.25-96.49,21.25-133.29,0-14.27-8.24-22.98-18.46-26.18-29.13,3.58,10.07,12.12,19.66,25.65,27.47Z"/>
                    <path class="cls-18" d="m424.8,469.84c36.81,21.25,96.48,21.25,133.29,0,22.54-13.01,31.25-30.98,26.19-47.83,6.17,17.32-2.37,36.04-25.65,49.48-36.81,21.25-96.49,21.25-133.29,0-14.27-8.24-22.98-18.46-26.18-29.13,3.58,10.07,12.12,19.66,25.65,27.47Z"/>
                  </g>
                  <g class="cls-63">
                    <path class="cls-39" d="m577.55,300.57h-85.57v-50.46h81.24c15.76,15.43,17.2,34.39,4.33,50.46Z"/>
                  </g>
                  <g>
                    <path class="cls-6" d="m443.59,272.63v-10.74h3.71c2.36-3.28,5.84-6.35,10.46-9.02,18.9-10.91,49.54-10.91,68.44,0,4.62,2.67,8.1,5.74,10.46,9.02h3.71v10.74h0c0,7.15-4.73,14.3-14.17,19.76-18.9,10.91-49.54,10.91-68.44,0-9.45-5.46-14.17-12.61-14.17-19.76Z"/>
                    <ellipse class="cls-19" cx="491.98" cy="261.9" rx="48.39" ry="27.94"/>
                    <ellipse class="cls-59" cx="491.98" cy="261.9" rx="48.39" ry="27.94"/>
                    <path class="cls-20" d="m468.94,275.2c12.72,7.35,33.35,7.35,46.08,0,3.97-2.29,6.71-5.03,8.2-7.94,3.29-6.4-4.93-11.04-13.68-16.1-12.72-7.35-21.75-9.17-34.47-1.82-8.75,5.05-17.61,11.51-14.33,17.91,1.49,2.91,4.22,5.65,8.2,7.95Z"/>
                    <path class="cls-27" d="m515.02,259.33c-12.72-7.35-33.35-7.35-46.08,0-3.97,2.29-6.7,5.03-8.19,7.93-3.29-6.4-.56-13.62,8.19-18.67,12.72-7.35,33.36-7.35,46.08,0,8.75,5.05,11.48,12.27,8.19,18.67-1.49-2.9-4.22-5.64-8.19-7.93Z"/>
                  </g>
                </g>
                <g>
                  <g class="cls-52">
                    <path class="cls-17" d="m438.92,357.14c6.35,2.5,11.09,1.82,10.59-1.51-.5-3.33-6.05-8.06-12.4-10.57-6.35-2.5-11.09-1.82-10.59,1.51.5,3.33,6.05,8.06,12.4,10.57Z"/>
                  </g>
                  <g class="cls-52">
                    <path class="cls-17" d="m438.92,409.64c6.35,2.5,11.09,1.82,10.59-1.51-.5-3.33-6.05-8.06-12.4-10.57-6.35-2.5-11.09-1.82-10.59,1.51.5,3.33,6.05,8.06,12.4,10.57Z"/>
                  </g>
                  <g class="cls-52">
                    <path class="cls-17" d="m438.58,462.49c6.35,2.5,11.09,1.82,10.59-1.51-.5-3.33-6.05-8.07-12.4-10.57-6.35-2.5-11.09-1.82-10.59,1.51s6.05,8.06,12.4,10.57Z"/>
                  </g>
                  <g class="cls-52">
                    <path class="cls-17" d="m420.84,343.96c1.5,1.07,3.36,1.01,4.18-.12.81-1.14.26-2.92-1.24-3.99-1.49-1.07-3.36-1.01-4.18.12-.81,1.14-.26,2.92,1.24,3.99Z"/>
                  </g>
                  <g class="cls-52">
                    <path class="cls-17" d="m420.84,396.7c1.5,1.07,3.36,1.01,4.18-.12.81-1.14.26-2.92-1.24-3.99-1.49-1.07-3.36-1.01-4.18.12-.81,1.14-.26,2.92,1.24,3.99Z"/>
                  </g>
                  <g class="cls-52">
                    <path class="cls-17" d="m420.84,449.26c1.5,1.07,3.36,1.01,4.18-.12.81-1.14.26-2.92-1.24-3.99-1.49-1.07-3.36-1.01-4.18.12-.81,1.14-.26,2.92,1.24,3.99Z"/>
                  </g>
                </g>
              </g>
              <g>
                <path class="cls-24" d="m434.73,598.34c-1.56,0-3.05-.32-4.2-.98h0l-206.19-119.05c-1.2-.69-1.86-1.68-1.86-2.77,0-1.28.91-2.54,2.5-3.45l42.85-24.74c2.85-1.65,7.05-1.82,9.55-.37l206.19,119.04c1.2.69,1.86,1.68,1.86,2.78,0,1.28-.91,2.53-2.5,3.45l-42.85,24.74c-1.55.9-3.5,1.35-5.35,1.35Zm-3.58-2.05c2.12,1.22,5.85,1.05,8.31-.37l42.85-24.74c1.19-.69,1.88-1.56,1.88-2.38s-.67-1.38-1.24-1.71l-206.19-119.04c-2.12-1.22-5.84-1.05-8.31.37l-42.85,24.74c-1.19.69-1.88,1.56-1.88,2.39s.67,1.38,1.24,1.7l206.19,119.05Z"/>
                <g>
                  <path class="cls-5" d="m307.46,377.26c5.42,3.13,10.55,7.54,15.11,12.74,6.33-20.34,25.65-26.65,48.51-13.46,18.91,10.92,35.39,32.39,44.11,55.14,2.89.09,6.11,1.04,9.52,3.01,12.34,7.12,22.34,24.45,22.34,38.7,0,.31-.03.59-.04.89,3.52.24,7.41,1.49,11.5,3.85,15.78,9.11,28.58,31.27,28.58,49.49s-12.79,25.61-28.58,16.5l-151.04-87.2c-19.05-11-34.49-37.75-34.49-59.74s15.44-30.91,34.49-19.91Z"/>
                  <path class="cls-12" d="m307.46,377.26c3.14,1.81,6.18,4.07,9.07,6.65l16.89-9.76h0c9.28-6.52,22.71-6.23,37.66,2.4,18.91,10.92,35.39,32.39,44.11,55.14,2.89.09,6.11,1.04,9.52,3.01,12.34,7.12,22.34,24.45,22.34,38.7,0,.31-.03.59-.04.89,3.52.24,7.41,1.49,11.5,3.85,15.78,9.11,28.58,31.27,28.58,49.49,0,9.03-3.15,15.39-8.24,18.41h.01s-.13.08-.13.08c0,0-.02.01-.03.02l-41.37,24.01-9.04-43.47-120.83-69.76c-19.05-11-34.49-37.75-34.49-59.74s15.44-30.91,34.49-19.91Z"/>
                  <path class="cls-4" d="m240.97,399.31l41.92-24.35h0c6.26-3.72,14.96-3.25,24.58,2.31,3.14,1.81,6.18,4.07,9.07,6.65l16.89-9.76h0c9.28-6.52,22.71-6.23,37.66,2.4,18.91,10.92,35.39,32.39,44.11,55.14,2.89.09,6.11,1.04,9.52,3.01,12.34,7.12,22.34,24.45,22.34,38.7,0,.31-.03.59-.04.89,3.52.24,7.41,1.49,11.5,3.85,15.78,9.11,28.58,31.27,28.58,49.49,0,9.03-3.15,15.39-8.24,18.41h.01s-.13.08-.13.08c0,0-.02.01-.03.02l-41.37,24.01-9.04-43.47-120.83-69.76c-15.44-8.92-28.51-28.18-32.91-46.87l-33.58-10.73Z"/>
                  <path class="cls-61" d="m265.96,401.35c5.42,3.13,10.55,7.54,15.11,12.74,6.33-20.34,25.65-26.65,48.51-13.46,18.91,10.92,35.39,32.39,44.11,55.14,2.89.09,6.11,1.04,9.52,3.01,12.34,7.12,22.34,24.45,22.34,38.7,0,.31-.03.59-.04.89,3.52.24,7.41,1.49,11.5,3.85,15.78,9.11,28.58,31.27,28.58,49.49s-12.79,25.61-28.58,16.5l-151.04-87.21c-19.05-11-34.49-37.75-34.49-59.74s15.44-30.91,34.49-19.91Z"/>
                  <g>
                    <path class="cls-18" d="m281.07,414.09c-4.56-5.21-9.69-9.62-15.11-12.74-11.67-6.74-21.97-5.99-28.21.64,6.11-7.67,16.9-8.88,29.2-1.78,5.25,3.03,10.22,7.27,14.67,12.26-.19.53-.38,1.07-.55,1.62Z"/>
                    <path class="cls-18" d="m445.58,551.71c0-18.22-12.79-40.38-28.58-49.49-4.09-2.36-7.98-3.61-11.5-3.85,0-.3.04-.58.04-.89,0-14.25-10-31.57-22.34-38.7-3.41-1.97-6.63-2.92-9.52-3.01-8.72-22.75-25.2-44.22-44.11-55.14-17.32-10-32.6-8.79-41.74,1.23,9.01-11.05,24.78-12.73,42.73-2.36,18.91,10.92,35.39,32.39,44.11,55.14,2.89.09,6.11,1.04,9.52,3.01,12.34,7.12,22.34,24.45,22.34,38.7,0,.31-.03.59-.04.89,3.52.24,7.41,1.49,11.5,3.85,15.78,9.11,28.58,31.27,28.58,49.49,0,7.16-1.99,12.61-5.35,16.08,2.75-3.48,4.36-8.52,4.36-14.95Z"/>
                  </g>
                </g>
              </g>
            </g>
          </g>
        </g>
      </g>
    </g>
  </g>
</svg>